<svg width="334" height="236" viewBox="0 0 334 236" fill="none" xmlns="http://www.w3.org/2000/svg">
<g filter="url(#filter0_d)">
<rect x="2" width="150" height="40" fill="#8DD3BA"/>
</g>
<g filter="url(#filter1_d)">
<rect x="178" width="150" height="40" fill="#D2FFEF"/>
</g>
<path d="M8.936 57.984V57.12H7.496L7.844 55.104H7.22L6.872 57.12H5.024L5.372 55.104H4.748L4.4 57.12H2.312V57.984H4.256L3.884 60.192H2.312V61.056H3.74L3.404 63H4.028L4.364 61.056H6.2L5.864 63H6.488L6.824 61.056H8.936V60.192H6.968L7.352 57.984H8.936ZM6.344 60.192H4.508L4.88 57.984H6.728L6.344 60.192ZM12.8662 63.108C14.7502 63.108 15.9502 62.208 15.9502 60.756C15.9502 59.784 15.2902 59.064 14.3422 58.896V58.884C15.1582 58.728 15.6142 58.044 15.6142 57.24C15.6142 55.836 14.5462 54.996 12.8662 54.996C11.1862 54.996 10.1182 55.836 10.1182 57.24C10.1182 58.044 10.5742 58.728 11.3902 58.884V58.896C10.4302 59.064 9.78219 59.784 9.78219 60.756C9.78219 62.208 10.9822 63.108 12.8662 63.108ZM12.8662 58.584C11.7622 58.584 11.0542 58.056 11.0542 57.24C11.0542 56.4 11.7622 55.86 12.8662 55.86C13.9702 55.86 14.6782 56.4 14.6782 57.24C14.6782 58.056 13.9702 58.584 12.8662 58.584ZM12.8662 62.244C11.5822 62.244 10.7662 61.656 10.7662 60.756C10.7662 59.88 11.5822 59.328 12.8662 59.328C14.1502 59.328 14.9662 59.88 14.9662 60.756C14.9662 61.656 14.1502 62.244 12.8662 62.244ZM17.4444 63H20.5764C22.8564 63 24.2604 61.512 24.2604 59.04C24.2604 56.592 22.7604 55.104 20.3244 55.104H17.4444V63ZM18.4524 62.088V56.016H20.3484C22.1484 56.016 23.2524 57.156 23.2524 59.04C23.2524 60.96 22.2324 62.088 20.5524 62.088H18.4524ZM25.8233 63H28.9553C31.2353 63 32.6393 61.512 32.6393 59.04C32.6393 56.592 31.1393 55.104 28.7033 55.104H25.8233V63ZM26.8313 62.088V56.016H28.7273C30.5273 56.016 31.6313 57.156 31.6313 59.04C31.6313 60.96 30.6113 62.088 28.9313 62.088H26.8313ZM36.7702 63.108C38.7262 63.108 39.9382 62.124 39.9382 60.576C39.9382 59.628 39.3622 58.944 38.4502 58.824V58.8C39.1342 58.644 39.5782 58.008 39.5782 57.228C39.5782 55.836 38.5102 54.996 36.8662 54.996C35.0422 54.996 33.9622 55.932 33.9622 57.384C33.9622 57.648 33.9862 57.912 34.0102 58.032H34.9222C34.9102 57.912 34.8982 57.744 34.8982 57.528C34.8982 56.52 35.5942 55.884 36.8662 55.884C37.9222 55.884 38.6182 56.424 38.6182 57.336C38.6182 58.104 38.1502 58.596 37.2382 58.596H36.1942V59.316H37.4302C38.3902 59.316 38.9542 59.724 38.9542 60.516C38.9542 61.596 38.1262 62.22 36.7702 62.22C35.4502 62.22 34.7182 61.62 34.7182 60.48C34.7182 60.42 34.7182 60.3 34.7302 60.096H33.8182C33.8062 60.228 33.7822 60.468 33.7822 60.636C33.7822 62.172 34.9462 63.108 36.7702 63.108ZM41.4444 63H44.9484C46.8804 63 47.6484 62.112 47.6484 60.72C47.6484 59.688 47.0484 58.968 45.9564 58.872V58.86C46.8924 58.74 47.3484 58.08 47.3484 57.168C47.3484 55.908 46.4964 55.104 44.6604 55.104H41.4444V63ZM42.4524 58.572V55.992H44.6484C45.8964 55.992 46.4124 56.508 46.4124 57.3C46.4124 58.08 45.9084 58.572 44.7924 58.572H42.4524ZM42.4524 62.112V59.316H44.8644C46.0164 59.316 46.6644 59.832 46.6644 60.624C46.6644 61.536 46.2684 62.112 44.9124 62.112H42.4524ZM55.2382 63H56.4142L53.0782 55.104H51.8782L48.5422 63H49.5982L50.3782 61.08H54.4702L55.2382 63ZM50.6782 60.336L52.4302 56.028H52.4542L54.1702 60.336H50.6782Z" fill="black"/>
<path d="M184.936 57.984V57.12H183.496L183.844 55.104H183.22L182.872 57.12H181.024L181.372 55.104H180.748L180.4 57.12H178.312V57.984H180.256L179.884 60.192H178.312V61.056H179.74L179.404 63H180.028L180.364 61.056H182.2L181.864 63H182.488L182.824 61.056H184.936V60.192H182.968L183.352 57.984H184.936ZM182.344 60.192H180.508L180.88 57.984H182.728L182.344 60.192ZM186.202 63H189.334C191.614 63 193.018 61.512 193.018 59.04C193.018 56.592 191.518 55.104 189.082 55.104H186.202V63ZM187.21 62.088V56.016H189.106C190.906 56.016 192.01 57.156 192.01 59.04C192.01 60.96 190.99 62.088 189.31 62.088H187.21ZM194.341 63H200.125V62.112H195.349C195.349 61.62 195.541 61.38 197.233 60.588C199.537 59.508 199.981 58.68 199.981 57.48C199.981 56.016 198.937 54.996 197.257 54.996C195.433 54.996 194.389 56.1 194.389 57.84C194.389 58.248 194.425 58.62 194.461 58.8H195.373C195.337 58.62 195.301 58.26 195.301 57.888C195.301 56.664 195.985 55.884 197.233 55.884C198.337 55.884 198.997 56.544 198.997 57.48C198.997 58.524 198.685 59.004 196.705 59.928C194.617 60.9 194.341 61.38 194.341 63ZM201.823 63H202.831V59.568H206.359V58.8H202.831V56.016H206.947V55.104H201.823V63ZM208.269 63H209.277V59.568H212.805V58.8H209.277V56.016H213.393V55.104H208.269V63ZM214.714 63H220.054V62.088H215.722V59.4H219.142V58.656H215.722V56.016H219.946V55.104H214.714V63ZM221.429 63H222.437V59.568H225.965V58.8H222.437V56.016H226.553V55.104H221.429V63Z" fill="black"/>
<g filter="url(#filter2_d)">
<rect x="2" y="85" width="150" height="40" fill="#479378"/>
</g>
<g filter="url(#filter3_d)">
<rect x="178" y="85" width="150" height="40" fill="#1A2321"/>
</g>
<path d="M8.936 142.984V142.12H7.496L7.844 140.104H7.22L6.872 142.12H5.024L5.372 140.104H4.748L4.4 142.12H2.312V142.984H4.256L3.884 145.192H2.312V146.056H3.74L3.404 148H4.028L4.364 146.056H6.2L5.864 148H6.488L6.824 146.056H8.936V145.192H6.968L7.352 142.984H8.936ZM6.344 145.192H4.508L4.88 142.984H6.728L6.344 145.192ZM14.0062 148H14.9902V146.14H16.2982V145.252H14.9902V140.104H13.8742L9.67419 145.252V146.14H14.0062V148ZM10.7302 145.252V145.24L13.9942 141.256H14.0062V145.252H10.7302ZM18.2604 148H19.3884C20.0484 145.192 20.8764 143.344 23.2764 140.932V140.104H16.9644V141.016H22.1364V141.028C20.2524 142.888 18.9204 145.192 18.2604 148ZM27.3026 148.108C29.3186 148.108 30.4346 146.716 30.4346 143.968C30.4346 141.076 29.1866 139.996 27.2546 139.996C25.3826 139.996 24.2666 141.04 24.2666 142.612C24.2666 144.016 25.3106 144.94 27.0986 144.94C28.4306 144.94 29.2706 144.28 29.3906 143.332H29.4146C29.4386 143.56 29.4386 143.86 29.4386 144.088C29.4386 146.164 28.7066 147.232 27.2906 147.232C26.0666 147.232 25.3826 146.656 25.3826 145.84C25.3826 145.792 25.3826 145.66 25.3946 145.528H24.4586C24.4466 145.684 24.4466 145.852 24.4466 145.924C24.4466 147.208 25.5026 148.108 27.3026 148.108ZM27.1346 144.148C25.9826 144.148 25.2506 143.548 25.2506 142.612C25.2506 141.568 25.9826 140.872 27.2426 140.872C28.4546 140.872 29.2106 141.532 29.2706 142.396C29.2706 143.416 28.4426 144.148 27.1346 144.148ZM34.4967 148.108C36.4528 148.108 37.6648 147.124 37.6648 145.576C37.6648 144.628 37.0888 143.944 36.1768 143.824V143.8C36.8608 143.644 37.3047 143.008 37.3047 142.228C37.3047 140.836 36.2368 139.996 34.5928 139.996C32.7688 139.996 31.6888 140.932 31.6888 142.384C31.6888 142.648 31.7128 142.912 31.7368 143.032H32.6488C32.6368 142.912 32.6248 142.744 32.6248 142.528C32.6248 141.52 33.3208 140.884 34.5928 140.884C35.6488 140.884 36.3448 141.424 36.3448 142.336C36.3448 143.104 35.8768 143.596 34.9648 143.596H33.9208V144.316H35.1568C36.1168 144.316 36.6808 144.724 36.6808 145.516C36.6808 146.596 35.8528 147.22 34.4967 147.22C33.1768 147.22 32.4448 146.62 32.4448 145.48C32.4448 145.42 32.4448 145.3 32.4568 145.096H31.5448C31.5328 145.228 31.5088 145.468 31.5088 145.636C31.5088 147.172 32.6728 148.108 34.4967 148.108ZM39.9869 148H41.1149C41.7749 145.192 42.6029 143.344 45.0029 140.932V140.104H38.6909V141.016H43.8629V141.028C41.9789 142.888 40.6469 145.192 39.9869 148ZM49.0771 148.108C50.9611 148.108 52.1611 147.208 52.1611 145.756C52.1611 144.784 51.5011 144.064 50.5531 143.896V143.884C51.3691 143.728 51.8251 143.044 51.8251 142.24C51.8251 140.836 50.7571 139.996 49.0771 139.996C47.3971 139.996 46.3291 140.836 46.3291 142.24C46.3291 143.044 46.7851 143.728 47.6011 143.884V143.896C46.6411 144.064 45.9931 144.784 45.9931 145.756C45.9931 147.208 47.1931 148.108 49.0771 148.108ZM49.0771 143.584C47.9731 143.584 47.2651 143.056 47.2651 142.24C47.2651 141.4 47.9731 140.86 49.0771 140.86C50.1811 140.86 50.8891 141.4 50.8891 142.24C50.8891 143.056 50.1811 143.584 49.0771 143.584ZM49.0771 147.244C47.7931 147.244 46.9771 146.656 46.9771 145.756C46.9771 144.88 47.7931 144.328 49.0771 144.328C50.3611 144.328 51.1771 144.88 51.1771 145.756C51.1771 146.656 50.3611 147.244 49.0771 147.244Z" fill="black"/>
<path d="M184.936 142.984V142.12H183.496L183.844 140.104H183.22L182.872 142.12H181.024L181.372 140.104H180.748L180.4 142.12H178.312V142.984H180.256L179.884 145.192H178.312V146.056H179.74L179.404 148H180.028L180.364 146.056H182.2L181.864 148H182.488L182.824 146.056H184.936V145.192H182.968L183.352 142.984H184.936ZM182.344 145.192H180.508L180.88 142.984H182.728L182.344 145.192ZM185.938 148H191.794V147.112H189.586V140.02H188.722C188.71 141.94 188.626 142.12 187.894 142.132L186.79 142.156V142.888H188.602V147.112H185.938V148ZM199.48 148H200.656L197.32 140.104H196.12L192.784 148H193.84L194.62 146.08H198.712L199.48 148ZM194.92 145.336L196.672 141.028H196.696L198.412 145.336H194.92ZM201.677 148H207.461V147.112H202.685C202.685 146.62 202.877 146.38 204.569 145.588C206.873 144.508 207.317 143.68 207.317 142.48C207.317 141.016 206.273 139.996 204.593 139.996C202.769 139.996 201.725 141.1 201.725 142.84C201.725 143.248 201.761 143.62 201.797 143.8H202.709C202.673 143.62 202.637 143.26 202.637 142.888C202.637 141.664 203.321 140.884 204.569 140.884C205.673 140.884 206.333 141.544 206.333 142.48C206.333 143.524 206.021 144.004 204.041 144.928C201.953 145.9 201.677 146.38 201.677 148ZM211.727 148.108C213.683 148.108 214.895 147.124 214.895 145.576C214.895 144.628 214.319 143.944 213.407 143.824V143.8C214.091 143.644 214.535 143.008 214.535 142.228C214.535 140.836 213.467 139.996 211.823 139.996C209.999 139.996 208.919 140.932 208.919 142.384C208.919 142.648 208.943 142.912 208.967 143.032H209.879C209.867 142.912 209.855 142.744 209.855 142.528C209.855 141.52 210.551 140.884 211.823 140.884C212.879 140.884 213.575 141.424 213.575 142.336C213.575 143.104 213.107 143.596 212.195 143.596H211.151V144.316H212.387C213.347 144.316 213.911 144.724 213.911 145.516C213.911 146.596 213.083 147.22 211.727 147.22C210.407 147.22 209.675 146.62 209.675 145.48C209.675 145.42 209.675 145.3 209.687 145.096H208.775C208.763 145.228 208.739 145.468 208.739 145.636C208.739 147.172 209.903 148.108 211.727 148.108ZM216.161 148H221.945V147.112H217.169C217.169 146.62 217.361 146.38 219.053 145.588C221.357 144.508 221.801 143.68 221.801 142.48C221.801 141.016 220.757 139.996 219.077 139.996C217.253 139.996 216.209 141.1 216.209 142.84C216.209 143.248 216.245 143.62 216.281 143.8H217.193C217.157 143.62 217.121 143.26 217.121 142.888C217.121 141.664 217.805 140.884 219.053 140.884C220.157 140.884 220.817 141.544 220.817 142.48C220.817 143.524 220.505 144.004 218.525 144.928C216.437 145.9 216.161 146.38 216.161 148ZM223.38 148H229.236V147.112H227.028V140.02H226.164C226.152 141.94 226.068 142.12 225.336 142.132L224.232 142.156V142.888H226.044V147.112H223.38V148Z" fill="black"/>
<g filter="url(#filter4_d)">
<rect x="2" y="167" width="150" height="40" fill="black"/>
</g>
<g filter="url(#filter5_d)">
<rect x="178" y="167" width="150" height="40" fill="white"/>
</g>
<path d="M8.936 224.984V224.12H7.496L7.844 222.104H7.22L6.872 224.12H5.024L5.372 222.104H4.748L4.4 224.12H2.312V224.984H4.256L3.884 227.192H2.312V228.056H3.74L3.404 230H4.028L4.364 228.056H6.2L5.864 230H6.488L6.824 228.056H8.936V227.192H6.968L7.352 224.984H8.936ZM6.344 227.192H4.508L4.88 224.984H6.728L6.344 227.192ZM12.8662 230.108C14.8222 230.108 15.9502 228.536 15.9502 226.016C15.9502 223.544 14.8222 221.996 12.8662 221.996C10.9102 221.996 9.78219 223.544 9.78219 226.016C9.78219 228.536 10.9102 230.108 12.8662 230.108ZM12.8662 229.22C11.5102 229.22 10.7662 227.996 10.7662 226.016C10.7662 224.084 11.5102 222.884 12.8662 222.884C14.2222 222.884 14.9662 224.084 14.9662 226.016C14.9662 227.996 14.2222 229.22 12.8662 229.22ZM20.1084 230.108C22.0644 230.108 23.1924 228.536 23.1924 226.016C23.1924 223.544 22.0644 221.996 20.1084 221.996C18.1524 221.996 17.0244 223.544 17.0244 226.016C17.0244 228.536 18.1524 230.108 20.1084 230.108ZM20.1084 229.22C18.7524 229.22 18.0084 227.996 18.0084 226.016C18.0084 224.084 18.7524 222.884 20.1084 222.884C21.4644 222.884 22.2084 224.084 22.2084 226.016C22.2084 227.996 21.4644 229.22 20.1084 229.22ZM27.3506 230.108C29.3066 230.108 30.4346 228.536 30.4346 226.016C30.4346 223.544 29.3066 221.996 27.3506 221.996C25.3946 221.996 24.2666 223.544 24.2666 226.016C24.2666 228.536 25.3946 230.108 27.3506 230.108ZM27.3506 229.22C25.9946 229.22 25.2506 227.996 25.2506 226.016C25.2506 224.084 25.9946 222.884 27.3506 222.884C28.7066 222.884 29.4506 224.084 29.4506 226.016C29.4506 227.996 28.7066 229.22 27.3506 229.22ZM34.5928 230.108C36.5488 230.108 37.6768 228.536 37.6768 226.016C37.6768 223.544 36.5488 221.996 34.5928 221.996C32.6368 221.996 31.5088 223.544 31.5088 226.016C31.5088 228.536 32.6368 230.108 34.5928 230.108ZM34.5928 229.22C33.2368 229.22 32.4928 227.996 32.4928 226.016C32.4928 224.084 33.2368 222.884 34.5928 222.884C35.9488 222.884 36.6928 224.084 36.6928 226.016C36.6928 227.996 35.9488 229.22 34.5928 229.22ZM41.8349 230.108C43.7909 230.108 44.9189 228.536 44.9189 226.016C44.9189 223.544 43.7909 221.996 41.8349 221.996C39.8789 221.996 38.7509 223.544 38.7509 226.016C38.7509 228.536 39.8789 230.108 41.8349 230.108ZM41.8349 229.22C40.4789 229.22 39.7349 227.996 39.7349 226.016C39.7349 224.084 40.4789 222.884 41.8349 222.884C43.1909 222.884 43.9349 224.084 43.9349 226.016C43.9349 227.996 43.1909 229.22 41.8349 229.22ZM49.0771 230.108C51.0331 230.108 52.1611 228.536 52.1611 226.016C52.1611 223.544 51.0331 221.996 49.0771 221.996C47.1211 221.996 45.9931 223.544 45.9931 226.016C45.9931 228.536 47.1211 230.108 49.0771 230.108ZM49.0771 229.22C47.7211 229.22 46.9771 227.996 46.9771 226.016C46.9771 224.084 47.7211 222.884 49.0771 222.884C50.4331 222.884 51.1771 224.084 51.1771 226.016C51.1771 227.996 50.4331 229.22 49.0771 229.22Z" fill="black"/>
<path d="M184.936 224.984V224.12H183.496L183.844 222.104H183.22L182.872 224.12H181.024L181.372 222.104H180.748L180.4 224.12H178.312V224.984H180.256L179.884 227.192H178.312V228.056H179.74L179.404 230H180.028L180.364 228.056H182.2L181.864 230H182.488L182.824 228.056H184.936V227.192H182.968L183.352 224.984H184.936ZM182.344 227.192H180.508L180.88 224.984H182.728L182.344 227.192ZM186.202 230H187.21V226.568H190.738V225.8H187.21V223.016H191.326V222.104H186.202V230ZM192.648 230H193.656V226.568H197.184V225.8H193.656V223.016H197.772V222.104H192.648V230ZM199.093 230H200.101V226.568H203.629V225.8H200.101V223.016H204.217V222.104H199.093V230ZM205.538 230H206.546V226.568H210.074V225.8H206.546V223.016H210.662V222.104H205.538V230ZM211.983 230H212.991V226.568H216.519V225.8H212.991V223.016H217.107V222.104H211.983V230ZM218.429 230H219.437V226.568H222.965V225.8H219.437V223.016H223.553V222.104H218.429V230Z" fill="black"/>
<defs>
<filter id="filter0_d" x="0" y="0" width="158" height="48" filterUnits="userSpaceOnUse" color-interpolation-filters="sRGB">
<feFlood flood-opacity="0" result="BackgroundImageFix"/>
<feColorMatrix in="SourceAlpha" type="matrix" values="0 0 0 0 0 0 0 0 0 0 0 0 0 0 0 0 0 0 127 0"/>
<feOffset dx="2" dy="4"/>
<feGaussianBlur stdDeviation="2"/>
<feColorMatrix type="matrix" values="0 0 0 0 0 0 0 0 0 0 0 0 0 0 0 0 0 0 0.5 0"/>
<feBlend mode="normal" in2="BackgroundImageFix" result="effect1_dropShadow"/>
<feBlend mode="normal" in="SourceGraphic" in2="effect1_dropShadow" result="shape"/>
</filter>
<filter id="filter1_d" x="176" y="0" width="158" height="48" filterUnits="userSpaceOnUse" color-interpolation-filters="sRGB">
<feFlood flood-opacity="0" result="BackgroundImageFix"/>
<feColorMatrix in="SourceAlpha" type="matrix" values="0 0 0 0 0 0 0 0 0 0 0 0 0 0 0 0 0 0 127 0"/>
<feOffset dx="2" dy="4"/>
<feGaussianBlur stdDeviation="2"/>
<feColorMatrix type="matrix" values="0 0 0 0 0 0 0 0 0 0 0 0 0 0 0 0 0 0 0.5 0"/>
<feBlend mode="normal" in2="BackgroundImageFix" result="effect1_dropShadow"/>
<feBlend mode="normal" in="SourceGraphic" in2="effect1_dropShadow" result="shape"/>
</filter>
<filter id="filter2_d" x="0" y="85" width="158" height="48" filterUnits="userSpaceOnUse" color-interpolation-filters="sRGB">
<feFlood flood-opacity="0" result="BackgroundImageFix"/>
<feColorMatrix in="SourceAlpha" type="matrix" values="0 0 0 0 0 0 0 0 0 0 0 0 0 0 0 0 0 0 127 0"/>
<feOffset dx="2" dy="4"/>
<feGaussianBlur stdDeviation="2"/>
<feColorMatrix type="matrix" values="0 0 0 0 0 0 0 0 0 0 0 0 0 0 0 0 0 0 0.5 0"/>
<feBlend mode="normal" in2="BackgroundImageFix" result="effect1_dropShadow"/>
<feBlend mode="normal" in="SourceGraphic" in2="effect1_dropShadow" result="shape"/>
</filter>
<filter id="filter3_d" x="176" y="85" width="158" height="48" filterUnits="userSpaceOnUse" color-interpolation-filters="sRGB">
<feFlood flood-opacity="0" result="BackgroundImageFix"/>
<feColorMatrix in="SourceAlpha" type="matrix" values="0 0 0 0 0 0 0 0 0 0 0 0 0 0 0 0 0 0 127 0"/>
<feOffset dx="2" dy="4"/>
<feGaussianBlur stdDeviation="2"/>
<feColorMatrix type="matrix" values="0 0 0 0 0 0 0 0 0 0 0 0 0 0 0 0 0 0 0.5 0"/>
<feBlend mode="normal" in2="BackgroundImageFix" result="effect1_dropShadow"/>
<feBlend mode="normal" in="SourceGraphic" in2="effect1_dropShadow" result="shape"/>
</filter>
<filter id="filter4_d" x="0" y="167" width="158" height="48" filterUnits="userSpaceOnUse" color-interpolation-filters="sRGB">
<feFlood flood-opacity="0" result="BackgroundImageFix"/>
<feColorMatrix in="SourceAlpha" type="matrix" values="0 0 0 0 0 0 0 0 0 0 0 0 0 0 0 0 0 0 127 0"/>
<feOffset dx="2" dy="4"/>
<feGaussianBlur stdDeviation="2"/>
<feColorMatrix type="matrix" values="0 0 0 0 0 0 0 0 0 0 0 0 0 0 0 0 0 0 0.5 0"/>
<feBlend mode="normal" in2="BackgroundImageFix" result="effect1_dropShadow"/>
<feBlend mode="normal" in="SourceGraphic" in2="effect1_dropShadow" result="shape"/>
</filter>
<filter id="filter5_d" x="176" y="167" width="158" height="48" filterUnits="userSpaceOnUse" color-interpolation-filters="sRGB">
<feFlood flood-opacity="0" result="BackgroundImageFix"/>
<feColorMatrix in="SourceAlpha" type="matrix" values="0 0 0 0 0 0 0 0 0 0 0 0 0 0 0 0 0 0 127 0"/>
<feOffset dx="2" dy="4"/>
<feGaussianBlur stdDeviation="2"/>
<feColorMatrix type="matrix" values="0 0 0 0 0 0 0 0 0 0 0 0 0 0 0 0 0 0 0.5 0"/>
<feBlend mode="normal" in2="BackgroundImageFix" result="effect1_dropShadow"/>
<feBlend mode="normal" in="SourceGraphic" in2="effect1_dropShadow" result="shape"/>
</filter>
</defs>
</svg>
