<svg width="948" height="406" viewBox="0 0 948 406" fill="none" xmlns="http://www.w3.org/2000/svg">
<g filter="url(#filter0_d)">
<rect x="2" width="220" height="64" fill="#8DD3BA"/>
</g>
<g filter="url(#filter1_d)">
<rect x="242" width="220" height="64" fill="#D2FFEF"/>
</g>
<g filter="url(#filter2_d)">
<rect x="482" width="220" height="64" fill="#479378"/>
</g>
<g filter="url(#filter3_d)">
<rect x="722" width="220" height="64" fill="#1A2321"/>
</g>
<g filter="url(#filter4_d)">
<rect x="2" y="212" width="220" height="64" fill="black"/>
</g>
<g filter="url(#filter5_d)">
<rect x="242" y="212" width="220" height="64" fill="white"/>
</g>
<path d="M8.096 98.16C10.784 98.16 12.768 96.528 12.768 94.16V93.904H11.52V94.096C11.52 95.776 10.032 96.944 8.096 96.944C5.888 96.944 4.144 95.312 4.144 92.752C4.144 90.176 5.808 88.528 8.096 88.528C10.016 88.528 11.472 89.728 11.472 91.504V91.792H12.704C12.72 91.584 12.72 91.44 12.72 91.408C12.72 88.976 10.768 87.312 8.096 87.312C4.976 87.312 2.8 89.44 2.8 92.752C2.8 96.048 5.04 98.16 8.096 98.16ZM17.3686 98.128C19.3366 98.128 20.3286 97.344 20.6006 96.128H20.6166C20.6006 96.896 20.5686 97.632 20.5526 98H21.8326V93.184C21.8326 91.12 20.4886 89.968 18.1686 89.968C16.0246 89.968 14.6806 90.912 14.6806 92.48C14.6806 92.624 14.6966 92.848 14.7126 92.96H15.8966C15.8806 92.832 15.8806 92.72 15.8806 92.672C15.8806 91.6 16.6806 91.056 18.1366 91.056C19.7526 91.056 20.5526 91.712 20.5526 93.072V93.648H17.3366C15.2246 93.648 14.4406 94.608 14.4406 95.728C14.4406 97.216 15.5766 98.128 17.3686 98.128ZM17.6246 97.04C16.3766 97.04 15.6406 96.528 15.6406 95.728C15.6406 94.96 16.1526 94.576 17.4486 94.576H20.5526V94.688C20.5526 96.128 19.4166 97.04 17.6246 97.04ZM23.995 98H25.275V94.112C25.275 92.224 26.443 91.12 28.251 91.12C29.947 91.12 30.715 91.984 30.715 93.328V98H31.995V93.056C31.995 91.168 30.763 89.968 28.683 89.968C26.795 89.968 25.691 90.848 25.259 92.224H25.243L25.275 90.096H23.995V98ZM37.8313 98.128C40.2793 98.128 41.8313 96.544 41.8313 94.064C41.8313 91.568 40.2793 89.968 37.8313 89.968C35.3832 89.968 33.8313 91.568 33.8313 94.064C33.8313 96.544 35.3832 98.128 37.8313 98.128ZM37.8313 96.976C36.1673 96.976 35.1113 95.84 35.1113 94.064C35.1113 92.272 36.1673 91.12 37.8313 91.12C39.4953 91.12 40.5513 92.272 40.5513 94.064C40.5513 95.84 39.4953 96.976 37.8313 96.976ZM43.825 101.168H45.105V97.984C45.105 97.616 45.073 96.784 45.057 96.256H45.073C45.409 97.328 46.529 98.128 48.209 98.128C50.529 98.128 51.953 96.48 51.953 93.92C51.953 91.504 50.545 89.968 48.241 89.968C46.529 89.968 45.409 90.816 45.089 92.128H45.073L45.105 90.096H43.825V101.168ZM48.033 96.976C46.241 96.976 45.105 96.016 45.105 94.512V94.032C45.137 92.256 46.273 91.12 48.001 91.12C49.665 91.12 50.673 92.224 50.673 93.936C50.673 95.792 49.649 96.976 48.033 96.976ZM54.6668 101.328C56.1708 101.328 56.7788 100.592 57.7228 98.144L60.8588 90.096H59.5628L57.0188 96.704H56.9868L54.1068 90.096H52.6028L56.1548 98H56.4908C55.7548 99.792 55.3708 100.208 54.5068 100.208C54.1068 100.208 53.7228 100.112 53.5308 100.048V101.12C53.7548 101.216 54.2188 101.328 54.6668 101.328ZM70.9535 98.16C73.0495 98.16 74.2175 97.248 74.5375 96.048H74.5535C74.5215 96.816 74.4735 97.568 74.4255 98H75.6895V92.944H70.6495V93.936H74.3455V94.24C74.3455 95.824 73.0495 97.008 70.9535 97.008C68.8415 97.008 67.0815 95.392 67.0815 92.848C67.0815 90.224 68.8095 88.528 71.0335 88.528C72.9375 88.528 74.3455 89.52 74.3455 91.2C74.3455 91.36 74.3455 91.552 74.3295 91.76H75.5775C75.5935 91.504 75.5935 91.264 75.5935 91.136C75.5935 88.736 73.6895 87.312 71.0335 87.312C68.0415 87.312 65.7375 89.536 65.7375 92.832C65.7375 96.096 67.9615 98.16 70.9535 98.16ZM77.9325 98H79.2125V94.496C79.2125 92.528 80.1565 91.12 81.7725 91.12C83.0685 91.12 83.6125 91.872 83.6125 93.328C83.6125 93.824 83.5805 94.224 83.5485 94.464H84.7165C84.7485 94.176 84.7965 93.6 84.7965 93.056C84.7965 91.152 83.8525 89.968 82.0765 89.968C80.3805 89.968 79.5645 91.008 79.1965 92.384H79.1805L79.2125 90.096H77.9325V98ZM93.8658 93.712C93.8658 91.36 92.5378 89.968 90.2818 89.968C87.9138 89.968 86.3938 91.584 86.3938 94.112C86.3938 96.56 87.9298 98.128 90.3138 98.128C92.3938 98.128 93.7858 97.04 93.8658 95.328H92.6818C92.5698 96.368 91.6578 97.04 90.3298 97.04C88.7778 97.04 87.7538 95.984 87.6738 94.304H93.8658V93.712ZM92.6818 93.376H87.7218C87.9618 91.872 88.9058 91.056 90.3138 91.056C91.8178 91.056 92.6818 91.888 92.6818 93.28V93.376ZM102.944 93.712C102.944 91.36 101.616 89.968 99.3599 89.968C96.9919 89.968 95.4719 91.584 95.4719 94.112C95.4719 96.56 97.0079 98.128 99.3919 98.128C101.472 98.128 102.864 97.04 102.944 95.328H101.76C101.648 96.368 100.736 97.04 99.4079 97.04C97.8559 97.04 96.8319 95.984 96.7519 94.304H102.944V93.712ZM101.76 93.376H96.7999C97.0399 91.872 97.9839 91.056 99.3919 91.056C100.896 91.056 101.76 91.888 101.76 93.28V93.376ZM104.87 98H106.15V94.112C106.15 92.224 107.318 91.12 109.126 91.12C110.822 91.12 111.59 91.984 111.59 93.328V98H112.87V93.056C112.87 91.168 111.638 89.968 109.558 89.968C107.67 89.968 106.566 90.848 106.134 92.224H106.118L106.15 90.096H104.87V98ZM3.28 121H4.624V116.616H7.92C9.664 116.616 10.16 117.336 10.16 118.456V121H11.536V118.456C11.536 117.144 11.056 116.2 9.568 116.024V115.992C11.008 115.816 11.6 114.84 11.6 113.464C11.6 111.64 10.288 110.472 7.648 110.472H3.28V121ZM4.624 115.624V111.688H7.648C9.424 111.688 10.288 112.408 10.288 113.576C10.288 114.808 9.552 115.624 7.632 115.624H4.624ZM17.1468 121H24.9548V119.816H22.0108V110.36H20.8588C20.8428 112.92 20.7308 113.16 19.7548 113.176L18.2828 113.208V114.184H20.6988V119.816H17.1468V121ZM32.227 121H33.539V118.52H35.283V117.336H33.539V110.472H32.051L26.451 117.336V118.52H32.227V121ZM27.859 117.336V117.32L32.211 112.008H32.227V117.336H27.859ZM36.4593 121H44.2673V119.816H41.3233V110.36H40.1713C40.1553 112.92 40.0433 113.16 39.0673 113.176L37.5953 113.208V114.184H40.0113V119.816H36.4593V121ZM46.1475 123.096C47.3795 122.936 47.9075 122.168 47.9075 120.536V119.176H46.5315V121H47.1075V121.032C47.0915 121.848 46.8355 122.264 46.1475 122.36V123.096ZM58.9535 121.16C61.0495 121.16 62.2175 120.248 62.5375 119.048H62.5535C62.5215 119.816 62.4735 120.568 62.4255 121H63.6895V115.944H58.6495V116.936H62.3455V117.24C62.3455 118.824 61.0495 120.008 58.9535 120.008C56.8415 120.008 55.0815 118.392 55.0815 115.848C55.0815 113.224 56.8095 111.528 59.0335 111.528C60.9375 111.528 62.3455 112.52 62.3455 114.2C62.3455 114.36 62.3455 114.552 62.3295 114.76H63.5775C63.5935 114.504 63.5935 114.264 63.5935 114.136C63.5935 111.736 61.6895 110.312 59.0335 110.312C56.0415 110.312 53.7375 112.536 53.7375 115.832C53.7375 119.096 55.9615 121.16 58.9535 121.16ZM69.46 121H77.172V119.816H70.804C70.804 119.16 71.06 118.84 73.316 117.784C76.388 116.344 76.98 115.24 76.98 113.64C76.98 111.688 75.588 110.328 73.348 110.328C70.916 110.328 69.524 111.8 69.524 114.12C69.524 114.664 69.572 115.16 69.62 115.4H70.836C70.788 115.16 70.74 114.68 70.74 114.184C70.74 112.552 71.652 111.512 73.316 111.512C74.788 111.512 75.668 112.392 75.668 113.64C75.668 115.032 75.252 115.672 72.612 116.904C69.828 118.2 69.46 118.84 69.46 121ZM79.0843 121H86.8923V119.816H83.9483V110.36H82.7963C82.7803 112.92 82.6683 113.16 81.6923 113.176L80.2203 113.208V114.184H82.6363V119.816H79.0843V121ZM88.7405 121H96.5485V119.816H93.6045V110.36H92.4525C92.4365 112.92 92.3245 113.16 91.3485 113.176L89.8765 113.208V114.184H92.2925V119.816H88.7405V121ZM98.4288 123.096C99.6608 122.936 100.189 122.168 100.189 120.536V119.176H98.8128V121H99.3888V121.032C99.3728 121.848 99.1168 122.264 98.4288 122.36V123.096ZM106.499 121H111.171C113.747 121 114.771 119.816 114.771 117.96C114.771 116.584 113.971 115.624 112.515 115.496V115.48C113.763 115.32 114.371 114.44 114.371 113.224C114.371 111.544 113.235 110.472 110.787 110.472H106.499V121ZM107.843 115.096V111.656H110.771C112.435 111.656 113.123 112.344 113.123 113.4C113.123 114.44 112.451 115.096 110.963 115.096H107.843ZM107.843 119.816V116.088H111.059C112.595 116.088 113.459 116.776 113.459 117.832C113.459 119.048 112.931 119.816 111.123 119.816H107.843ZM120.194 121H128.002V119.816H125.058V110.36H123.906C123.89 112.92 123.778 113.16 122.802 113.176L121.33 113.208V114.184H123.746V119.816H120.194V121ZM133.754 121.144C136.266 121.144 137.866 119.944 137.866 118.008C137.866 116.712 136.986 115.752 135.722 115.528V115.512C136.81 115.304 137.418 114.392 137.418 113.32C137.418 111.448 135.994 110.328 133.754 110.328C131.514 110.328 130.09 111.448 130.09 113.32C130.09 114.392 130.698 115.304 131.786 115.512V115.528C130.506 115.752 129.642 116.712 129.642 118.008C129.642 119.944 131.242 121.144 133.754 121.144ZM133.754 115.112C132.282 115.112 131.338 114.408 131.338 113.32C131.338 112.2 132.282 111.48 133.754 111.48C135.226 111.48 136.17 112.2 136.17 113.32C136.17 114.408 135.226 115.112 133.754 115.112ZM133.754 119.992C132.042 119.992 130.954 119.208 130.954 118.008C130.954 116.84 132.042 116.104 133.754 116.104C135.466 116.104 136.554 116.84 136.554 118.008C136.554 119.208 135.466 119.992 133.754 119.992ZM143.602 121.144C145.97 121.144 147.522 119.816 147.522 117.768C147.522 115.976 146.258 114.856 143.762 114.856C142.034 114.856 140.834 115.592 140.658 116.744H140.626C140.61 116.6 140.61 116.2 140.61 115.704C140.61 113.08 141.602 111.512 143.602 111.512C145.138 111.512 145.922 112.328 145.922 113.512C145.922 113.768 145.906 113.944 145.89 114.056H147.138C147.154 113.928 147.17 113.688 147.17 113.496C147.17 111.56 145.89 110.328 143.602 110.328C140.802 110.328 139.298 112.424 139.298 115.752C139.298 119.208 140.546 121.144 143.602 121.144ZM143.618 119.992C142.018 119.992 140.93 119.096 140.802 117.88C140.802 116.808 141.906 115.912 143.634 115.912C145.33 115.912 146.21 116.616 146.21 117.784C146.21 119.112 145.186 119.992 143.618 119.992ZM11.248 137.312V136.16H9.328L9.792 133.472H8.96L8.496 136.16H6.032L6.496 133.472H5.664L5.2 136.16H2.416V137.312H5.008L4.512 140.256H2.416V141.408H4.32L3.872 144H4.704L5.152 141.408H7.6L7.152 144H7.984L8.432 141.408H11.248V140.256H8.624L9.136 137.312H11.248ZM7.792 140.256H5.344L5.84 137.312H8.304L7.792 140.256ZM16.4883 144.144C19.0003 144.144 20.6003 142.944 20.6003 141.008C20.6003 139.712 19.7203 138.752 18.4563 138.528V138.512C19.5443 138.304 20.1523 137.392 20.1523 136.32C20.1523 134.448 18.7283 133.328 16.4883 133.328C14.2483 133.328 12.8243 134.448 12.8243 136.32C12.8243 137.392 13.4323 138.304 14.5203 138.512V138.528C13.2403 138.752 12.3763 139.712 12.3763 141.008C12.3763 142.944 13.9763 144.144 16.4883 144.144ZM16.4883 138.112C15.0163 138.112 14.0723 137.408 14.0723 136.32C14.0723 135.2 15.0163 134.48 16.4883 134.48C17.9603 134.48 18.9043 135.2 18.9043 136.32C18.9043 137.408 17.9603 138.112 16.4883 138.112ZM16.4883 142.992C14.7763 142.992 13.6883 142.208 13.6883 141.008C13.6883 139.84 14.7763 139.104 16.4883 139.104C18.2003 139.104 19.2883 139.84 19.2883 141.008C19.2883 142.208 18.2003 142.992 16.4883 142.992ZM22.5925 144H26.7685C29.8085 144 31.6805 142.016 31.6805 138.72C31.6805 135.456 29.6805 133.472 26.4325 133.472H22.5925V144ZM23.9365 142.784V134.688H26.4645C28.8645 134.688 30.3365 136.208 30.3365 138.72C30.3365 141.28 28.9765 142.784 26.7365 142.784H23.9365ZM33.7644 144H37.9404C40.9804 144 42.8524 142.016 42.8524 138.72C42.8524 135.456 40.8524 133.472 37.6044 133.472H33.7644V144ZM35.1084 142.784V134.688H37.6364C40.0364 134.688 41.5084 136.208 41.5084 138.72C41.5084 141.28 40.1484 142.784 37.9084 142.784H35.1084ZM48.3602 144.144C50.9683 144.144 52.5843 142.832 52.5843 140.768C52.5843 139.504 51.8163 138.592 50.6003 138.432V138.4C51.5123 138.192 52.1042 137.344 52.1042 136.304C52.1042 134.448 50.6803 133.328 48.4883 133.328C46.0563 133.328 44.6163 134.576 44.6163 136.512C44.6163 136.864 44.6483 137.216 44.6803 137.376H45.8963C45.8803 137.216 45.8643 136.992 45.8643 136.704C45.8643 135.36 46.7923 134.512 48.4883 134.512C49.8963 134.512 50.8243 135.232 50.8243 136.448C50.8243 137.472 50.2003 138.128 48.9843 138.128H47.5923V139.088H49.2403C50.5203 139.088 51.2723 139.632 51.2723 140.688C51.2723 142.128 50.1683 142.96 48.3602 142.96C46.6003 142.96 45.6243 142.16 45.6243 140.64C45.6243 140.56 45.6243 140.4 45.6403 140.128H44.4243C44.4083 140.304 44.3763 140.624 44.3763 140.848C44.3763 142.896 45.9283 144.144 48.3602 144.144ZM54.5925 144H59.2645C61.8405 144 62.8645 142.816 62.8645 140.96C62.8645 139.584 62.0645 138.624 60.6085 138.496V138.48C61.8565 138.32 62.4645 137.44 62.4645 136.224C62.4645 134.544 61.3285 133.472 58.8805 133.472H54.5925V144ZM55.9365 138.096V134.656H58.8645C60.5285 134.656 61.2165 135.344 61.2165 136.4C61.2165 137.44 60.5445 138.096 59.0565 138.096H55.9365ZM55.9365 142.816V139.088H59.1525C60.6885 139.088 61.5525 139.776 61.5525 140.832C61.5525 142.048 61.0245 142.816 59.2165 142.816H55.9365ZM72.9843 144H74.5523L70.1043 133.472H68.5043L64.0563 144H65.4643L66.5043 141.44H71.9603L72.9843 144ZM66.9043 140.448L69.2403 134.704H69.2723L71.5603 140.448H66.9043Z" fill="black"/>
<path d="M243.28 98H250.16V96.784H244.624V87.472H243.28V98ZM251.73 89.088H253.106V87.472H251.73V89.088ZM251.778 98H253.058V90.096H251.778V98ZM260.698 96.912H258.138C257.466 96.912 257.13 96.576 257.13 96.048C257.13 95.744 257.226 95.504 257.354 95.376C257.786 95.52 258.266 95.6 258.81 95.6C260.874 95.6 262.186 94.496 262.186 92.784C262.186 92.144 262.01 91.6 261.674 91.152C261.546 90.832 261.466 90.528 261.466 90.288C261.466 89.824 261.754 89.584 262.282 89.584C262.538 89.584 262.73 89.632 262.842 89.68V88.656C262.698 88.608 262.458 88.56 262.122 88.56C261.226 88.56 260.666 88.976 260.666 89.616C260.666 89.968 260.794 90.272 260.97 90.496V90.512C260.41 90.16 259.674 89.968 258.81 89.968C256.762 89.968 255.45 91.072 255.45 92.784C255.45 93.744 255.866 94.528 256.602 95.008V95.04C256.298 95.216 256.042 95.68 256.042 96.272C256.042 96.816 256.282 97.28 256.682 97.584V97.6C255.69 97.6 255.066 98.256 255.066 99.04C255.066 100.544 256.618 101.392 259.226 101.392C261.722 101.392 263.21 100.384 263.21 98.816C263.21 97.616 262.298 96.912 260.698 96.912ZM258.81 91.056C260.106 91.056 260.938 91.728 260.938 92.784C260.938 93.84 260.106 94.512 258.81 94.512C257.514 94.512 256.698 93.84 256.698 92.784C256.698 91.728 257.514 91.056 258.81 91.056ZM259.21 100.304C257.466 100.304 256.346 99.888 256.346 99.008C256.346 98.288 257.05 98 258.154 98H260.506C261.466 98 261.93 98.32 261.93 98.944C261.93 99.696 261.242 100.304 259.21 100.304ZM265.075 98H266.355V94.272C266.355 92.272 267.523 91.12 269.331 91.12C271.027 91.12 271.795 91.984 271.795 93.328V98H273.075V93.056C273.075 91.168 271.843 89.968 269.763 89.968C267.875 89.968 266.771 90.864 266.339 92.24H266.323C266.323 91.952 266.355 91.008 266.355 90.576V86.912H265.075V98ZM278.365 98.064C279.005 98.064 279.469 97.968 279.709 97.872V96.784C279.533 96.848 279.021 96.944 278.477 96.944C277.293 96.944 276.909 96.224 276.909 95.024V91.216H279.773V90.096H276.909V88.304H275.821L275.757 89.552C275.725 89.968 275.629 90.096 275.373 90.096H274.317V91.216H275.629V95.104C275.629 96.848 276.445 98.064 278.365 98.064ZM290.174 98.16C292.862 98.16 294.846 96.528 294.846 94.16V93.904H293.598V94.096C293.598 95.776 292.11 96.944 290.174 96.944C287.966 96.944 286.222 95.312 286.222 92.752C286.222 90.176 287.886 88.528 290.174 88.528C292.094 88.528 293.55 89.728 293.55 91.504V91.792H294.782C294.798 91.584 294.798 91.44 294.798 91.408C294.798 88.976 292.846 87.312 290.174 87.312C287.054 87.312 284.878 89.44 284.878 92.752C284.878 96.048 287.118 98.16 290.174 98.16ZM299.447 98.128C301.415 98.128 302.407 97.344 302.679 96.128H302.695C302.679 96.896 302.647 97.632 302.631 98H303.911V93.184C303.911 91.12 302.567 89.968 300.247 89.968C298.103 89.968 296.759 90.912 296.759 92.48C296.759 92.624 296.775 92.848 296.791 92.96H297.975C297.959 92.832 297.959 92.72 297.959 92.672C297.959 91.6 298.759 91.056 300.215 91.056C301.831 91.056 302.631 91.712 302.631 93.072V93.648H299.415C297.303 93.648 296.519 94.608 296.519 95.728C296.519 97.216 297.655 98.128 299.447 98.128ZM299.703 97.04C298.455 97.04 297.719 96.528 297.719 95.728C297.719 94.96 298.231 94.576 299.527 94.576H302.631V94.688C302.631 96.128 301.495 97.04 299.703 97.04ZM306.073 98H307.353V94.112C307.353 92.224 308.521 91.12 310.329 91.12C312.025 91.12 312.793 91.984 312.793 93.328V98H314.073V93.056C314.073 91.168 312.841 89.968 310.761 89.968C308.873 89.968 307.769 90.848 307.337 92.224H307.321L307.353 90.096H306.073V98ZM319.909 98.128C322.357 98.128 323.909 96.544 323.909 94.064C323.909 91.568 322.357 89.968 319.909 89.968C317.461 89.968 315.909 91.568 315.909 94.064C315.909 96.544 317.461 98.128 319.909 98.128ZM319.909 96.976C318.245 96.976 317.189 95.84 317.189 94.064C317.189 92.272 318.245 91.12 319.909 91.12C321.573 91.12 322.629 92.272 322.629 94.064C322.629 95.84 321.573 96.976 319.909 96.976ZM325.903 101.168H327.183V97.984C327.183 97.616 327.151 96.784 327.135 96.256H327.151C327.487 97.328 328.607 98.128 330.287 98.128C332.607 98.128 334.031 96.48 334.031 93.92C334.031 91.504 332.623 89.968 330.319 89.968C328.607 89.968 327.487 90.816 327.167 92.128H327.151L327.183 90.096H325.903V101.168ZM330.111 96.976C328.319 96.976 327.183 96.016 327.183 94.512V94.032C327.215 92.256 328.351 91.12 330.079 91.12C331.743 91.12 332.751 92.224 332.751 93.936C332.751 95.792 331.727 96.976 330.111 96.976ZM336.745 101.328C338.249 101.328 338.857 100.592 339.801 98.144L342.937 90.096H341.641L339.097 96.704H339.065L336.185 90.096H334.681L338.233 98H338.569C337.833 99.792 337.449 100.208 336.585 100.208C336.185 100.208 335.801 100.112 335.609 100.048V101.12C335.833 101.216 336.297 101.328 336.745 101.328ZM353.032 98.16C355.128 98.16 356.296 97.248 356.616 96.048H356.632C356.6 96.816 356.552 97.568 356.504 98H357.768V92.944H352.728V93.936H356.424V94.24C356.424 95.824 355.128 97.008 353.032 97.008C350.92 97.008 349.16 95.392 349.16 92.848C349.16 90.224 350.888 88.528 353.112 88.528C355.016 88.528 356.424 89.52 356.424 91.2C356.424 91.36 356.424 91.552 356.408 91.76H357.656C357.672 91.504 357.672 91.264 357.672 91.136C357.672 88.736 355.768 87.312 353.112 87.312C350.12 87.312 347.816 89.536 347.816 92.832C347.816 96.096 350.04 98.16 353.032 98.16ZM360.011 98H361.291V94.496C361.291 92.528 362.235 91.12 363.851 91.12C365.147 91.12 365.691 91.872 365.691 93.328C365.691 93.824 365.659 94.224 365.627 94.464H366.795C366.827 94.176 366.875 93.6 366.875 93.056C366.875 91.152 365.931 89.968 364.155 89.968C362.459 89.968 361.643 91.008 361.275 92.384H361.259L361.291 90.096H360.011V98ZM375.944 93.712C375.944 91.36 374.616 89.968 372.36 89.968C369.992 89.968 368.472 91.584 368.472 94.112C368.472 96.56 370.008 98.128 372.392 98.128C374.472 98.128 375.864 97.04 375.944 95.328H374.76C374.648 96.368 373.736 97.04 372.408 97.04C370.856 97.04 369.832 95.984 369.752 94.304H375.944V93.712ZM374.76 93.376H369.8C370.04 91.872 370.984 91.056 372.392 91.056C373.896 91.056 374.76 91.888 374.76 93.28V93.376ZM385.022 93.712C385.022 91.36 383.694 89.968 381.438 89.968C379.07 89.968 377.55 91.584 377.55 94.112C377.55 96.56 379.086 98.128 381.47 98.128C383.55 98.128 384.942 97.04 385.022 95.328H383.838C383.726 96.368 382.814 97.04 381.486 97.04C379.934 97.04 378.91 95.984 378.83 94.304H385.022V93.712ZM383.838 93.376H378.878C379.118 91.872 380.062 91.056 381.47 91.056C382.974 91.056 383.838 91.888 383.838 93.28V93.376ZM386.948 98H388.228V94.112C388.228 92.224 389.396 91.12 391.204 91.12C392.9 91.12 393.668 91.984 393.668 93.328V98H394.948V93.056C394.948 91.168 393.716 89.968 391.636 89.968C389.748 89.968 388.644 90.848 388.212 92.224H388.196L388.228 90.096H386.948V98ZM243.28 121H244.624V116.616H247.92C249.664 116.616 250.16 117.336 250.16 118.456V121H251.536V118.456C251.536 117.144 251.056 116.2 249.568 116.024V115.992C251.008 115.816 251.6 114.84 251.6 113.464C251.6 111.64 250.288 110.472 247.648 110.472H243.28V121ZM244.624 115.624V111.688H247.648C249.424 111.688 250.288 112.408 250.288 113.576C250.288 114.808 249.552 115.624 247.632 115.624H244.624ZM257.179 121H264.891V119.816H258.523C258.523 119.16 258.779 118.84 261.035 117.784C264.107 116.344 264.699 115.24 264.699 113.64C264.699 111.688 263.307 110.328 261.067 110.328C258.635 110.328 257.243 111.8 257.243 114.12C257.243 114.664 257.291 115.16 257.339 115.4H258.555C258.507 115.16 258.459 114.68 258.459 114.184C258.459 112.552 259.371 111.512 261.035 111.512C262.507 111.512 263.387 112.392 263.387 113.64C263.387 115.032 262.971 115.672 260.331 116.904C257.547 118.2 257.179 118.84 257.179 121ZM266.803 121H274.611V119.816H271.667V110.36H270.515C270.499 112.92 270.387 113.16 269.411 113.176L267.939 113.208V114.184H270.355V119.816H266.803V121ZM280.363 121.144C282.971 121.144 284.475 119.048 284.475 115.688C284.475 112.392 282.971 110.328 280.363 110.328C277.755 110.328 276.251 112.392 276.251 115.688C276.251 119.048 277.755 121.144 280.363 121.144ZM280.363 119.96C278.555 119.96 277.563 118.328 277.563 115.688C277.563 113.112 278.555 111.512 280.363 111.512C282.171 111.512 283.163 113.112 283.163 115.688C283.163 118.328 282.171 119.96 280.363 119.96ZM286.148 123.096C287.38 122.936 287.908 122.168 287.908 120.536V119.176H286.532V121H287.108V121.032C287.092 121.848 286.836 122.264 286.148 122.36V123.096ZM298.954 121.16C301.05 121.16 302.218 120.248 302.538 119.048H302.554C302.522 119.816 302.474 120.568 302.426 121H303.69V115.944H298.65V116.936H302.345V117.24C302.345 118.824 301.05 120.008 298.954 120.008C296.842 120.008 295.082 118.392 295.082 115.848C295.082 113.224 296.81 111.528 299.034 111.528C300.938 111.528 302.345 112.52 302.345 114.2C302.345 114.36 302.345 114.552 302.33 114.76H303.578C303.594 114.504 303.594 114.264 303.594 114.136C303.594 111.736 301.69 110.312 299.034 110.312C296.042 110.312 293.738 112.536 293.738 115.832C293.738 119.096 295.962 121.16 298.954 121.16ZM309.46 121H317.172V119.816H310.804C310.804 119.16 311.06 118.84 313.316 117.784C316.388 116.344 316.98 115.24 316.98 113.64C316.98 111.688 315.588 110.328 313.348 110.328C310.916 110.328 309.524 111.8 309.524 114.12C309.524 114.664 309.572 115.16 309.62 115.4H310.836C310.788 115.16 310.74 114.68 310.74 114.184C310.74 112.552 311.652 111.512 313.316 111.512C314.788 111.512 315.668 112.392 315.668 113.64C315.668 115.032 315.252 115.672 312.612 116.904C309.828 118.2 309.46 118.84 309.46 121ZM323.068 121.144C325.468 121.144 326.988 119.592 326.988 117.416C326.988 115.416 325.612 114.12 323.324 114.12C321.868 114.12 320.828 114.696 320.492 115.592H320.46L320.764 111.656H326.348V110.472H319.66L319.244 116.44L320.492 116.568C320.844 115.72 321.852 115.176 323.036 115.176C324.652 115.176 325.676 116.04 325.676 117.416C325.676 118.872 324.652 119.96 323.068 119.96C321.42 119.96 320.332 119.272 320.332 118.216C320.332 118.136 320.332 118.04 320.348 117.896H319.116C319.1 117.976 319.084 118.136 319.084 118.28C319.084 120.008 320.668 121.144 323.068 121.144ZM332.725 121.144C335.125 121.144 336.645 119.592 336.645 117.416C336.645 115.416 335.269 114.12 332.981 114.12C331.525 114.12 330.485 114.696 330.149 115.592H330.117L330.421 111.656H336.005V110.472H329.317L328.901 116.44L330.149 116.568C330.501 115.72 331.509 115.176 332.693 115.176C334.309 115.176 335.333 116.04 335.333 117.416C335.333 118.872 334.309 119.96 332.725 119.96C331.077 119.96 329.989 119.272 329.989 118.216C329.989 118.136 329.989 118.04 330.005 117.896H328.773C328.757 117.976 328.741 118.136 328.741 118.28C328.741 120.008 330.325 121.144 332.725 121.144ZM338.429 123.096C339.661 122.936 340.189 122.168 340.189 120.536V119.176H338.813V121H339.389V121.032C339.373 121.848 339.117 122.264 338.429 122.36V123.096ZM346.499 121H351.171C353.747 121 354.771 119.816 354.771 117.96C354.771 116.584 353.971 115.624 352.515 115.496V115.48C353.763 115.32 354.371 114.44 354.371 113.224C354.371 111.544 353.235 110.472 350.787 110.472H346.499V121ZM347.843 115.096V111.656H350.771C352.435 111.656 353.123 112.344 353.123 113.4C353.123 114.44 352.451 115.096 350.963 115.096H347.843ZM347.843 119.816V116.088H351.059C352.595 116.088 353.459 116.776 353.459 117.832C353.459 119.048 352.931 119.816 351.123 119.816H347.843ZM360.226 121H367.938V119.816H361.57C361.57 119.16 361.826 118.84 364.082 117.784C367.154 116.344 367.746 115.24 367.746 113.64C367.746 111.688 366.354 110.328 364.114 110.328C361.682 110.328 360.29 111.8 360.29 114.12C360.29 114.664 360.338 115.16 360.386 115.4H361.602C361.554 115.16 361.506 114.68 361.506 114.184C361.506 112.552 362.418 111.512 364.082 111.512C365.554 111.512 366.434 112.392 366.434 113.64C366.434 115.032 366.018 115.672 363.378 116.904C360.594 118.2 360.226 118.84 360.226 121ZM373.626 121.144C376.234 121.144 377.85 119.832 377.85 117.768C377.85 116.504 377.082 115.592 375.866 115.432V115.4C376.778 115.192 377.37 114.344 377.37 113.304C377.37 111.448 375.946 110.328 373.754 110.328C371.322 110.328 369.882 111.576 369.882 113.512C369.882 113.864 369.914 114.216 369.946 114.376H371.162C371.146 114.216 371.13 113.992 371.13 113.704C371.13 112.36 372.058 111.512 373.754 111.512C375.162 111.512 376.09 112.232 376.09 113.448C376.09 114.472 375.466 115.128 374.25 115.128H372.858V116.088H374.506C375.786 116.088 376.538 116.632 376.538 117.688C376.538 119.128 375.434 119.96 373.626 119.96C371.866 119.96 370.89 119.16 370.89 117.64C370.89 117.56 370.89 117.4 370.906 117.128H369.69C369.674 117.304 369.642 117.624 369.642 117.848C369.642 119.896 371.194 121.144 373.626 121.144ZM383.346 121.144C386.034 121.144 387.522 119.288 387.522 115.624C387.522 111.768 385.858 110.328 383.282 110.328C380.786 110.328 379.298 111.72 379.298 113.816C379.298 115.688 380.69 116.92 383.074 116.92C384.85 116.92 385.97 116.04 386.13 114.776H386.162C386.194 115.08 386.194 115.48 386.194 115.784C386.194 118.552 385.218 119.976 383.33 119.976C381.698 119.976 380.786 119.208 380.786 118.12C380.786 118.056 380.786 117.88 380.802 117.704H379.554C379.538 117.912 379.538 118.136 379.538 118.232C379.538 119.944 380.946 121.144 383.346 121.144ZM383.122 115.864C381.586 115.864 380.61 115.064 380.61 113.816C380.61 112.424 381.586 111.496 383.266 111.496C384.882 111.496 385.89 112.376 385.97 113.528C385.97 114.888 384.866 115.864 383.122 115.864ZM251.248 137.312V136.16H249.328L249.792 133.472H248.96L248.496 136.16H246.032L246.496 133.472H245.664L245.2 136.16H242.416V137.312H245.008L244.512 140.256H242.416V141.408H244.32L243.872 144H244.704L245.152 141.408H247.6L247.152 144H247.984L248.432 141.408H251.248V140.256H248.624L249.136 137.312H251.248ZM247.792 140.256H245.344L245.84 137.312H248.304L247.792 140.256ZM252.936 144H257.112C260.152 144 262.024 142.016 262.024 138.72C262.024 135.456 260.024 133.472 256.776 133.472H252.936V144ZM254.28 142.784V134.688H256.808C259.208 134.688 260.68 136.208 260.68 138.72C260.68 141.28 259.32 142.784 257.08 142.784H254.28ZM263.788 144H271.5V142.816H265.132C265.132 142.16 265.388 141.84 267.644 140.784C270.716 139.344 271.308 138.24 271.308 136.64C271.308 134.688 269.916 133.328 267.676 133.328C265.244 133.328 263.852 134.8 263.852 137.12C263.852 137.664 263.9 138.16 263.948 138.4H265.164C265.116 138.16 265.068 137.68 265.068 137.184C265.068 135.552 265.98 134.512 267.644 134.512C269.116 134.512 269.996 135.392 269.996 136.64C269.996 138.032 269.58 138.672 266.94 139.904C264.156 141.2 263.788 141.84 263.788 144ZM273.764 144H275.108V139.424H279.812V138.4H275.108V134.688H280.596V133.472H273.764V144ZM282.358 144H283.702V139.424H288.406V138.4H283.702V134.688H289.19V133.472H282.358V144ZM290.952 144H298.072V142.784H292.296V139.2H296.856V138.208H292.296V134.688H297.928V133.472H290.952V144ZM299.905 144H301.249V139.424H305.953V138.4H301.249V134.688H306.737V133.472H299.905V144Z" fill="black"/>
<path d="M487.088 98.16C490.528 98.16 491.52 96.576 491.52 94.976C491.52 94.016 491.088 93.28 490.384 92.928C489.696 92.576 488.592 92.4 487.536 92.256C486.624 92.128 485.36 91.936 484.848 91.68C484.4 91.456 484.144 91.056 484.144 90.384C484.144 89.232 485.36 88.464 487.072 88.464C488.88 88.464 489.904 89.264 489.904 91.104H491.152C491.152 88.672 489.984 87.312 487.04 87.312C484.528 87.312 482.8 88.624 482.8 90.496C482.8 91.488 483.232 92.192 483.84 92.56C484.416 92.912 485.568 93.168 486.656 93.296C487.568 93.424 488.768 93.552 489.344 93.792C489.888 94.016 490.176 94.384 490.176 95.056C490.176 96.064 489.504 97.008 487.088 97.008C484.848 97.008 484.08 95.936 484.08 94.416H482.832C482.832 96.32 483.712 98.16 487.088 98.16ZM493.513 98H494.793V94.272C494.793 92.272 495.961 91.12 497.769 91.12C499.465 91.12 500.233 91.984 500.233 93.328V98H501.513V93.056C501.513 91.168 500.281 89.968 498.201 89.968C496.312 89.968 495.209 90.864 494.777 92.24H494.761C494.761 91.952 494.793 91.008 494.793 90.576V86.912H493.513V98ZM506.275 98.128C508.243 98.128 509.235 97.344 509.507 96.128H509.523C509.507 96.896 509.475 97.632 509.459 98H510.739V93.184C510.739 91.12 509.395 89.968 507.075 89.968C504.931 89.968 503.587 90.912 503.587 92.48C503.587 92.624 503.603 92.848 503.619 92.96H504.803C504.787 92.832 504.787 92.72 504.787 92.672C504.787 91.6 505.587 91.056 507.043 91.056C508.659 91.056 509.459 91.712 509.459 93.072V93.648H506.243C504.131 93.648 503.347 94.608 503.347 95.728C503.347 97.216 504.483 98.128 506.275 98.128ZM506.531 97.04C505.283 97.04 504.547 96.528 504.547 95.728C504.547 94.96 505.059 94.576 506.355 94.576H509.459V94.688C509.459 96.128 508.323 97.04 506.531 97.04ZM516.341 98.128C518.101 98.128 519.157 97.248 519.461 95.888H519.493C519.477 96.592 519.461 97.296 519.413 98H520.693V86.912H519.413V91.68H519.397C519.109 90.64 518.101 89.968 516.453 89.968C514.053 89.968 512.581 91.648 512.581 94C512.581 96.464 514.053 98.128 516.341 98.128ZM516.549 96.976C514.917 96.976 513.861 95.76 513.861 94C513.861 92.352 514.917 91.12 516.565 91.12C518.309 91.12 519.413 92.144 519.413 93.744V94.144C519.413 95.872 518.293 96.976 516.549 96.976ZM530.163 93.712C530.163 91.36 528.835 89.968 526.579 89.968C524.211 89.968 522.691 91.584 522.691 94.112C522.691 96.56 524.227 98.128 526.611 98.128C528.691 98.128 530.083 97.04 530.163 95.328H528.979C528.867 96.368 527.955 97.04 526.627 97.04C525.075 97.04 524.051 95.984 523.971 94.304H530.163V93.712ZM528.979 93.376H524.019C524.259 91.872 525.203 91.056 526.611 91.056C528.115 91.056 528.979 91.888 528.979 93.28V93.376ZM535.529 98.128C537.289 98.128 538.345 97.248 538.649 95.888H538.681C538.665 96.592 538.649 97.296 538.601 98H539.881V86.912H538.601V91.68H538.585C538.297 90.64 537.289 89.968 535.641 89.968C533.241 89.968 531.769 91.648 531.769 94C531.769 96.464 533.241 98.128 535.529 98.128ZM535.737 96.976C534.105 96.976 533.049 95.76 533.049 94C533.049 92.352 534.105 91.12 535.753 91.12C537.497 91.12 538.601 92.144 538.601 93.744V94.144C538.601 95.872 537.481 96.976 535.737 96.976ZM550.862 98.16C553.55 98.16 555.534 96.528 555.534 94.16V93.904H554.286V94.096C554.286 95.776 552.798 96.944 550.862 96.944C548.654 96.944 546.91 95.312 546.91 92.752C546.91 90.176 548.574 88.528 550.862 88.528C552.782 88.528 554.238 89.728 554.238 91.504V91.792H555.47C555.486 91.584 555.486 91.44 555.486 91.408C555.486 88.976 553.534 87.312 550.862 87.312C547.742 87.312 545.566 89.44 545.566 92.752C545.566 96.048 547.806 98.16 550.862 98.16ZM560.134 98.128C562.102 98.128 563.094 97.344 563.366 96.128H563.382C563.366 96.896 563.334 97.632 563.318 98H564.598V93.184C564.598 91.12 563.254 89.968 560.934 89.968C558.79 89.968 557.446 90.912 557.446 92.48C557.446 92.624 557.462 92.848 557.478 92.96H558.662C558.646 92.832 558.646 92.72 558.646 92.672C558.646 91.6 559.446 91.056 560.902 91.056C562.518 91.056 563.318 91.712 563.318 93.072V93.648H560.102C557.99 93.648 557.206 94.608 557.206 95.728C557.206 97.216 558.342 98.128 560.134 98.128ZM560.39 97.04C559.142 97.04 558.406 96.528 558.406 95.728C558.406 94.96 558.918 94.576 560.214 94.576H563.318V94.688C563.318 96.128 562.182 97.04 560.39 97.04ZM566.761 98H568.041V94.112C568.041 92.224 569.209 91.12 571.017 91.12C572.713 91.12 573.481 91.984 573.481 93.328V98H574.761V93.056C574.761 91.168 573.529 89.968 571.449 89.968C569.561 89.968 568.457 90.848 568.025 92.224H568.009L568.041 90.096H566.761V98ZM580.597 98.128C583.045 98.128 584.597 96.544 584.597 94.064C584.597 91.568 583.045 89.968 580.597 89.968C578.149 89.968 576.597 91.568 576.597 94.064C576.597 96.544 578.149 98.128 580.597 98.128ZM580.597 96.976C578.933 96.976 577.877 95.84 577.877 94.064C577.877 92.272 578.933 91.12 580.597 91.12C582.261 91.12 583.317 92.272 583.317 94.064C583.317 95.84 582.261 96.976 580.597 96.976ZM586.591 101.168H587.871V97.984C587.871 97.616 587.839 96.784 587.823 96.256H587.839C588.175 97.328 589.295 98.128 590.975 98.128C593.295 98.128 594.719 96.48 594.719 93.92C594.719 91.504 593.311 89.968 591.007 89.968C589.295 89.968 588.175 90.816 587.855 92.128H587.839L587.871 90.096H586.591V101.168ZM590.799 96.976C589.007 96.976 587.871 96.016 587.871 94.512V94.032C587.903 92.256 589.039 91.12 590.767 91.12C592.431 91.12 593.439 92.224 593.439 93.936C593.439 95.792 592.415 96.976 590.799 96.976ZM597.432 101.328C598.936 101.328 599.544 100.592 600.488 98.144L603.624 90.096H602.328L599.784 96.704H599.752L596.872 90.096H595.368L598.92 98H599.256C598.52 99.792 598.136 100.208 597.272 100.208C596.872 100.208 596.488 100.112 596.296 100.048V101.12C596.52 101.216 596.984 101.328 597.432 101.328ZM613.719 98.16C615.815 98.16 616.983 97.248 617.303 96.048H617.319C617.287 96.816 617.239 97.568 617.191 98H618.455V92.944H613.415V93.936H617.111V94.24C617.111 95.824 615.815 97.008 613.719 97.008C611.607 97.008 609.847 95.392 609.847 92.848C609.847 90.224 611.575 88.528 613.799 88.528C615.703 88.528 617.111 89.52 617.111 91.2C617.111 91.36 617.111 91.552 617.095 91.76H618.343C618.359 91.504 618.359 91.264 618.359 91.136C618.359 88.736 616.455 87.312 613.799 87.312C610.807 87.312 608.503 89.536 608.503 92.832C608.503 96.096 610.727 98.16 613.719 98.16ZM620.698 98H621.978V94.496C621.978 92.528 622.922 91.12 624.538 91.12C625.834 91.12 626.378 91.872 626.378 93.328C626.378 93.824 626.346 94.224 626.314 94.464H627.482C627.514 94.176 627.562 93.6 627.562 93.056C627.562 91.152 626.618 89.968 624.842 89.968C623.146 89.968 622.33 91.008 621.962 92.384H621.946L621.978 90.096H620.698V98ZM636.631 93.712C636.631 91.36 635.303 89.968 633.047 89.968C630.679 89.968 629.159 91.584 629.159 94.112C629.159 96.56 630.695 98.128 633.079 98.128C635.159 98.128 636.551 97.04 636.631 95.328H635.447C635.335 96.368 634.423 97.04 633.095 97.04C631.543 97.04 630.519 95.984 630.439 94.304H636.631V93.712ZM635.447 93.376H630.487C630.727 91.872 631.671 91.056 633.079 91.056C634.583 91.056 635.447 91.888 635.447 93.28V93.376ZM645.71 93.712C645.71 91.36 644.382 89.968 642.126 89.968C639.758 89.968 638.238 91.584 638.238 94.112C638.238 96.56 639.774 98.128 642.158 98.128C644.238 98.128 645.63 97.04 645.71 95.328H644.526C644.414 96.368 643.502 97.04 642.174 97.04C640.622 97.04 639.598 95.984 639.518 94.304H645.71V93.712ZM644.526 93.376H639.566C639.806 91.872 640.75 91.056 642.158 91.056C643.662 91.056 644.526 91.888 644.526 93.28V93.376ZM647.636 98H648.916V94.112C648.916 92.224 650.084 91.12 651.892 91.12C653.588 91.12 654.356 91.984 654.356 93.328V98H655.636V93.056C655.636 91.168 654.404 89.968 652.324 89.968C650.436 89.968 649.332 90.848 648.9 92.224H648.884L648.916 90.096H647.636V98ZM483.28 121H484.624V116.616H487.92C489.664 116.616 490.16 117.336 490.16 118.456V121H491.536V118.456C491.536 117.144 491.056 116.2 489.568 116.024V115.992C491.008 115.816 491.6 114.84 491.6 113.464C491.6 111.64 490.288 110.472 487.648 110.472H483.28V121ZM484.624 115.624V111.688H487.648C489.424 111.688 490.288 112.408 490.288 113.576C490.288 114.808 489.552 115.624 487.632 115.624H484.624ZM498.587 121H500.091C500.971 117.256 502.075 114.792 505.275 111.576V110.472H496.859V111.688H503.755V111.704C501.243 114.184 499.467 117.256 498.587 121ZM506.803 121H514.611V119.816H511.667V110.36H510.515C510.499 112.92 510.387 113.16 509.411 113.176L507.939 113.208V114.184H510.355V119.816H506.803V121ZM516.491 123.096C517.723 122.936 518.251 122.168 518.251 120.536V119.176H516.875V121H517.451V121.032C517.435 121.848 517.179 122.264 516.491 122.36V123.096ZM529.297 121.16C531.393 121.16 532.561 120.248 532.881 119.048H532.897C532.865 119.816 532.817 120.568 532.769 121H534.033V115.944H528.993V116.936H532.689V117.24C532.689 118.824 531.393 120.008 529.297 120.008C527.185 120.008 525.425 118.392 525.425 115.848C525.425 113.224 527.153 111.528 529.377 111.528C531.281 111.528 532.689 112.52 532.689 114.2C532.689 114.36 532.689 114.552 532.673 114.76H533.921C533.937 114.504 533.937 114.264 533.937 114.136C533.937 111.736 532.033 110.312 529.377 110.312C526.385 110.312 524.081 112.536 524.081 115.832C524.081 119.096 526.305 121.16 529.297 121.16ZM539.772 121H547.58V119.816H544.636V110.36H543.484C543.468 112.92 543.356 113.16 542.38 113.176L540.908 113.208V114.184H543.324V119.816H539.772V121ZM554.852 121H556.164V118.52H557.908V117.336H556.164V110.472H554.676L549.076 117.336V118.52H554.852V121ZM550.484 117.336V117.32L554.836 112.008H554.852V117.336H550.484ZM560.524 121H562.028C562.908 117.256 564.012 114.792 567.212 111.576V110.472H558.796V111.688H565.692V111.704C563.18 114.184 561.404 117.256 560.524 121ZM568.773 123.096C570.005 122.936 570.533 122.168 570.533 120.536V119.176H569.157V121H569.733V121.032C569.717 121.848 569.461 122.264 568.773 122.36V123.096ZM576.843 121H581.515C584.091 121 585.115 119.816 585.115 117.96C585.115 116.584 584.315 115.624 582.859 115.496V115.48C584.107 115.32 584.715 114.44 584.715 113.224C584.715 111.544 583.579 110.472 581.131 110.472H576.843V121ZM578.187 115.096V111.656H581.115C582.779 111.656 583.467 112.344 583.467 113.4C583.467 114.44 582.795 115.096 581.307 115.096H578.187ZM578.187 119.816V116.088H581.403C582.939 116.088 583.803 116.776 583.803 117.832C583.803 119.048 583.275 119.816 581.467 119.816H578.187ZM590.537 121H598.345V119.816H595.401V110.36H594.249C594.233 112.92 594.121 113.16 593.145 113.176L591.673 113.208V114.184H594.089V119.816H590.537V121ZM600.226 121H607.938V119.816H601.57C601.57 119.16 601.826 118.84 604.082 117.784C607.154 116.344 607.746 115.24 607.746 113.64C607.746 111.688 606.354 110.328 604.114 110.328C601.682 110.328 600.29 111.8 600.29 114.12C600.29 114.664 600.338 115.16 600.386 115.4H601.602C601.554 115.16 601.506 114.68 601.506 114.184C601.506 112.552 602.418 111.512 604.082 111.512C605.554 111.512 606.434 112.392 606.434 113.64C606.434 115.032 606.018 115.672 603.378 116.904C600.594 118.2 600.226 118.84 600.226 121ZM613.754 121.144C616.362 121.144 617.866 119.048 617.866 115.688C617.866 112.392 616.362 110.328 613.754 110.328C611.146 110.328 609.642 112.392 609.642 115.688C609.642 119.048 611.146 121.144 613.754 121.144ZM613.754 119.96C611.946 119.96 610.954 118.328 610.954 115.688C610.954 113.112 611.946 111.512 613.754 111.512C615.562 111.512 616.554 113.112 616.554 115.688C616.554 118.328 615.562 119.96 613.754 119.96ZM491.248 137.312V136.16H489.328L489.792 133.472H488.96L488.496 136.16H486.032L486.496 133.472H485.664L485.2 136.16H482.416V137.312H485.008L484.512 140.256H482.416V141.408H484.32L483.872 144H484.704L485.152 141.408H487.6L487.152 144H487.984L488.432 141.408H491.248V140.256H488.624L489.136 137.312H491.248ZM487.792 140.256H485.344L485.84 137.312H488.304L487.792 140.256ZM498.008 144H499.32V141.52H501.064V140.336H499.32V133.472H497.832L492.232 140.336V141.52H498.008V144ZM493.64 140.336V140.32L497.992 135.008H498.008V140.336H493.64ZM503.681 144H505.185C506.065 140.256 507.169 137.792 510.369 134.576V133.472H501.953V134.688H508.849V134.704C506.337 137.184 504.561 140.256 503.681 144ZM515.737 144.144C518.425 144.144 519.913 142.288 519.913 138.624C519.913 134.768 518.249 133.328 515.673 133.328C513.177 133.328 511.689 134.72 511.689 136.816C511.689 138.688 513.081 139.92 515.465 139.92C517.241 139.92 518.361 139.04 518.521 137.776H518.553C518.585 138.08 518.585 138.48 518.585 138.784C518.585 141.552 517.609 142.976 515.721 142.976C514.089 142.976 513.177 142.208 513.177 141.12C513.177 141.056 513.177 140.88 513.193 140.704H511.945C511.929 140.912 511.929 141.136 511.929 141.232C511.929 142.944 513.337 144.144 515.737 144.144ZM515.513 138.864C513.977 138.864 513.001 138.064 513.001 136.816C513.001 135.424 513.977 134.496 515.657 134.496C517.273 134.496 518.281 135.376 518.361 136.528C518.361 137.888 517.257 138.864 515.513 138.864ZM525.329 144.144C527.937 144.144 529.553 142.832 529.553 140.768C529.553 139.504 528.785 138.592 527.569 138.432V138.4C528.481 138.192 529.073 137.344 529.073 136.304C529.073 134.448 527.649 133.328 525.457 133.328C523.025 133.328 521.585 134.576 521.585 136.512C521.585 136.864 521.617 137.216 521.649 137.376H522.865C522.849 137.216 522.833 136.992 522.833 136.704C522.833 135.36 523.761 134.512 525.457 134.512C526.865 134.512 527.793 135.232 527.793 136.448C527.793 137.472 527.169 138.128 525.953 138.128H524.561V139.088H526.209C527.489 139.088 528.241 139.632 528.241 140.688C528.241 142.128 527.137 142.96 525.329 142.96C523.569 142.96 522.593 142.16 522.593 140.64C522.593 140.56 522.593 140.4 522.609 140.128H521.393C521.377 140.304 521.345 140.624 521.345 140.848C521.345 142.896 522.897 144.144 525.329 144.144ZM532.649 144H534.153C535.033 140.256 536.137 137.792 539.337 134.576V133.472H530.921V134.688H537.817V134.704C535.305 137.184 533.529 140.256 532.649 144ZM544.77 144.144C547.282 144.144 548.882 142.944 548.882 141.008C548.882 139.712 548.002 138.752 546.738 138.528V138.512C547.826 138.304 548.434 137.392 548.434 136.32C548.434 134.448 547.01 133.328 544.77 133.328C542.53 133.328 541.106 134.448 541.106 136.32C541.106 137.392 541.714 138.304 542.802 138.512V138.528C541.522 138.752 540.658 139.712 540.658 141.008C540.658 142.944 542.258 144.144 544.77 144.144ZM544.77 138.112C543.298 138.112 542.354 137.408 542.354 136.32C542.354 135.2 543.298 134.48 544.77 134.48C546.242 134.48 547.186 135.2 547.186 136.32C547.186 137.408 546.242 138.112 544.77 138.112ZM544.77 142.992C543.058 142.992 541.97 142.208 541.97 141.008C541.97 139.84 543.058 139.104 544.77 139.104C546.482 139.104 547.57 139.84 547.57 141.008C547.57 142.208 546.482 142.992 544.77 142.992Z" fill="black"/>
<path d="M723.28 98H727.456C730.496 98 732.368 96.016 732.368 92.72C732.368 89.456 730.368 87.472 727.12 87.472H723.28V98ZM724.624 96.784V88.688H727.152C729.552 88.688 731.024 90.208 731.024 92.72C731.024 95.28 729.664 96.784 727.424 96.784H724.624ZM736.9 98.128C738.868 98.128 739.86 97.344 740.132 96.128H740.148C740.132 96.896 740.1 97.632 740.084 98H741.364V93.184C741.364 91.12 740.02 89.968 737.7 89.968C735.556 89.968 734.212 90.912 734.212 92.48C734.212 92.624 734.228 92.848 734.244 92.96H735.428C735.412 92.832 735.412 92.72 735.412 92.672C735.412 91.6 736.212 91.056 737.668 91.056C739.284 91.056 740.084 91.712 740.084 93.072V93.648H736.868C734.756 93.648 733.972 94.608 733.972 95.728C733.972 97.216 735.108 98.128 736.9 98.128ZM737.156 97.04C735.908 97.04 735.172 96.528 735.172 95.728C735.172 94.96 735.684 94.576 736.98 94.576H740.084V94.688C740.084 96.128 738.948 97.04 737.156 97.04ZM743.526 98H744.806V94.496C744.806 92.528 745.75 91.12 747.366 91.12C748.662 91.12 749.206 91.872 749.206 93.328C749.206 93.824 749.174 94.224 749.142 94.464H750.31C750.342 94.176 750.39 93.6 750.39 93.056C750.39 91.152 749.446 89.968 747.67 89.968C745.974 89.968 745.158 91.008 744.79 92.384H744.774L744.806 90.096H743.526V98ZM752.388 98H753.668V95.92L755.476 94.352L758.836 98H760.66L756.436 93.536L760.436 90.096H758.644L753.684 94.512H753.668V86.912H752.388V98ZM765.999 98H767.343V93.424H772.047V92.4H767.343V88.688H772.831V87.472H765.999V98ZM777.8 98.128C780.248 98.128 781.8 96.544 781.8 94.064C781.8 91.568 780.248 89.968 777.8 89.968C775.352 89.968 773.8 91.568 773.8 94.064C773.8 96.544 775.352 98.128 777.8 98.128ZM777.8 96.976C776.136 96.976 775.08 95.84 775.08 94.064C775.08 92.272 776.136 91.12 777.8 91.12C779.464 91.12 780.52 92.272 780.52 94.064C780.52 95.84 779.464 96.976 777.8 96.976ZM783.714 98H784.994V94.496C784.994 92.528 785.938 91.12 787.554 91.12C788.85 91.12 789.394 91.872 789.394 93.328C789.394 93.824 789.362 94.224 789.33 94.464H790.498C790.53 94.176 790.578 93.6 790.578 93.056C790.578 91.152 789.634 89.968 787.858 89.968C786.162 89.968 785.346 91.008 784.978 92.384H784.962L784.994 90.096H783.714V98ZM799.647 93.712C799.647 91.36 798.319 89.968 796.063 89.968C793.695 89.968 792.175 91.584 792.175 94.112C792.175 96.56 793.711 98.128 796.095 98.128C798.175 98.128 799.567 97.04 799.647 95.328H798.463C798.351 96.368 797.439 97.04 796.111 97.04C794.559 97.04 793.535 95.984 793.455 94.304H799.647V93.712ZM798.463 93.376H793.503C793.743 91.872 794.687 91.056 796.095 91.056C797.599 91.056 798.463 91.888 798.463 93.28V93.376ZM804.741 98.128C807.141 98.128 808.421 97.2 808.421 95.648C808.421 95.056 808.165 94.448 807.637 94.144C807.093 93.84 806.485 93.728 805.253 93.6C804.213 93.488 803.429 93.392 803.045 93.232C802.581 93.04 802.533 92.656 802.533 92.336C802.533 91.552 803.413 91.056 804.773 91.056C806.181 91.056 806.885 91.6 806.901 92.784H808.085C808.085 91.008 807.093 89.968 804.725 89.968C802.613 89.968 801.253 90.928 801.253 92.416C801.253 92.992 801.477 93.568 801.909 93.888C802.389 94.24 803.173 94.4 804.469 94.512C805.445 94.608 806.277 94.704 806.645 94.88C807.045 95.072 807.141 95.376 807.141 95.696C807.141 96.544 806.357 97.04 804.725 97.04C803.077 97.04 802.437 96.416 802.437 95.36H801.253C801.253 96.88 802.085 98.128 804.741 98.128ZM813.475 98.064C814.115 98.064 814.579 97.968 814.819 97.872V96.784C814.643 96.848 814.131 96.944 813.587 96.944C812.403 96.944 812.019 96.224 812.019 95.024V91.216H814.883V90.096H812.019V88.304H810.931L810.867 89.552C810.835 89.968 810.739 90.096 810.483 90.096H809.427V91.216H810.739V95.104C810.739 96.848 811.555 98.064 813.475 98.064ZM825.284 98.16C827.972 98.16 829.956 96.528 829.956 94.16V93.904H828.708V94.096C828.708 95.776 827.22 96.944 825.284 96.944C823.076 96.944 821.332 95.312 821.332 92.752C821.332 90.176 822.996 88.528 825.284 88.528C827.204 88.528 828.66 89.728 828.66 91.504V91.792H829.892C829.908 91.584 829.908 91.44 829.908 91.408C829.908 88.976 827.956 87.312 825.284 87.312C822.164 87.312 819.988 89.44 819.988 92.752C819.988 96.048 822.228 98.16 825.284 98.16ZM834.556 98.128C836.524 98.128 837.516 97.344 837.788 96.128H837.804C837.788 96.896 837.756 97.632 837.74 98H839.02V93.184C839.02 91.12 837.676 89.968 835.356 89.968C833.212 89.968 831.868 90.912 831.868 92.48C831.868 92.624 831.884 92.848 831.9 92.96H833.084C833.068 92.832 833.068 92.72 833.068 92.672C833.068 91.6 833.868 91.056 835.324 91.056C836.94 91.056 837.74 91.712 837.74 93.072V93.648H834.524C832.412 93.648 831.628 94.608 831.628 95.728C831.628 97.216 832.764 98.128 834.556 98.128ZM834.812 97.04C833.564 97.04 832.828 96.528 832.828 95.728C832.828 94.96 833.34 94.576 834.636 94.576H837.74V94.688C837.74 96.128 836.604 97.04 834.812 97.04ZM841.183 98H842.463V94.112C842.463 92.224 843.631 91.12 845.439 91.12C847.135 91.12 847.903 91.984 847.903 93.328V98H849.183V93.056C849.183 91.168 847.951 89.968 845.871 89.968C843.983 89.968 842.879 90.848 842.447 92.224H842.431L842.463 90.096H841.183V98ZM855.019 98.128C857.467 98.128 859.019 96.544 859.019 94.064C859.019 91.568 857.467 89.968 855.019 89.968C852.571 89.968 851.019 91.568 851.019 94.064C851.019 96.544 852.571 98.128 855.019 98.128ZM855.019 96.976C853.355 96.976 852.299 95.84 852.299 94.064C852.299 92.272 853.355 91.12 855.019 91.12C856.683 91.12 857.739 92.272 857.739 94.064C857.739 95.84 856.683 96.976 855.019 96.976ZM861.013 101.168H862.293V97.984C862.293 97.616 862.261 96.784 862.245 96.256H862.261C862.597 97.328 863.717 98.128 865.397 98.128C867.717 98.128 869.141 96.48 869.141 93.92C869.141 91.504 867.733 89.968 865.429 89.968C863.717 89.968 862.597 90.816 862.277 92.128H862.261L862.293 90.096H861.013V101.168ZM865.221 96.976C863.429 96.976 862.293 96.016 862.293 94.512V94.032C862.325 92.256 863.461 91.12 865.189 91.12C866.853 91.12 867.861 92.224 867.861 93.936C867.861 95.792 866.837 96.976 865.221 96.976ZM871.854 101.328C873.358 101.328 873.966 100.592 874.91 98.144L878.046 90.096H876.75L874.206 96.704H874.174L871.294 90.096H869.79L873.342 98H873.678C872.942 99.792 872.558 100.208 871.694 100.208C871.294 100.208 870.91 100.112 870.718 100.048V101.12C870.942 101.216 871.406 101.328 871.854 101.328ZM888.141 98.16C890.237 98.16 891.405 97.248 891.725 96.048H891.741C891.709 96.816 891.661 97.568 891.613 98H892.877V92.944H887.837V93.936H891.533V94.24C891.533 95.824 890.237 97.008 888.141 97.008C886.029 97.008 884.269 95.392 884.269 92.848C884.269 90.224 885.997 88.528 888.221 88.528C890.125 88.528 891.533 89.52 891.533 91.2C891.533 91.36 891.533 91.552 891.517 91.76H892.765C892.781 91.504 892.781 91.264 892.781 91.136C892.781 88.736 890.877 87.312 888.221 87.312C885.229 87.312 882.925 89.536 882.925 92.832C882.925 96.096 885.149 98.16 888.141 98.16ZM895.12 98H896.4V94.496C896.4 92.528 897.344 91.12 898.96 91.12C900.256 91.12 900.8 91.872 900.8 93.328C900.8 93.824 900.768 94.224 900.736 94.464H901.904C901.936 94.176 901.984 93.6 901.984 93.056C901.984 91.152 901.04 89.968 899.264 89.968C897.568 89.968 896.752 91.008 896.384 92.384H896.368L896.4 90.096H895.12V98ZM911.053 93.712C911.053 91.36 909.725 89.968 907.469 89.968C905.101 89.968 903.581 91.584 903.581 94.112C903.581 96.56 905.117 98.128 907.501 98.128C909.581 98.128 910.973 97.04 911.053 95.328H909.869C909.757 96.368 908.845 97.04 907.517 97.04C905.965 97.04 904.941 95.984 904.861 94.304H911.053V93.712ZM909.869 93.376H904.909C905.149 91.872 906.093 91.056 907.501 91.056C909.005 91.056 909.869 91.888 909.869 93.28V93.376ZM920.131 93.712C920.131 91.36 918.803 89.968 916.547 89.968C914.179 89.968 912.659 91.584 912.659 94.112C912.659 96.56 914.195 98.128 916.579 98.128C918.659 98.128 920.051 97.04 920.131 95.328H918.947C918.835 96.368 917.923 97.04 916.595 97.04C915.043 97.04 914.019 95.984 913.939 94.304H920.131V93.712ZM918.947 93.376H913.987C914.227 91.872 915.171 91.056 916.579 91.056C918.083 91.056 918.947 91.888 918.947 93.28V93.376ZM922.058 98H923.338V94.112C923.338 92.224 924.506 91.12 926.314 91.12C928.01 91.12 928.778 91.984 928.778 93.328V98H930.058V93.056C930.058 91.168 928.826 89.968 926.746 89.968C924.858 89.968 923.754 90.848 923.322 92.224H923.306L923.338 90.096H922.058V98ZM723.28 121H724.624V116.616H727.92C729.664 116.616 730.16 117.336 730.16 118.456V121H731.536V118.456C731.536 117.144 731.056 116.2 729.568 116.024V115.992C731.008 115.816 731.6 114.84 731.6 113.464C731.6 111.64 730.288 110.472 727.648 110.472H723.28V121ZM724.624 115.624V111.688H727.648C729.424 111.688 730.288 112.408 730.288 113.576C730.288 114.808 729.552 115.624 727.632 115.624H724.624ZM737.179 121H744.891V119.816H738.523C738.523 119.16 738.779 118.84 741.035 117.784C744.107 116.344 744.699 115.24 744.699 113.64C744.699 111.688 743.307 110.328 741.067 110.328C738.635 110.328 737.243 111.8 737.243 114.12C737.243 114.664 737.291 115.16 737.339 115.4H738.555C738.507 115.16 738.459 114.68 738.459 114.184C738.459 112.552 739.371 111.512 741.035 111.512C742.507 111.512 743.387 112.392 743.387 113.64C743.387 115.032 742.971 115.672 740.331 116.904C737.547 118.2 737.179 118.84 737.179 121ZM750.899 121.144C753.267 121.144 754.819 119.816 754.819 117.768C754.819 115.976 753.555 114.856 751.059 114.856C749.331 114.856 748.131 115.592 747.955 116.744H747.923C747.907 116.6 747.907 116.2 747.907 115.704C747.907 113.08 748.899 111.512 750.899 111.512C752.435 111.512 753.219 112.328 753.219 113.512C753.219 113.768 753.203 113.944 753.187 114.056H754.435C754.451 113.928 754.467 113.688 754.467 113.496C754.467 111.56 753.187 110.328 750.899 110.328C748.099 110.328 746.595 112.424 746.595 115.752C746.595 119.208 747.843 121.144 750.899 121.144ZM750.915 119.992C749.315 119.992 748.227 119.096 748.099 117.88C748.099 116.808 749.203 115.912 750.931 115.912C752.627 115.912 753.507 116.616 753.507 117.784C753.507 119.112 752.483 119.992 750.915 119.992ZM756.491 123.096C757.723 122.936 758.251 122.168 758.251 120.536V119.176H756.875V121H757.451V121.032C757.435 121.848 757.179 122.264 756.491 122.36V123.096ZM769.297 121.16C771.393 121.16 772.561 120.248 772.881 119.048H772.897C772.865 119.816 772.817 120.568 772.769 121H774.033V115.944H768.993V116.936H772.689V117.24C772.689 118.824 771.393 120.008 769.297 120.008C767.185 120.008 765.425 118.392 765.425 115.848C765.425 113.224 767.153 111.528 769.377 111.528C771.281 111.528 772.689 112.52 772.689 114.2C772.689 114.36 772.689 114.552 772.673 114.76H773.921C773.937 114.504 773.937 114.264 773.937 114.136C773.937 111.736 772.033 110.312 769.377 110.312C766.385 110.312 764.081 112.536 764.081 115.832C764.081 119.096 766.305 121.16 769.297 121.16ZM783.548 121.144C786.156 121.144 787.772 119.832 787.772 117.768C787.772 116.504 787.004 115.592 785.788 115.432V115.4C786.7 115.192 787.292 114.344 787.292 113.304C787.292 111.448 785.868 110.328 783.676 110.328C781.244 110.328 779.804 111.576 779.804 113.512C779.804 113.864 779.836 114.216 779.868 114.376H781.084C781.068 114.216 781.052 113.992 781.052 113.704C781.052 112.36 781.98 111.512 783.676 111.512C785.084 111.512 786.012 112.232 786.012 113.448C786.012 114.472 785.388 115.128 784.172 115.128H782.78V116.088H784.428C785.708 116.088 786.46 116.632 786.46 117.688C786.46 119.128 785.356 119.96 783.548 119.96C781.788 119.96 780.812 119.16 780.812 117.64C780.812 117.56 780.812 117.4 780.828 117.128H779.612C779.596 117.304 779.564 117.624 779.564 117.848C779.564 119.896 781.116 121.144 783.548 121.144ZM793.412 121.144C795.812 121.144 797.332 119.592 797.332 117.416C797.332 115.416 795.956 114.12 793.668 114.12C792.212 114.12 791.172 114.696 790.836 115.592H790.804L791.108 111.656H796.692V110.472H790.004L789.588 116.44L790.836 116.568C791.188 115.72 792.196 115.176 793.38 115.176C794.996 115.176 796.02 116.04 796.02 117.416C796.02 118.872 794.996 119.96 793.412 119.96C791.764 119.96 790.676 119.272 790.676 118.216C790.676 118.136 790.676 118.04 790.692 117.896H789.46C789.444 117.976 789.428 118.136 789.428 118.28C789.428 120.008 791.012 121.144 793.412 121.144ZM799.116 123.096C800.348 122.936 800.876 122.168 800.876 120.536V119.176H799.5V121H800.076V121.032C800.06 121.848 799.804 122.264 799.116 122.36V123.096ZM807.186 121H811.858C814.434 121 815.458 119.816 815.458 117.96C815.458 116.584 814.658 115.624 813.202 115.496V115.48C814.45 115.32 815.058 114.44 815.058 113.224C815.058 111.544 813.922 110.472 811.474 110.472H807.186V121ZM808.53 115.096V111.656H811.458C813.122 111.656 813.81 112.344 813.81 113.4C813.81 114.44 813.138 115.096 811.65 115.096H808.53ZM808.53 119.816V116.088H811.746C813.282 116.088 814.146 116.776 814.146 117.832C814.146 119.048 813.618 119.816 811.81 119.816H808.53ZM824.657 121.144C827.265 121.144 828.881 119.832 828.881 117.768C828.881 116.504 828.113 115.592 826.897 115.432V115.4C827.809 115.192 828.401 114.344 828.401 113.304C828.401 111.448 826.977 110.328 824.785 110.328C822.353 110.328 820.913 111.576 820.913 113.512C820.913 113.864 820.945 114.216 820.977 114.376H822.193C822.177 114.216 822.161 113.992 822.161 113.704C822.161 112.36 823.089 111.512 824.785 111.512C826.193 111.512 827.121 112.232 827.121 113.448C827.121 114.472 826.497 115.128 825.281 115.128H823.889V116.088H825.537C826.817 116.088 827.569 116.632 827.569 117.688C827.569 119.128 826.465 119.96 824.657 119.96C822.897 119.96 821.921 119.16 821.921 117.64C821.921 117.56 821.921 117.4 821.937 117.128H820.721C820.705 117.304 820.673 117.624 820.673 117.848C820.673 119.896 822.225 121.144 824.657 121.144ZM834.313 121.144C836.921 121.144 838.537 119.832 838.537 117.768C838.537 116.504 837.769 115.592 836.553 115.432V115.4C837.465 115.192 838.057 114.344 838.057 113.304C838.057 111.448 836.633 110.328 834.441 110.328C832.009 110.328 830.569 111.576 830.569 113.512C830.569 113.864 830.601 114.216 830.633 114.376H831.849C831.833 114.216 831.817 113.992 831.817 113.704C831.817 112.36 832.745 111.512 834.441 111.512C835.849 111.512 836.777 112.232 836.777 113.448C836.777 114.472 836.153 115.128 834.937 115.128H833.545V116.088H835.193C836.473 116.088 837.225 116.632 837.225 117.688C837.225 119.128 836.121 119.96 834.313 119.96C832.553 119.96 831.577 119.16 831.577 117.64C831.577 117.56 831.577 117.4 831.593 117.128H830.377C830.361 117.304 830.329 117.624 830.329 117.848C830.329 119.896 831.881 121.144 834.313 121.144ZM731.248 137.312V136.16H729.328L729.792 133.472H728.96L728.496 136.16H726.032L726.496 133.472H725.664L725.2 136.16H722.416V137.312H725.008L724.512 140.256H722.416V141.408H724.32L723.872 144H724.704L725.152 141.408H727.6L727.152 144H727.984L728.432 141.408H731.248V140.256H728.624L729.136 137.312H731.248ZM727.792 140.256H725.344L725.84 137.312H728.304L727.792 140.256ZM732.584 144H740.392V142.816H737.448V133.36H736.296C736.28 135.92 736.168 136.16 735.192 136.176L733.72 136.208V137.184H736.136V142.816H732.584V144ZM750.641 144H752.209L747.761 133.472H746.161L741.713 144H743.121L744.161 141.44H749.617L750.641 144ZM744.561 140.448L746.897 134.704H746.929L749.217 140.448H744.561ZM753.569 144H761.281V142.816H754.913C754.913 142.16 755.169 141.84 757.425 140.784C760.497 139.344 761.089 138.24 761.089 136.64C761.089 134.688 759.697 133.328 757.457 133.328C755.025 133.328 753.633 134.8 753.633 137.12C753.633 137.664 753.681 138.16 753.729 138.4H754.945C754.897 138.16 754.849 137.68 754.849 137.184C754.849 135.552 755.761 134.512 757.425 134.512C758.897 134.512 759.777 135.392 759.777 136.64C759.777 138.032 759.361 138.672 756.721 139.904C753.937 141.2 753.569 141.84 753.569 144ZM766.97 144.144C769.578 144.144 771.194 142.832 771.194 140.768C771.194 139.504 770.426 138.592 769.21 138.432V138.4C770.122 138.192 770.714 137.344 770.714 136.304C770.714 134.448 769.29 133.328 767.098 133.328C764.666 133.328 763.226 134.576 763.226 136.512C763.226 136.864 763.258 137.216 763.29 137.376H764.506C764.49 137.216 764.474 136.992 764.474 136.704C764.474 135.36 765.402 134.512 767.098 134.512C768.506 134.512 769.434 135.232 769.434 136.448C769.434 137.472 768.81 138.128 767.594 138.128H766.202V139.088H767.85C769.13 139.088 769.882 139.632 769.882 140.688C769.882 142.128 768.778 142.96 766.97 142.96C765.21 142.96 764.234 142.16 764.234 140.64C764.234 140.56 764.234 140.4 764.25 140.128H763.034C763.018 140.304 762.986 140.624 762.986 140.848C762.986 142.896 764.538 144.144 766.97 144.144ZM772.882 144H780.594V142.816H774.226C774.226 142.16 774.482 141.84 776.738 140.784C779.81 139.344 780.402 138.24 780.402 136.64C780.402 134.688 779.01 133.328 776.77 133.328C774.338 133.328 772.946 134.8 772.946 137.12C772.946 137.664 772.994 138.16 773.042 138.4H774.258C774.21 138.16 774.162 137.68 774.162 137.184C774.162 135.552 775.074 134.512 776.738 134.512C778.21 134.512 779.09 135.392 779.09 136.64C779.09 138.032 778.674 138.672 776.034 139.904C773.25 141.2 772.882 141.84 772.882 144ZM782.506 144H790.314V142.816H787.37V133.36H786.218C786.202 135.92 786.09 136.16 785.114 136.176L783.642 136.208V137.184H786.058V142.816H782.506V144Z" fill="black"/>
<path d="M3.28 310H7.952C10.528 310 11.552 308.816 11.552 306.96C11.552 305.584 10.752 304.624 9.296 304.496V304.48C10.544 304.32 11.152 303.44 11.152 302.224C11.152 300.544 10.016 299.472 7.568 299.472H3.28V310ZM4.624 304.096V300.656H7.552C9.216 300.656 9.904 301.344 9.904 302.4C9.904 303.44 9.232 304.096 7.744 304.096H4.624ZM4.624 308.816V305.088H7.84C9.376 305.088 10.24 305.776 10.24 306.832C10.24 308.048 9.712 308.816 7.904 308.816H4.624ZM13.5594 310H14.8394V298.912H13.5594V310ZM19.7749 310.128C21.7429 310.128 22.7349 309.344 23.0069 308.128H23.0229C23.0069 308.896 22.9749 309.632 22.9589 310H24.2389V305.184C24.2389 303.12 22.8949 301.968 20.5749 301.968C18.4309 301.968 17.0869 302.912 17.0869 304.48C17.0869 304.624 17.1029 304.848 17.1189 304.96H18.3029C18.2869 304.832 18.2869 304.72 18.2869 304.672C18.2869 303.6 19.0869 303.056 20.5429 303.056C22.1589 303.056 22.9589 303.712 22.9589 305.072V305.648H19.7429C17.6309 305.648 16.8469 306.608 16.8469 307.728C16.8469 309.216 17.9829 310.128 19.7749 310.128ZM20.0309 309.04C18.7829 309.04 18.0469 308.528 18.0469 307.728C18.0469 306.96 18.5589 306.576 19.8549 306.576H22.9589V306.688C22.9589 308.128 21.8229 309.04 20.0309 309.04ZM29.8573 310.128C32.0493 310.128 33.4573 308.848 33.4573 306.864H32.2733C32.2573 308.16 31.3293 308.976 29.8893 308.976C28.3533 308.976 27.3613 307.84 27.3613 306.048C27.3613 304.256 28.3853 303.12 29.9693 303.12C31.3453 303.12 32.2253 303.952 32.2413 305.264H33.4253C33.4253 303.248 32.0653 301.968 29.9533 301.968C27.5853 301.968 26.0813 303.552 26.0813 306.048C26.0813 308.544 27.5533 310.128 29.8573 310.128ZM35.5438 310H36.8238V307.92L38.6318 306.352L41.9918 310H43.8158L39.5918 305.536L43.5918 302.096H41.7998L36.8398 306.512H36.8238V298.912H35.5438V310ZM3.28 333H4.624V328.616H7.92C9.664 328.616 10.16 329.336 10.16 330.456V333H11.536V330.456C11.536 329.144 11.056 328.2 9.568 328.024V327.992C11.008 327.816 11.6 326.84 11.6 325.464C11.6 323.64 10.288 322.472 7.648 322.472H3.28V333ZM4.624 327.624V323.688H7.648C9.424 323.688 10.288 324.408 10.288 325.576C10.288 326.808 9.552 327.624 7.632 327.624H4.624ZM21.0508 333.144C23.6588 333.144 25.1628 331.048 25.1628 327.688C25.1628 324.392 23.6588 322.328 21.0508 322.328C18.4428 322.328 16.9388 324.392 16.9388 327.688C16.9388 331.048 18.4428 333.144 21.0508 333.144ZM21.0508 331.96C19.2428 331.96 18.2508 330.328 18.2508 327.688C18.2508 325.112 19.2428 323.512 21.0508 323.512C22.8588 323.512 23.8508 325.112 23.8508 327.688C23.8508 330.328 22.8588 331.96 21.0508 331.96ZM26.835 335.096C28.067 334.936 28.595 334.168 28.595 332.536V331.176H27.219V333H27.795V333.032C27.779 333.848 27.523 334.264 26.835 334.36V335.096ZM39.641 333.16C41.737 333.16 42.905 332.248 43.225 331.048H43.241C43.209 331.816 43.161 332.568 43.113 333H44.377V327.944H39.337V328.936H43.033V329.24C43.033 330.824 41.737 332.008 39.641 332.008C37.529 332.008 35.769 330.392 35.769 327.848C35.769 325.224 37.497 323.528 39.721 323.528C41.625 323.528 43.033 324.52 43.033 326.2C43.033 326.36 43.033 326.552 43.017 326.76H44.265C44.281 326.504 44.281 326.264 44.281 326.136C44.281 323.736 42.377 322.312 39.721 322.312C36.729 322.312 34.425 324.536 34.425 327.832C34.425 331.096 36.649 333.16 39.641 333.16ZM54.0195 333.144C56.6275 333.144 58.1315 331.048 58.1315 327.688C58.1315 324.392 56.6275 322.328 54.0195 322.328C51.4115 322.328 49.9075 324.392 49.9075 327.688C49.9075 331.048 51.4115 333.144 54.0195 333.144ZM54.0195 331.96C52.2115 331.96 51.2195 330.328 51.2195 327.688C51.2195 325.112 52.2115 323.512 54.0195 323.512C55.8275 323.512 56.8195 325.112 56.8195 327.688C56.8195 330.328 55.8275 331.96 54.0195 331.96ZM59.8038 335.096C61.0358 334.936 61.5638 334.168 61.5638 332.536V331.176H60.1878V333H60.7638V333.032C60.7478 333.848 60.4918 334.264 59.8038 334.36V335.096ZM67.8738 333H72.5458C75.1218 333 76.1458 331.816 76.1458 329.96C76.1458 328.584 75.3458 327.624 73.8898 327.496V327.48C75.1378 327.32 75.7458 326.44 75.7458 325.224C75.7458 323.544 74.6098 322.472 72.1618 322.472H67.8738V333ZM69.2178 327.096V323.656H72.1458C73.8098 323.656 74.4978 324.344 74.4978 325.4C74.4978 326.44 73.8258 327.096 72.3378 327.096H69.2178ZM69.2178 331.816V328.088H72.4338C73.9698 328.088 74.8338 328.776 74.8338 329.832C74.8338 331.048 74.3058 331.816 72.4978 331.816H69.2178ZM85.4726 333.144C88.0806 333.144 89.5846 331.048 89.5846 327.688C89.5846 324.392 88.0806 322.328 85.4726 322.328C82.8646 322.328 81.3606 324.392 81.3606 327.688C81.3606 331.048 82.8646 333.144 85.4726 333.144ZM85.4726 331.96C83.6646 331.96 82.6726 330.328 82.6726 327.688C82.6726 325.112 83.6646 323.512 85.4726 323.512C87.2806 323.512 88.2726 325.112 88.2726 327.688C88.2726 330.328 87.2806 331.96 85.4726 331.96ZM11.248 349.312V348.16H9.328L9.792 345.472H8.96L8.496 348.16H6.032L6.496 345.472H5.664L5.2 348.16H2.416V349.312H5.008L4.512 352.256H2.416V353.408H4.32L3.872 356H4.704L5.152 353.408H7.6L7.152 356H7.984L8.432 353.408H11.248V352.256H8.624L9.136 349.312H11.248ZM7.792 352.256H5.344L5.84 349.312H8.304L7.792 352.256ZM16.4883 356.144C19.0963 356.144 20.6003 354.048 20.6003 350.688C20.6003 347.392 19.0963 345.328 16.4883 345.328C13.8803 345.328 12.3763 347.392 12.3763 350.688C12.3763 354.048 13.8803 356.144 16.4883 356.144ZM16.4883 354.96C14.6803 354.96 13.6883 353.328 13.6883 350.688C13.6883 348.112 14.6803 346.512 16.4883 346.512C18.2963 346.512 19.2883 348.112 19.2883 350.688C19.2883 353.328 18.2963 354.96 16.4883 354.96ZM26.1445 356.144C28.7525 356.144 30.2565 354.048 30.2565 350.688C30.2565 347.392 28.7525 345.328 26.1445 345.328C23.5365 345.328 22.0325 347.392 22.0325 350.688C22.0325 354.048 23.5365 356.144 26.1445 356.144ZM26.1445 354.96C24.3365 354.96 23.3445 353.328 23.3445 350.688C23.3445 348.112 24.3365 346.512 26.1445 346.512C27.9525 346.512 28.9445 348.112 28.9445 350.688C28.9445 353.328 27.9525 354.96 26.1445 354.96ZM35.8008 356.144C38.4088 356.144 39.9128 354.048 39.9128 350.688C39.9128 347.392 38.4088 345.328 35.8008 345.328C33.1928 345.328 31.6888 347.392 31.6888 350.688C31.6888 354.048 33.1928 356.144 35.8008 356.144ZM35.8008 354.96C33.9928 354.96 33.0008 353.328 33.0008 350.688C33.0008 348.112 33.9928 346.512 35.8008 346.512C37.6088 346.512 38.6008 348.112 38.6008 350.688C38.6008 353.328 37.6088 354.96 35.8008 354.96ZM45.457 356.144C48.065 356.144 49.569 354.048 49.569 350.688C49.569 347.392 48.065 345.328 45.457 345.328C42.849 345.328 41.345 347.392 41.345 350.688C41.345 354.048 42.849 356.144 45.457 356.144ZM45.457 354.96C43.649 354.96 42.657 353.328 42.657 350.688C42.657 348.112 43.649 346.512 45.457 346.512C47.265 346.512 48.257 348.112 48.257 350.688C48.257 353.328 47.265 354.96 45.457 354.96ZM55.1133 356.144C57.7213 356.144 59.2253 354.048 59.2253 350.688C59.2253 347.392 57.7213 345.328 55.1133 345.328C52.5053 345.328 51.0013 347.392 51.0013 350.688C51.0013 354.048 52.5053 356.144 55.1133 356.144ZM55.1133 354.96C53.3053 354.96 52.3133 353.328 52.3133 350.688C52.3133 348.112 53.3053 346.512 55.1133 346.512C56.9213 346.512 57.9133 348.112 57.9133 350.688C57.9133 353.328 56.9213 354.96 55.1133 354.96ZM64.7695 356.144C67.3775 356.144 68.8815 354.048 68.8815 350.688C68.8815 347.392 67.3775 345.328 64.7695 345.328C62.1615 345.328 60.6575 347.392 60.6575 350.688C60.6575 354.048 62.1615 356.144 64.7695 356.144ZM64.7695 354.96C62.9615 354.96 61.9695 353.328 61.9695 350.688C61.9695 348.112 62.9615 346.512 64.7695 346.512C66.5775 346.512 67.5695 348.112 67.5695 350.688C67.5695 353.328 66.5775 354.96 64.7695 354.96Z" fill="black"/>
<path d="M245.824 310H247.28L249.936 301.536H249.984L252.592 310H254.032L257.52 299.472H256.176L253.376 308.256H253.328L250.688 299.584H249.312L246.64 308.256H246.592L243.792 299.472H242.352L245.824 310ZM258.856 310H260.136V306.272C260.136 304.272 261.304 303.12 263.112 303.12C264.808 303.12 265.576 303.984 265.576 305.328V310H266.856V305.056C266.856 303.168 265.624 301.968 263.544 301.968C261.656 301.968 260.552 302.864 260.12 304.24H260.104C260.104 303.952 260.136 303.008 260.136 302.576V298.912H258.856V310ZM269.043 301.088H270.419V299.472H269.043V301.088ZM269.091 310H270.371V302.096H269.091V310ZM275.834 310.064C276.474 310.064 276.938 309.968 277.178 309.872V308.784C277.002 308.848 276.49 308.944 275.946 308.944C274.762 308.944 274.378 308.224 274.378 307.024V303.216H277.242V302.096H274.378V300.304H273.29L273.226 301.552C273.194 301.968 273.098 302.096 272.842 302.096H271.786V303.216H273.098V307.104C273.098 308.848 273.914 310.064 275.834 310.064ZM285.835 305.712C285.835 303.36 284.507 301.968 282.251 301.968C279.883 301.968 278.363 303.584 278.363 306.112C278.363 308.56 279.899 310.128 282.283 310.128C284.363 310.128 285.755 309.04 285.835 307.328H284.651C284.539 308.368 283.627 309.04 282.299 309.04C280.747 309.04 279.723 307.984 279.643 306.304H285.835V305.712ZM284.651 305.376H279.691C279.931 303.872 280.875 303.056 282.283 303.056C283.787 303.056 284.651 303.888 284.651 305.28V305.376ZM243.28 333H244.624V328.616H247.92C249.664 328.616 250.16 329.336 250.16 330.456V333H251.536V330.456C251.536 329.144 251.056 328.2 249.568 328.024V327.992C251.008 327.816 251.6 326.84 251.6 325.464C251.6 323.64 250.288 322.472 247.648 322.472H243.28V333ZM244.624 327.624V323.688H247.648C249.424 323.688 250.288 324.408 250.288 325.576C250.288 326.808 249.552 327.624 247.632 327.624H244.624ZM257.179 333H264.891V331.816H258.523C258.523 331.16 258.779 330.84 261.035 329.784C264.107 328.344 264.699 327.24 264.699 325.64C264.699 323.688 263.307 322.328 261.067 322.328C258.635 322.328 257.243 323.8 257.243 326.12C257.243 326.664 257.291 327.16 257.339 327.4H258.555C258.507 327.16 258.459 326.68 258.459 326.184C258.459 324.552 259.371 323.512 261.035 323.512C262.507 323.512 263.387 324.392 263.387 325.64C263.387 327.032 262.971 327.672 260.331 328.904C257.547 330.2 257.179 330.84 257.179 333ZM270.787 333.144C273.187 333.144 274.707 331.592 274.707 329.416C274.707 327.416 273.331 326.12 271.043 326.12C269.587 326.12 268.547 326.696 268.211 327.592H268.179L268.483 323.656H274.067V322.472H267.379L266.963 328.44L268.211 328.568C268.563 327.72 269.571 327.176 270.755 327.176C272.371 327.176 273.395 328.04 273.395 329.416C273.395 330.872 272.371 331.96 270.787 331.96C269.139 331.96 268.051 331.272 268.051 330.216C268.051 330.136 268.051 330.04 268.067 329.896H266.835C266.819 329.976 266.803 330.136 266.803 330.28C266.803 332.008 268.387 333.144 270.787 333.144ZM280.443 333.144C282.843 333.144 284.363 331.592 284.363 329.416C284.363 327.416 282.987 326.12 280.699 326.12C279.243 326.12 278.203 326.696 277.867 327.592H277.835L278.139 323.656H283.723V322.472H277.035L276.619 328.44L277.867 328.568C278.219 327.72 279.227 327.176 280.411 327.176C282.027 327.176 283.051 328.04 283.051 329.416C283.051 330.872 282.027 331.96 280.443 331.96C278.795 331.96 277.707 331.272 277.707 330.216C277.707 330.136 277.707 330.04 277.723 329.896H276.491C276.475 329.976 276.459 330.136 276.459 330.28C276.459 332.008 278.043 333.144 280.443 333.144ZM286.148 335.096C287.38 334.936 287.908 334.168 287.908 332.536V331.176H286.532V333H287.108V333.032C287.092 333.848 286.836 334.264 286.148 334.36V335.096ZM298.954 333.16C301.05 333.16 302.218 332.248 302.538 331.048H302.554C302.522 331.816 302.474 332.568 302.426 333H303.69V327.944H298.65V328.936H302.345V329.24C302.345 330.824 301.05 332.008 298.954 332.008C296.842 332.008 295.082 330.392 295.082 327.848C295.082 325.224 296.81 323.528 299.034 323.528C300.938 323.528 302.345 324.52 302.345 326.2C302.345 326.36 302.345 326.552 302.33 326.76H303.578C303.594 326.504 303.594 326.264 303.594 326.136C303.594 323.736 301.69 322.312 299.034 322.312C296.042 322.312 293.738 324.536 293.738 327.832C293.738 331.096 295.962 333.16 298.954 333.16ZM309.46 333H317.172V331.816H310.804C310.804 331.16 311.06 330.84 313.316 329.784C316.388 328.344 316.98 327.24 316.98 325.64C316.98 323.688 315.588 322.328 313.348 322.328C310.916 322.328 309.524 323.8 309.524 326.12C309.524 326.664 309.572 327.16 309.62 327.4H310.836C310.788 327.16 310.74 326.68 310.74 326.184C310.74 324.552 311.652 323.512 313.316 323.512C314.788 323.512 315.668 324.392 315.668 325.64C315.668 327.032 315.252 327.672 312.612 328.904C309.828 330.2 309.46 330.84 309.46 333ZM323.068 333.144C325.468 333.144 326.988 331.592 326.988 329.416C326.988 327.416 325.612 326.12 323.324 326.12C321.868 326.12 320.828 326.696 320.492 327.592H320.46L320.764 323.656H326.348V322.472H319.66L319.244 328.44L320.492 328.568C320.844 327.72 321.852 327.176 323.036 327.176C324.652 327.176 325.676 328.04 325.676 329.416C325.676 330.872 324.652 331.96 323.068 331.96C321.42 331.96 320.332 331.272 320.332 330.216C320.332 330.136 320.332 330.04 320.348 329.896H319.116C319.1 329.976 319.084 330.136 319.084 330.28C319.084 332.008 320.668 333.144 323.068 333.144ZM332.725 333.144C335.125 333.144 336.645 331.592 336.645 329.416C336.645 327.416 335.269 326.12 332.981 326.12C331.525 326.12 330.485 326.696 330.149 327.592H330.117L330.421 323.656H336.005V322.472H329.317L328.901 328.44L330.149 328.568C330.501 327.72 331.509 327.176 332.693 327.176C334.309 327.176 335.333 328.04 335.333 329.416C335.333 330.872 334.309 331.96 332.725 331.96C331.077 331.96 329.989 331.272 329.989 330.216C329.989 330.136 329.989 330.04 330.005 329.896H328.773C328.757 329.976 328.741 330.136 328.741 330.28C328.741 332.008 330.325 333.144 332.725 333.144ZM338.429 335.096C339.661 334.936 340.189 334.168 340.189 332.536V331.176H338.813V333H339.389V333.032C339.373 333.848 339.117 334.264 338.429 334.36V335.096ZM346.499 333H351.171C353.747 333 354.771 331.816 354.771 329.96C354.771 328.584 353.971 327.624 352.515 327.496V327.48C353.763 327.32 354.371 326.44 354.371 325.224C354.371 323.544 353.235 322.472 350.787 322.472H346.499V333ZM347.843 327.096V323.656H350.771C352.435 323.656 353.123 324.344 353.123 325.4C353.123 326.44 352.451 327.096 350.963 327.096H347.843ZM347.843 331.816V328.088H351.059C352.595 328.088 353.459 328.776 353.459 329.832C353.459 331.048 352.931 331.816 351.123 331.816H347.843ZM360.226 333H367.938V331.816H361.57C361.57 331.16 361.826 330.84 364.082 329.784C367.154 328.344 367.746 327.24 367.746 325.64C367.746 323.688 366.354 322.328 364.114 322.328C361.682 322.328 360.29 323.8 360.29 326.12C360.29 326.664 360.338 327.16 360.386 327.4H361.602C361.554 327.16 361.506 326.68 361.506 326.184C361.506 324.552 362.418 323.512 364.082 323.512C365.554 323.512 366.434 324.392 366.434 325.64C366.434 327.032 366.018 327.672 363.378 328.904C360.594 330.2 360.226 330.84 360.226 333ZM373.834 333.144C376.234 333.144 377.754 331.592 377.754 329.416C377.754 327.416 376.378 326.12 374.09 326.12C372.634 326.12 371.594 326.696 371.258 327.592H371.226L371.53 323.656H377.114V322.472H370.426L370.01 328.44L371.258 328.568C371.61 327.72 372.618 327.176 373.802 327.176C375.418 327.176 376.442 328.04 376.442 329.416C376.442 330.872 375.418 331.96 373.834 331.96C372.186 331.96 371.098 331.272 371.098 330.216C371.098 330.136 371.098 330.04 371.114 329.896H369.882C369.866 329.976 369.85 330.136 369.85 330.28C369.85 332.008 371.434 333.144 373.834 333.144ZM383.49 333.144C385.89 333.144 387.41 331.592 387.41 329.416C387.41 327.416 386.034 326.12 383.746 326.12C382.29 326.12 381.25 326.696 380.914 327.592H380.882L381.186 323.656H386.77V322.472H380.082L379.666 328.44L380.914 328.568C381.266 327.72 382.274 327.176 383.458 327.176C385.074 327.176 386.098 328.04 386.098 329.416C386.098 330.872 385.074 331.96 383.49 331.96C381.842 331.96 380.754 331.272 380.754 330.216C380.754 330.136 380.754 330.04 380.77 329.896H379.538C379.522 329.976 379.506 330.136 379.506 330.28C379.506 332.008 381.09 333.144 383.49 333.144ZM251.248 349.312V348.16H249.328L249.792 345.472H248.96L248.496 348.16H246.032L246.496 345.472H245.664L245.2 348.16H242.416V349.312H245.008L244.512 352.256H242.416V353.408H244.32L243.872 356H244.704L245.152 353.408H247.6L247.152 356H247.984L248.432 353.408H251.248V352.256H248.624L249.136 349.312H251.248ZM247.792 352.256H245.344L245.84 349.312H248.304L247.792 352.256ZM252.936 356H254.28V351.424H258.984V350.4H254.28V346.688H259.768V345.472H252.936V356ZM261.53 356H262.874V351.424H267.578V350.4H262.874V346.688H268.362V345.472H261.53V356ZM270.124 356H271.468V351.424H276.172V350.4H271.468V346.688H276.956V345.472H270.124V356ZM278.718 356H280.062V351.424H284.766V350.4H280.062V346.688H285.55V345.472H278.718V356ZM287.311 356H288.655V351.424H293.359V350.4H288.655V346.688H294.143V345.472H287.311V356ZM295.905 356H297.249V351.424H301.953V350.4H297.249V346.688H302.737V345.472H295.905V356Z" fill="black"/>
<defs>
<filter id="filter0_d" x="0" y="0" width="228" height="72" filterUnits="userSpaceOnUse" color-interpolation-filters="sRGB">
<feFlood flood-opacity="0" result="BackgroundImageFix"/>
<feColorMatrix in="SourceAlpha" type="matrix" values="0 0 0 0 0 0 0 0 0 0 0 0 0 0 0 0 0 0 127 0"/>
<feOffset dx="2" dy="4"/>
<feGaussianBlur stdDeviation="2"/>
<feColorMatrix type="matrix" values="0 0 0 0 0 0 0 0 0 0 0 0 0 0 0 0 0 0 0.5 0"/>
<feBlend mode="normal" in2="BackgroundImageFix" result="effect1_dropShadow"/>
<feBlend mode="normal" in="SourceGraphic" in2="effect1_dropShadow" result="shape"/>
</filter>
<filter id="filter1_d" x="240" y="0" width="228" height="72" filterUnits="userSpaceOnUse" color-interpolation-filters="sRGB">
<feFlood flood-opacity="0" result="BackgroundImageFix"/>
<feColorMatrix in="SourceAlpha" type="matrix" values="0 0 0 0 0 0 0 0 0 0 0 0 0 0 0 0 0 0 127 0"/>
<feOffset dx="2" dy="4"/>
<feGaussianBlur stdDeviation="2"/>
<feColorMatrix type="matrix" values="0 0 0 0 0 0 0 0 0 0 0 0 0 0 0 0 0 0 0.5 0"/>
<feBlend mode="normal" in2="BackgroundImageFix" result="effect1_dropShadow"/>
<feBlend mode="normal" in="SourceGraphic" in2="effect1_dropShadow" result="shape"/>
</filter>
<filter id="filter2_d" x="480" y="0" width="228" height="72" filterUnits="userSpaceOnUse" color-interpolation-filters="sRGB">
<feFlood flood-opacity="0" result="BackgroundImageFix"/>
<feColorMatrix in="SourceAlpha" type="matrix" values="0 0 0 0 0 0 0 0 0 0 0 0 0 0 0 0 0 0 127 0"/>
<feOffset dx="2" dy="4"/>
<feGaussianBlur stdDeviation="2"/>
<feColorMatrix type="matrix" values="0 0 0 0 0 0 0 0 0 0 0 0 0 0 0 0 0 0 0.5 0"/>
<feBlend mode="normal" in2="BackgroundImageFix" result="effect1_dropShadow"/>
<feBlend mode="normal" in="SourceGraphic" in2="effect1_dropShadow" result="shape"/>
</filter>
<filter id="filter3_d" x="720" y="0" width="228" height="72" filterUnits="userSpaceOnUse" color-interpolation-filters="sRGB">
<feFlood flood-opacity="0" result="BackgroundImageFix"/>
<feColorMatrix in="SourceAlpha" type="matrix" values="0 0 0 0 0 0 0 0 0 0 0 0 0 0 0 0 0 0 127 0"/>
<feOffset dx="2" dy="4"/>
<feGaussianBlur stdDeviation="2"/>
<feColorMatrix type="matrix" values="0 0 0 0 0 0 0 0 0 0 0 0 0 0 0 0 0 0 0.5 0"/>
<feBlend mode="normal" in2="BackgroundImageFix" result="effect1_dropShadow"/>
<feBlend mode="normal" in="SourceGraphic" in2="effect1_dropShadow" result="shape"/>
</filter>
<filter id="filter4_d" x="0" y="212" width="228" height="72" filterUnits="userSpaceOnUse" color-interpolation-filters="sRGB">
<feFlood flood-opacity="0" result="BackgroundImageFix"/>
<feColorMatrix in="SourceAlpha" type="matrix" values="0 0 0 0 0 0 0 0 0 0 0 0 0 0 0 0 0 0 127 0"/>
<feOffset dx="2" dy="4"/>
<feGaussianBlur stdDeviation="2"/>
<feColorMatrix type="matrix" values="0 0 0 0 0 0 0 0 0 0 0 0 0 0 0 0 0 0 0.5 0"/>
<feBlend mode="normal" in2="BackgroundImageFix" result="effect1_dropShadow"/>
<feBlend mode="normal" in="SourceGraphic" in2="effect1_dropShadow" result="shape"/>
</filter>
<filter id="filter5_d" x="240" y="212" width="228" height="72" filterUnits="userSpaceOnUse" color-interpolation-filters="sRGB">
<feFlood flood-opacity="0" result="BackgroundImageFix"/>
<feColorMatrix in="SourceAlpha" type="matrix" values="0 0 0 0 0 0 0 0 0 0 0 0 0 0 0 0 0 0 127 0"/>
<feOffset dx="2" dy="4"/>
<feGaussianBlur stdDeviation="2"/>
<feColorMatrix type="matrix" values="0 0 0 0 0 0 0 0 0 0 0 0 0 0 0 0 0 0 0.5 0"/>
<feBlend mode="normal" in2="BackgroundImageFix" result="effect1_dropShadow"/>
<feBlend mode="normal" in="SourceGraphic" in2="effect1_dropShadow" result="shape"/>
</filter>
</defs>
</svg>
