<svg width="334" height="237" viewBox="0 0 334 237" fill="none" xmlns="http://www.w3.org/2000/svg">
<g filter="url(#filter0_d)">
<rect x="2" width="150" height="40" fill="#8DD3BA"/>
</g>
<g filter="url(#filter1_d)">
<rect x="178" width="150" height="40" fill="#D2FFEF"/>
</g>
<path d="M10.092 60.148V59.14H8.412L8.818 56.788H8.09L7.684 59.14H5.528L5.934 56.788H5.206L4.8 59.14H2.364V60.148H4.632L4.198 62.724H2.364V63.732H4.03L3.638 66H4.366L4.758 63.732H6.9L6.508 66H7.236L7.628 63.732H10.092V62.724H7.796L8.244 60.148H10.092ZM7.068 62.724H4.926L5.36 60.148H7.516L7.068 62.724ZM14.6772 66.126C16.8752 66.126 18.2752 65.076 18.2752 63.382C18.2752 62.248 17.5052 61.408 16.3992 61.212V61.198C17.3512 61.016 17.8832 60.218 17.8832 59.28C17.8832 57.642 16.6372 56.662 14.6772 56.662C12.7172 56.662 11.4712 57.642 11.4712 59.28C11.4712 60.218 12.0032 61.016 12.9552 61.198V61.212C11.8352 61.408 11.0792 62.248 11.0792 63.382C11.0792 65.076 12.4792 66.126 14.6772 66.126ZM14.6772 60.848C13.3892 60.848 12.5632 60.232 12.5632 59.28C12.5632 58.3 13.3892 57.67 14.6772 57.67C15.9652 57.67 16.7912 58.3 16.7912 59.28C16.7912 60.232 15.9652 60.848 14.6772 60.848ZM14.6772 65.118C13.1792 65.118 12.2272 64.432 12.2272 63.382C12.2272 62.36 13.1792 61.716 14.6772 61.716C16.1752 61.716 17.1272 62.36 17.1272 63.382C17.1272 64.432 16.1752 65.118 14.6772 65.118ZM20.0184 66H23.6724C26.3324 66 27.9704 64.264 27.9704 61.38C27.9704 58.524 26.2204 56.788 23.3784 56.788H20.0184V66ZM21.1944 64.936V57.852H23.4064C25.5064 57.852 26.7944 59.182 26.7944 61.38C26.7944 63.62 25.6044 64.936 23.6444 64.936H21.1944ZM29.7938 66H33.4478C36.1078 66 37.7458 64.264 37.7458 61.38C37.7458 58.524 35.9958 56.788 33.1538 56.788H29.7938V66ZM30.9698 64.936V57.852H33.1818C35.2818 57.852 36.5698 59.182 36.5698 61.38C36.5698 63.62 35.3798 64.936 33.4198 64.936H30.9698ZM42.5652 66.126C44.8472 66.126 46.2612 64.978 46.2612 63.172C46.2612 62.066 45.5892 61.268 44.5252 61.128V61.1C45.3232 60.918 45.8412 60.176 45.8412 59.266C45.8412 57.642 44.5952 56.662 42.6772 56.662C40.5492 56.662 39.2892 57.754 39.2892 59.448C39.2892 59.756 39.3172 60.064 39.3452 60.204H40.4092C40.3952 60.064 40.3812 59.868 40.3812 59.616C40.3812 58.44 41.1932 57.698 42.6772 57.698C43.9092 57.698 44.7212 58.328 44.7212 59.392C44.7212 60.288 44.1752 60.862 43.1112 60.862H41.8932V61.702H43.3352C44.4552 61.702 45.1132 62.178 45.1132 63.102C45.1132 64.362 44.1472 65.09 42.5652 65.09C41.0252 65.09 40.1712 64.39 40.1712 63.06C40.1712 62.99 40.1712 62.85 40.1852 62.612H39.1212C39.1072 62.766 39.0792 63.046 39.0792 63.242C39.0792 65.034 40.4372 66.126 42.5652 66.126ZM48.0184 66H52.1064C54.3604 66 55.2564 64.964 55.2564 63.34C55.2564 62.136 54.5564 61.296 53.2824 61.184V61.17C54.3744 61.03 54.9064 60.26 54.9064 59.196C54.9064 57.726 53.9124 56.788 51.7704 56.788H48.0184V66ZM49.1944 60.834V57.824H51.7564C53.2124 57.824 53.8144 58.426 53.8144 59.35C53.8144 60.26 53.2264 60.834 51.9244 60.834H49.1944ZM49.1944 64.964V61.702H52.0084C53.3524 61.702 54.1084 62.304 54.1084 63.228C54.1084 64.292 53.6464 64.964 52.0644 64.964H49.1944ZM64.1112 66H65.4832L61.5912 56.788H60.1912L56.2992 66H57.5312L58.4412 63.76H63.2152L64.1112 66ZM58.7912 62.892L60.8352 57.866H60.8632L62.8652 62.892H58.7912Z" fill="white"/>
<path d="M186.092 60.148V59.14H184.412L184.818 56.788H184.09L183.684 59.14H181.528L181.934 56.788H181.206L180.8 59.14H178.364V60.148H180.632L180.198 62.724H178.364V63.732H180.03L179.638 66H180.366L180.758 63.732H182.9L182.508 66H183.236L183.628 63.732H186.092V62.724H183.796L184.244 60.148H186.092ZM183.068 62.724H180.926L181.36 60.148H183.516L183.068 62.724ZM187.569 66H191.223C193.883 66 195.521 64.264 195.521 61.38C195.521 58.524 193.771 56.788 190.929 56.788H187.569V66ZM188.745 64.936V57.852H190.957C193.057 57.852 194.345 59.182 194.345 61.38C194.345 63.62 193.155 64.936 191.195 64.936H188.745ZM197.065 66H203.813V64.964H198.241C198.241 64.39 198.465 64.11 200.439 63.186C203.127 61.926 203.645 60.96 203.645 59.56C203.645 57.852 202.427 56.662 200.467 56.662C198.339 56.662 197.121 57.95 197.121 59.98C197.121 60.456 197.163 60.89 197.205 61.1H198.269C198.227 60.89 198.185 60.47 198.185 60.036C198.185 58.608 198.983 57.698 200.439 57.698C201.727 57.698 202.497 58.468 202.497 59.56C202.497 60.778 202.133 61.338 199.823 62.416C197.387 63.55 197.065 64.11 197.065 66ZM205.794 66H206.97V61.996H211.086V61.1H206.97V57.852H211.772V56.788H205.794V66ZM213.313 66H214.489V61.996H218.605V61.1H214.489V57.852H219.291V56.788H213.313V66ZM220.833 66H227.063V64.936H222.009V61.8H225.999V60.932H222.009V57.852H226.937V56.788H220.833V66ZM228.667 66H229.843V61.996H233.959V61.1H229.843V57.852H234.645V56.788H228.667V66Z" fill="white"/>
<g filter="url(#filter2_d)">
<rect x="2" y="85" width="150" height="40" fill="#479378"/>
</g>
<rect x="178.5" y="85.5" width="149" height="39" fill="#1A2321" stroke="white"/>
<path d="M10.092 145.148V144.14H8.412L8.818 141.788H8.09L7.684 144.14H5.528L5.934 141.788H5.206L4.8 144.14H2.364V145.148H4.632L4.198 147.724H2.364V148.732H4.03L3.638 151H4.366L4.758 148.732H6.9L6.508 151H7.236L7.628 148.732H10.092V147.724H7.796L8.244 145.148H10.092ZM7.068 147.724H4.926L5.36 145.148H7.516L7.068 147.724ZM16.0072 151H17.1552V148.83H18.6812V147.794H17.1552V141.788H15.8532L10.9532 147.794V148.83H16.0072V151ZM12.1852 147.794V147.78L15.9932 143.132H16.0072V147.794H12.1852ZM20.9704 151H22.2864C23.0564 147.724 24.0224 145.568 26.8224 142.754V141.788H19.4584V142.852H25.4924V142.866C23.2944 145.036 21.7404 147.724 20.9704 151ZM31.5197 151.126C33.8717 151.126 35.1737 149.502 35.1737 146.296C35.1737 142.922 33.7177 141.662 31.4637 141.662C29.2797 141.662 27.9777 142.88 27.9777 144.714C27.9777 146.352 29.1957 147.43 31.2817 147.43C32.8357 147.43 33.8157 146.66 33.9557 145.554H33.9837C34.0117 145.82 34.0117 146.17 34.0117 146.436C34.0117 148.858 33.1577 150.104 31.5057 150.104C30.0777 150.104 29.2797 149.432 29.2797 148.48C29.2797 148.424 29.2797 148.27 29.2937 148.116H28.2017C28.1877 148.298 28.1877 148.494 28.1877 148.578C28.1877 150.076 29.4197 151.126 31.5197 151.126ZM31.3237 146.506C29.9797 146.506 29.1257 145.806 29.1257 144.714C29.1257 143.496 29.9797 142.684 31.4497 142.684C32.8637 142.684 33.7457 143.454 33.8157 144.462C33.8157 145.652 32.8497 146.506 31.3237 146.506ZM39.9129 151.126C42.1949 151.126 43.6089 149.978 43.6089 148.172C43.6089 147.066 42.9369 146.268 41.8729 146.128V146.1C42.6709 145.918 43.1889 145.176 43.1889 144.266C43.1889 142.642 41.9429 141.662 40.0249 141.662C37.8969 141.662 36.6369 142.754 36.6369 144.448C36.6369 144.756 36.6649 145.064 36.6929 145.204H37.7569C37.7429 145.064 37.7289 144.868 37.7289 144.616C37.7289 143.44 38.5409 142.698 40.0249 142.698C41.2569 142.698 42.0689 143.328 42.0689 144.392C42.0689 145.288 41.5229 145.862 40.4589 145.862H39.2409V146.702H40.6829C41.8029 146.702 42.4609 147.178 42.4609 148.102C42.4609 149.362 41.4949 150.09 39.9129 150.09C38.3729 150.09 37.5189 149.39 37.5189 148.06C37.5189 147.99 37.5189 147.85 37.5329 147.612H36.4689C36.4549 147.766 36.4269 148.046 36.4269 148.242C36.4269 150.034 37.7849 151.126 39.9129 151.126ZM46.3181 151H47.6341C48.4041 147.724 49.3701 145.568 52.1701 142.754V141.788H44.8061V142.852H50.8401V142.866C48.6421 145.036 47.0881 147.724 46.3181 151ZM56.9233 151.126C59.1213 151.126 60.5213 150.076 60.5213 148.382C60.5213 147.248 59.7513 146.408 58.6453 146.212V146.198C59.5973 146.016 60.1293 145.218 60.1293 144.28C60.1293 142.642 58.8833 141.662 56.9233 141.662C54.9633 141.662 53.7173 142.642 53.7173 144.28C53.7173 145.218 54.2493 146.016 55.2013 146.198V146.212C54.0813 146.408 53.3253 147.248 53.3253 148.382C53.3253 150.076 54.7253 151.126 56.9233 151.126ZM56.9233 145.848C55.6353 145.848 54.8093 145.232 54.8093 144.28C54.8093 143.3 55.6353 142.67 56.9233 142.67C58.2113 142.67 59.0373 143.3 59.0373 144.28C59.0373 145.232 58.2113 145.848 56.9233 145.848ZM56.9233 150.118C55.4253 150.118 54.4733 149.432 54.4733 148.382C54.4733 147.36 55.4253 146.716 56.9233 146.716C58.4213 146.716 59.3733 147.36 59.3733 148.382C59.3733 149.432 58.4213 150.118 56.9233 150.118Z" fill="white"/>
<path d="M186.092 145.148V144.14H184.412L184.818 141.788H184.09L183.684 144.14H181.528L181.934 141.788H181.206L180.8 144.14H178.364V145.148H180.632L180.198 147.724H178.364V148.732H180.03L179.638 151H180.366L180.758 148.732H182.9L182.508 151H183.236L183.628 148.732H186.092V147.724H183.796L184.244 145.148H186.092ZM183.068 147.724H180.926L181.36 145.148H183.516L183.068 147.724ZM187.261 151H194.093V149.964H191.517V141.69H190.509C190.495 143.93 190.397 144.14 189.543 144.154L188.255 144.182V145.036H190.369V149.964H187.261V151ZM203.06 151H204.432L200.54 141.788H199.14L195.248 151H196.48L197.39 148.76H202.164L203.06 151ZM197.74 147.892L199.784 142.866H199.812L201.814 147.892H197.74ZM205.623 151H212.371V149.964H206.799C206.799 149.39 207.023 149.11 208.997 148.186C211.685 146.926 212.203 145.96 212.203 144.56C212.203 142.852 210.985 141.662 209.025 141.662C206.897 141.662 205.679 142.95 205.679 144.98C205.679 145.456 205.721 145.89 205.763 146.1H206.827C206.785 145.89 206.743 145.47 206.743 145.036C206.743 143.608 207.541 142.698 208.997 142.698C210.285 142.698 211.055 143.468 211.055 144.56C211.055 145.778 210.691 146.338 208.381 147.416C205.945 148.55 205.623 149.11 205.623 151ZM217.348 151.126C219.63 151.126 221.044 149.978 221.044 148.172C221.044 147.066 220.372 146.268 219.308 146.128V146.1C220.106 145.918 220.624 145.176 220.624 144.266C220.624 142.642 219.378 141.662 217.46 141.662C215.332 141.662 214.072 142.754 214.072 144.448C214.072 144.756 214.1 145.064 214.128 145.204H215.192C215.178 145.064 215.164 144.868 215.164 144.616C215.164 143.44 215.976 142.698 217.46 142.698C218.692 142.698 219.504 143.328 219.504 144.392C219.504 145.288 218.958 145.862 217.894 145.862H216.676V146.702H218.118C219.238 146.702 219.896 147.178 219.896 148.102C219.896 149.362 218.93 150.09 217.348 150.09C215.808 150.09 214.954 149.39 214.954 148.06C214.954 147.99 214.954 147.85 214.968 147.612H213.904C213.89 147.766 213.862 148.046 213.862 148.242C213.862 150.034 215.22 151.126 217.348 151.126ZM222.522 151H229.27V149.964H223.698C223.698 149.39 223.922 149.11 225.896 148.186C228.584 146.926 229.102 145.96 229.102 144.56C229.102 142.852 227.884 141.662 225.924 141.662C223.796 141.662 222.578 142.95 222.578 144.98C222.578 145.456 222.62 145.89 222.662 146.1H223.726C223.684 145.89 223.642 145.47 223.642 145.036C223.642 143.608 224.44 142.698 225.896 142.698C227.184 142.698 227.954 143.468 227.954 144.56C227.954 145.778 227.59 146.338 225.28 147.416C222.844 148.55 222.522 149.11 222.522 151ZM230.943 151H237.775V149.964H235.199V141.69H234.191C234.177 143.93 234.079 144.14 233.225 144.154L231.937 144.182V145.036H234.051V149.964H230.943V151Z" fill="white"/>
<rect x="2.5" y="167.5" width="149" height="39" fill="black" stroke="white"/>
<g filter="url(#filter3_d)">
<rect x="178" y="167" width="150" height="40" fill="white"/>
</g>
<path d="M10.092 227.148V226.14H8.412L8.818 223.788H8.09L7.684 226.14H5.528L5.934 223.788H5.206L4.8 226.14H2.364V227.148H4.632L4.198 229.724H2.364V230.732H4.03L3.638 233H4.366L4.758 230.732H6.9L6.508 233H7.236L7.628 230.732H10.092V229.724H7.796L8.244 227.148H10.092ZM7.068 229.724H4.926L5.36 227.148H7.516L7.068 229.724ZM14.6772 233.126C16.9592 233.126 18.2752 231.292 18.2752 228.352C18.2752 225.468 16.9592 223.662 14.6772 223.662C12.3952 223.662 11.0792 225.468 11.0792 228.352C11.0792 231.292 12.3952 233.126 14.6772 233.126ZM14.6772 232.09C13.0952 232.09 12.2272 230.662 12.2272 228.352C12.2272 226.098 13.0952 224.698 14.6772 224.698C16.2592 224.698 17.1272 226.098 17.1272 228.352C17.1272 230.662 16.2592 232.09 14.6772 232.09ZM23.1264 233.126C25.4084 233.126 26.7244 231.292 26.7244 228.352C26.7244 225.468 25.4084 223.662 23.1264 223.662C20.8444 223.662 19.5284 225.468 19.5284 228.352C19.5284 231.292 20.8444 233.126 23.1264 233.126ZM23.1264 232.09C21.5444 232.09 20.6764 230.662 20.6764 228.352C20.6764 226.098 21.5444 224.698 23.1264 224.698C24.7084 224.698 25.5764 226.098 25.5764 228.352C25.5764 230.662 24.7084 232.09 23.1264 232.09ZM31.5757 233.126C33.8577 233.126 35.1737 231.292 35.1737 228.352C35.1737 225.468 33.8577 223.662 31.5757 223.662C29.2937 223.662 27.9777 225.468 27.9777 228.352C27.9777 231.292 29.2937 233.126 31.5757 233.126ZM31.5757 232.09C29.9937 232.09 29.1257 230.662 29.1257 228.352C29.1257 226.098 29.9937 224.698 31.5757 224.698C33.1577 224.698 34.0257 226.098 34.0257 228.352C34.0257 230.662 33.1577 232.09 31.5757 232.09ZM40.0249 233.126C42.3069 233.126 43.6229 231.292 43.6229 228.352C43.6229 225.468 42.3069 223.662 40.0249 223.662C37.7429 223.662 36.4269 225.468 36.4269 228.352C36.4269 231.292 37.7429 233.126 40.0249 233.126ZM40.0249 232.09C38.4429 232.09 37.5749 230.662 37.5749 228.352C37.5749 226.098 38.4429 224.698 40.0249 224.698C41.6069 224.698 42.4749 226.098 42.4749 228.352C42.4749 230.662 41.6069 232.09 40.0249 232.09ZM48.4741 233.126C50.7561 233.126 52.0721 231.292 52.0721 228.352C52.0721 225.468 50.7561 223.662 48.4741 223.662C46.1921 223.662 44.8761 225.468 44.8761 228.352C44.8761 231.292 46.1921 233.126 48.4741 233.126ZM48.4741 232.09C46.8921 232.09 46.0241 230.662 46.0241 228.352C46.0241 226.098 46.8921 224.698 48.4741 224.698C50.0561 224.698 50.9241 226.098 50.9241 228.352C50.9241 230.662 50.0561 232.09 48.4741 232.09ZM56.9233 233.126C59.2053 233.126 60.5213 231.292 60.5213 228.352C60.5213 225.468 59.2053 223.662 56.9233 223.662C54.6413 223.662 53.3253 225.468 53.3253 228.352C53.3253 231.292 54.6413 233.126 56.9233 233.126ZM56.9233 232.09C55.3413 232.09 54.4733 230.662 54.4733 228.352C54.4733 226.098 55.3413 224.698 56.9233 224.698C58.5053 224.698 59.3733 226.098 59.3733 228.352C59.3733 230.662 58.5053 232.09 56.9233 232.09Z" fill="white"/>
<path d="M186.092 227.148V226.14H184.412L184.818 223.788H184.09L183.684 226.14H181.528L181.934 223.788H181.206L180.8 226.14H178.364V227.148H180.632L180.198 229.724H178.364V230.732H180.03L179.638 233H180.366L180.758 230.732H182.9L182.508 233H183.236L183.628 230.732H186.092V229.724H183.796L184.244 227.148H186.092ZM183.068 229.724H180.926L181.36 227.148H183.516L183.068 229.724ZM187.569 233H188.745V228.996H192.861V228.1H188.745V224.852H193.547V223.788H187.569V233ZM195.089 233H196.265V228.996H200.381V228.1H196.265V224.852H201.067V223.788H195.089V233ZM202.608 233H203.784V228.996H207.9V228.1H203.784V224.852H208.586V223.788H202.608V233ZM210.128 233H211.304V228.996H215.42V228.1H211.304V224.852H216.106V223.788H210.128V233ZM217.647 233H218.823V228.996H222.939V228.1H218.823V224.852H223.625V223.788H217.647V233ZM225.167 233H226.343V228.996H230.459V228.1H226.343V224.852H231.145V223.788H225.167V233Z" fill="white"/>
<defs>
<filter id="filter0_d" x="0" y="0" width="158" height="48" filterUnits="userSpaceOnUse" color-interpolation-filters="sRGB">
<feFlood flood-opacity="0" result="BackgroundImageFix"/>
<feColorMatrix in="SourceAlpha" type="matrix" values="0 0 0 0 0 0 0 0 0 0 0 0 0 0 0 0 0 0 127 0"/>
<feOffset dx="2" dy="4"/>
<feGaussianBlur stdDeviation="2"/>
<feColorMatrix type="matrix" values="0 0 0 0 0 0 0 0 0 0 0 0 0 0 0 0 0 0 0.5 0"/>
<feBlend mode="normal" in2="BackgroundImageFix" result="effect1_dropShadow"/>
<feBlend mode="normal" in="SourceGraphic" in2="effect1_dropShadow" result="shape"/>
</filter>
<filter id="filter1_d" x="176" y="0" width="158" height="48" filterUnits="userSpaceOnUse" color-interpolation-filters="sRGB">
<feFlood flood-opacity="0" result="BackgroundImageFix"/>
<feColorMatrix in="SourceAlpha" type="matrix" values="0 0 0 0 0 0 0 0 0 0 0 0 0 0 0 0 0 0 127 0"/>
<feOffset dx="2" dy="4"/>
<feGaussianBlur stdDeviation="2"/>
<feColorMatrix type="matrix" values="0 0 0 0 0 0 0 0 0 0 0 0 0 0 0 0 0 0 0.5 0"/>
<feBlend mode="normal" in2="BackgroundImageFix" result="effect1_dropShadow"/>
<feBlend mode="normal" in="SourceGraphic" in2="effect1_dropShadow" result="shape"/>
</filter>
<filter id="filter2_d" x="0" y="85" width="158" height="48" filterUnits="userSpaceOnUse" color-interpolation-filters="sRGB">
<feFlood flood-opacity="0" result="BackgroundImageFix"/>
<feColorMatrix in="SourceAlpha" type="matrix" values="0 0 0 0 0 0 0 0 0 0 0 0 0 0 0 0 0 0 127 0"/>
<feOffset dx="2" dy="4"/>
<feGaussianBlur stdDeviation="2"/>
<feColorMatrix type="matrix" values="0 0 0 0 0 0 0 0 0 0 0 0 0 0 0 0 0 0 0.5 0"/>
<feBlend mode="normal" in2="BackgroundImageFix" result="effect1_dropShadow"/>
<feBlend mode="normal" in="SourceGraphic" in2="effect1_dropShadow" result="shape"/>
</filter>
<filter id="filter3_d" x="176" y="167" width="158" height="48" filterUnits="userSpaceOnUse" color-interpolation-filters="sRGB">
<feFlood flood-opacity="0" result="BackgroundImageFix"/>
<feColorMatrix in="SourceAlpha" type="matrix" values="0 0 0 0 0 0 0 0 0 0 0 0 0 0 0 0 0 0 127 0"/>
<feOffset dx="2" dy="4"/>
<feGaussianBlur stdDeviation="2"/>
<feColorMatrix type="matrix" values="0 0 0 0 0 0 0 0 0 0 0 0 0 0 0 0 0 0 0.5 0"/>
<feBlend mode="normal" in2="BackgroundImageFix" result="effect1_dropShadow"/>
<feBlend mode="normal" in="SourceGraphic" in2="effect1_dropShadow" result="shape"/>
</filter>
</defs>
</svg>
