<svg width="940" height="406" viewBox="0 0 940 406" fill="none" xmlns="http://www.w3.org/2000/svg">
<rect width="220" height="64" fill="#8DD3BA"/>
<rect x="240" width="220" height="64" fill="#D2FFEF"/>
<rect x="480" width="220" height="64" fill="#479378"/>
<rect x="720.5" y="0.5" width="219" height="63" fill="#1A2321" stroke="white"/>
<rect x="0.5" y="212.5" width="219" height="63" fill="black" stroke="white"/>
<rect x="240" y="212" width="220" height="64" fill="white"/>
<path d="M6.096 98.16C8.784 98.16 10.768 96.528 10.768 94.16V93.904H9.52V94.096C9.52 95.776 8.032 96.944 6.096 96.944C3.888 96.944 2.144 95.312 2.144 92.752C2.144 90.176 3.808 88.528 6.096 88.528C8.016 88.528 9.472 89.728 9.472 91.504V91.792H10.704C10.72 91.584 10.72 91.44 10.72 91.408C10.72 88.976 8.768 87.312 6.096 87.312C2.976 87.312 0.8 89.44 0.8 92.752C0.8 96.048 3.04 98.16 6.096 98.16ZM15.3686 98.128C17.3366 98.128 18.3286 97.344 18.6006 96.128H18.6166C18.6006 96.896 18.5686 97.632 18.5526 98H19.8326V93.184C19.8326 91.12 18.4886 89.968 16.1686 89.968C14.0246 89.968 12.6806 90.912 12.6806 92.48C12.6806 92.624 12.6966 92.848 12.7126 92.96H13.8966C13.8806 92.832 13.8806 92.72 13.8806 92.672C13.8806 91.6 14.6806 91.056 16.1366 91.056C17.7526 91.056 18.5526 91.712 18.5526 93.072V93.648H15.3366C13.2246 93.648 12.4406 94.608 12.4406 95.728C12.4406 97.216 13.5766 98.128 15.3686 98.128ZM15.6246 97.04C14.3766 97.04 13.6406 96.528 13.6406 95.728C13.6406 94.96 14.1526 94.576 15.4486 94.576H18.5526V94.688C18.5526 96.128 17.4166 97.04 15.6246 97.04ZM21.995 98H23.275V94.112C23.275 92.224 24.443 91.12 26.251 91.12C27.947 91.12 28.715 91.984 28.715 93.328V98H29.995V93.056C29.995 91.168 28.763 89.968 26.683 89.968C24.795 89.968 23.691 90.848 23.259 92.224H23.243L23.275 90.096H21.995V98ZM35.8313 98.128C38.2793 98.128 39.8313 96.544 39.8313 94.064C39.8313 91.568 38.2793 89.968 35.8313 89.968C33.3832 89.968 31.8313 91.568 31.8313 94.064C31.8313 96.544 33.3832 98.128 35.8313 98.128ZM35.8313 96.976C34.1673 96.976 33.1113 95.84 33.1113 94.064C33.1113 92.272 34.1673 91.12 35.8313 91.12C37.4953 91.12 38.5513 92.272 38.5513 94.064C38.5513 95.84 37.4953 96.976 35.8313 96.976ZM41.825 101.168H43.105V97.984C43.105 97.616 43.073 96.784 43.057 96.256H43.073C43.409 97.328 44.529 98.128 46.209 98.128C48.529 98.128 49.953 96.48 49.953 93.92C49.953 91.504 48.545 89.968 46.241 89.968C44.529 89.968 43.409 90.816 43.089 92.128H43.073L43.105 90.096H41.825V101.168ZM46.033 96.976C44.241 96.976 43.105 96.016 43.105 94.512V94.032C43.137 92.256 44.273 91.12 46.001 91.12C47.665 91.12 48.673 92.224 48.673 93.936C48.673 95.792 47.649 96.976 46.033 96.976ZM52.6668 101.328C54.1708 101.328 54.7788 100.592 55.7228 98.144L58.8588 90.096H57.5628L55.0188 96.704H54.9868L52.1068 90.096H50.6028L54.1548 98H54.4908C53.7548 99.792 53.3708 100.208 52.5068 100.208C52.1068 100.208 51.7228 100.112 51.5308 100.048V101.12C51.7548 101.216 52.2188 101.328 52.6668 101.328ZM68.9535 98.16C71.0495 98.16 72.2175 97.248 72.5375 96.048H72.5535C72.5215 96.816 72.4735 97.568 72.4255 98H73.6895V92.944H68.6495V93.936H72.3455V94.24C72.3455 95.824 71.0495 97.008 68.9535 97.008C66.8415 97.008 65.0815 95.392 65.0815 92.848C65.0815 90.224 66.8095 88.528 69.0335 88.528C70.9375 88.528 72.3455 89.52 72.3455 91.2C72.3455 91.36 72.3455 91.552 72.3295 91.76H73.5775C73.5935 91.504 73.5935 91.264 73.5935 91.136C73.5935 88.736 71.6895 87.312 69.0335 87.312C66.0415 87.312 63.7375 89.536 63.7375 92.832C63.7375 96.096 65.9615 98.16 68.9535 98.16ZM75.9325 98H77.2125V94.496C77.2125 92.528 78.1565 91.12 79.7725 91.12C81.0685 91.12 81.6125 91.872 81.6125 93.328C81.6125 93.824 81.5805 94.224 81.5485 94.464H82.7165C82.7485 94.176 82.7965 93.6 82.7965 93.056C82.7965 91.152 81.8525 89.968 80.0765 89.968C78.3805 89.968 77.5645 91.008 77.1965 92.384H77.1805L77.2125 90.096H75.9325V98ZM91.8658 93.712C91.8658 91.36 90.5378 89.968 88.2818 89.968C85.9138 89.968 84.3938 91.584 84.3938 94.112C84.3938 96.56 85.9298 98.128 88.3138 98.128C90.3938 98.128 91.7858 97.04 91.8658 95.328H90.6818C90.5698 96.368 89.6578 97.04 88.3298 97.04C86.7778 97.04 85.7538 95.984 85.6738 94.304H91.8658V93.712ZM90.6818 93.376H85.7218C85.9618 91.872 86.9058 91.056 88.3138 91.056C89.8178 91.056 90.6818 91.888 90.6818 93.28V93.376ZM100.944 93.712C100.944 91.36 99.6159 89.968 97.3599 89.968C94.9919 89.968 93.4719 91.584 93.4719 94.112C93.4719 96.56 95.0079 98.128 97.3919 98.128C99.4719 98.128 100.864 97.04 100.944 95.328H99.7599C99.6479 96.368 98.7359 97.04 97.4079 97.04C95.8559 97.04 94.8319 95.984 94.7519 94.304H100.944V93.712ZM99.7599 93.376H94.7999C95.0399 91.872 95.9839 91.056 97.3919 91.056C98.8959 91.056 99.7599 91.888 99.7599 93.28V93.376ZM102.87 98H104.15V94.112C104.15 92.224 105.318 91.12 107.126 91.12C108.822 91.12 109.59 91.984 109.59 93.328V98H110.87V93.056C110.87 91.168 109.638 89.968 107.558 89.968C105.67 89.968 104.566 90.848 104.134 92.224H104.118L104.15 90.096H102.87V98ZM1.28 121H2.624V116.616H5.92C7.664 116.616 8.16 117.336 8.16 118.456V121H9.536V118.456C9.536 117.144 9.056 116.2 7.568 116.024V115.992C9.008 115.816 9.6 114.84 9.6 113.464C9.6 111.64 8.288 110.472 5.648 110.472H1.28V121ZM2.624 115.624V111.688H5.648C7.424 111.688 8.288 112.408 8.288 113.576C8.288 114.808 7.552 115.624 5.632 115.624H2.624ZM15.1468 121H22.9548V119.816H20.0108V110.36H18.8588C18.8428 112.92 18.7308 113.16 17.7548 113.176L16.2828 113.208V114.184H18.6988V119.816H15.1468V121ZM30.227 121H31.539V118.52H33.283V117.336H31.539V110.472H30.051L24.451 117.336V118.52H30.227V121ZM25.859 117.336V117.32L30.211 112.008H30.227V117.336H25.859ZM34.4593 121H42.2673V119.816H39.3233V110.36H38.1713C38.1553 112.92 38.0433 113.16 37.0673 113.176L35.5953 113.208V114.184H38.0113V119.816H34.4593V121ZM44.1475 123.096C45.3795 122.936 45.9075 122.168 45.9075 120.536V119.176H44.5315V121H45.1075V121.032C45.0915 121.848 44.8355 122.264 44.1475 122.36V123.096ZM56.9535 121.16C59.0495 121.16 60.2175 120.248 60.5375 119.048H60.5535C60.5215 119.816 60.4735 120.568 60.4255 121H61.6895V115.944H56.6495V116.936H60.3455V117.24C60.3455 118.824 59.0495 120.008 56.9535 120.008C54.8415 120.008 53.0815 118.392 53.0815 115.848C53.0815 113.224 54.8095 111.528 57.0335 111.528C58.9375 111.528 60.3455 112.52 60.3455 114.2C60.3455 114.36 60.3455 114.552 60.3295 114.76H61.5775C61.5935 114.504 61.5935 114.264 61.5935 114.136C61.5935 111.736 59.6895 110.312 57.0335 110.312C54.0415 110.312 51.7375 112.536 51.7375 115.832C51.7375 119.096 53.9615 121.16 56.9535 121.16ZM67.46 121H75.172V119.816H68.804C68.804 119.16 69.06 118.84 71.316 117.784C74.388 116.344 74.98 115.24 74.98 113.64C74.98 111.688 73.588 110.328 71.348 110.328C68.916 110.328 67.524 111.8 67.524 114.12C67.524 114.664 67.572 115.16 67.62 115.4H68.836C68.788 115.16 68.74 114.68 68.74 114.184C68.74 112.552 69.652 111.512 71.316 111.512C72.788 111.512 73.668 112.392 73.668 113.64C73.668 115.032 73.252 115.672 70.612 116.904C67.828 118.2 67.46 118.84 67.46 121ZM77.0843 121H84.8923V119.816H81.9483V110.36H80.7963C80.7803 112.92 80.6683 113.16 79.6923 113.176L78.2203 113.208V114.184H80.6363V119.816H77.0843V121ZM86.7405 121H94.5485V119.816H91.6045V110.36H90.4525C90.4365 112.92 90.3245 113.16 89.3485 113.176L87.8765 113.208V114.184H90.2925V119.816H86.7405V121ZM96.4288 123.096C97.6608 122.936 98.1888 122.168 98.1888 120.536V119.176H96.8128V121H97.3888V121.032C97.3728 121.848 97.1168 122.264 96.4288 122.36V123.096ZM104.499 121H109.171C111.747 121 112.771 119.816 112.771 117.96C112.771 116.584 111.971 115.624 110.515 115.496V115.48C111.763 115.32 112.371 114.44 112.371 113.224C112.371 111.544 111.235 110.472 108.787 110.472H104.499V121ZM105.843 115.096V111.656H108.771C110.435 111.656 111.123 112.344 111.123 113.4C111.123 114.44 110.451 115.096 108.963 115.096H105.843ZM105.843 119.816V116.088H109.059C110.595 116.088 111.459 116.776 111.459 117.832C111.459 119.048 110.931 119.816 109.123 119.816H105.843ZM118.194 121H126.002V119.816H123.058V110.36H121.906C121.89 112.92 121.778 113.16 120.802 113.176L119.33 113.208V114.184H121.746V119.816H118.194V121ZM131.754 121.144C134.266 121.144 135.866 119.944 135.866 118.008C135.866 116.712 134.986 115.752 133.722 115.528V115.512C134.81 115.304 135.418 114.392 135.418 113.32C135.418 111.448 133.994 110.328 131.754 110.328C129.514 110.328 128.09 111.448 128.09 113.32C128.09 114.392 128.698 115.304 129.786 115.512V115.528C128.506 115.752 127.642 116.712 127.642 118.008C127.642 119.944 129.242 121.144 131.754 121.144ZM131.754 115.112C130.282 115.112 129.338 114.408 129.338 113.32C129.338 112.2 130.282 111.48 131.754 111.48C133.226 111.48 134.17 112.2 134.17 113.32C134.17 114.408 133.226 115.112 131.754 115.112ZM131.754 119.992C130.042 119.992 128.954 119.208 128.954 118.008C128.954 116.84 130.042 116.104 131.754 116.104C133.466 116.104 134.554 116.84 134.554 118.008C134.554 119.208 133.466 119.992 131.754 119.992ZM141.602 121.144C143.97 121.144 145.522 119.816 145.522 117.768C145.522 115.976 144.258 114.856 141.762 114.856C140.034 114.856 138.834 115.592 138.658 116.744H138.626C138.61 116.6 138.61 116.2 138.61 115.704C138.61 113.08 139.602 111.512 141.602 111.512C143.138 111.512 143.922 112.328 143.922 113.512C143.922 113.768 143.906 113.944 143.89 114.056H145.138C145.154 113.928 145.17 113.688 145.17 113.496C145.17 111.56 143.89 110.328 141.602 110.328C138.802 110.328 137.298 112.424 137.298 115.752C137.298 119.208 138.546 121.144 141.602 121.144ZM141.618 119.992C140.018 119.992 138.93 119.096 138.802 117.88C138.802 116.808 139.906 115.912 141.634 115.912C143.33 115.912 144.21 116.616 144.21 117.784C144.21 119.112 143.186 119.992 141.618 119.992ZM9.248 137.312V136.16H7.328L7.792 133.472H6.96L6.496 136.16H4.032L4.496 133.472H3.664L3.2 136.16H0.416V137.312H3.008L2.512 140.256H0.416V141.408H2.32L1.872 144H2.704L3.152 141.408H5.6L5.152 144H5.984L6.432 141.408H9.248V140.256H6.624L7.136 137.312H9.248ZM5.792 140.256H3.344L3.84 137.312H6.304L5.792 140.256ZM14.4883 144.144C17.0003 144.144 18.6003 142.944 18.6003 141.008C18.6003 139.712 17.7203 138.752 16.4563 138.528V138.512C17.5443 138.304 18.1523 137.392 18.1523 136.32C18.1523 134.448 16.7283 133.328 14.4883 133.328C12.2483 133.328 10.8243 134.448 10.8243 136.32C10.8243 137.392 11.4323 138.304 12.5203 138.512V138.528C11.2403 138.752 10.3763 139.712 10.3763 141.008C10.3763 142.944 11.9763 144.144 14.4883 144.144ZM14.4883 138.112C13.0163 138.112 12.0723 137.408 12.0723 136.32C12.0723 135.2 13.0163 134.48 14.4883 134.48C15.9603 134.48 16.9043 135.2 16.9043 136.32C16.9043 137.408 15.9603 138.112 14.4883 138.112ZM14.4883 142.992C12.7763 142.992 11.6883 142.208 11.6883 141.008C11.6883 139.84 12.7763 139.104 14.4883 139.104C16.2003 139.104 17.2883 139.84 17.2883 141.008C17.2883 142.208 16.2003 142.992 14.4883 142.992ZM20.5925 144H24.7685C27.8085 144 29.6805 142.016 29.6805 138.72C29.6805 135.456 27.6805 133.472 24.4325 133.472H20.5925V144ZM21.9365 142.784V134.688H24.4645C26.8645 134.688 28.3365 136.208 28.3365 138.72C28.3365 141.28 26.9765 142.784 24.7365 142.784H21.9365ZM31.7644 144H35.9404C38.9804 144 40.8524 142.016 40.8524 138.72C40.8524 135.456 38.8524 133.472 35.6044 133.472H31.7644V144ZM33.1084 142.784V134.688H35.6364C38.0364 134.688 39.5084 136.208 39.5084 138.72C39.5084 141.28 38.1484 142.784 35.9084 142.784H33.1084ZM46.3602 144.144C48.9683 144.144 50.5843 142.832 50.5843 140.768C50.5843 139.504 49.8163 138.592 48.6003 138.432V138.4C49.5123 138.192 50.1042 137.344 50.1042 136.304C50.1042 134.448 48.6803 133.328 46.4883 133.328C44.0563 133.328 42.6163 134.576 42.6163 136.512C42.6163 136.864 42.6483 137.216 42.6803 137.376H43.8963C43.8803 137.216 43.8643 136.992 43.8643 136.704C43.8643 135.36 44.7923 134.512 46.4883 134.512C47.8963 134.512 48.8243 135.232 48.8243 136.448C48.8243 137.472 48.2003 138.128 46.9843 138.128H45.5923V139.088H47.2403C48.5203 139.088 49.2723 139.632 49.2723 140.688C49.2723 142.128 48.1683 142.96 46.3602 142.96C44.6003 142.96 43.6243 142.16 43.6243 140.64C43.6243 140.56 43.6243 140.4 43.6403 140.128H42.4243C42.4083 140.304 42.3763 140.624 42.3763 140.848C42.3763 142.896 43.9283 144.144 46.3602 144.144ZM52.5925 144H57.2645C59.8405 144 60.8645 142.816 60.8645 140.96C60.8645 139.584 60.0645 138.624 58.6085 138.496V138.48C59.8565 138.32 60.4645 137.44 60.4645 136.224C60.4645 134.544 59.3285 133.472 56.8805 133.472H52.5925V144ZM53.9365 138.096V134.656H56.8645C58.5285 134.656 59.2165 135.344 59.2165 136.4C59.2165 137.44 58.5445 138.096 57.0565 138.096H53.9365ZM53.9365 142.816V139.088H57.1525C58.6885 139.088 59.5525 139.776 59.5525 140.832C59.5525 142.048 59.0245 142.816 57.2165 142.816H53.9365ZM70.9843 144H72.5523L68.1043 133.472H66.5043L62.0563 144H63.4643L64.5043 141.44H69.9603L70.9843 144ZM64.9043 140.448L67.2403 134.704H67.2723L69.5603 140.448H64.9043Z" fill="white"/>
<path d="M241.28 98H248.16V96.784H242.624V87.472H241.28V98ZM249.73 89.088H251.106V87.472H249.73V89.088ZM249.778 98H251.058V90.096H249.778V98ZM258.698 96.912H256.138C255.466 96.912 255.13 96.576 255.13 96.048C255.13 95.744 255.226 95.504 255.354 95.376C255.786 95.52 256.266 95.6 256.81 95.6C258.874 95.6 260.186 94.496 260.186 92.784C260.186 92.144 260.01 91.6 259.674 91.152C259.546 90.832 259.466 90.528 259.466 90.288C259.466 89.824 259.754 89.584 260.282 89.584C260.538 89.584 260.73 89.632 260.842 89.68V88.656C260.698 88.608 260.458 88.56 260.122 88.56C259.226 88.56 258.666 88.976 258.666 89.616C258.666 89.968 258.794 90.272 258.97 90.496V90.512C258.41 90.16 257.674 89.968 256.81 89.968C254.762 89.968 253.45 91.072 253.45 92.784C253.45 93.744 253.866 94.528 254.602 95.008V95.04C254.298 95.216 254.042 95.68 254.042 96.272C254.042 96.816 254.282 97.28 254.682 97.584V97.6C253.69 97.6 253.066 98.256 253.066 99.04C253.066 100.544 254.618 101.392 257.226 101.392C259.722 101.392 261.21 100.384 261.21 98.816C261.21 97.616 260.298 96.912 258.698 96.912ZM256.81 91.056C258.106 91.056 258.938 91.728 258.938 92.784C258.938 93.84 258.106 94.512 256.81 94.512C255.514 94.512 254.698 93.84 254.698 92.784C254.698 91.728 255.514 91.056 256.81 91.056ZM257.21 100.304C255.466 100.304 254.346 99.888 254.346 99.008C254.346 98.288 255.05 98 256.154 98H258.506C259.466 98 259.93 98.32 259.93 98.944C259.93 99.696 259.242 100.304 257.21 100.304ZM263.075 98H264.355V94.272C264.355 92.272 265.523 91.12 267.331 91.12C269.027 91.12 269.795 91.984 269.795 93.328V98H271.075V93.056C271.075 91.168 269.843 89.968 267.763 89.968C265.875 89.968 264.771 90.864 264.339 92.24H264.323C264.323 91.952 264.355 91.008 264.355 90.576V86.912H263.075V98ZM276.365 98.064C277.005 98.064 277.469 97.968 277.709 97.872V96.784C277.533 96.848 277.021 96.944 276.477 96.944C275.293 96.944 274.909 96.224 274.909 95.024V91.216H277.773V90.096H274.909V88.304H273.821L273.757 89.552C273.725 89.968 273.629 90.096 273.373 90.096H272.317V91.216H273.629V95.104C273.629 96.848 274.445 98.064 276.365 98.064ZM288.174 98.16C290.862 98.16 292.846 96.528 292.846 94.16V93.904H291.598V94.096C291.598 95.776 290.11 96.944 288.174 96.944C285.966 96.944 284.222 95.312 284.222 92.752C284.222 90.176 285.886 88.528 288.174 88.528C290.094 88.528 291.55 89.728 291.55 91.504V91.792H292.782C292.798 91.584 292.798 91.44 292.798 91.408C292.798 88.976 290.846 87.312 288.174 87.312C285.054 87.312 282.878 89.44 282.878 92.752C282.878 96.048 285.118 98.16 288.174 98.16ZM297.447 98.128C299.415 98.128 300.407 97.344 300.679 96.128H300.695C300.679 96.896 300.647 97.632 300.631 98H301.911V93.184C301.911 91.12 300.567 89.968 298.247 89.968C296.103 89.968 294.759 90.912 294.759 92.48C294.759 92.624 294.775 92.848 294.791 92.96H295.975C295.959 92.832 295.959 92.72 295.959 92.672C295.959 91.6 296.759 91.056 298.215 91.056C299.831 91.056 300.631 91.712 300.631 93.072V93.648H297.415C295.303 93.648 294.519 94.608 294.519 95.728C294.519 97.216 295.655 98.128 297.447 98.128ZM297.703 97.04C296.455 97.04 295.719 96.528 295.719 95.728C295.719 94.96 296.231 94.576 297.527 94.576H300.631V94.688C300.631 96.128 299.495 97.04 297.703 97.04ZM304.073 98H305.353V94.112C305.353 92.224 306.521 91.12 308.329 91.12C310.025 91.12 310.793 91.984 310.793 93.328V98H312.073V93.056C312.073 91.168 310.841 89.968 308.761 89.968C306.873 89.968 305.769 90.848 305.337 92.224H305.321L305.353 90.096H304.073V98ZM317.909 98.128C320.357 98.128 321.909 96.544 321.909 94.064C321.909 91.568 320.357 89.968 317.909 89.968C315.461 89.968 313.909 91.568 313.909 94.064C313.909 96.544 315.461 98.128 317.909 98.128ZM317.909 96.976C316.245 96.976 315.189 95.84 315.189 94.064C315.189 92.272 316.245 91.12 317.909 91.12C319.573 91.12 320.629 92.272 320.629 94.064C320.629 95.84 319.573 96.976 317.909 96.976ZM323.903 101.168H325.183V97.984C325.183 97.616 325.151 96.784 325.135 96.256H325.151C325.487 97.328 326.607 98.128 328.287 98.128C330.607 98.128 332.031 96.48 332.031 93.92C332.031 91.504 330.623 89.968 328.319 89.968C326.607 89.968 325.487 90.816 325.167 92.128H325.151L325.183 90.096H323.903V101.168ZM328.111 96.976C326.319 96.976 325.183 96.016 325.183 94.512V94.032C325.215 92.256 326.351 91.12 328.079 91.12C329.743 91.12 330.751 92.224 330.751 93.936C330.751 95.792 329.727 96.976 328.111 96.976ZM334.745 101.328C336.249 101.328 336.857 100.592 337.801 98.144L340.937 90.096H339.641L337.097 96.704H337.065L334.185 90.096H332.681L336.233 98H336.569C335.833 99.792 335.449 100.208 334.585 100.208C334.185 100.208 333.801 100.112 333.609 100.048V101.12C333.833 101.216 334.297 101.328 334.745 101.328ZM351.032 98.16C353.128 98.16 354.296 97.248 354.616 96.048H354.632C354.6 96.816 354.552 97.568 354.504 98H355.768V92.944H350.728V93.936H354.424V94.24C354.424 95.824 353.128 97.008 351.032 97.008C348.92 97.008 347.16 95.392 347.16 92.848C347.16 90.224 348.888 88.528 351.112 88.528C353.016 88.528 354.424 89.52 354.424 91.2C354.424 91.36 354.424 91.552 354.408 91.76H355.656C355.672 91.504 355.672 91.264 355.672 91.136C355.672 88.736 353.768 87.312 351.112 87.312C348.12 87.312 345.816 89.536 345.816 92.832C345.816 96.096 348.04 98.16 351.032 98.16ZM358.011 98H359.291V94.496C359.291 92.528 360.235 91.12 361.851 91.12C363.147 91.12 363.691 91.872 363.691 93.328C363.691 93.824 363.659 94.224 363.627 94.464H364.795C364.827 94.176 364.875 93.6 364.875 93.056C364.875 91.152 363.931 89.968 362.155 89.968C360.459 89.968 359.643 91.008 359.275 92.384H359.259L359.291 90.096H358.011V98ZM373.944 93.712C373.944 91.36 372.616 89.968 370.36 89.968C367.992 89.968 366.472 91.584 366.472 94.112C366.472 96.56 368.008 98.128 370.392 98.128C372.472 98.128 373.864 97.04 373.944 95.328H372.76C372.648 96.368 371.736 97.04 370.408 97.04C368.856 97.04 367.832 95.984 367.752 94.304H373.944V93.712ZM372.76 93.376H367.8C368.04 91.872 368.984 91.056 370.392 91.056C371.896 91.056 372.76 91.888 372.76 93.28V93.376ZM383.022 93.712C383.022 91.36 381.694 89.968 379.438 89.968C377.07 89.968 375.55 91.584 375.55 94.112C375.55 96.56 377.086 98.128 379.47 98.128C381.55 98.128 382.942 97.04 383.022 95.328H381.838C381.726 96.368 380.814 97.04 379.486 97.04C377.934 97.04 376.91 95.984 376.83 94.304H383.022V93.712ZM381.838 93.376H376.878C377.118 91.872 378.062 91.056 379.47 91.056C380.974 91.056 381.838 91.888 381.838 93.28V93.376ZM384.948 98H386.228V94.112C386.228 92.224 387.396 91.12 389.204 91.12C390.9 91.12 391.668 91.984 391.668 93.328V98H392.948V93.056C392.948 91.168 391.716 89.968 389.636 89.968C387.748 89.968 386.644 90.848 386.212 92.224H386.196L386.228 90.096H384.948V98ZM241.28 121H242.624V116.616H245.92C247.664 116.616 248.16 117.336 248.16 118.456V121H249.536V118.456C249.536 117.144 249.056 116.2 247.568 116.024V115.992C249.008 115.816 249.6 114.84 249.6 113.464C249.6 111.64 248.288 110.472 245.648 110.472H241.28V121ZM242.624 115.624V111.688H245.648C247.424 111.688 248.288 112.408 248.288 113.576C248.288 114.808 247.552 115.624 245.632 115.624H242.624ZM255.179 121H262.891V119.816H256.523C256.523 119.16 256.779 118.84 259.035 117.784C262.107 116.344 262.699 115.24 262.699 113.64C262.699 111.688 261.307 110.328 259.067 110.328C256.635 110.328 255.243 111.8 255.243 114.12C255.243 114.664 255.291 115.16 255.339 115.4H256.555C256.507 115.16 256.459 114.68 256.459 114.184C256.459 112.552 257.371 111.512 259.035 111.512C260.507 111.512 261.387 112.392 261.387 113.64C261.387 115.032 260.971 115.672 258.331 116.904C255.547 118.2 255.179 118.84 255.179 121ZM264.803 121H272.611V119.816H269.667V110.36H268.515C268.499 112.92 268.387 113.16 267.411 113.176L265.939 113.208V114.184H268.355V119.816H264.803V121ZM278.363 121.144C280.971 121.144 282.475 119.048 282.475 115.688C282.475 112.392 280.971 110.328 278.363 110.328C275.755 110.328 274.251 112.392 274.251 115.688C274.251 119.048 275.755 121.144 278.363 121.144ZM278.363 119.96C276.555 119.96 275.563 118.328 275.563 115.688C275.563 113.112 276.555 111.512 278.363 111.512C280.171 111.512 281.163 113.112 281.163 115.688C281.163 118.328 280.171 119.96 278.363 119.96ZM284.148 123.096C285.38 122.936 285.908 122.168 285.908 120.536V119.176H284.532V121H285.108V121.032C285.092 121.848 284.836 122.264 284.148 122.36V123.096ZM296.954 121.16C299.05 121.16 300.218 120.248 300.538 119.048H300.554C300.522 119.816 300.474 120.568 300.426 121H301.69V115.944H296.65V116.936H300.345V117.24C300.345 118.824 299.05 120.008 296.954 120.008C294.842 120.008 293.082 118.392 293.082 115.848C293.082 113.224 294.81 111.528 297.034 111.528C298.938 111.528 300.345 112.52 300.345 114.2C300.345 114.36 300.345 114.552 300.33 114.76H301.578C301.594 114.504 301.594 114.264 301.594 114.136C301.594 111.736 299.69 110.312 297.034 110.312C294.042 110.312 291.738 112.536 291.738 115.832C291.738 119.096 293.962 121.16 296.954 121.16ZM307.46 121H315.172V119.816H308.804C308.804 119.16 309.06 118.84 311.316 117.784C314.388 116.344 314.98 115.24 314.98 113.64C314.98 111.688 313.588 110.328 311.348 110.328C308.916 110.328 307.524 111.8 307.524 114.12C307.524 114.664 307.572 115.16 307.62 115.4H308.836C308.788 115.16 308.74 114.68 308.74 114.184C308.74 112.552 309.652 111.512 311.316 111.512C312.788 111.512 313.668 112.392 313.668 113.64C313.668 115.032 313.252 115.672 310.612 116.904C307.828 118.2 307.46 118.84 307.46 121ZM321.068 121.144C323.468 121.144 324.988 119.592 324.988 117.416C324.988 115.416 323.612 114.12 321.324 114.12C319.868 114.12 318.828 114.696 318.492 115.592H318.46L318.764 111.656H324.348V110.472H317.66L317.244 116.44L318.492 116.568C318.844 115.72 319.852 115.176 321.036 115.176C322.652 115.176 323.676 116.04 323.676 117.416C323.676 118.872 322.652 119.96 321.068 119.96C319.42 119.96 318.332 119.272 318.332 118.216C318.332 118.136 318.332 118.04 318.348 117.896H317.116C317.1 117.976 317.084 118.136 317.084 118.28C317.084 120.008 318.668 121.144 321.068 121.144ZM330.725 121.144C333.125 121.144 334.645 119.592 334.645 117.416C334.645 115.416 333.269 114.12 330.981 114.12C329.525 114.12 328.485 114.696 328.149 115.592H328.117L328.421 111.656H334.005V110.472H327.317L326.901 116.44L328.149 116.568C328.501 115.72 329.509 115.176 330.693 115.176C332.309 115.176 333.333 116.04 333.333 117.416C333.333 118.872 332.309 119.96 330.725 119.96C329.077 119.96 327.989 119.272 327.989 118.216C327.989 118.136 327.989 118.04 328.005 117.896H326.773C326.757 117.976 326.741 118.136 326.741 118.28C326.741 120.008 328.325 121.144 330.725 121.144ZM336.429 123.096C337.661 122.936 338.189 122.168 338.189 120.536V119.176H336.813V121H337.389V121.032C337.373 121.848 337.117 122.264 336.429 122.36V123.096ZM344.499 121H349.171C351.747 121 352.771 119.816 352.771 117.96C352.771 116.584 351.971 115.624 350.515 115.496V115.48C351.763 115.32 352.371 114.44 352.371 113.224C352.371 111.544 351.235 110.472 348.787 110.472H344.499V121ZM345.843 115.096V111.656H348.771C350.435 111.656 351.123 112.344 351.123 113.4C351.123 114.44 350.451 115.096 348.963 115.096H345.843ZM345.843 119.816V116.088H349.059C350.595 116.088 351.459 116.776 351.459 117.832C351.459 119.048 350.931 119.816 349.123 119.816H345.843ZM358.226 121H365.938V119.816H359.57C359.57 119.16 359.826 118.84 362.082 117.784C365.154 116.344 365.746 115.24 365.746 113.64C365.746 111.688 364.354 110.328 362.114 110.328C359.682 110.328 358.29 111.8 358.29 114.12C358.29 114.664 358.338 115.16 358.386 115.4H359.602C359.554 115.16 359.506 114.68 359.506 114.184C359.506 112.552 360.418 111.512 362.082 111.512C363.554 111.512 364.434 112.392 364.434 113.64C364.434 115.032 364.018 115.672 361.378 116.904C358.594 118.2 358.226 118.84 358.226 121ZM371.626 121.144C374.234 121.144 375.85 119.832 375.85 117.768C375.85 116.504 375.082 115.592 373.866 115.432V115.4C374.778 115.192 375.37 114.344 375.37 113.304C375.37 111.448 373.946 110.328 371.754 110.328C369.322 110.328 367.882 111.576 367.882 113.512C367.882 113.864 367.914 114.216 367.946 114.376H369.162C369.146 114.216 369.13 113.992 369.13 113.704C369.13 112.36 370.058 111.512 371.754 111.512C373.162 111.512 374.09 112.232 374.09 113.448C374.09 114.472 373.466 115.128 372.25 115.128H370.858V116.088H372.506C373.786 116.088 374.538 116.632 374.538 117.688C374.538 119.128 373.434 119.96 371.626 119.96C369.866 119.96 368.89 119.16 368.89 117.64C368.89 117.56 368.89 117.4 368.906 117.128H367.69C367.674 117.304 367.642 117.624 367.642 117.848C367.642 119.896 369.194 121.144 371.626 121.144ZM381.346 121.144C384.034 121.144 385.522 119.288 385.522 115.624C385.522 111.768 383.858 110.328 381.282 110.328C378.786 110.328 377.298 111.72 377.298 113.816C377.298 115.688 378.69 116.92 381.074 116.92C382.85 116.92 383.97 116.04 384.13 114.776H384.162C384.194 115.08 384.194 115.48 384.194 115.784C384.194 118.552 383.218 119.976 381.33 119.976C379.698 119.976 378.786 119.208 378.786 118.12C378.786 118.056 378.786 117.88 378.802 117.704H377.554C377.538 117.912 377.538 118.136 377.538 118.232C377.538 119.944 378.946 121.144 381.346 121.144ZM381.122 115.864C379.586 115.864 378.61 115.064 378.61 113.816C378.61 112.424 379.586 111.496 381.266 111.496C382.882 111.496 383.89 112.376 383.97 113.528C383.97 114.888 382.866 115.864 381.122 115.864ZM249.248 137.312V136.16H247.328L247.792 133.472H246.96L246.496 136.16H244.032L244.496 133.472H243.664L243.2 136.16H240.416V137.312H243.008L242.512 140.256H240.416V141.408H242.32L241.872 144H242.704L243.152 141.408H245.6L245.152 144H245.984L246.432 141.408H249.248V140.256H246.624L247.136 137.312H249.248ZM245.792 140.256H243.344L243.84 137.312H246.304L245.792 140.256ZM250.936 144H255.112C258.152 144 260.024 142.016 260.024 138.72C260.024 135.456 258.024 133.472 254.776 133.472H250.936V144ZM252.28 142.784V134.688H254.808C257.208 134.688 258.68 136.208 258.68 138.72C258.68 141.28 257.32 142.784 255.08 142.784H252.28ZM261.788 144H269.5V142.816H263.132C263.132 142.16 263.388 141.84 265.644 140.784C268.716 139.344 269.308 138.24 269.308 136.64C269.308 134.688 267.916 133.328 265.676 133.328C263.244 133.328 261.852 134.8 261.852 137.12C261.852 137.664 261.9 138.16 261.948 138.4H263.164C263.116 138.16 263.068 137.68 263.068 137.184C263.068 135.552 263.98 134.512 265.644 134.512C267.116 134.512 267.996 135.392 267.996 136.64C267.996 138.032 267.58 138.672 264.94 139.904C262.156 141.2 261.788 141.84 261.788 144ZM271.764 144H273.108V139.424H277.812V138.4H273.108V134.688H278.596V133.472H271.764V144ZM280.358 144H281.702V139.424H286.406V138.4H281.702V134.688H287.19V133.472H280.358V144ZM288.952 144H296.072V142.784H290.296V139.2H294.856V138.208H290.296V134.688H295.928V133.472H288.952V144ZM297.905 144H299.249V139.424H303.953V138.4H299.249V134.688H304.737V133.472H297.905V144Z" fill="white"/>
<path d="M485.088 98.16C488.528 98.16 489.52 96.576 489.52 94.976C489.52 94.016 489.088 93.28 488.384 92.928C487.696 92.576 486.592 92.4 485.536 92.256C484.624 92.128 483.36 91.936 482.848 91.68C482.4 91.456 482.144 91.056 482.144 90.384C482.144 89.232 483.36 88.464 485.072 88.464C486.88 88.464 487.904 89.264 487.904 91.104H489.152C489.152 88.672 487.984 87.312 485.04 87.312C482.528 87.312 480.8 88.624 480.8 90.496C480.8 91.488 481.232 92.192 481.84 92.56C482.416 92.912 483.568 93.168 484.656 93.296C485.568 93.424 486.768 93.552 487.344 93.792C487.888 94.016 488.176 94.384 488.176 95.056C488.176 96.064 487.504 97.008 485.088 97.008C482.848 97.008 482.08 95.936 482.08 94.416H480.832C480.832 96.32 481.712 98.16 485.088 98.16ZM491.513 98H492.793V94.272C492.793 92.272 493.961 91.12 495.769 91.12C497.465 91.12 498.233 91.984 498.233 93.328V98H499.513V93.056C499.513 91.168 498.281 89.968 496.201 89.968C494.312 89.968 493.209 90.864 492.777 92.24H492.761C492.761 91.952 492.793 91.008 492.793 90.576V86.912H491.513V98ZM504.275 98.128C506.243 98.128 507.235 97.344 507.507 96.128H507.523C507.507 96.896 507.475 97.632 507.459 98H508.739V93.184C508.739 91.12 507.395 89.968 505.075 89.968C502.931 89.968 501.587 90.912 501.587 92.48C501.587 92.624 501.603 92.848 501.619 92.96H502.803C502.787 92.832 502.787 92.72 502.787 92.672C502.787 91.6 503.587 91.056 505.043 91.056C506.659 91.056 507.459 91.712 507.459 93.072V93.648H504.243C502.131 93.648 501.347 94.608 501.347 95.728C501.347 97.216 502.483 98.128 504.275 98.128ZM504.531 97.04C503.283 97.04 502.547 96.528 502.547 95.728C502.547 94.96 503.059 94.576 504.355 94.576H507.459V94.688C507.459 96.128 506.323 97.04 504.531 97.04ZM514.341 98.128C516.101 98.128 517.157 97.248 517.461 95.888H517.493C517.477 96.592 517.461 97.296 517.413 98H518.693V86.912H517.413V91.68H517.397C517.109 90.64 516.101 89.968 514.453 89.968C512.053 89.968 510.581 91.648 510.581 94C510.581 96.464 512.053 98.128 514.341 98.128ZM514.549 96.976C512.917 96.976 511.861 95.76 511.861 94C511.861 92.352 512.917 91.12 514.565 91.12C516.309 91.12 517.413 92.144 517.413 93.744V94.144C517.413 95.872 516.293 96.976 514.549 96.976ZM528.163 93.712C528.163 91.36 526.835 89.968 524.579 89.968C522.211 89.968 520.691 91.584 520.691 94.112C520.691 96.56 522.227 98.128 524.611 98.128C526.691 98.128 528.083 97.04 528.163 95.328H526.979C526.867 96.368 525.955 97.04 524.627 97.04C523.075 97.04 522.051 95.984 521.971 94.304H528.163V93.712ZM526.979 93.376H522.019C522.259 91.872 523.203 91.056 524.611 91.056C526.115 91.056 526.979 91.888 526.979 93.28V93.376ZM533.529 98.128C535.289 98.128 536.345 97.248 536.649 95.888H536.681C536.665 96.592 536.649 97.296 536.601 98H537.881V86.912H536.601V91.68H536.585C536.297 90.64 535.289 89.968 533.641 89.968C531.241 89.968 529.769 91.648 529.769 94C529.769 96.464 531.241 98.128 533.529 98.128ZM533.737 96.976C532.105 96.976 531.049 95.76 531.049 94C531.049 92.352 532.105 91.12 533.753 91.12C535.497 91.12 536.601 92.144 536.601 93.744V94.144C536.601 95.872 535.481 96.976 533.737 96.976ZM548.862 98.16C551.55 98.16 553.534 96.528 553.534 94.16V93.904H552.286V94.096C552.286 95.776 550.798 96.944 548.862 96.944C546.654 96.944 544.91 95.312 544.91 92.752C544.91 90.176 546.574 88.528 548.862 88.528C550.782 88.528 552.238 89.728 552.238 91.504V91.792H553.47C553.486 91.584 553.486 91.44 553.486 91.408C553.486 88.976 551.534 87.312 548.862 87.312C545.742 87.312 543.566 89.44 543.566 92.752C543.566 96.048 545.806 98.16 548.862 98.16ZM558.134 98.128C560.102 98.128 561.094 97.344 561.366 96.128H561.382C561.366 96.896 561.334 97.632 561.318 98H562.598V93.184C562.598 91.12 561.254 89.968 558.934 89.968C556.79 89.968 555.446 90.912 555.446 92.48C555.446 92.624 555.462 92.848 555.478 92.96H556.662C556.646 92.832 556.646 92.72 556.646 92.672C556.646 91.6 557.446 91.056 558.902 91.056C560.518 91.056 561.318 91.712 561.318 93.072V93.648H558.102C555.99 93.648 555.206 94.608 555.206 95.728C555.206 97.216 556.342 98.128 558.134 98.128ZM558.39 97.04C557.142 97.04 556.406 96.528 556.406 95.728C556.406 94.96 556.918 94.576 558.214 94.576H561.318V94.688C561.318 96.128 560.182 97.04 558.39 97.04ZM564.761 98H566.041V94.112C566.041 92.224 567.209 91.12 569.017 91.12C570.713 91.12 571.481 91.984 571.481 93.328V98H572.761V93.056C572.761 91.168 571.529 89.968 569.449 89.968C567.561 89.968 566.457 90.848 566.025 92.224H566.009L566.041 90.096H564.761V98ZM578.597 98.128C581.045 98.128 582.597 96.544 582.597 94.064C582.597 91.568 581.045 89.968 578.597 89.968C576.149 89.968 574.597 91.568 574.597 94.064C574.597 96.544 576.149 98.128 578.597 98.128ZM578.597 96.976C576.933 96.976 575.877 95.84 575.877 94.064C575.877 92.272 576.933 91.12 578.597 91.12C580.261 91.12 581.317 92.272 581.317 94.064C581.317 95.84 580.261 96.976 578.597 96.976ZM584.591 101.168H585.871V97.984C585.871 97.616 585.839 96.784 585.823 96.256H585.839C586.175 97.328 587.295 98.128 588.975 98.128C591.295 98.128 592.719 96.48 592.719 93.92C592.719 91.504 591.311 89.968 589.007 89.968C587.295 89.968 586.175 90.816 585.855 92.128H585.839L585.871 90.096H584.591V101.168ZM588.799 96.976C587.007 96.976 585.871 96.016 585.871 94.512V94.032C585.903 92.256 587.039 91.12 588.767 91.12C590.431 91.12 591.439 92.224 591.439 93.936C591.439 95.792 590.415 96.976 588.799 96.976ZM595.432 101.328C596.936 101.328 597.544 100.592 598.488 98.144L601.624 90.096H600.328L597.784 96.704H597.752L594.872 90.096H593.368L596.92 98H597.256C596.52 99.792 596.136 100.208 595.272 100.208C594.872 100.208 594.488 100.112 594.296 100.048V101.12C594.52 101.216 594.984 101.328 595.432 101.328ZM611.719 98.16C613.815 98.16 614.983 97.248 615.303 96.048H615.319C615.287 96.816 615.239 97.568 615.191 98H616.455V92.944H611.415V93.936H615.111V94.24C615.111 95.824 613.815 97.008 611.719 97.008C609.607 97.008 607.847 95.392 607.847 92.848C607.847 90.224 609.575 88.528 611.799 88.528C613.703 88.528 615.111 89.52 615.111 91.2C615.111 91.36 615.111 91.552 615.095 91.76H616.343C616.359 91.504 616.359 91.264 616.359 91.136C616.359 88.736 614.455 87.312 611.799 87.312C608.807 87.312 606.503 89.536 606.503 92.832C606.503 96.096 608.727 98.16 611.719 98.16ZM618.698 98H619.978V94.496C619.978 92.528 620.922 91.12 622.538 91.12C623.834 91.12 624.378 91.872 624.378 93.328C624.378 93.824 624.346 94.224 624.314 94.464H625.482C625.514 94.176 625.562 93.6 625.562 93.056C625.562 91.152 624.618 89.968 622.842 89.968C621.146 89.968 620.33 91.008 619.962 92.384H619.946L619.978 90.096H618.698V98ZM634.631 93.712C634.631 91.36 633.303 89.968 631.047 89.968C628.679 89.968 627.159 91.584 627.159 94.112C627.159 96.56 628.695 98.128 631.079 98.128C633.159 98.128 634.551 97.04 634.631 95.328H633.447C633.335 96.368 632.423 97.04 631.095 97.04C629.543 97.04 628.519 95.984 628.439 94.304H634.631V93.712ZM633.447 93.376H628.487C628.727 91.872 629.671 91.056 631.079 91.056C632.583 91.056 633.447 91.888 633.447 93.28V93.376ZM643.71 93.712C643.71 91.36 642.382 89.968 640.126 89.968C637.758 89.968 636.238 91.584 636.238 94.112C636.238 96.56 637.774 98.128 640.158 98.128C642.238 98.128 643.63 97.04 643.71 95.328H642.526C642.414 96.368 641.502 97.04 640.174 97.04C638.622 97.04 637.598 95.984 637.518 94.304H643.71V93.712ZM642.526 93.376H637.566C637.806 91.872 638.75 91.056 640.158 91.056C641.662 91.056 642.526 91.888 642.526 93.28V93.376ZM645.636 98H646.916V94.112C646.916 92.224 648.084 91.12 649.892 91.12C651.588 91.12 652.356 91.984 652.356 93.328V98H653.636V93.056C653.636 91.168 652.404 89.968 650.324 89.968C648.436 89.968 647.332 90.848 646.9 92.224H646.884L646.916 90.096H645.636V98ZM481.28 121H482.624V116.616H485.92C487.664 116.616 488.16 117.336 488.16 118.456V121H489.536V118.456C489.536 117.144 489.056 116.2 487.568 116.024V115.992C489.008 115.816 489.6 114.84 489.6 113.464C489.6 111.64 488.288 110.472 485.648 110.472H481.28V121ZM482.624 115.624V111.688H485.648C487.424 111.688 488.288 112.408 488.288 113.576C488.288 114.808 487.552 115.624 485.632 115.624H482.624ZM496.587 121H498.091C498.971 117.256 500.075 114.792 503.275 111.576V110.472H494.859V111.688H501.755V111.704C499.243 114.184 497.467 117.256 496.587 121ZM504.803 121H512.611V119.816H509.667V110.36H508.515C508.499 112.92 508.387 113.16 507.411 113.176L505.939 113.208V114.184H508.355V119.816H504.803V121ZM514.491 123.096C515.723 122.936 516.251 122.168 516.251 120.536V119.176H514.875V121H515.451V121.032C515.435 121.848 515.179 122.264 514.491 122.36V123.096ZM527.297 121.16C529.393 121.16 530.561 120.248 530.881 119.048H530.897C530.865 119.816 530.817 120.568 530.769 121H532.033V115.944H526.993V116.936H530.689V117.24C530.689 118.824 529.393 120.008 527.297 120.008C525.185 120.008 523.425 118.392 523.425 115.848C523.425 113.224 525.153 111.528 527.377 111.528C529.281 111.528 530.689 112.52 530.689 114.2C530.689 114.36 530.689 114.552 530.673 114.76H531.921C531.937 114.504 531.937 114.264 531.937 114.136C531.937 111.736 530.033 110.312 527.377 110.312C524.385 110.312 522.081 112.536 522.081 115.832C522.081 119.096 524.305 121.16 527.297 121.16ZM537.772 121H545.58V119.816H542.636V110.36H541.484C541.468 112.92 541.356 113.16 540.38 113.176L538.908 113.208V114.184H541.324V119.816H537.772V121ZM552.852 121H554.164V118.52H555.908V117.336H554.164V110.472H552.676L547.076 117.336V118.52H552.852V121ZM548.484 117.336V117.32L552.836 112.008H552.852V117.336H548.484ZM558.524 121H560.028C560.908 117.256 562.012 114.792 565.212 111.576V110.472H556.796V111.688H563.692V111.704C561.18 114.184 559.404 117.256 558.524 121ZM566.773 123.096C568.005 122.936 568.533 122.168 568.533 120.536V119.176H567.157V121H567.733V121.032C567.717 121.848 567.461 122.264 566.773 122.36V123.096ZM574.843 121H579.515C582.091 121 583.115 119.816 583.115 117.96C583.115 116.584 582.315 115.624 580.859 115.496V115.48C582.107 115.32 582.715 114.44 582.715 113.224C582.715 111.544 581.579 110.472 579.131 110.472H574.843V121ZM576.187 115.096V111.656H579.115C580.779 111.656 581.467 112.344 581.467 113.4C581.467 114.44 580.795 115.096 579.307 115.096H576.187ZM576.187 119.816V116.088H579.403C580.939 116.088 581.803 116.776 581.803 117.832C581.803 119.048 581.275 119.816 579.467 119.816H576.187ZM588.537 121H596.345V119.816H593.401V110.36H592.249C592.233 112.92 592.121 113.16 591.145 113.176L589.673 113.208V114.184H592.089V119.816H588.537V121ZM598.226 121H605.938V119.816H599.57C599.57 119.16 599.826 118.84 602.082 117.784C605.154 116.344 605.746 115.24 605.746 113.64C605.746 111.688 604.354 110.328 602.114 110.328C599.682 110.328 598.29 111.8 598.29 114.12C598.29 114.664 598.338 115.16 598.386 115.4H599.602C599.554 115.16 599.506 114.68 599.506 114.184C599.506 112.552 600.418 111.512 602.082 111.512C603.554 111.512 604.434 112.392 604.434 113.64C604.434 115.032 604.018 115.672 601.378 116.904C598.594 118.2 598.226 118.84 598.226 121ZM611.754 121.144C614.362 121.144 615.866 119.048 615.866 115.688C615.866 112.392 614.362 110.328 611.754 110.328C609.146 110.328 607.642 112.392 607.642 115.688C607.642 119.048 609.146 121.144 611.754 121.144ZM611.754 119.96C609.946 119.96 608.954 118.328 608.954 115.688C608.954 113.112 609.946 111.512 611.754 111.512C613.562 111.512 614.554 113.112 614.554 115.688C614.554 118.328 613.562 119.96 611.754 119.96ZM489.248 137.312V136.16H487.328L487.792 133.472H486.96L486.496 136.16H484.032L484.496 133.472H483.664L483.2 136.16H480.416V137.312H483.008L482.512 140.256H480.416V141.408H482.32L481.872 144H482.704L483.152 141.408H485.6L485.152 144H485.984L486.432 141.408H489.248V140.256H486.624L487.136 137.312H489.248ZM485.792 140.256H483.344L483.84 137.312H486.304L485.792 140.256ZM496.008 144H497.32V141.52H499.064V140.336H497.32V133.472H495.832L490.232 140.336V141.52H496.008V144ZM491.64 140.336V140.32L495.992 135.008H496.008V140.336H491.64ZM501.681 144H503.185C504.065 140.256 505.169 137.792 508.369 134.576V133.472H499.953V134.688H506.849V134.704C504.337 137.184 502.561 140.256 501.681 144ZM513.737 144.144C516.425 144.144 517.913 142.288 517.913 138.624C517.913 134.768 516.249 133.328 513.673 133.328C511.177 133.328 509.689 134.72 509.689 136.816C509.689 138.688 511.081 139.92 513.465 139.92C515.241 139.92 516.361 139.04 516.521 137.776H516.553C516.585 138.08 516.585 138.48 516.585 138.784C516.585 141.552 515.609 142.976 513.721 142.976C512.089 142.976 511.177 142.208 511.177 141.12C511.177 141.056 511.177 140.88 511.193 140.704H509.945C509.929 140.912 509.929 141.136 509.929 141.232C509.929 142.944 511.337 144.144 513.737 144.144ZM513.513 138.864C511.977 138.864 511.001 138.064 511.001 136.816C511.001 135.424 511.977 134.496 513.657 134.496C515.273 134.496 516.281 135.376 516.361 136.528C516.361 137.888 515.257 138.864 513.513 138.864ZM523.329 144.144C525.937 144.144 527.553 142.832 527.553 140.768C527.553 139.504 526.785 138.592 525.569 138.432V138.4C526.481 138.192 527.073 137.344 527.073 136.304C527.073 134.448 525.649 133.328 523.457 133.328C521.025 133.328 519.585 134.576 519.585 136.512C519.585 136.864 519.617 137.216 519.649 137.376H520.865C520.849 137.216 520.833 136.992 520.833 136.704C520.833 135.36 521.761 134.512 523.457 134.512C524.865 134.512 525.793 135.232 525.793 136.448C525.793 137.472 525.169 138.128 523.953 138.128H522.561V139.088H524.209C525.489 139.088 526.241 139.632 526.241 140.688C526.241 142.128 525.137 142.96 523.329 142.96C521.569 142.96 520.593 142.16 520.593 140.64C520.593 140.56 520.593 140.4 520.609 140.128H519.393C519.377 140.304 519.345 140.624 519.345 140.848C519.345 142.896 520.897 144.144 523.329 144.144ZM530.649 144H532.153C533.033 140.256 534.137 137.792 537.337 134.576V133.472H528.921V134.688H535.817V134.704C533.305 137.184 531.529 140.256 530.649 144ZM542.77 144.144C545.282 144.144 546.882 142.944 546.882 141.008C546.882 139.712 546.002 138.752 544.738 138.528V138.512C545.826 138.304 546.434 137.392 546.434 136.32C546.434 134.448 545.01 133.328 542.77 133.328C540.53 133.328 539.106 134.448 539.106 136.32C539.106 137.392 539.714 138.304 540.802 138.512V138.528C539.522 138.752 538.658 139.712 538.658 141.008C538.658 142.944 540.258 144.144 542.77 144.144ZM542.77 138.112C541.298 138.112 540.354 137.408 540.354 136.32C540.354 135.2 541.298 134.48 542.77 134.48C544.242 134.48 545.186 135.2 545.186 136.32C545.186 137.408 544.242 138.112 542.77 138.112ZM542.77 142.992C541.058 142.992 539.97 142.208 539.97 141.008C539.97 139.84 541.058 139.104 542.77 139.104C544.482 139.104 545.57 139.84 545.57 141.008C545.57 142.208 544.482 142.992 542.77 142.992Z" fill="white"/>
<path d="M721.28 98H725.456C728.496 98 730.368 96.016 730.368 92.72C730.368 89.456 728.368 87.472 725.12 87.472H721.28V98ZM722.624 96.784V88.688H725.152C727.552 88.688 729.024 90.208 729.024 92.72C729.024 95.28 727.664 96.784 725.424 96.784H722.624ZM734.9 98.128C736.868 98.128 737.86 97.344 738.132 96.128H738.148C738.132 96.896 738.1 97.632 738.084 98H739.364V93.184C739.364 91.12 738.02 89.968 735.7 89.968C733.556 89.968 732.212 90.912 732.212 92.48C732.212 92.624 732.228 92.848 732.244 92.96H733.428C733.412 92.832 733.412 92.72 733.412 92.672C733.412 91.6 734.212 91.056 735.668 91.056C737.284 91.056 738.084 91.712 738.084 93.072V93.648H734.868C732.756 93.648 731.972 94.608 731.972 95.728C731.972 97.216 733.108 98.128 734.9 98.128ZM735.156 97.04C733.908 97.04 733.172 96.528 733.172 95.728C733.172 94.96 733.684 94.576 734.98 94.576H738.084V94.688C738.084 96.128 736.948 97.04 735.156 97.04ZM741.526 98H742.806V94.496C742.806 92.528 743.75 91.12 745.366 91.12C746.662 91.12 747.206 91.872 747.206 93.328C747.206 93.824 747.174 94.224 747.142 94.464H748.31C748.342 94.176 748.39 93.6 748.39 93.056C748.39 91.152 747.446 89.968 745.67 89.968C743.974 89.968 743.158 91.008 742.79 92.384H742.774L742.806 90.096H741.526V98ZM750.388 98H751.668V95.92L753.476 94.352L756.836 98H758.66L754.436 93.536L758.436 90.096H756.644L751.684 94.512H751.668V86.912H750.388V98ZM763.999 98H765.343V93.424H770.047V92.4H765.343V88.688H770.831V87.472H763.999V98ZM775.8 98.128C778.248 98.128 779.8 96.544 779.8 94.064C779.8 91.568 778.248 89.968 775.8 89.968C773.352 89.968 771.8 91.568 771.8 94.064C771.8 96.544 773.352 98.128 775.8 98.128ZM775.8 96.976C774.136 96.976 773.08 95.84 773.08 94.064C773.08 92.272 774.136 91.12 775.8 91.12C777.464 91.12 778.52 92.272 778.52 94.064C778.52 95.84 777.464 96.976 775.8 96.976ZM781.714 98H782.994V94.496C782.994 92.528 783.938 91.12 785.554 91.12C786.85 91.12 787.394 91.872 787.394 93.328C787.394 93.824 787.362 94.224 787.33 94.464H788.498C788.53 94.176 788.578 93.6 788.578 93.056C788.578 91.152 787.634 89.968 785.858 89.968C784.162 89.968 783.346 91.008 782.978 92.384H782.962L782.994 90.096H781.714V98ZM797.647 93.712C797.647 91.36 796.319 89.968 794.063 89.968C791.695 89.968 790.175 91.584 790.175 94.112C790.175 96.56 791.711 98.128 794.095 98.128C796.175 98.128 797.567 97.04 797.647 95.328H796.463C796.351 96.368 795.439 97.04 794.111 97.04C792.559 97.04 791.535 95.984 791.455 94.304H797.647V93.712ZM796.463 93.376H791.503C791.743 91.872 792.687 91.056 794.095 91.056C795.599 91.056 796.463 91.888 796.463 93.28V93.376ZM802.741 98.128C805.141 98.128 806.421 97.2 806.421 95.648C806.421 95.056 806.165 94.448 805.637 94.144C805.093 93.84 804.485 93.728 803.253 93.6C802.213 93.488 801.429 93.392 801.045 93.232C800.581 93.04 800.533 92.656 800.533 92.336C800.533 91.552 801.413 91.056 802.773 91.056C804.181 91.056 804.885 91.6 804.901 92.784H806.085C806.085 91.008 805.093 89.968 802.725 89.968C800.613 89.968 799.253 90.928 799.253 92.416C799.253 92.992 799.477 93.568 799.909 93.888C800.389 94.24 801.173 94.4 802.469 94.512C803.445 94.608 804.277 94.704 804.645 94.88C805.045 95.072 805.141 95.376 805.141 95.696C805.141 96.544 804.357 97.04 802.725 97.04C801.077 97.04 800.437 96.416 800.437 95.36H799.253C799.253 96.88 800.085 98.128 802.741 98.128ZM811.475 98.064C812.115 98.064 812.579 97.968 812.819 97.872V96.784C812.643 96.848 812.131 96.944 811.587 96.944C810.403 96.944 810.019 96.224 810.019 95.024V91.216H812.883V90.096H810.019V88.304H808.931L808.867 89.552C808.835 89.968 808.739 90.096 808.483 90.096H807.427V91.216H808.739V95.104C808.739 96.848 809.555 98.064 811.475 98.064ZM823.284 98.16C825.972 98.16 827.956 96.528 827.956 94.16V93.904H826.708V94.096C826.708 95.776 825.22 96.944 823.284 96.944C821.076 96.944 819.332 95.312 819.332 92.752C819.332 90.176 820.996 88.528 823.284 88.528C825.204 88.528 826.66 89.728 826.66 91.504V91.792H827.892C827.908 91.584 827.908 91.44 827.908 91.408C827.908 88.976 825.956 87.312 823.284 87.312C820.164 87.312 817.988 89.44 817.988 92.752C817.988 96.048 820.228 98.16 823.284 98.16ZM832.556 98.128C834.524 98.128 835.516 97.344 835.788 96.128H835.804C835.788 96.896 835.756 97.632 835.74 98H837.02V93.184C837.02 91.12 835.676 89.968 833.356 89.968C831.212 89.968 829.868 90.912 829.868 92.48C829.868 92.624 829.884 92.848 829.9 92.96H831.084C831.068 92.832 831.068 92.72 831.068 92.672C831.068 91.6 831.868 91.056 833.324 91.056C834.94 91.056 835.74 91.712 835.74 93.072V93.648H832.524C830.412 93.648 829.628 94.608 829.628 95.728C829.628 97.216 830.764 98.128 832.556 98.128ZM832.812 97.04C831.564 97.04 830.828 96.528 830.828 95.728C830.828 94.96 831.34 94.576 832.636 94.576H835.74V94.688C835.74 96.128 834.604 97.04 832.812 97.04ZM839.183 98H840.463V94.112C840.463 92.224 841.631 91.12 843.439 91.12C845.135 91.12 845.903 91.984 845.903 93.328V98H847.183V93.056C847.183 91.168 845.951 89.968 843.871 89.968C841.983 89.968 840.879 90.848 840.447 92.224H840.431L840.463 90.096H839.183V98ZM853.019 98.128C855.467 98.128 857.019 96.544 857.019 94.064C857.019 91.568 855.467 89.968 853.019 89.968C850.571 89.968 849.019 91.568 849.019 94.064C849.019 96.544 850.571 98.128 853.019 98.128ZM853.019 96.976C851.355 96.976 850.299 95.84 850.299 94.064C850.299 92.272 851.355 91.12 853.019 91.12C854.683 91.12 855.739 92.272 855.739 94.064C855.739 95.84 854.683 96.976 853.019 96.976ZM859.013 101.168H860.293V97.984C860.293 97.616 860.261 96.784 860.245 96.256H860.261C860.597 97.328 861.717 98.128 863.397 98.128C865.717 98.128 867.141 96.48 867.141 93.92C867.141 91.504 865.733 89.968 863.429 89.968C861.717 89.968 860.597 90.816 860.277 92.128H860.261L860.293 90.096H859.013V101.168ZM863.221 96.976C861.429 96.976 860.293 96.016 860.293 94.512V94.032C860.325 92.256 861.461 91.12 863.189 91.12C864.853 91.12 865.861 92.224 865.861 93.936C865.861 95.792 864.837 96.976 863.221 96.976ZM869.854 101.328C871.358 101.328 871.966 100.592 872.91 98.144L876.046 90.096H874.75L872.206 96.704H872.174L869.294 90.096H867.79L871.342 98H871.678C870.942 99.792 870.558 100.208 869.694 100.208C869.294 100.208 868.91 100.112 868.718 100.048V101.12C868.942 101.216 869.406 101.328 869.854 101.328ZM886.141 98.16C888.237 98.16 889.405 97.248 889.725 96.048H889.741C889.709 96.816 889.661 97.568 889.613 98H890.877V92.944H885.837V93.936H889.533V94.24C889.533 95.824 888.237 97.008 886.141 97.008C884.029 97.008 882.269 95.392 882.269 92.848C882.269 90.224 883.997 88.528 886.221 88.528C888.125 88.528 889.533 89.52 889.533 91.2C889.533 91.36 889.533 91.552 889.517 91.76H890.765C890.781 91.504 890.781 91.264 890.781 91.136C890.781 88.736 888.877 87.312 886.221 87.312C883.229 87.312 880.925 89.536 880.925 92.832C880.925 96.096 883.149 98.16 886.141 98.16ZM893.12 98H894.4V94.496C894.4 92.528 895.344 91.12 896.96 91.12C898.256 91.12 898.8 91.872 898.8 93.328C898.8 93.824 898.768 94.224 898.736 94.464H899.904C899.936 94.176 899.984 93.6 899.984 93.056C899.984 91.152 899.04 89.968 897.264 89.968C895.568 89.968 894.752 91.008 894.384 92.384H894.368L894.4 90.096H893.12V98ZM909.053 93.712C909.053 91.36 907.725 89.968 905.469 89.968C903.101 89.968 901.581 91.584 901.581 94.112C901.581 96.56 903.117 98.128 905.501 98.128C907.581 98.128 908.973 97.04 909.053 95.328H907.869C907.757 96.368 906.845 97.04 905.517 97.04C903.965 97.04 902.941 95.984 902.861 94.304H909.053V93.712ZM907.869 93.376H902.909C903.149 91.872 904.093 91.056 905.501 91.056C907.005 91.056 907.869 91.888 907.869 93.28V93.376ZM918.131 93.712C918.131 91.36 916.803 89.968 914.547 89.968C912.179 89.968 910.659 91.584 910.659 94.112C910.659 96.56 912.195 98.128 914.579 98.128C916.659 98.128 918.051 97.04 918.131 95.328H916.947C916.835 96.368 915.923 97.04 914.595 97.04C913.043 97.04 912.019 95.984 911.939 94.304H918.131V93.712ZM916.947 93.376H911.987C912.227 91.872 913.171 91.056 914.579 91.056C916.083 91.056 916.947 91.888 916.947 93.28V93.376ZM920.058 98H921.338V94.112C921.338 92.224 922.506 91.12 924.314 91.12C926.01 91.12 926.778 91.984 926.778 93.328V98H928.058V93.056C928.058 91.168 926.826 89.968 924.746 89.968C922.858 89.968 921.754 90.848 921.322 92.224H921.306L921.338 90.096H920.058V98ZM721.28 121H722.624V116.616H725.92C727.664 116.616 728.16 117.336 728.16 118.456V121H729.536V118.456C729.536 117.144 729.056 116.2 727.568 116.024V115.992C729.008 115.816 729.6 114.84 729.6 113.464C729.6 111.64 728.288 110.472 725.648 110.472H721.28V121ZM722.624 115.624V111.688H725.648C727.424 111.688 728.288 112.408 728.288 113.576C728.288 114.808 727.552 115.624 725.632 115.624H722.624ZM735.179 121H742.891V119.816H736.523C736.523 119.16 736.779 118.84 739.035 117.784C742.107 116.344 742.699 115.24 742.699 113.64C742.699 111.688 741.307 110.328 739.067 110.328C736.635 110.328 735.243 111.8 735.243 114.12C735.243 114.664 735.291 115.16 735.339 115.4H736.555C736.507 115.16 736.459 114.68 736.459 114.184C736.459 112.552 737.371 111.512 739.035 111.512C740.507 111.512 741.387 112.392 741.387 113.64C741.387 115.032 740.971 115.672 738.331 116.904C735.547 118.2 735.179 118.84 735.179 121ZM748.899 121.144C751.267 121.144 752.819 119.816 752.819 117.768C752.819 115.976 751.555 114.856 749.059 114.856C747.331 114.856 746.131 115.592 745.955 116.744H745.923C745.907 116.6 745.907 116.2 745.907 115.704C745.907 113.08 746.899 111.512 748.899 111.512C750.435 111.512 751.219 112.328 751.219 113.512C751.219 113.768 751.203 113.944 751.187 114.056H752.435C752.451 113.928 752.467 113.688 752.467 113.496C752.467 111.56 751.187 110.328 748.899 110.328C746.099 110.328 744.595 112.424 744.595 115.752C744.595 119.208 745.843 121.144 748.899 121.144ZM748.915 119.992C747.315 119.992 746.227 119.096 746.099 117.88C746.099 116.808 747.203 115.912 748.931 115.912C750.627 115.912 751.507 116.616 751.507 117.784C751.507 119.112 750.483 119.992 748.915 119.992ZM754.491 123.096C755.723 122.936 756.251 122.168 756.251 120.536V119.176H754.875V121H755.451V121.032C755.435 121.848 755.179 122.264 754.491 122.36V123.096ZM767.297 121.16C769.393 121.16 770.561 120.248 770.881 119.048H770.897C770.865 119.816 770.817 120.568 770.769 121H772.033V115.944H766.993V116.936H770.689V117.24C770.689 118.824 769.393 120.008 767.297 120.008C765.185 120.008 763.425 118.392 763.425 115.848C763.425 113.224 765.153 111.528 767.377 111.528C769.281 111.528 770.689 112.52 770.689 114.2C770.689 114.36 770.689 114.552 770.673 114.76H771.921C771.937 114.504 771.937 114.264 771.937 114.136C771.937 111.736 770.033 110.312 767.377 110.312C764.385 110.312 762.081 112.536 762.081 115.832C762.081 119.096 764.305 121.16 767.297 121.16ZM781.548 121.144C784.156 121.144 785.772 119.832 785.772 117.768C785.772 116.504 785.004 115.592 783.788 115.432V115.4C784.7 115.192 785.292 114.344 785.292 113.304C785.292 111.448 783.868 110.328 781.676 110.328C779.244 110.328 777.804 111.576 777.804 113.512C777.804 113.864 777.836 114.216 777.868 114.376H779.084C779.068 114.216 779.052 113.992 779.052 113.704C779.052 112.36 779.98 111.512 781.676 111.512C783.084 111.512 784.012 112.232 784.012 113.448C784.012 114.472 783.388 115.128 782.172 115.128H780.78V116.088H782.428C783.708 116.088 784.46 116.632 784.46 117.688C784.46 119.128 783.356 119.96 781.548 119.96C779.788 119.96 778.812 119.16 778.812 117.64C778.812 117.56 778.812 117.4 778.828 117.128H777.612C777.596 117.304 777.564 117.624 777.564 117.848C777.564 119.896 779.116 121.144 781.548 121.144ZM791.412 121.144C793.812 121.144 795.332 119.592 795.332 117.416C795.332 115.416 793.956 114.12 791.668 114.12C790.212 114.12 789.172 114.696 788.836 115.592H788.804L789.108 111.656H794.692V110.472H788.004L787.588 116.44L788.836 116.568C789.188 115.72 790.196 115.176 791.38 115.176C792.996 115.176 794.02 116.04 794.02 117.416C794.02 118.872 792.996 119.96 791.412 119.96C789.764 119.96 788.676 119.272 788.676 118.216C788.676 118.136 788.676 118.04 788.692 117.896H787.46C787.444 117.976 787.428 118.136 787.428 118.28C787.428 120.008 789.012 121.144 791.412 121.144ZM797.116 123.096C798.348 122.936 798.876 122.168 798.876 120.536V119.176H797.5V121H798.076V121.032C798.06 121.848 797.804 122.264 797.116 122.36V123.096ZM805.186 121H809.858C812.434 121 813.458 119.816 813.458 117.96C813.458 116.584 812.658 115.624 811.202 115.496V115.48C812.45 115.32 813.058 114.44 813.058 113.224C813.058 111.544 811.922 110.472 809.474 110.472H805.186V121ZM806.53 115.096V111.656H809.458C811.122 111.656 811.81 112.344 811.81 113.4C811.81 114.44 811.138 115.096 809.65 115.096H806.53ZM806.53 119.816V116.088H809.746C811.282 116.088 812.146 116.776 812.146 117.832C812.146 119.048 811.618 119.816 809.81 119.816H806.53ZM822.657 121.144C825.265 121.144 826.881 119.832 826.881 117.768C826.881 116.504 826.113 115.592 824.897 115.432V115.4C825.809 115.192 826.401 114.344 826.401 113.304C826.401 111.448 824.977 110.328 822.785 110.328C820.353 110.328 818.913 111.576 818.913 113.512C818.913 113.864 818.945 114.216 818.977 114.376H820.193C820.177 114.216 820.161 113.992 820.161 113.704C820.161 112.36 821.089 111.512 822.785 111.512C824.193 111.512 825.121 112.232 825.121 113.448C825.121 114.472 824.497 115.128 823.281 115.128H821.889V116.088H823.537C824.817 116.088 825.569 116.632 825.569 117.688C825.569 119.128 824.465 119.96 822.657 119.96C820.897 119.96 819.921 119.16 819.921 117.64C819.921 117.56 819.921 117.4 819.937 117.128H818.721C818.705 117.304 818.673 117.624 818.673 117.848C818.673 119.896 820.225 121.144 822.657 121.144ZM832.313 121.144C834.921 121.144 836.537 119.832 836.537 117.768C836.537 116.504 835.769 115.592 834.553 115.432V115.4C835.465 115.192 836.057 114.344 836.057 113.304C836.057 111.448 834.633 110.328 832.441 110.328C830.009 110.328 828.569 111.576 828.569 113.512C828.569 113.864 828.601 114.216 828.633 114.376H829.849C829.833 114.216 829.817 113.992 829.817 113.704C829.817 112.36 830.745 111.512 832.441 111.512C833.849 111.512 834.777 112.232 834.777 113.448C834.777 114.472 834.153 115.128 832.937 115.128H831.545V116.088H833.193C834.473 116.088 835.225 116.632 835.225 117.688C835.225 119.128 834.121 119.96 832.313 119.96C830.553 119.96 829.577 119.16 829.577 117.64C829.577 117.56 829.577 117.4 829.593 117.128H828.377C828.361 117.304 828.329 117.624 828.329 117.848C828.329 119.896 829.881 121.144 832.313 121.144ZM729.248 137.312V136.16H727.328L727.792 133.472H726.96L726.496 136.16H724.032L724.496 133.472H723.664L723.2 136.16H720.416V137.312H723.008L722.512 140.256H720.416V141.408H722.32L721.872 144H722.704L723.152 141.408H725.6L725.152 144H725.984L726.432 141.408H729.248V140.256H726.624L727.136 137.312H729.248ZM725.792 140.256H723.344L723.84 137.312H726.304L725.792 140.256ZM730.584 144H738.392V142.816H735.448V133.36H734.296C734.28 135.92 734.168 136.16 733.192 136.176L731.72 136.208V137.184H734.136V142.816H730.584V144ZM748.641 144H750.209L745.761 133.472H744.161L739.713 144H741.121L742.161 141.44H747.617L748.641 144ZM742.561 140.448L744.897 134.704H744.929L747.217 140.448H742.561ZM751.569 144H759.281V142.816H752.913C752.913 142.16 753.169 141.84 755.425 140.784C758.497 139.344 759.089 138.24 759.089 136.64C759.089 134.688 757.697 133.328 755.457 133.328C753.025 133.328 751.633 134.8 751.633 137.12C751.633 137.664 751.681 138.16 751.729 138.4H752.945C752.897 138.16 752.849 137.68 752.849 137.184C752.849 135.552 753.761 134.512 755.425 134.512C756.897 134.512 757.777 135.392 757.777 136.64C757.777 138.032 757.361 138.672 754.721 139.904C751.937 141.2 751.569 141.84 751.569 144ZM764.97 144.144C767.578 144.144 769.194 142.832 769.194 140.768C769.194 139.504 768.426 138.592 767.21 138.432V138.4C768.122 138.192 768.714 137.344 768.714 136.304C768.714 134.448 767.29 133.328 765.098 133.328C762.666 133.328 761.226 134.576 761.226 136.512C761.226 136.864 761.258 137.216 761.29 137.376H762.506C762.49 137.216 762.474 136.992 762.474 136.704C762.474 135.36 763.402 134.512 765.098 134.512C766.506 134.512 767.434 135.232 767.434 136.448C767.434 137.472 766.81 138.128 765.594 138.128H764.202V139.088H765.85C767.13 139.088 767.882 139.632 767.882 140.688C767.882 142.128 766.778 142.96 764.97 142.96C763.21 142.96 762.234 142.16 762.234 140.64C762.234 140.56 762.234 140.4 762.25 140.128H761.034C761.018 140.304 760.986 140.624 760.986 140.848C760.986 142.896 762.538 144.144 764.97 144.144ZM770.882 144H778.594V142.816H772.226C772.226 142.16 772.482 141.84 774.738 140.784C777.81 139.344 778.402 138.24 778.402 136.64C778.402 134.688 777.01 133.328 774.77 133.328C772.338 133.328 770.946 134.8 770.946 137.12C770.946 137.664 770.994 138.16 771.042 138.4H772.258C772.21 138.16 772.162 137.68 772.162 137.184C772.162 135.552 773.074 134.512 774.738 134.512C776.21 134.512 777.09 135.392 777.09 136.64C777.09 138.032 776.674 138.672 774.034 139.904C771.25 141.2 770.882 141.84 770.882 144ZM780.506 144H788.314V142.816H785.37V133.36H784.218C784.202 135.92 784.09 136.16 783.114 136.176L781.642 136.208V137.184H784.058V142.816H780.506V144Z" fill="white"/>
<path d="M1.28 310H5.952C8.528 310 9.552 308.816 9.552 306.96C9.552 305.584 8.752 304.624 7.296 304.496V304.48C8.544 304.32 9.152 303.44 9.152 302.224C9.152 300.544 8.016 299.472 5.568 299.472H1.28V310ZM2.624 304.096V300.656H5.552C7.216 300.656 7.904 301.344 7.904 302.4C7.904 303.44 7.232 304.096 5.744 304.096H2.624ZM2.624 308.816V305.088H5.84C7.376 305.088 8.24 305.776 8.24 306.832C8.24 308.048 7.712 308.816 5.904 308.816H2.624ZM11.5594 310H12.8394V298.912H11.5594V310ZM17.7749 310.128C19.7429 310.128 20.7349 309.344 21.0069 308.128H21.0229C21.0069 308.896 20.9749 309.632 20.9589 310H22.2389V305.184C22.2389 303.12 20.8949 301.968 18.5749 301.968C16.4309 301.968 15.0869 302.912 15.0869 304.48C15.0869 304.624 15.1029 304.848 15.1189 304.96H16.3029C16.2869 304.832 16.2869 304.72 16.2869 304.672C16.2869 303.6 17.0869 303.056 18.5429 303.056C20.1589 303.056 20.9589 303.712 20.9589 305.072V305.648H17.7429C15.6309 305.648 14.8469 306.608 14.8469 307.728C14.8469 309.216 15.9829 310.128 17.7749 310.128ZM18.0309 309.04C16.7829 309.04 16.0469 308.528 16.0469 307.728C16.0469 306.96 16.5589 306.576 17.8549 306.576H20.9589V306.688C20.9589 308.128 19.8229 309.04 18.0309 309.04ZM27.8573 310.128C30.0493 310.128 31.4573 308.848 31.4573 306.864H30.2733C30.2573 308.16 29.3293 308.976 27.8893 308.976C26.3533 308.976 25.3613 307.84 25.3613 306.048C25.3613 304.256 26.3853 303.12 27.9693 303.12C29.3453 303.12 30.2253 303.952 30.2413 305.264H31.4253C31.4253 303.248 30.0653 301.968 27.9533 301.968C25.5853 301.968 24.0813 303.552 24.0813 306.048C24.0813 308.544 25.5533 310.128 27.8573 310.128ZM33.5438 310H34.8238V307.92L36.6318 306.352L39.9918 310H41.8158L37.5918 305.536L41.5918 302.096H39.7998L34.8398 306.512H34.8238V298.912H33.5438V310ZM1.28 333H2.624V328.616H5.92C7.664 328.616 8.16 329.336 8.16 330.456V333H9.536V330.456C9.536 329.144 9.056 328.2 7.568 328.024V327.992C9.008 327.816 9.6 326.84 9.6 325.464C9.6 323.64 8.288 322.472 5.648 322.472H1.28V333ZM2.624 327.624V323.688H5.648C7.424 323.688 8.288 324.408 8.288 325.576C8.288 326.808 7.552 327.624 5.632 327.624H2.624ZM19.0508 333.144C21.6588 333.144 23.1628 331.048 23.1628 327.688C23.1628 324.392 21.6588 322.328 19.0508 322.328C16.4428 322.328 14.9388 324.392 14.9388 327.688C14.9388 331.048 16.4428 333.144 19.0508 333.144ZM19.0508 331.96C17.2428 331.96 16.2508 330.328 16.2508 327.688C16.2508 325.112 17.2428 323.512 19.0508 323.512C20.8588 323.512 21.8508 325.112 21.8508 327.688C21.8508 330.328 20.8588 331.96 19.0508 331.96ZM24.835 335.096C26.067 334.936 26.595 334.168 26.595 332.536V331.176H25.219V333H25.795V333.032C25.779 333.848 25.523 334.264 24.835 334.36V335.096ZM37.641 333.16C39.737 333.16 40.905 332.248 41.225 331.048H41.241C41.209 331.816 41.161 332.568 41.113 333H42.377V327.944H37.337V328.936H41.033V329.24C41.033 330.824 39.737 332.008 37.641 332.008C35.529 332.008 33.769 330.392 33.769 327.848C33.769 325.224 35.497 323.528 37.721 323.528C39.625 323.528 41.033 324.52 41.033 326.2C41.033 326.36 41.033 326.552 41.017 326.76H42.265C42.281 326.504 42.281 326.264 42.281 326.136C42.281 323.736 40.377 322.312 37.721 322.312C34.729 322.312 32.425 324.536 32.425 327.832C32.425 331.096 34.649 333.16 37.641 333.16ZM52.0195 333.144C54.6275 333.144 56.1315 331.048 56.1315 327.688C56.1315 324.392 54.6275 322.328 52.0195 322.328C49.4115 322.328 47.9075 324.392 47.9075 327.688C47.9075 331.048 49.4115 333.144 52.0195 333.144ZM52.0195 331.96C50.2115 331.96 49.2195 330.328 49.2195 327.688C49.2195 325.112 50.2115 323.512 52.0195 323.512C53.8275 323.512 54.8195 325.112 54.8195 327.688C54.8195 330.328 53.8275 331.96 52.0195 331.96ZM57.8038 335.096C59.0358 334.936 59.5638 334.168 59.5638 332.536V331.176H58.1878V333H58.7638V333.032C58.7478 333.848 58.4918 334.264 57.8038 334.36V335.096ZM65.8738 333H70.5458C73.1218 333 74.1458 331.816 74.1458 329.96C74.1458 328.584 73.3458 327.624 71.8898 327.496V327.48C73.1378 327.32 73.7458 326.44 73.7458 325.224C73.7458 323.544 72.6098 322.472 70.1618 322.472H65.8738V333ZM67.2178 327.096V323.656H70.1458C71.8098 323.656 72.4978 324.344 72.4978 325.4C72.4978 326.44 71.8258 327.096 70.3378 327.096H67.2178ZM67.2178 331.816V328.088H70.4338C71.9698 328.088 72.8338 328.776 72.8338 329.832C72.8338 331.048 72.3058 331.816 70.4978 331.816H67.2178ZM83.4726 333.144C86.0806 333.144 87.5846 331.048 87.5846 327.688C87.5846 324.392 86.0806 322.328 83.4726 322.328C80.8646 322.328 79.3606 324.392 79.3606 327.688C79.3606 331.048 80.8646 333.144 83.4726 333.144ZM83.4726 331.96C81.6646 331.96 80.6726 330.328 80.6726 327.688C80.6726 325.112 81.6646 323.512 83.4726 323.512C85.2806 323.512 86.2726 325.112 86.2726 327.688C86.2726 330.328 85.2806 331.96 83.4726 331.96ZM9.248 349.312V348.16H7.328L7.792 345.472H6.96L6.496 348.16H4.032L4.496 345.472H3.664L3.2 348.16H0.416V349.312H3.008L2.512 352.256H0.416V353.408H2.32L1.872 356H2.704L3.152 353.408H5.6L5.152 356H5.984L6.432 353.408H9.248V352.256H6.624L7.136 349.312H9.248ZM5.792 352.256H3.344L3.84 349.312H6.304L5.792 352.256ZM14.4883 356.144C17.0963 356.144 18.6003 354.048 18.6003 350.688C18.6003 347.392 17.0963 345.328 14.4883 345.328C11.8803 345.328 10.3763 347.392 10.3763 350.688C10.3763 354.048 11.8803 356.144 14.4883 356.144ZM14.4883 354.96C12.6803 354.96 11.6883 353.328 11.6883 350.688C11.6883 348.112 12.6803 346.512 14.4883 346.512C16.2963 346.512 17.2883 348.112 17.2883 350.688C17.2883 353.328 16.2963 354.96 14.4883 354.96ZM24.1445 356.144C26.7525 356.144 28.2565 354.048 28.2565 350.688C28.2565 347.392 26.7525 345.328 24.1445 345.328C21.5365 345.328 20.0325 347.392 20.0325 350.688C20.0325 354.048 21.5365 356.144 24.1445 356.144ZM24.1445 354.96C22.3365 354.96 21.3445 353.328 21.3445 350.688C21.3445 348.112 22.3365 346.512 24.1445 346.512C25.9525 346.512 26.9445 348.112 26.9445 350.688C26.9445 353.328 25.9525 354.96 24.1445 354.96ZM33.8008 356.144C36.4088 356.144 37.9128 354.048 37.9128 350.688C37.9128 347.392 36.4088 345.328 33.8008 345.328C31.1928 345.328 29.6888 347.392 29.6888 350.688C29.6888 354.048 31.1928 356.144 33.8008 356.144ZM33.8008 354.96C31.9928 354.96 31.0008 353.328 31.0008 350.688C31.0008 348.112 31.9928 346.512 33.8008 346.512C35.6088 346.512 36.6008 348.112 36.6008 350.688C36.6008 353.328 35.6088 354.96 33.8008 354.96ZM43.457 356.144C46.065 356.144 47.569 354.048 47.569 350.688C47.569 347.392 46.065 345.328 43.457 345.328C40.849 345.328 39.345 347.392 39.345 350.688C39.345 354.048 40.849 356.144 43.457 356.144ZM43.457 354.96C41.649 354.96 40.657 353.328 40.657 350.688C40.657 348.112 41.649 346.512 43.457 346.512C45.265 346.512 46.257 348.112 46.257 350.688C46.257 353.328 45.265 354.96 43.457 354.96ZM53.1133 356.144C55.7213 356.144 57.2253 354.048 57.2253 350.688C57.2253 347.392 55.7213 345.328 53.1133 345.328C50.5053 345.328 49.0013 347.392 49.0013 350.688C49.0013 354.048 50.5053 356.144 53.1133 356.144ZM53.1133 354.96C51.3053 354.96 50.3133 353.328 50.3133 350.688C50.3133 348.112 51.3053 346.512 53.1133 346.512C54.9213 346.512 55.9133 348.112 55.9133 350.688C55.9133 353.328 54.9213 354.96 53.1133 354.96ZM62.7695 356.144C65.3775 356.144 66.8815 354.048 66.8815 350.688C66.8815 347.392 65.3775 345.328 62.7695 345.328C60.1615 345.328 58.6575 347.392 58.6575 350.688C58.6575 354.048 60.1615 356.144 62.7695 356.144ZM62.7695 354.96C60.9615 354.96 59.9695 353.328 59.9695 350.688C59.9695 348.112 60.9615 346.512 62.7695 346.512C64.5775 346.512 65.5695 348.112 65.5695 350.688C65.5695 353.328 64.5775 354.96 62.7695 354.96Z" fill="white"/>
<path d="M243.824 310H245.28L247.936 301.536H247.984L250.592 310H252.032L255.52 299.472H254.176L251.376 308.256H251.328L248.688 299.584H247.312L244.64 308.256H244.592L241.792 299.472H240.352L243.824 310ZM256.856 310H258.136V306.272C258.136 304.272 259.304 303.12 261.112 303.12C262.808 303.12 263.576 303.984 263.576 305.328V310H264.856V305.056C264.856 303.168 263.624 301.968 261.544 301.968C259.656 301.968 258.552 302.864 258.12 304.24H258.104C258.104 303.952 258.136 303.008 258.136 302.576V298.912H256.856V310ZM267.043 301.088H268.419V299.472H267.043V301.088ZM267.091 310H268.371V302.096H267.091V310ZM273.834 310.064C274.474 310.064 274.938 309.968 275.178 309.872V308.784C275.002 308.848 274.49 308.944 273.946 308.944C272.762 308.944 272.378 308.224 272.378 307.024V303.216H275.242V302.096H272.378V300.304H271.29L271.226 301.552C271.194 301.968 271.098 302.096 270.842 302.096H269.786V303.216H271.098V307.104C271.098 308.848 271.914 310.064 273.834 310.064ZM283.835 305.712C283.835 303.36 282.507 301.968 280.251 301.968C277.883 301.968 276.363 303.584 276.363 306.112C276.363 308.56 277.899 310.128 280.283 310.128C282.363 310.128 283.755 309.04 283.835 307.328H282.651C282.539 308.368 281.627 309.04 280.299 309.04C278.747 309.04 277.723 307.984 277.643 306.304H283.835V305.712ZM282.651 305.376H277.691C277.931 303.872 278.875 303.056 280.283 303.056C281.787 303.056 282.651 303.888 282.651 305.28V305.376ZM241.28 333H242.624V328.616H245.92C247.664 328.616 248.16 329.336 248.16 330.456V333H249.536V330.456C249.536 329.144 249.056 328.2 247.568 328.024V327.992C249.008 327.816 249.6 326.84 249.6 325.464C249.6 323.64 248.288 322.472 245.648 322.472H241.28V333ZM242.624 327.624V323.688H245.648C247.424 323.688 248.288 324.408 248.288 325.576C248.288 326.808 247.552 327.624 245.632 327.624H242.624ZM255.179 333H262.891V331.816H256.523C256.523 331.16 256.779 330.84 259.035 329.784C262.107 328.344 262.699 327.24 262.699 325.64C262.699 323.688 261.307 322.328 259.067 322.328C256.635 322.328 255.243 323.8 255.243 326.12C255.243 326.664 255.291 327.16 255.339 327.4H256.555C256.507 327.16 256.459 326.68 256.459 326.184C256.459 324.552 257.371 323.512 259.035 323.512C260.507 323.512 261.387 324.392 261.387 325.64C261.387 327.032 260.971 327.672 258.331 328.904C255.547 330.2 255.179 330.84 255.179 333ZM268.787 333.144C271.187 333.144 272.707 331.592 272.707 329.416C272.707 327.416 271.331 326.12 269.043 326.12C267.587 326.12 266.547 326.696 266.211 327.592H266.179L266.483 323.656H272.067V322.472H265.379L264.963 328.44L266.211 328.568C266.563 327.72 267.571 327.176 268.755 327.176C270.371 327.176 271.395 328.04 271.395 329.416C271.395 330.872 270.371 331.96 268.787 331.96C267.139 331.96 266.051 331.272 266.051 330.216C266.051 330.136 266.051 330.04 266.067 329.896H264.835C264.819 329.976 264.803 330.136 264.803 330.28C264.803 332.008 266.387 333.144 268.787 333.144ZM278.443 333.144C280.843 333.144 282.363 331.592 282.363 329.416C282.363 327.416 280.987 326.12 278.699 326.12C277.243 326.12 276.203 326.696 275.867 327.592H275.835L276.139 323.656H281.723V322.472H275.035L274.619 328.44L275.867 328.568C276.219 327.72 277.227 327.176 278.411 327.176C280.027 327.176 281.051 328.04 281.051 329.416C281.051 330.872 280.027 331.96 278.443 331.96C276.795 331.96 275.707 331.272 275.707 330.216C275.707 330.136 275.707 330.04 275.723 329.896H274.491C274.475 329.976 274.459 330.136 274.459 330.28C274.459 332.008 276.043 333.144 278.443 333.144ZM284.148 335.096C285.38 334.936 285.908 334.168 285.908 332.536V331.176H284.532V333H285.108V333.032C285.092 333.848 284.836 334.264 284.148 334.36V335.096ZM296.954 333.16C299.05 333.16 300.218 332.248 300.538 331.048H300.554C300.522 331.816 300.474 332.568 300.426 333H301.69V327.944H296.65V328.936H300.345V329.24C300.345 330.824 299.05 332.008 296.954 332.008C294.842 332.008 293.082 330.392 293.082 327.848C293.082 325.224 294.81 323.528 297.034 323.528C298.938 323.528 300.345 324.52 300.345 326.2C300.345 326.36 300.345 326.552 300.33 326.76H301.578C301.594 326.504 301.594 326.264 301.594 326.136C301.594 323.736 299.69 322.312 297.034 322.312C294.042 322.312 291.738 324.536 291.738 327.832C291.738 331.096 293.962 333.16 296.954 333.16ZM307.46 333H315.172V331.816H308.804C308.804 331.16 309.06 330.84 311.316 329.784C314.388 328.344 314.98 327.24 314.98 325.64C314.98 323.688 313.588 322.328 311.348 322.328C308.916 322.328 307.524 323.8 307.524 326.12C307.524 326.664 307.572 327.16 307.62 327.4H308.836C308.788 327.16 308.74 326.68 308.74 326.184C308.74 324.552 309.652 323.512 311.316 323.512C312.788 323.512 313.668 324.392 313.668 325.64C313.668 327.032 313.252 327.672 310.612 328.904C307.828 330.2 307.46 330.84 307.46 333ZM321.068 333.144C323.468 333.144 324.988 331.592 324.988 329.416C324.988 327.416 323.612 326.12 321.324 326.12C319.868 326.12 318.828 326.696 318.492 327.592H318.46L318.764 323.656H324.348V322.472H317.66L317.244 328.44L318.492 328.568C318.844 327.72 319.852 327.176 321.036 327.176C322.652 327.176 323.676 328.04 323.676 329.416C323.676 330.872 322.652 331.96 321.068 331.96C319.42 331.96 318.332 331.272 318.332 330.216C318.332 330.136 318.332 330.04 318.348 329.896H317.116C317.1 329.976 317.084 330.136 317.084 330.28C317.084 332.008 318.668 333.144 321.068 333.144ZM330.725 333.144C333.125 333.144 334.645 331.592 334.645 329.416C334.645 327.416 333.269 326.12 330.981 326.12C329.525 326.12 328.485 326.696 328.149 327.592H328.117L328.421 323.656H334.005V322.472H327.317L326.901 328.44L328.149 328.568C328.501 327.72 329.509 327.176 330.693 327.176C332.309 327.176 333.333 328.04 333.333 329.416C333.333 330.872 332.309 331.96 330.725 331.96C329.077 331.96 327.989 331.272 327.989 330.216C327.989 330.136 327.989 330.04 328.005 329.896H326.773C326.757 329.976 326.741 330.136 326.741 330.28C326.741 332.008 328.325 333.144 330.725 333.144ZM336.429 335.096C337.661 334.936 338.189 334.168 338.189 332.536V331.176H336.813V333H337.389V333.032C337.373 333.848 337.117 334.264 336.429 334.36V335.096ZM344.499 333H349.171C351.747 333 352.771 331.816 352.771 329.96C352.771 328.584 351.971 327.624 350.515 327.496V327.48C351.763 327.32 352.371 326.44 352.371 325.224C352.371 323.544 351.235 322.472 348.787 322.472H344.499V333ZM345.843 327.096V323.656H348.771C350.435 323.656 351.123 324.344 351.123 325.4C351.123 326.44 350.451 327.096 348.963 327.096H345.843ZM345.843 331.816V328.088H349.059C350.595 328.088 351.459 328.776 351.459 329.832C351.459 331.048 350.931 331.816 349.123 331.816H345.843ZM358.226 333H365.938V331.816H359.57C359.57 331.16 359.826 330.84 362.082 329.784C365.154 328.344 365.746 327.24 365.746 325.64C365.746 323.688 364.354 322.328 362.114 322.328C359.682 322.328 358.29 323.8 358.29 326.12C358.29 326.664 358.338 327.16 358.386 327.4H359.602C359.554 327.16 359.506 326.68 359.506 326.184C359.506 324.552 360.418 323.512 362.082 323.512C363.554 323.512 364.434 324.392 364.434 325.64C364.434 327.032 364.018 327.672 361.378 328.904C358.594 330.2 358.226 330.84 358.226 333ZM371.834 333.144C374.234 333.144 375.754 331.592 375.754 329.416C375.754 327.416 374.378 326.12 372.09 326.12C370.634 326.12 369.594 326.696 369.258 327.592H369.226L369.53 323.656H375.114V322.472H368.426L368.01 328.44L369.258 328.568C369.61 327.72 370.618 327.176 371.802 327.176C373.418 327.176 374.442 328.04 374.442 329.416C374.442 330.872 373.418 331.96 371.834 331.96C370.186 331.96 369.098 331.272 369.098 330.216C369.098 330.136 369.098 330.04 369.114 329.896H367.882C367.866 329.976 367.85 330.136 367.85 330.28C367.85 332.008 369.434 333.144 371.834 333.144ZM381.49 333.144C383.89 333.144 385.41 331.592 385.41 329.416C385.41 327.416 384.034 326.12 381.746 326.12C380.29 326.12 379.25 326.696 378.914 327.592H378.882L379.186 323.656H384.77V322.472H378.082L377.666 328.44L378.914 328.568C379.266 327.72 380.274 327.176 381.458 327.176C383.074 327.176 384.098 328.04 384.098 329.416C384.098 330.872 383.074 331.96 381.49 331.96C379.842 331.96 378.754 331.272 378.754 330.216C378.754 330.136 378.754 330.04 378.77 329.896H377.538C377.522 329.976 377.506 330.136 377.506 330.28C377.506 332.008 379.09 333.144 381.49 333.144ZM249.248 349.312V348.16H247.328L247.792 345.472H246.96L246.496 348.16H244.032L244.496 345.472H243.664L243.2 348.16H240.416V349.312H243.008L242.512 352.256H240.416V353.408H242.32L241.872 356H242.704L243.152 353.408H245.6L245.152 356H245.984L246.432 353.408H249.248V352.256H246.624L247.136 349.312H249.248ZM245.792 352.256H243.344L243.84 349.312H246.304L245.792 352.256ZM250.936 356H252.28V351.424H256.984V350.4H252.28V346.688H257.768V345.472H250.936V356ZM259.53 356H260.874V351.424H265.578V350.4H260.874V346.688H266.362V345.472H259.53V356ZM268.124 356H269.468V351.424H274.172V350.4H269.468V346.688H274.956V345.472H268.124V356ZM276.718 356H278.062V351.424H282.766V350.4H278.062V346.688H283.55V345.472H276.718V356ZM285.311 356H286.655V351.424H291.359V350.4H286.655V346.688H292.143V345.472H285.311V356ZM293.905 356H295.249V351.424H299.953V350.4H295.249V346.688H300.737V345.472H293.905V356Z" fill="white"/>
</svg>
