<svg width="94" height="74" viewBox="0 0 94 74" fill="none" xmlns="http://www.w3.org/2000/svg">
<path d="M87.9298 0.280029H6.06982C4.47853 0.280029 2.9524 0.912171 1.82718 2.03739C0.701965 3.16261 0.0698242 4.68873 0.0698242 6.28003V55.5C0.0698242 57.0913 0.701965 58.6175 1.82718 59.7427C2.9524 60.8679 4.47853 61.5 6.06982 61.5H29.5898V69.72H21.4898C20.9594 69.72 20.4507 69.9307 20.0756 70.3058C19.7005 70.6809 19.4898 71.1896 19.4898 71.72C19.4898 72.2505 19.7005 72.7592 20.0756 73.1342C20.4507 73.5093 20.9594 73.72 21.4898 73.72H71.2498C71.7803 73.72 72.289 73.5093 72.664 73.1342C73.0391 72.7592 73.2498 72.2505 73.2498 71.72C73.2498 71.1896 73.0391 70.6809 72.664 70.3058C72.289 69.9307 71.7803 69.72 71.2498 69.72H63.1498V61.5H87.9298C89.5211 61.5 91.0472 60.8679 92.1725 59.7427C93.2977 58.6175 93.9298 57.0913 93.9298 55.5V6.28003C93.9298 5.4921 93.7746 4.71188 93.4731 3.98393C93.1716 3.25598 92.7296 2.59454 92.1725 2.03739C91.6153 1.48024 90.9539 1.03828 90.2259 0.736753C89.498 0.435224 88.7178 0.280029 87.9298 0.280029ZM6.06982 4.28003H87.9298C88.4603 4.28003 88.969 4.49074 89.344 4.86582C89.7191 5.24089 89.9298 5.7496 89.9298 6.28003V47.85H4.06982V6.28003C4.06982 5.7496 4.28054 5.24089 4.65561 4.86582C5.03068 4.49074 5.53939 4.28003 6.06982 4.28003ZM59.1498 69.72H33.5898V61.5H59.1498V69.72ZM87.9298 57.5H6.06982C5.53939 57.5 5.03068 57.2893 4.65561 56.9142C4.28054 56.5392 4.06982 56.0305 4.06982 55.5V51.85H89.9298V55.5C89.9298 56.0305 89.7191 56.5392 89.344 56.9142C88.969 57.2893 88.4603 57.5 87.9298 57.5Z" fill="black"/>
</svg>
