<svg width="94" height="74" viewBox="0 0 94 74" fill="none" xmlns="http://www.w3.org/2000/svg">
<path d="M87.9303 0.280029H6.07031C4.47901 0.280029 2.95289 0.912171 1.82767 2.03739C0.702453 3.16261 0.0703125 4.68873 0.0703125 6.28003V55.5C0.0703125 57.0913 0.702453 58.6175 1.82767 59.7427C2.95289 60.8679 4.47901 61.5 6.07031 61.5H29.5903V69.72H21.4903C20.9599 69.72 20.4512 69.9307 20.0761 70.3058C19.701 70.6809 19.4903 71.1896 19.4903 71.72C19.4903 72.2505 19.701 72.7592 20.0761 73.1342C20.4512 73.5093 20.9599 73.72 21.4903 73.72H71.2503C71.7807 73.72 72.2895 73.5093 72.6645 73.1342C73.0396 72.7592 73.2503 72.2505 73.2503 71.72C73.2503 71.1896 73.0396 70.6809 72.6645 70.3058C72.2895 69.9307 71.7807 69.72 71.2503 69.72H63.1503V61.5H87.9303C89.5216 61.5 91.0477 60.8679 92.173 59.7427C93.2982 58.6175 93.9303 57.0913 93.9303 55.5V6.28003C93.9303 5.4921 93.7751 4.71188 93.4736 3.98393C93.1721 3.25598 92.7301 2.59454 92.173 2.03739C91.6158 1.48024 90.9544 1.03828 90.2264 0.736753C89.4985 0.435224 88.7182 0.280029 87.9303 0.280029ZM6.07031 4.28003H87.9303C88.4607 4.28003 88.9695 4.49074 89.3445 4.86582C89.7196 5.24089 89.9303 5.7496 89.9303 6.28003V47.85H4.07031V6.28003C4.07031 5.7496 4.28103 5.24089 4.6561 4.86582C5.03117 4.49074 5.53988 4.28003 6.07031 4.28003ZM59.1503 69.72H33.5903V61.5H59.1503V69.72ZM87.9303 57.5H6.07031C5.53988 57.5 5.03117 57.2893 4.6561 56.9142C4.28103 56.5392 4.07031 56.0305 4.07031 55.5V51.85H89.9303V55.5C89.9303 56.0305 89.7196 56.5392 89.3445 56.9142C88.9695 57.2893 88.4607 57.5 87.9303 57.5Z" fill="white"/>
</svg>
