<svg width="328" height="196" viewBox="0 0 328 196" fill="none" xmlns="http://www.w3.org/2000/svg">
<rect width="327.77" height="195.448" fill="#52796B"/>
<g filter="url(#filter0_d)">
<rect x="59" y="20" width="210.8" height="155" fill="#1A2321"/>
<circle cx="240.498" cy="141.097" r="8.60614" fill="#52796B"/>
<rect x="234.187" y="151.138" width="14.9173" height="5.73743" fill="#479378"/>
<path d="M257.71 148.27L249.104 139.663H257.71V148.27Z" fill="#479378"/>
<path d="M214.106 142.296L228.483 128.189H214.106V142.296Z" fill="#D2FFEF"/>
<circle cx="249.104" cy="148.269" r="8.60614" fill="#479378"/>
<circle cx="228.449" cy="142.532" r="14.3436" fill="#D2FFEF"/>
<path d="M242.793 142.532L228.449 156.876H242.793V142.532Z" fill="#8DD3BA"/>
<circle cx="169.145" cy="141.097" r="8.60614" fill="white"/>
<rect x="162.834" y="151.138" width="14.9173" height="5.73743" fill="white"/>
<path d="M186.358 148.27L177.751 139.663H186.358V148.27Z" fill="#52796B"/>
<path d="M142.753 142.296L157.13 128.189H142.753V142.296Z" fill="#52796B"/>
<circle cx="177.751" cy="148.269" r="8.60614" fill="white"/>
<circle cx="157.096" cy="142.533" r="14.3436" fill="white"/>
<path d="M171.44 142.532L157.096 156.876H171.44V142.532Z" fill="white"/>
<circle cx="97.7925" cy="141.224" r="8.35614" stroke="white" stroke-width="0.5"/>
<rect x="91.7312" y="151.514" width="14.4173" height="5.23743" stroke="white" stroke-width="0.5"/>
<path d="M114.755 140.039V147.792L107.002 140.039H114.755Z" stroke="white" stroke-width="0.5"/>
<path d="M71.6503 128.565V141.826L85.1659 128.565H71.6503Z" stroke="white" stroke-width="0.5"/>
<circle cx="106.399" cy="148.395" r="8.35614" stroke="white" stroke-width="0.5"/>
<circle cx="85.7437" cy="142.658" r="14.0936" stroke="white" stroke-width="0.5"/>
<path d="M99.8375 156.752V143.262L86.3475 156.752H99.8375Z" stroke="white" stroke-width="0.5"/>
<ellipse cx="174.369" cy="58.1695" rx="13.4605" ry="13.4605" fill="#52796B"/>
<rect x="164.498" y="73.875" width="23.3316" height="8.97368" fill="#479378"/>
<path d="M201.29 69.3877L187.83 55.9272H201.29V69.3877Z" fill="#52796B"/>
<path d="M133.09 60.0439L155.577 37.9792H133.09V60.0439Z" fill="#52796B"/>
<ellipse cx="187.83" cy="69.3873" rx="13.4605" ry="13.4605" fill="#479378"/>
<circle cx="155.524" cy="60.4137" r="22.4342" fill="#D2FFEF"/>
<path d="M177.958 60.4141L155.524 82.8483H177.958V60.4141Z" fill="#8DD3BA"/>
<path d="M139.008 92.024C140.149 92.024 141.099 92.3333 141.856 92.952C142.624 93.5707 143.104 94.4133 143.296 95.48H140.912C140.816 95.0107 140.597 94.6427 140.256 94.376C139.915 94.0987 139.483 93.96 138.96 93.96C138.363 93.96 137.861 94.184 137.456 94.632C137.061 95.0693 136.864 95.7147 136.864 96.568C136.864 97.4213 137.061 98.072 137.456 98.52C137.861 98.9573 138.363 99.176 138.96 99.176C139.483 99.176 139.915 99.0427 140.256 98.776C140.597 98.4987 140.816 98.1253 140.912 97.656H143.296C143.104 98.7227 142.624 99.5653 141.856 100.184C141.099 100.803 140.149 101.112 139.008 101.112C138.144 101.112 137.376 100.931 136.704 100.568C136.032 100.195 135.509 99.6667 135.136 98.984C134.763 98.3013 134.576 97.496 134.576 96.568C134.576 95.64 134.763 94.8347 135.136 94.152C135.509 93.4587 136.032 92.9307 136.704 92.568C137.376 92.2053 138.144 92.024 139.008 92.024ZM148.371 92.024C149.118 92.024 149.758 92.2 150.291 92.552C150.824 92.904 151.203 93.3787 151.427 93.976V92.136H153.667V101H151.427V99.144C151.203 99.7413 150.824 100.221 150.291 100.584C149.758 100.936 149.118 101.112 148.371 101.112C147.624 101.112 146.952 100.931 146.355 100.568C145.758 100.205 145.288 99.6827 144.947 99C144.616 98.3067 144.451 97.496 144.451 96.568C144.451 95.64 144.616 94.8347 144.947 94.152C145.288 93.4587 145.758 92.9307 146.355 92.568C146.952 92.2053 147.624 92.024 148.371 92.024ZM149.075 93.992C148.371 93.992 147.806 94.2213 147.379 94.68C146.952 95.1387 146.739 95.768 146.739 96.568C146.739 97.368 146.952 97.9973 147.379 98.456C147.806 98.904 148.371 99.128 149.075 99.128C149.758 99.128 150.318 98.8987 150.755 98.44C151.203 97.9707 151.427 97.3467 151.427 96.568C151.427 95.7787 151.203 95.1547 150.755 94.696C150.318 94.2267 149.758 93.992 149.075 93.992ZM160.992 92.008C162.016 92.008 162.832 92.344 163.44 93.016C164.048 93.688 164.352 94.632 164.352 95.848V101H162.112V96.104C162.112 95.4 161.93 94.856 161.568 94.472C161.205 94.0773 160.709 93.88 160.08 93.88C159.44 93.88 158.928 94.088 158.544 94.504C158.16 94.92 157.968 95.5173 157.968 96.296V101H155.712V92.136H157.968V93.912C158.202 93.3147 158.586 92.8507 159.12 92.52C159.664 92.1787 160.288 92.008 160.992 92.008ZM170.433 92.024C171.297 92.024 172.07 92.2053 172.753 92.568C173.446 92.9307 173.99 93.4587 174.385 94.152C174.779 94.8347 174.977 95.64 174.977 96.568C174.977 97.496 174.779 98.3013 174.385 98.984C173.99 99.6667 173.446 100.195 172.753 100.568C172.07 100.931 171.297 101.112 170.433 101.112C169.569 101.112 168.79 100.931 168.097 100.568C167.414 100.195 166.875 99.6667 166.481 98.984C166.086 98.3013 165.889 97.496 165.889 96.568C165.889 95.64 166.086 94.8347 166.481 94.152C166.875 93.4587 167.414 92.9307 168.097 92.568C168.79 92.2053 169.569 92.024 170.433 92.024ZM170.433 93.976C169.803 93.976 169.27 94.2 168.833 94.648C168.395 95.0853 168.177 95.7253 168.177 96.568C168.177 97.4107 168.395 98.056 168.833 98.504C169.27 98.9413 169.803 99.16 170.433 99.16C171.062 99.16 171.595 98.9413 172.033 98.504C172.47 98.056 172.689 97.4107 172.689 96.568C172.689 95.7253 172.47 95.0853 172.033 94.648C171.595 94.2 171.062 93.976 170.433 93.976ZM181.867 92.024C182.614 92.024 183.286 92.2053 183.883 92.568C184.48 92.9307 184.944 93.4587 185.275 94.152C185.616 94.8347 185.787 95.64 185.787 96.568C185.787 97.496 185.616 98.3067 185.275 99C184.944 99.6827 184.48 100.205 183.883 100.568C183.286 100.931 182.614 101.112 181.867 101.112C181.12 101.112 180.48 100.936 179.947 100.584C179.424 100.221 179.051 99.7413 178.827 99.144V105.224H176.571V92.136H178.827V93.976C179.051 93.3787 179.424 92.904 179.947 92.552C180.48 92.2 181.12 92.024 181.867 92.024ZM181.163 93.992C180.48 93.992 179.915 94.2267 179.467 94.696C179.03 95.1547 178.811 95.7787 178.811 96.568C178.811 97.3467 179.03 97.9707 179.467 98.44C179.915 98.8987 180.48 99.128 181.163 99.128C181.867 99.128 182.432 98.904 182.859 98.456C183.286 97.9973 183.499 97.368 183.499 96.568C183.499 95.768 183.286 95.1387 182.859 94.68C182.432 94.2213 181.867 93.992 181.163 93.992ZM188.903 92.136L191.319 98.152L193.559 92.136H196.039L190.615 105.224H188.119L190.119 100.744L186.391 92.136H188.903Z" fill="white"/>
</g>
<defs>
<filter id="filter0_d" x="48" y="9" width="240.8" height="185" filterUnits="userSpaceOnUse" color-interpolation-filters="sRGB">
<feFlood flood-opacity="0" result="BackgroundImageFix"/>
<feColorMatrix in="SourceAlpha" type="matrix" values="0 0 0 0 0 0 0 0 0 0 0 0 0 0 0 0 0 0 127 0"/>
<feOffset dx="4" dy="4"/>
<feGaussianBlur stdDeviation="7.5"/>
<feColorMatrix type="matrix" values="0 0 0 0 0 0 0 0 0 0 0 0 0 0 0 0 0 0 0.75 0"/>
<feBlend mode="normal" in2="BackgroundImageFix" result="effect1_dropShadow"/>
<feBlend mode="normal" in="SourceGraphic" in2="effect1_dropShadow" result="shape"/>
</filter>
</defs>
</svg>
