<svg width="321" height="496" viewBox="0 0 321 496" fill="none" xmlns="http://www.w3.org/2000/svg">
<path d="M62.6464 127.354C62.8417 127.549 63.1583 127.549 63.3536 127.354L66.5355 124.172C66.7308 123.976 66.7308 123.66 66.5355 123.464C66.3403 123.269 66.0237 123.269 65.8284 123.464L63 126.293L60.1716 123.464C59.9763 123.269 59.6597 123.269 59.4645 123.464C59.2692 123.66 59.2692 123.976 59.4645 124.172L62.6464 127.354ZM62.5 80L62.5 127L63.5 127L63.5 80L62.5 80Z" fill="white"/>
<path d="M62.6464 229.354C62.8417 229.549 63.1583 229.549 63.3536 229.354L66.5355 226.172C66.7308 225.976 66.7308 225.66 66.5355 225.464C66.3403 225.269 66.0237 225.269 65.8284 225.464L63 228.293L60.1716 225.464C59.9763 225.269 59.6597 225.269 59.4645 225.464C59.2692 225.66 59.2692 225.976 59.4645 226.172L62.6464 229.354ZM62.5 182L62.5 229L63.5 229L63.5 182L62.5 182Z" fill="white"/>
<path d="M62.6464 416.354C62.8417 416.549 63.1583 416.549 63.3535 416.354L66.5355 413.172C66.7308 412.976 66.7308 412.66 66.5355 412.464C66.3403 412.269 66.0237 412.269 65.8284 412.464L63 415.293L60.1716 412.464C59.9763 412.269 59.6597 412.269 59.4645 412.464C59.2692 412.66 59.2692 412.976 59.4645 413.172L62.6464 416.354ZM62.5 284L62.5 416L63.5 416L63.5 284L62.5 284Z" fill="white"/>
<path d="M227.646 228.354C227.842 228.549 228.158 228.549 228.354 228.354L231.536 225.172C231.731 224.976 231.731 224.66 231.536 224.464C231.34 224.269 231.024 224.269 230.828 224.464L228 227.293L225.172 224.464C224.976 224.269 224.66 224.269 224.464 224.464C224.269 224.66 224.269 224.976 224.464 225.172L227.646 228.354ZM227.5 181L227.5 228L228.5 228L228.5 181L227.5 181Z" fill="white"/>
<path d="M227.646 330.354C227.842 330.549 228.158 330.549 228.354 330.354L231.536 327.172C231.731 326.976 231.731 326.66 231.536 326.464C231.34 326.269 231.024 326.269 230.828 326.464L228 329.293L225.172 326.464C224.976 326.269 224.66 326.269 224.464 326.464C224.269 326.66 224.269 326.976 224.464 327.172L227.646 330.354ZM227.5 283L227.5 330L228.5 330L228.5 283L227.5 283Z" fill="white"/>
<path d="M227.646 432.354C227.842 432.549 228.158 432.549 228.354 432.354L231.536 429.172C231.731 428.976 231.731 428.66 231.536 428.464C231.34 428.269 231.024 428.269 230.828 428.464L228 431.293L225.172 428.464C224.976 428.269 224.66 428.269 224.464 428.464C224.269 428.66 224.269 428.976 224.464 429.172L227.646 432.354ZM227.5 385L227.5 432L228.5 432L228.5 385L227.5 385Z" fill="white"/>
<path d="M99.452 311.14C102.462 311.14 103.33 309.754 103.33 308.354C103.33 307.514 102.952 306.87 102.336 306.562C101.734 306.254 100.768 306.1 99.844 305.974C99.046 305.862 97.94 305.694 97.492 305.47C97.1 305.274 96.876 304.924 96.876 304.336C96.876 303.328 97.94 302.656 99.438 302.656C101.02 302.656 101.916 303.356 101.916 304.966H103.008C103.008 302.838 101.986 301.648 99.41 301.648C97.212 301.648 95.7 302.796 95.7 304.434C95.7 305.302 96.078 305.918 96.61 306.24C97.114 306.548 98.122 306.772 99.074 306.884C99.872 306.996 100.922 307.108 101.426 307.318C101.902 307.514 102.154 307.836 102.154 308.424C102.154 309.306 101.566 310.132 99.452 310.132C97.492 310.132 96.82 309.194 96.82 307.864H95.728C95.728 309.53 96.498 311.14 99.452 311.14ZM111.261 307.248C111.261 305.19 110.099 303.972 108.125 303.972C106.053 303.972 104.723 305.386 104.723 307.598C104.723 309.74 106.067 311.112 108.153 311.112C109.973 311.112 111.191 310.16 111.261 308.662H110.225C110.127 309.572 109.329 310.16 108.167 310.16C106.809 310.16 105.913 309.236 105.843 307.766H111.261V307.248ZM110.225 306.954H105.885C106.095 305.638 106.921 304.924 108.153 304.924C109.469 304.924 110.225 305.652 110.225 306.87V306.954ZM112.947 311H114.067V307.598C114.067 305.946 115.089 304.98 116.671 304.98C118.155 304.98 118.827 305.736 118.827 306.912V311H119.947V306.674C119.947 305.022 118.869 303.972 117.049 303.972C115.397 303.972 114.431 304.742 114.053 305.946H114.039L114.067 304.084H112.947V311ZM124.844 311.112C126.384 311.112 127.308 310.342 127.574 309.152H127.602C127.588 309.768 127.574 310.384 127.532 311H128.652V301.298H127.532V305.47H127.518C127.266 304.56 126.384 303.972 124.942 303.972C122.842 303.972 121.554 305.442 121.554 307.5C121.554 309.656 122.842 311.112 124.844 311.112ZM125.026 310.104C123.598 310.104 122.674 309.04 122.674 307.5C122.674 306.058 123.598 304.98 125.04 304.98C126.566 304.98 127.532 305.876 127.532 307.276V307.626C127.532 309.138 126.552 310.104 125.026 310.104ZM134.046 311H135.222V307.962H137.938C139.996 307.962 141.242 306.856 141.242 304.896C141.242 302.978 139.94 301.788 137.714 301.788H134.046V311ZM135.222 307.066V302.852H137.672C139.226 302.852 140.094 303.594 140.094 304.966C140.094 306.366 139.254 307.066 137.84 307.066H135.222ZM145.117 311H146.391L148.715 303.594H148.757L151.039 311H152.299L155.351 301.788H154.175L151.725 309.474H151.683L149.373 301.886H148.169L145.831 309.474H145.789L143.339 301.788H142.079L145.117 311ZM159.869 311H160.989V307.934C160.989 306.212 161.815 304.98 163.229 304.98C164.363 304.98 164.839 305.638 164.839 306.912C164.839 307.346 164.811 307.696 164.783 307.906H165.805C165.833 307.654 165.875 307.15 165.875 306.674C165.875 305.008 165.049 303.972 163.495 303.972C162.011 303.972 161.297 304.882 160.975 306.086H160.961L160.989 304.084H159.869V311ZM173.81 307.248C173.81 305.19 172.648 303.972 170.674 303.972C168.602 303.972 167.272 305.386 167.272 307.598C167.272 309.74 168.616 311.112 170.702 311.112C172.522 311.112 173.74 310.16 173.81 308.662H172.774C172.676 309.572 171.878 310.16 170.716 310.16C169.358 310.16 168.462 309.236 168.392 307.766H173.81V307.248ZM172.774 306.954H168.434C168.644 305.638 169.47 304.924 170.702 304.924C172.018 304.924 172.774 305.652 172.774 306.87V306.954ZM178.268 311.112C180.368 311.112 181.488 310.3 181.488 308.942C181.488 308.424 181.264 307.892 180.802 307.626C180.326 307.36 179.794 307.262 178.716 307.15C177.806 307.052 177.12 306.968 176.784 306.828C176.378 306.66 176.336 306.324 176.336 306.044C176.336 305.358 177.106 304.924 178.296 304.924C179.528 304.924 180.144 305.4 180.158 306.436H181.194C181.194 304.882 180.326 303.972 178.254 303.972C176.406 303.972 175.216 304.812 175.216 306.114C175.216 306.618 175.412 307.122 175.79 307.402C176.21 307.71 176.896 307.85 178.03 307.948C178.884 308.032 179.612 308.116 179.934 308.27C180.284 308.438 180.368 308.704 180.368 308.984C180.368 309.726 179.682 310.16 178.254 310.16C176.812 310.16 176.252 309.614 176.252 308.69H175.216C175.216 310.02 175.944 311.112 178.268 311.112ZM189.424 307.248C189.424 305.19 188.262 303.972 186.288 303.972C184.216 303.972 182.886 305.386 182.886 307.598C182.886 309.74 184.23 311.112 186.316 311.112C188.136 311.112 189.354 310.16 189.424 308.662H188.388C188.29 309.572 187.492 310.16 186.33 310.16C184.972 310.16 184.076 309.236 184.006 307.766H189.424V307.248ZM188.388 306.954H184.048C184.258 305.638 185.084 304.924 186.316 304.924C187.632 304.924 188.388 305.652 188.388 306.87V306.954ZM193.853 311.056C194.413 311.056 194.819 310.972 195.029 310.888V309.936C194.875 309.992 194.427 310.076 193.951 310.076C192.915 310.076 192.579 309.446 192.579 308.396V305.064H195.085V304.084H192.579V302.516H191.627L191.571 303.608C191.543 303.972 191.459 304.084 191.235 304.084H190.311V305.064H191.459V308.466C191.459 309.992 192.173 311.056 193.853 311.056ZM199.902 311H201.022V301.298H199.902V311ZM203.086 303.202H204.29V301.788H203.086V303.202ZM203.128 311H204.248V304.084H203.128V311ZM206.285 311H207.405V307.598C207.405 305.946 208.427 304.98 210.009 304.98C211.493 304.98 212.165 305.736 212.165 306.912V311H213.285V306.674C213.285 305.022 212.207 303.972 210.387 303.972C208.735 303.972 207.769 304.742 207.391 305.946H207.377L207.405 304.084H206.285V311ZM215.241 311H216.361V309.18L217.943 307.808L220.883 311H222.479L218.783 307.094L222.283 304.084H220.715L216.375 307.948H216.361V301.298H215.241V311Z" fill="white"/>
<path d="M120.5 40C120.5 50.8324 114.079 60.6952 103.584 67.8715C93.0905 75.0462 78.5668 79.5 62.5 79.5C46.4332 79.5 31.9095 75.0462 21.4165 67.8715C10.921 60.6952 4.5 50.8324 4.5 40C4.5 29.1676 10.921 19.3048 21.4165 12.1285C31.9095 4.95375 46.4332 0.5 62.5 0.5C78.5668 0.5 93.0905 4.95375 103.584 12.1285C114.079 19.3048 120.5 29.1676 120.5 40Z" fill="#E5E5E5" stroke="white"/>
<rect x="5.5" y="127.5" width="115" height="54" fill="#F3F3F3" stroke="white"/>
<path d="M39.0048 34H45.0248V32.936H40.1808V24.788H39.0048V34ZM48.6526 34.112C50.3746 34.112 51.2426 33.426 51.4806 32.362H51.4946C51.4806 33.034 51.4526 33.678 51.4386 34H52.5586V29.786C52.5586 27.98 51.3826 26.972 49.3526 26.972C47.4766 26.972 46.3006 27.798 46.3006 29.17C46.3006 29.296 46.3146 29.492 46.3286 29.59H47.3646C47.3506 29.478 47.3506 29.38 47.3506 29.338C47.3506 28.4 48.0506 27.924 49.3246 27.924C50.7386 27.924 51.4386 28.498 51.4386 29.688V30.192H48.6246C46.7766 30.192 46.0906 31.032 46.0906 32.012C46.0906 33.314 47.0846 34.112 48.6526 34.112ZM48.8766 33.16C47.7846 33.16 47.1406 32.712 47.1406 32.012C47.1406 31.34 47.5886 31.004 48.7226 31.004H51.4386V31.102C51.4386 32.362 50.4446 33.16 48.8766 33.16ZM57.2927 34.112C59.0147 34.112 59.9947 33.272 60.2887 31.97H60.3027C60.3027 32.67 60.2747 33.538 60.2467 34H61.3667V27.084H60.2467V30.206C60.2467 32.026 59.2107 33.104 57.6007 33.104C56.2847 33.104 55.5007 32.348 55.5007 31.158V27.084H54.3807V31.354C54.3807 33.034 55.4867 34.112 57.2927 34.112ZM63.3238 34H64.4438V30.598C64.4438 28.946 65.4658 27.98 67.0478 27.98C68.5318 27.98 69.2038 28.736 69.2038 29.912V34H70.3238V29.674C70.3238 28.022 69.2458 26.972 67.4258 26.972C65.7738 26.972 64.8078 27.742 64.4298 28.946H64.4158L64.4438 27.084H63.3238V34ZM75.2345 34.112C77.1525 34.112 78.3845 32.992 78.3845 31.256H77.3485C77.3345 32.39 76.5225 33.104 75.2625 33.104C73.9185 33.104 73.0505 32.11 73.0505 30.542C73.0505 28.974 73.9465 27.98 75.3325 27.98C76.5365 27.98 77.3065 28.708 77.3205 29.856H78.3565C78.3565 28.092 77.1665 26.972 75.3185 26.972C73.2465 26.972 71.9305 28.358 71.9305 30.542C71.9305 32.726 73.2185 34.112 75.2345 34.112ZM80.2102 34H81.3302V30.738C81.3302 28.988 82.3522 27.98 83.9342 27.98C85.4182 27.98 86.0902 28.736 86.0902 29.912V34H87.2102V29.674C87.2102 28.022 86.1322 26.972 84.3122 26.972C82.6602 26.972 81.6942 27.756 81.3162 28.96H81.3022C81.3022 28.708 81.3302 27.882 81.3302 27.504V24.298H80.2102V34ZM42.3878 55.112C44.3058 55.112 45.5378 53.992 45.5378 52.256H44.5018C44.4878 53.39 43.6758 54.104 42.4158 54.104C41.0718 54.104 40.2038 53.11 40.2038 51.542C40.2038 49.974 41.0998 48.98 42.4858 48.98C43.6898 48.98 44.4598 49.708 44.4738 50.856H45.5098C45.5098 49.092 44.3198 47.972 42.4718 47.972C40.3998 47.972 39.0838 49.358 39.0838 51.542C39.0838 53.726 40.3718 55.112 42.3878 55.112ZM49.22 55.112C50.942 55.112 51.81 54.426 52.048 53.362H52.062C52.048 54.034 52.02 54.678 52.006 55H53.126V50.786C53.126 48.98 51.95 47.972 49.92 47.972C48.044 47.972 46.868 48.798 46.868 50.17C46.868 50.296 46.882 50.492 46.896 50.59H47.932C47.918 50.478 47.918 50.38 47.918 50.338C47.918 49.4 48.618 48.924 49.892 48.924C51.306 48.924 52.006 49.498 52.006 50.688V51.192H49.192C47.344 51.192 46.658 52.032 46.658 53.012C46.658 54.314 47.652 55.112 49.22 55.112ZM49.444 54.16C48.352 54.16 47.708 53.712 47.708 53.012C47.708 52.34 48.156 52.004 49.29 52.004H52.006V52.102C52.006 53.362 51.012 54.16 49.444 54.16ZM55.0181 55H56.1381V51.598C56.1381 49.946 57.1601 48.98 58.7421 48.98C60.2261 48.98 60.8981 49.736 60.8981 50.912V55H62.0181V50.674C62.0181 49.022 60.9401 47.972 59.1201 47.972C57.4681 47.972 56.5021 48.742 56.1241 49.946H56.1101L56.1381 48.084H55.0181V55ZM67.1248 55.112C69.2668 55.112 70.6248 53.726 70.6248 51.556C70.6248 49.372 69.2668 47.972 67.1248 47.972C64.9828 47.972 63.6248 49.372 63.6248 51.556C63.6248 53.726 64.9828 55.112 67.1248 55.112ZM67.1248 54.104C65.6688 54.104 64.7448 53.11 64.7448 51.556C64.7448 49.988 65.6688 48.98 67.1248 48.98C68.5808 48.98 69.5048 49.988 69.5048 51.556C69.5048 53.11 68.5808 54.104 67.1248 54.104ZM72.3693 57.772H73.4893V54.986C73.4893 54.664 73.4613 53.936 73.4473 53.474H73.4613C73.7553 54.412 74.7353 55.112 76.2053 55.112C78.2353 55.112 79.4813 53.67 79.4813 51.43C79.4813 49.316 78.2493 47.972 76.2333 47.972C74.7353 47.972 73.7553 48.714 73.4753 49.862H73.4613L73.4893 48.084H72.3693V57.772ZM76.0513 54.104C74.4833 54.104 73.4893 53.264 73.4893 51.948V51.528C73.5173 49.974 74.5113 48.98 76.0233 48.98C77.4793 48.98 78.3613 49.946 78.3613 51.444C78.3613 53.068 77.4653 54.104 76.0513 54.104ZM81.8559 57.912C83.1719 57.912 83.7039 57.268 84.5299 55.126L87.2739 48.084H86.1399L83.9139 53.866H83.8859L81.3659 48.084H80.0499L83.1579 55H83.4519C82.8079 56.568 82.4719 56.932 81.7159 56.932C81.3659 56.932 81.0299 56.848 80.8619 56.792V57.73C81.0579 57.814 81.4639 57.912 81.8559 57.912Z" fill="black"/>
<path d="M120.5 456C120.5 466.832 114.079 476.695 103.584 483.872C93.0905 491.046 78.5668 495.5 62.5 495.5C46.4332 495.5 31.9095 491.046 21.4165 483.872C10.921 476.695 4.5 466.832 4.5 456C4.5 445.168 10.921 435.305 21.4165 428.128C31.9095 420.954 46.4332 416.5 62.5 416.5C78.5668 416.5 93.0905 420.954 103.584 428.128C114.079 435.305 120.5 445.168 120.5 456Z" fill="#E5E5E5" stroke="white"/>
<path d="M26.1259 461H29.7799C32.4399 461 34.0779 459.264 34.0779 456.38C34.0779 453.524 32.3279 451.788 29.4859 451.788H26.1259V461ZM27.3019 459.936V452.852H29.5139C31.6139 452.852 32.9019 454.182 32.9019 456.38C32.9019 458.62 31.7119 459.936 29.7519 459.936H27.3019ZM38.0433 461.112C39.7653 461.112 40.6333 460.426 40.8713 459.362H40.8853C40.8713 460.034 40.8433 460.678 40.8293 461H41.9493V456.786C41.9493 454.98 40.7733 453.972 38.7433 453.972C36.8673 453.972 35.6913 454.798 35.6913 456.17C35.6913 456.296 35.7052 456.492 35.7193 456.59H36.7553C36.7413 456.478 36.7413 456.38 36.7413 456.338C36.7413 455.4 37.4413 454.924 38.7153 454.924C40.1293 454.924 40.8293 455.498 40.8293 456.688V457.192H38.0153C36.1673 457.192 35.4813 458.032 35.4813 459.012C35.4813 460.314 36.4753 461.112 38.0433 461.112ZM38.2673 460.16C37.1753 460.16 36.5312 459.712 36.5312 459.012C36.5312 458.34 36.9793 458.004 38.1133 458.004H40.8293V458.102C40.8293 459.362 39.8353 460.16 38.2673 460.16ZM46.6133 461.112C48.7133 461.112 49.8333 460.3 49.8333 458.942C49.8333 458.424 49.6093 457.892 49.1473 457.626C48.6713 457.36 48.1393 457.262 47.0613 457.15C46.1513 457.052 45.4653 456.968 45.1293 456.828C44.7233 456.66 44.6813 456.324 44.6813 456.044C44.6813 455.358 45.4513 454.924 46.6413 454.924C47.8733 454.924 48.4893 455.4 48.5033 456.436H49.5393C49.5393 454.882 48.6713 453.972 46.5993 453.972C44.7513 453.972 43.5613 454.812 43.5613 456.114C43.5613 456.618 43.7573 457.122 44.1353 457.402C44.5553 457.71 45.2413 457.85 46.3753 457.948C47.2293 458.032 47.9573 458.116 48.2793 458.27C48.6293 458.438 48.7133 458.704 48.7133 458.984C48.7133 459.726 48.0273 460.16 46.5993 460.16C45.1573 460.16 44.5973 459.614 44.5973 458.69H43.5613C43.5613 460.02 44.2893 461.112 46.6133 461.112ZM51.5813 461H52.7013V457.738C52.7013 455.988 53.7233 454.98 55.3053 454.98C56.7893 454.98 57.4613 455.736 57.4613 456.912V461H58.5813V456.674C58.5813 455.022 57.5033 453.972 55.6833 453.972C54.0312 453.972 53.0653 454.756 52.6873 455.96H52.6733C52.6733 455.708 52.7013 454.882 52.7013 454.504V451.298H51.5813V461ZM64.4703 461.112C66.4023 461.112 67.6483 459.67 67.6483 457.416C67.6483 455.316 66.4303 453.972 64.4423 453.972C62.9583 453.972 61.9503 454.686 61.6423 455.792H61.6283C61.6423 455.456 61.6563 454.896 61.6563 454.616V451.298H60.5363V461H61.6563C61.6283 460.636 61.6003 459.95 61.6003 459.404H61.6143C61.9083 460.44 62.9023 461.112 64.4703 461.112ZM64.1903 460.104C62.6503 460.104 61.6563 459.25 61.6563 457.92V457.556C61.6563 455.988 62.6643 454.98 64.2323 454.98C65.6603 454.98 66.5283 455.946 66.5283 457.444C66.5283 459.068 65.6183 460.104 64.1903 460.104ZM72.5457 461.112C74.6877 461.112 76.0457 459.726 76.0457 457.556C76.0457 455.372 74.6877 453.972 72.5457 453.972C70.4037 453.972 69.0457 455.372 69.0457 457.556C69.0457 459.726 70.4037 461.112 72.5457 461.112ZM72.5457 460.104C71.0897 460.104 70.1657 459.11 70.1657 457.556C70.1657 455.988 71.0897 454.98 72.5457 454.98C74.0017 454.98 74.9257 455.988 74.9257 457.556C74.9257 459.11 74.0017 460.104 72.5457 460.104ZM79.6468 461.112C81.3688 461.112 82.2368 460.426 82.4748 459.362H82.4888C82.4748 460.034 82.4468 460.678 82.4328 461H83.5528V456.786C83.5528 454.98 82.3768 453.972 80.3468 453.972C78.4708 453.972 77.2948 454.798 77.2948 456.17C77.2948 456.296 77.3088 456.492 77.3228 456.59H78.3588C78.3448 456.478 78.3448 456.38 78.3448 456.338C78.3448 455.4 79.0448 454.924 80.3188 454.924C81.7328 454.924 82.4328 455.498 82.4328 456.688V457.192H79.6188C77.7708 457.192 77.0848 458.032 77.0848 459.012C77.0848 460.314 78.0788 461.112 79.6468 461.112ZM79.8708 460.16C78.7788 460.16 78.1348 459.712 78.1348 459.012C78.1348 458.34 78.5828 458.004 79.7168 458.004H82.4328V458.102C82.4328 459.362 81.4388 460.16 79.8708 460.16ZM85.4448 461H86.5648V457.934C86.5648 456.212 87.3908 454.98 88.8048 454.98C89.9388 454.98 90.4148 455.638 90.4148 456.912C90.4148 457.346 90.3868 457.696 90.3588 457.906H91.3808C91.4088 457.654 91.4508 457.15 91.4508 456.674C91.4508 455.008 90.6248 453.972 89.0708 453.972C87.5868 453.972 86.8728 454.882 86.5508 456.086H86.5368L86.5648 454.084H85.4448V461ZM96.1384 461.112C97.6784 461.112 98.6024 460.342 98.8684 459.152H98.8964C98.8824 459.768 98.8684 460.384 98.8264 461H99.9464V451.298H98.8264V455.47H98.8124C98.5604 454.56 97.6784 453.972 96.2364 453.972C94.1364 453.972 92.8484 455.442 92.8484 457.5C92.8484 459.656 94.1364 461.112 96.1384 461.112ZM96.3204 460.104C94.8924 460.104 93.9684 459.04 93.9684 457.5C93.9684 456.058 94.8924 454.98 96.3344 454.98C97.8604 454.98 98.8264 455.876 98.8264 457.276V457.626C98.8264 459.138 97.8464 460.104 96.3204 460.104Z" fill="black"/>
<path d="M25.1172 150.14C27.4692 150.14 29.2052 148.712 29.2052 146.64V146.416H28.1132V146.584C28.1132 148.054 26.8112 149.076 25.1172 149.076C23.1852 149.076 21.6592 147.648 21.6592 145.408C21.6592 143.154 23.1152 141.712 25.1172 141.712C26.7972 141.712 28.0712 142.762 28.0712 144.316V144.568H29.1492C29.1632 144.386 29.1632 144.26 29.1632 144.232C29.1632 142.104 27.4552 140.648 25.1172 140.648C22.3872 140.648 20.4832 142.51 20.4832 145.408C20.4832 148.292 22.4432 150.14 25.1172 150.14ZM31.0188 150H32.1388V140.298H31.0188V150ZM34.2033 142.202H35.4073V140.788H34.2033V142.202ZM34.2453 150H35.3653V143.084H34.2453V150ZM40.4259 150.112C42.3439 150.112 43.5759 148.992 43.5759 147.256H42.5399C42.5259 148.39 41.7139 149.104 40.4539 149.104C39.1099 149.104 38.2419 148.11 38.2419 146.542C38.2419 144.974 39.1379 143.98 40.5239 143.98C41.7279 143.98 42.4979 144.708 42.5119 145.856H43.5479C43.5479 144.092 42.3579 142.972 40.5099 142.972C38.4379 142.972 37.1219 144.358 37.1219 146.542C37.1219 148.726 38.4099 150.112 40.4259 150.112ZM45.4016 150H46.5216V148.18L48.1036 146.808L51.0436 150H52.6396L48.9436 146.094L52.4436 143.084H50.8756L46.5356 146.948H46.5216V140.298H45.4016V150ZM58.5714 140.704C57.4934 140.844 57.0314 141.516 57.0314 142.944V144.134H58.2354V142.538H57.7314V142.51C57.7454 141.796 57.9694 141.432 58.5714 141.348V140.704ZM60.8534 140.704C59.7754 140.844 59.3134 141.516 59.3134 142.944V144.134H60.5174V142.538H60.0134V142.51C60.0274 141.796 60.2514 141.432 60.8534 141.348V140.704ZM62.8075 150H68.8275V148.936H63.9835V140.788H62.8075V150ZM73.1883 150.112C75.3303 150.112 76.6883 148.726 76.6883 146.556C76.6883 144.372 75.3303 142.972 73.1883 142.972C71.0463 142.972 69.6883 144.372 69.6883 146.556C69.6883 148.726 71.0463 150.112 73.1883 150.112ZM73.1883 149.104C71.7323 149.104 70.8083 148.11 70.8083 146.556C70.8083 144.988 71.7323 143.98 73.1883 143.98C74.6443 143.98 75.5683 144.988 75.5683 146.556C75.5683 148.11 74.6443 149.104 73.1883 149.104ZM83.0108 149.048H80.7708C80.1828 149.048 79.8888 148.754 79.8888 148.292C79.8888 148.026 79.9728 147.816 80.0848 147.704C80.4628 147.83 80.8828 147.9 81.3588 147.9C83.1648 147.9 84.3128 146.934 84.3128 145.436C84.3128 144.876 84.1588 144.4 83.8648 144.008C83.7528 143.728 83.6828 143.462 83.6828 143.252C83.6828 142.846 83.9348 142.636 84.3968 142.636C84.6208 142.636 84.7888 142.678 84.8868 142.72V141.824C84.7608 141.782 84.5508 141.74 84.2568 141.74C83.4728 141.74 82.9828 142.104 82.9828 142.664C82.9828 142.972 83.0948 143.238 83.2488 143.434V143.448C82.7588 143.14 82.1148 142.972 81.3588 142.972C79.5668 142.972 78.4188 143.938 78.4188 145.436C78.4188 146.276 78.7828 146.962 79.4268 147.382V147.41C79.1608 147.564 78.9368 147.97 78.9368 148.488C78.9368 148.964 79.1468 149.37 79.4968 149.636V149.65C78.6288 149.65 78.0828 150.224 78.0828 150.91C78.0828 152.226 79.4408 152.968 81.7228 152.968C83.9068 152.968 85.2088 152.086 85.2088 150.714C85.2088 149.664 84.4108 149.048 83.0108 149.048ZM81.3588 143.924C82.4928 143.924 83.2208 144.512 83.2208 145.436C83.2208 146.36 82.4928 146.948 81.3588 146.948C80.2248 146.948 79.5108 146.36 79.5108 145.436C79.5108 144.512 80.2248 143.924 81.3588 143.924ZM81.7088 152.016C80.1828 152.016 79.2028 151.652 79.2028 150.882C79.2028 150.252 79.8188 150 80.7848 150H82.8428C83.6828 150 84.0888 150.28 84.0888 150.826C84.0888 151.484 83.4868 152.016 81.7088 152.016ZM90.0256 142.202H91.2296V140.788H90.0256V142.202ZM90.0676 150H91.1876V143.084H90.0676V150ZM93.2241 150H94.3441V146.598C94.3441 144.946 95.3661 143.98 96.9481 143.98C98.4321 143.98 99.1041 144.736 99.1041 145.912V150H100.224V145.674C100.224 144.022 99.1461 142.972 97.3261 142.972C95.6741 142.972 94.7081 143.742 94.3301 144.946H94.3161L94.3441 143.084H93.2241V150ZM101.561 144.218C102.639 144.078 103.101 143.406 103.101 141.978V140.788H101.897V142.384H102.401V142.412C102.387 143.126 102.163 143.49 101.561 143.574V144.218ZM103.843 144.218C104.921 144.078 105.383 143.406 105.383 141.978V140.788H104.179V142.384H104.683V142.412C104.669 143.126 104.445 143.49 103.843 143.574V144.218ZM45.111 171.112C47.043 171.112 48.289 169.67 48.289 167.416C48.289 165.316 47.071 163.972 45.083 163.972C43.599 163.972 42.591 164.686 42.283 165.792H42.269C42.283 165.456 42.297 164.896 42.297 164.616V161.298H41.177V171H42.297C42.269 170.636 42.241 169.95 42.241 169.404H42.255C42.549 170.44 43.543 171.112 45.111 171.112ZM44.831 170.104C43.291 170.104 42.297 169.25 42.297 167.92V167.556C42.297 165.988 43.305 164.98 44.873 164.98C46.301 164.98 47.169 165.946 47.169 167.444C47.169 169.068 46.259 170.104 44.831 170.104ZM52.8083 171.112C54.5303 171.112 55.5103 170.272 55.8043 168.97H55.8183C55.8183 169.67 55.7903 170.538 55.7623 171H56.8823V164.084H55.7623V167.206C55.7623 169.026 54.7263 170.104 53.1163 170.104C51.8003 170.104 51.0163 169.348 51.0163 168.158V164.084H49.8963V168.354C49.8963 170.034 51.0023 171.112 52.8083 171.112ZM61.5834 171.056C62.1434 171.056 62.5494 170.972 62.7594 170.888V169.936C62.6054 169.992 62.1574 170.076 61.6814 170.076C60.6454 170.076 60.3094 169.446 60.3094 168.396V165.064H62.8154V164.084H60.3094V162.516H59.3574L59.3014 163.608C59.2734 163.972 59.1894 164.084 58.9654 164.084H58.0414V165.064H59.1894V168.466C59.1894 169.992 59.9034 171.056 61.5834 171.056ZM67.0795 171.056C67.6395 171.056 68.0455 170.972 68.2555 170.888V169.936C68.1015 169.992 67.6535 170.076 67.1775 170.076C66.1415 170.076 65.8055 169.446 65.8055 168.396V165.064H68.3115V164.084H65.8055V162.516H64.8535L64.7975 163.608C64.7695 163.972 64.6855 164.084 64.4615 164.084H63.5375V165.064H64.6855V168.466C64.6855 169.992 65.3995 171.056 67.0795 171.056ZM72.7918 171.112C74.9338 171.112 76.2918 169.726 76.2918 167.556C76.2918 165.372 74.9338 163.972 72.7918 163.972C70.6498 163.972 69.2918 165.372 69.2918 167.556C69.2918 169.726 70.6498 171.112 72.7918 171.112ZM72.7918 170.104C71.3358 170.104 70.4118 169.11 70.4118 167.556C70.4118 165.988 71.3358 164.98 72.7918 164.98C74.2478 164.98 75.1718 165.988 75.1718 167.556C75.1718 169.11 74.2478 170.104 72.7918 170.104ZM77.9663 171H79.0863V167.598C79.0863 165.946 80.1083 164.98 81.6903 164.98C83.1743 164.98 83.8463 165.736 83.8463 166.912V171H84.9663V166.674C84.9663 165.022 83.8883 163.972 82.0683 163.972C80.4163 163.972 79.4503 164.742 79.0723 165.946H79.0583L79.0863 164.084H77.9663V171Z" fill="black"/>
<rect x="170.5" y="330.5" width="115" height="54" fill="#F3F3F3" stroke="white"/>
<path d="M199.954 353.14C202.558 353.14 204.602 351.306 204.602 348.352C204.602 345.454 202.558 343.648 199.954 343.648C197.35 343.648 195.306 345.454 195.306 348.352C195.306 351.306 197.35 353.14 199.954 353.14ZM199.954 352.076C198.064 352.076 196.482 350.648 196.482 348.352C196.482 346.098 198.064 344.712 199.954 344.712C201.844 344.712 203.426 346.098 203.426 348.352C203.426 350.648 201.844 352.076 199.954 352.076ZM206.348 355.772H207.468V352.986C207.468 352.664 207.44 351.936 207.426 351.474H207.44C207.734 352.412 208.714 353.112 210.184 353.112C212.214 353.112 213.46 351.67 213.46 349.43C213.46 347.316 212.228 345.972 210.212 345.972C208.714 345.972 207.734 346.714 207.454 347.862H207.44L207.468 346.084H206.348V355.772ZM210.03 352.104C208.462 352.104 207.468 351.264 207.468 349.948V349.528C207.496 347.974 208.49 346.98 210.002 346.98C211.458 346.98 212.34 347.946 212.34 349.444C212.34 351.068 211.444 352.104 210.03 352.104ZM221.395 349.248C221.395 347.19 220.233 345.972 218.259 345.972C216.187 345.972 214.857 347.386 214.857 349.598C214.857 351.74 216.201 353.112 218.287 353.112C220.107 353.112 221.325 352.16 221.395 350.662H220.359C220.261 351.572 219.463 352.16 218.301 352.16C216.943 352.16 216.047 351.236 215.977 349.766H221.395V349.248ZM220.359 348.954H216.019C216.229 347.638 217.055 346.924 218.287 346.924C219.603 346.924 220.359 347.652 220.359 348.87V348.954ZM223.081 353H224.201V349.598C224.201 347.946 225.223 346.98 226.805 346.98C228.289 346.98 228.961 347.736 228.961 348.912V353H230.081V348.674C230.081 347.022 229.003 345.972 227.183 345.972C225.531 345.972 224.565 346.742 224.187 347.946H224.173L224.201 346.084H223.081V353ZM235.264 353H236.384V343.298H235.264V353ZM238.448 345.202H239.652V343.788H238.448V345.202ZM238.49 353H239.61V346.084H238.49V353ZM241.647 353H242.767V349.598C242.767 347.946 243.789 346.98 245.371 346.98C246.855 346.98 247.527 347.736 247.527 348.912V353H248.647V348.674C248.647 347.022 247.569 345.972 245.749 345.972C244.097 345.972 243.131 346.742 242.753 347.946H242.739L242.767 346.084H241.647V353ZM250.604 353H251.724V351.18L253.306 349.808L256.246 353H257.842L254.146 349.094L257.646 346.084H256.078L251.738 349.948H251.724V343.298H250.604V353ZM202.102 366.202H203.306V364.788H202.102V366.202ZM202.144 374H203.264V367.084H202.144V374ZM205.3 374H206.42V370.598C206.42 368.946 207.442 367.98 209.024 367.98C210.508 367.98 211.18 368.736 211.18 369.912V374H212.3V369.674C212.3 368.022 211.222 366.972 209.402 366.972C207.75 366.972 206.784 367.742 206.406 368.946H206.392L206.42 367.084H205.3V374ZM223.672 370.248C223.672 368.19 222.51 366.972 220.536 366.972C218.464 366.972 217.134 368.386 217.134 370.598C217.134 372.74 218.478 374.112 220.564 374.112C222.384 374.112 223.602 373.16 223.672 371.662H222.636C222.538 372.572 221.74 373.16 220.578 373.16C219.22 373.16 218.324 372.236 218.254 370.766H223.672V370.248ZM222.636 369.954H218.296C218.506 368.638 219.332 367.924 220.564 367.924C221.88 367.924 222.636 368.652 222.636 369.87V369.954ZM225.357 374H226.477V370.57C226.477 368.932 227.289 367.98 228.563 367.98C229.669 367.98 230.243 368.694 230.243 369.814V374H231.363V370.514C231.363 368.918 232.175 367.98 233.449 367.98C234.555 367.98 235.115 368.708 235.115 369.856V374H236.235V369.618C236.235 368.008 235.325 366.972 233.757 366.972C232.455 366.972 231.559 367.686 231.321 368.792H231.307C231.139 367.686 230.243 366.972 228.885 366.972C227.639 366.972 226.757 367.728 226.463 368.918H226.449L226.477 367.084H225.357V374ZM240.408 374.112C242.13 374.112 242.998 373.426 243.236 372.362H243.25C243.236 373.034 243.208 373.678 243.194 374H244.314V369.786C244.314 367.98 243.138 366.972 241.108 366.972C239.232 366.972 238.056 367.798 238.056 369.17C238.056 369.296 238.07 369.492 238.084 369.59H239.12C239.106 369.478 239.106 369.38 239.106 369.338C239.106 368.4 239.806 367.924 241.08 367.924C242.494 367.924 243.194 368.498 243.194 369.688V370.192H240.38C238.532 370.192 237.846 371.032 237.846 372.012C237.846 373.314 238.84 374.112 240.408 374.112ZM240.632 373.16C239.54 373.16 238.896 372.712 238.896 372.012C238.896 371.34 239.344 371.004 240.478 371.004H243.194V371.102C243.194 372.362 242.2 373.16 240.632 373.16ZM246.235 366.202H247.439V364.788H246.235V366.202ZM246.277 374H247.397V367.084H246.277V374ZM249.461 366.202H250.665V364.788H249.461V366.202ZM249.503 374H250.623V367.084H249.503V374ZM252.73 374H253.85V364.298H252.73V374Z" fill="black"/>
<rect x="170.5" y="228.5" width="115" height="54" fill="#F3F3F3" stroke="white"/>
<path d="M191.092 260H197.322V258.936H192.268V255.8H196.258V254.932H192.268V251.852H197.196V250.788H191.092V260ZM198.786 260H199.906V256.598C199.906 254.946 200.928 253.98 202.51 253.98C203.994 253.98 204.666 254.736 204.666 255.912V260H205.786V255.674C205.786 254.022 204.708 252.972 202.888 252.972C201.236 252.972 200.27 253.742 199.892 254.946H199.878L199.906 253.084H198.786V260ZM210.416 260.056C210.976 260.056 211.382 259.972 211.592 259.888V258.936C211.438 258.992 210.99 259.076 210.514 259.076C209.478 259.076 209.142 258.446 209.142 257.396V254.064H211.648V253.084H209.142V251.516H208.19L208.134 252.608C208.106 252.972 208.022 253.084 207.798 253.084H206.874V254.064H208.022V257.466C208.022 258.992 208.736 260.056 210.416 260.056ZM219.167 256.248C219.167 254.19 218.005 252.972 216.031 252.972C213.959 252.972 212.629 254.386 212.629 256.598C212.629 258.74 213.973 260.112 216.059 260.112C217.879 260.112 219.097 259.16 219.167 257.662H218.131C218.033 258.572 217.235 259.16 216.073 259.16C214.715 259.16 213.819 258.236 213.749 256.766H219.167V256.248ZM218.131 255.954H213.791C214.001 254.638 214.827 253.924 216.059 253.924C217.375 253.924 218.131 254.652 218.131 255.87V255.954ZM220.852 260H221.972V256.934C221.972 255.212 222.798 253.98 224.212 253.98C225.346 253.98 225.822 254.638 225.822 255.912C225.822 256.346 225.794 256.696 225.766 256.906H226.788C226.816 256.654 226.858 256.15 226.858 255.674C226.858 254.008 226.032 252.972 224.478 252.972C222.994 252.972 222.28 253.882 221.958 255.086H221.944L221.972 253.084H220.852V260ZM238.02 256.248C238.02 254.19 236.858 252.972 234.884 252.972C232.812 252.972 231.482 254.386 231.482 256.598C231.482 258.74 232.826 260.112 234.912 260.112C236.732 260.112 237.95 259.16 238.02 257.662H236.984C236.886 258.572 236.088 259.16 234.926 259.16C233.568 259.16 232.672 258.236 232.602 256.766H238.02V256.248ZM236.984 255.954H232.644C232.854 254.638 233.68 253.924 234.912 253.924C236.228 253.924 236.984 254.652 236.984 255.87V255.954ZM239.706 260H240.826V256.57C240.826 254.932 241.638 253.98 242.912 253.98C244.018 253.98 244.592 254.694 244.592 255.814V260H245.712V256.514C245.712 254.918 246.524 253.98 247.798 253.98C248.904 253.98 249.464 254.708 249.464 255.856V260H250.584V255.618C250.584 254.008 249.674 252.972 248.106 252.972C246.804 252.972 245.908 253.686 245.67 254.792H245.656C245.488 253.686 244.592 252.972 243.234 252.972C241.988 252.972 241.106 253.728 240.812 254.918H240.798L240.826 253.084H239.706V260ZM254.757 260.112C256.479 260.112 257.347 259.426 257.585 258.362H257.599C257.585 259.034 257.557 259.678 257.543 260H258.663V255.786C258.663 253.98 257.487 252.972 255.457 252.972C253.581 252.972 252.405 253.798 252.405 255.17C252.405 255.296 252.419 255.492 252.433 255.59H253.469C253.455 255.478 253.455 255.38 253.455 255.338C253.455 254.4 254.155 253.924 255.429 253.924C256.843 253.924 257.543 254.498 257.543 255.688V256.192H254.729C252.881 256.192 252.195 257.032 252.195 258.012C252.195 259.314 253.189 260.112 254.757 260.112ZM254.981 259.16C253.889 259.16 253.245 258.712 253.245 258.012C253.245 257.34 253.693 257.004 254.827 257.004H257.543V257.102C257.543 258.362 256.549 259.16 254.981 259.16ZM260.583 252.202H261.787V250.788H260.583V252.202ZM260.625 260H261.745V253.084H260.625V260ZM263.852 260H264.972V250.298H263.852V260Z" fill="black"/>
<rect x="170.5" y="126.5" width="115" height="54" fill="#F3F3F3" stroke="white"/>
<path d="M206.657 149H207.833V144.996H211.949V144.1H207.833V140.852H212.635V139.788H206.657V149ZM216.983 149.112C219.125 149.112 220.483 147.726 220.483 145.556C220.483 143.372 219.125 141.972 216.983 141.972C214.841 141.972 213.483 143.372 213.483 145.556C213.483 147.726 214.841 149.112 216.983 149.112ZM216.983 148.104C215.527 148.104 214.603 147.11 214.603 145.556C214.603 143.988 215.527 142.98 216.983 142.98C218.439 142.98 219.363 143.988 219.363 145.556C219.363 147.11 218.439 148.104 216.983 148.104ZM222.158 149H223.278V145.934C223.278 144.212 224.104 142.98 225.518 142.98C226.652 142.98 227.128 143.638 227.128 144.912C227.128 145.346 227.1 145.696 227.072 145.906H228.094C228.122 145.654 228.164 145.15 228.164 144.674C228.164 143.008 227.338 141.972 225.784 141.972C224.3 141.972 223.586 142.882 223.264 144.086H223.25L223.278 142.084H222.158V149ZM234.353 148.048H232.113C231.525 148.048 231.231 147.754 231.231 147.292C231.231 147.026 231.315 146.816 231.427 146.704C231.805 146.83 232.225 146.9 232.701 146.9C234.507 146.9 235.655 145.934 235.655 144.436C235.655 143.876 235.501 143.4 235.207 143.008C235.095 142.728 235.025 142.462 235.025 142.252C235.025 141.846 235.277 141.636 235.739 141.636C235.963 141.636 236.131 141.678 236.229 141.72V140.824C236.103 140.782 235.893 140.74 235.599 140.74C234.815 140.74 234.325 141.104 234.325 141.664C234.325 141.972 234.437 142.238 234.591 142.434V142.448C234.101 142.14 233.457 141.972 232.701 141.972C230.909 141.972 229.761 142.938 229.761 144.436C229.761 145.276 230.125 145.962 230.769 146.382V146.41C230.503 146.564 230.279 146.97 230.279 147.488C230.279 147.964 230.489 148.37 230.839 148.636V148.65C229.971 148.65 229.425 149.224 229.425 149.91C229.425 151.226 230.783 151.968 233.065 151.968C235.249 151.968 236.551 151.086 236.551 149.714C236.551 148.664 235.753 148.048 234.353 148.048ZM232.701 142.924C233.835 142.924 234.563 143.512 234.563 144.436C234.563 145.36 233.835 145.948 232.701 145.948C231.567 145.948 230.853 145.36 230.853 144.436C230.853 143.512 231.567 142.924 232.701 142.924ZM233.051 151.016C231.525 151.016 230.545 150.652 230.545 149.882C230.545 149.252 231.161 149 232.127 149H234.185C235.025 149 235.431 149.28 235.431 149.826C235.431 150.484 234.829 151.016 233.051 151.016ZM240.964 149.112C243.106 149.112 244.464 147.726 244.464 145.556C244.464 143.372 243.106 141.972 240.964 141.972C238.822 141.972 237.464 143.372 237.464 145.556C237.464 147.726 238.822 149.112 240.964 149.112ZM240.964 148.104C239.508 148.104 238.584 147.11 238.584 145.556C238.584 143.988 239.508 142.98 240.964 142.98C242.42 142.98 243.344 143.988 243.344 145.556C243.344 147.11 242.42 148.104 240.964 148.104ZM248.691 149.056C249.251 149.056 249.657 148.972 249.867 148.888V147.936C249.713 147.992 249.265 148.076 248.789 148.076C247.753 148.076 247.417 147.446 247.417 146.396V143.064H249.923V142.084H247.417V140.516H246.465L246.409 141.608C246.381 141.972 246.297 142.084 246.073 142.084H245.149V143.064H246.297V146.466C246.297 147.992 247.011 149.056 248.691 149.056ZM195.287 172.772H196.407V169.986C196.407 169.664 196.379 168.936 196.365 168.474H196.379C196.673 169.412 197.653 170.112 199.123 170.112C201.153 170.112 202.399 168.67 202.399 166.43C202.399 164.316 201.167 162.972 199.151 162.972C197.653 162.972 196.673 163.714 196.393 164.862H196.379L196.407 163.084H195.287V172.772ZM198.969 169.104C197.401 169.104 196.407 168.264 196.407 166.948V166.528C196.435 164.974 197.429 163.98 198.941 163.98C200.397 163.98 201.279 164.946 201.279 166.444C201.279 168.068 200.383 169.104 198.969 169.104ZM206.003 170.112C207.725 170.112 208.593 169.426 208.831 168.362H208.845C208.831 169.034 208.803 169.678 208.789 170H209.909V165.786C209.909 163.98 208.733 162.972 206.703 162.972C204.827 162.972 203.651 163.798 203.651 165.17C203.651 165.296 203.665 165.492 203.679 165.59H204.715C204.701 165.478 204.701 165.38 204.701 165.338C204.701 164.4 205.401 163.924 206.675 163.924C208.089 163.924 208.789 164.498 208.789 165.688V166.192H205.975C204.127 166.192 203.441 167.032 203.441 168.012C203.441 169.314 204.435 170.112 206.003 170.112ZM206.227 169.16C205.135 169.16 204.491 168.712 204.491 168.012C204.491 167.34 204.939 167.004 206.073 167.004H208.789V167.102C208.789 168.362 207.795 169.16 206.227 169.16ZM214.573 170.112C216.673 170.112 217.793 169.3 217.793 167.942C217.793 167.424 217.569 166.892 217.107 166.626C216.631 166.36 216.099 166.262 215.021 166.15C214.111 166.052 213.425 165.968 213.089 165.828C212.683 165.66 212.641 165.324 212.641 165.044C212.641 164.358 213.411 163.924 214.601 163.924C215.833 163.924 216.449 164.4 216.463 165.436H217.499C217.499 163.882 216.631 162.972 214.559 162.972C212.711 162.972 211.521 163.812 211.521 165.114C211.521 165.618 211.717 166.122 212.095 166.402C212.515 166.71 213.201 166.85 214.335 166.948C215.189 167.032 215.917 167.116 216.239 167.27C216.589 167.438 216.673 167.704 216.673 167.984C216.673 168.726 215.987 169.16 214.559 169.16C213.117 169.16 212.557 168.614 212.557 167.69H211.521C211.521 169.02 212.249 170.112 214.573 170.112ZM222.243 170.112C224.343 170.112 225.463 169.3 225.463 167.942C225.463 167.424 225.239 166.892 224.777 166.626C224.301 166.36 223.769 166.262 222.691 166.15C221.781 166.052 221.095 165.968 220.759 165.828C220.353 165.66 220.311 165.324 220.311 165.044C220.311 164.358 221.081 163.924 222.271 163.924C223.503 163.924 224.119 164.4 224.133 165.436H225.169C225.169 163.882 224.301 162.972 222.229 162.972C220.381 162.972 219.191 163.812 219.191 165.114C219.191 165.618 219.387 166.122 219.765 166.402C220.185 166.71 220.871 166.85 222.005 166.948C222.859 167.032 223.587 167.116 223.909 167.27C224.259 167.438 224.343 167.704 224.343 167.984C224.343 168.726 223.657 169.16 222.229 169.16C220.787 169.16 220.227 168.614 220.227 167.69H219.191C219.191 169.02 219.919 170.112 222.243 170.112ZM228.309 170H229.639L231.487 164.484H231.529L233.321 170H234.693L236.751 163.084H235.673L234.021 168.824H233.993L232.131 163.084H231.025L229.093 168.824H229.065L227.469 163.084H226.251L228.309 170ZM241.039 170.112C243.181 170.112 244.539 168.726 244.539 166.556C244.539 164.372 243.181 162.972 241.039 162.972C238.897 162.972 237.539 164.372 237.539 166.556C237.539 168.726 238.897 170.112 241.039 170.112ZM241.039 169.104C239.583 169.104 238.659 168.11 238.659 166.556C238.659 164.988 239.583 163.98 241.039 163.98C242.495 163.98 243.419 164.988 243.419 166.556C243.419 168.11 242.495 169.104 241.039 169.104ZM246.213 170H247.333V166.934C247.333 165.212 248.159 163.98 249.573 163.98C250.707 163.98 251.183 164.638 251.183 165.912C251.183 166.346 251.155 166.696 251.127 166.906H252.149C252.177 166.654 252.219 166.15 252.219 165.674C252.219 164.008 251.393 162.972 249.839 162.972C248.355 162.972 247.641 163.882 247.319 165.086H247.305L247.333 163.084H246.213V170ZM256.907 170.112C258.447 170.112 259.371 169.342 259.637 168.152H259.665C259.651 168.768 259.637 169.384 259.595 170H260.715V160.298H259.595V164.47H259.581C259.329 163.56 258.447 162.972 257.005 162.972C254.905 162.972 253.617 164.442 253.617 166.5C253.617 168.656 254.905 170.112 256.907 170.112ZM257.089 169.104C255.661 169.104 254.737 168.04 254.737 166.5C254.737 165.058 255.661 163.98 257.103 163.98C258.629 163.98 259.595 164.876 259.595 166.276V166.626C259.595 168.138 258.615 169.104 257.089 169.104Z" fill="black"/>
<path d="M120.646 455.646C120.451 455.842 120.451 456.158 120.646 456.354L123.828 459.536C124.024 459.731 124.34 459.731 124.536 459.536C124.731 459.34 124.731 459.024 124.536 458.828L121.707 456L124.536 453.172C124.731 452.976 124.731 452.66 124.536 452.464C124.34 452.269 124.024 452.269 123.828 452.464L120.646 455.646ZM170 455.5H121V456.5H170V455.5Z" fill="white"/>
<rect x="0.5" y="229.5" width="125" height="54" fill="#F3F3F3" stroke="white"/>
<path d="M8.28992 252H14.5199V250.936H9.46592V247.8H13.4559V246.932H9.46592V243.852H14.3939V242.788H8.28992V252ZM15.9839 252H17.1039V248.598C17.1039 246.946 18.1259 245.98 19.7079 245.98C21.1919 245.98 21.8639 246.736 21.8639 247.912V252H22.9839V247.674C22.9839 246.022 21.9059 244.972 20.0859 244.972C18.4339 244.972 17.4679 245.742 17.0899 246.946H17.0759L17.1039 245.084H15.9839V252ZM27.6146 252.056C28.1746 252.056 28.5806 251.972 28.7906 251.888V250.936C28.6366 250.992 28.1886 251.076 27.7126 251.076C26.6766 251.076 26.3406 250.446 26.3406 249.396V246.064H28.8466V245.084H26.3406V243.516H25.3886L25.3326 244.608C25.3046 244.972 25.2206 245.084 24.9966 245.084H24.0726V246.064H25.2206V249.466C25.2206 250.992 25.9346 252.056 27.6146 252.056ZM36.365 248.248C36.365 246.19 35.203 244.972 33.229 244.972C31.157 244.972 29.827 246.386 29.827 248.598C29.827 250.74 31.171 252.112 33.257 252.112C35.077 252.112 36.295 251.16 36.365 249.662H35.329C35.231 250.572 34.433 251.16 33.271 251.16C31.913 251.16 31.017 250.236 30.947 248.766H36.365V248.248ZM35.329 247.954H30.989C31.199 246.638 32.025 245.924 33.257 245.924C34.573 245.924 35.329 246.652 35.329 247.87V247.954ZM38.0503 252H39.1703V248.934C39.1703 247.212 39.9963 245.98 41.4103 245.98C42.5443 245.98 43.0203 246.638 43.0203 247.912C43.0203 248.346 42.9923 248.696 42.9643 248.906H43.9863C44.0143 248.654 44.0563 248.15 44.0563 247.674C44.0563 246.008 43.2303 244.972 41.6763 244.972C40.1923 244.972 39.4783 245.882 39.1563 247.086H39.1423L39.1703 245.084H38.0503V252ZM51.8025 252.112C53.5245 252.112 54.5045 251.272 54.7985 249.97H54.8125C54.8125 250.67 54.7845 251.538 54.7565 252H55.8765V245.084H54.7565V248.206C54.7565 250.026 53.7205 251.104 52.1105 251.104C50.7945 251.104 50.0105 250.348 50.0105 249.158V245.084H48.8905V249.354C48.8905 251.034 49.9965 252.112 51.8025 252.112ZM60.6055 252.112C62.7055 252.112 63.8255 251.3 63.8255 249.942C63.8255 249.424 63.6015 248.892 63.1395 248.626C62.6635 248.36 62.1315 248.262 61.0535 248.15C60.1435 248.052 59.4575 247.968 59.1215 247.828C58.7155 247.66 58.6735 247.324 58.6735 247.044C58.6735 246.358 59.4435 245.924 60.6335 245.924C61.8655 245.924 62.4815 246.4 62.4955 247.436H63.5315C63.5315 245.882 62.6635 244.972 60.5915 244.972C58.7435 244.972 57.5535 245.812 57.5535 247.114C57.5535 247.618 57.7495 248.122 58.1275 248.402C58.5475 248.71 59.2335 248.85 60.3675 248.948C61.2215 249.032 61.9495 249.116 62.2715 249.27C62.6215 249.438 62.7055 249.704 62.7055 249.984C62.7055 250.726 62.0195 251.16 60.5915 251.16C59.1495 251.16 58.5895 250.614 58.5895 249.69H57.5535C57.5535 251.02 58.2815 252.112 60.6055 252.112ZM71.7614 248.248C71.7614 246.19 70.5994 244.972 68.6254 244.972C66.5534 244.972 65.2234 246.386 65.2234 248.598C65.2234 250.74 66.5674 252.112 68.6534 252.112C70.4734 252.112 71.6914 251.16 71.7614 249.662H70.7254C70.6274 250.572 69.8294 251.16 68.6674 251.16C67.3094 251.16 66.4134 250.236 66.3434 248.766H71.7614V248.248ZM70.7254 247.954H66.3854C66.5954 246.638 67.4214 245.924 68.6534 245.924C69.9694 245.924 70.7254 246.652 70.7254 247.87V247.954ZM73.4468 252H74.5668V248.934C74.5668 247.212 75.3928 245.98 76.8068 245.98C77.9408 245.98 78.4168 246.638 78.4168 247.912C78.4168 248.346 78.3888 248.696 78.3608 248.906H79.3828C79.4108 248.654 79.4528 248.15 79.4528 247.674C79.4528 246.008 78.6268 244.972 77.0728 244.972C75.5888 244.972 74.8748 245.882 74.5528 247.086H74.5388L74.5668 245.084H73.4468V252ZM81.1304 252H82.2504V248.598C82.2504 246.946 83.2724 245.98 84.8544 245.98C86.3384 245.98 87.0104 246.736 87.0104 247.912V252H88.1304V247.674C88.1304 246.022 87.0524 244.972 85.2324 244.972C83.5804 244.972 82.6144 245.742 82.2364 246.946H82.2224L82.2504 245.084H81.1304V252ZM92.2991 252.112C94.0211 252.112 94.8891 251.426 95.1271 250.362H95.1411C95.1271 251.034 95.0991 251.678 95.0851 252H96.2051V247.786C96.2051 245.98 95.0291 244.972 92.9991 244.972C91.1231 244.972 89.9471 245.798 89.9471 247.17C89.9471 247.296 89.9611 247.492 89.9751 247.59H91.0111C90.9971 247.478 90.9971 247.38 90.9971 247.338C90.9971 246.4 91.6971 245.924 92.9711 245.924C94.3851 245.924 95.0851 246.498 95.0851 247.688V248.192H92.2711C90.4231 248.192 89.7371 249.032 89.7371 250.012C89.7371 251.314 90.7311 252.112 92.2991 252.112ZM92.5231 251.16C91.4311 251.16 90.7871 250.712 90.7871 250.012C90.7871 249.34 91.2351 249.004 92.3691 249.004H95.0851V249.102C95.0851 250.362 94.0911 251.16 92.5231 251.16ZM98.0972 252H99.2172V248.57C99.2172 246.932 100.029 245.98 101.303 245.98C102.409 245.98 102.983 246.694 102.983 247.814V252H104.103V248.514C104.103 246.918 104.915 245.98 106.189 245.98C107.295 245.98 107.855 246.708 107.855 247.856V252H108.975V247.618C108.975 246.008 108.065 244.972 106.497 244.972C105.195 244.972 104.299 245.686 104.061 246.792H104.047C103.879 245.686 102.983 244.972 101.625 244.972C100.379 244.972 99.4972 245.728 99.2032 246.918H99.1892L99.2172 245.084H98.0972V252ZM117.125 248.248C117.125 246.19 115.963 244.972 113.989 244.972C111.917 244.972 110.587 246.386 110.587 248.598C110.587 250.74 111.931 252.112 114.017 252.112C115.837 252.112 117.055 251.16 117.125 249.662H116.089C115.991 250.572 115.193 251.16 114.031 251.16C112.673 251.16 111.777 250.236 111.707 248.766H117.125V248.248ZM116.089 247.954H111.749C111.959 246.638 112.785 245.924 114.017 245.924C115.333 245.924 116.089 246.652 116.089 247.87V247.954ZM17.4798 273.112C19.2018 273.112 20.0698 272.426 20.3078 271.362H20.3218C20.3078 272.034 20.2798 272.678 20.2658 273H21.3858V268.786C21.3858 266.98 20.2098 265.972 18.1798 265.972C16.3038 265.972 15.1278 266.798 15.1278 268.17C15.1278 268.296 15.1418 268.492 15.1558 268.59H16.1918C16.1778 268.478 16.1778 268.38 16.1778 268.338C16.1778 267.4 16.8778 266.924 18.1518 266.924C19.5658 266.924 20.2658 267.498 20.2658 268.688V269.192H17.4518C15.6038 269.192 14.9178 270.032 14.9178 271.012C14.9178 272.314 15.9118 273.112 17.4798 273.112ZM17.7038 272.16C16.6118 272.16 15.9678 271.712 15.9678 271.012C15.9678 270.34 16.4158 270.004 17.5498 270.004H20.2658V270.102C20.2658 271.362 19.2718 272.16 17.7038 272.16ZM23.2779 273H24.3979V269.598C24.3979 267.946 25.4199 266.98 27.0019 266.98C28.4859 266.98 29.1579 267.736 29.1579 268.912V273H30.2779V268.674C30.2779 267.022 29.1999 265.972 27.3799 265.972C25.7279 265.972 24.7619 266.742 24.3839 267.946H24.3699L24.3979 266.084H23.2779V273ZM35.1746 273.112C36.7146 273.112 37.6386 272.342 37.9046 271.152H37.9326C37.9186 271.768 37.9046 272.384 37.8626 273H38.9826V263.298H37.8626V267.47H37.8486C37.5966 266.56 36.7146 265.972 35.2726 265.972C33.1726 265.972 31.8846 267.442 31.8846 269.5C31.8846 271.656 33.1726 273.112 35.1746 273.112ZM35.3566 272.104C33.9286 272.104 33.0046 271.04 33.0046 269.5C33.0046 268.058 33.9286 266.98 35.3706 266.98C36.8966 266.98 37.8626 267.876 37.8626 269.276V269.626C37.8626 271.138 36.8826 272.104 35.3566 272.104ZM44.3068 275.772H45.4268V272.986C45.4268 272.664 45.3988 271.936 45.3848 271.474H45.3988C45.6928 272.412 46.6728 273.112 48.1428 273.112C50.1728 273.112 51.4188 271.67 51.4188 269.43C51.4188 267.316 50.1868 265.972 48.1708 265.972C46.6728 265.972 45.6928 266.714 45.4128 267.862H45.3988L45.4268 266.084H44.3068V275.772ZM47.9888 272.104C46.4208 272.104 45.4268 271.264 45.4268 269.948V269.528C45.4548 267.974 46.4488 266.98 47.9608 266.98C49.4168 266.98 50.2988 267.946 50.2988 269.444C50.2988 271.068 49.4028 272.104 47.9888 272.104ZM55.0227 273.112C56.7447 273.112 57.6127 272.426 57.8507 271.362H57.8647C57.8507 272.034 57.8227 272.678 57.8087 273H58.9287V268.786C58.9287 266.98 57.7527 265.972 55.7227 265.972C53.8467 265.972 52.6707 266.798 52.6707 268.17C52.6707 268.296 52.6847 268.492 52.6987 268.59H53.7347C53.7207 268.478 53.7207 268.38 53.7207 268.338C53.7207 267.4 54.4207 266.924 55.6947 266.924C57.1087 266.924 57.8087 267.498 57.8087 268.688V269.192H54.9947C53.1467 269.192 52.4607 270.032 52.4607 271.012C52.4607 272.314 53.4547 273.112 55.0227 273.112ZM55.2467 272.16C54.1547 272.16 53.5107 271.712 53.5107 271.012C53.5107 270.34 53.9587 270.004 55.0927 270.004H57.8087V270.102C57.8087 271.362 56.8147 272.16 55.2467 272.16ZM63.5928 273.112C65.6928 273.112 66.8128 272.3 66.8128 270.942C66.8128 270.424 66.5888 269.892 66.1268 269.626C65.6508 269.36 65.1188 269.262 64.0408 269.15C63.1308 269.052 62.4448 268.968 62.1088 268.828C61.7028 268.66 61.6608 268.324 61.6608 268.044C61.6608 267.358 62.4308 266.924 63.6208 266.924C64.8528 266.924 65.4688 267.4 65.4828 268.436H66.5188C66.5188 266.882 65.6508 265.972 63.5788 265.972C61.7308 265.972 60.5408 266.812 60.5408 268.114C60.5408 268.618 60.7368 269.122 61.1148 269.402C61.5348 269.71 62.2208 269.85 63.3548 269.948C64.2088 270.032 64.9368 270.116 65.2588 270.27C65.6088 270.438 65.6928 270.704 65.6928 270.984C65.6928 271.726 65.0068 272.16 63.5788 272.16C62.1368 272.16 61.5768 271.614 61.5768 270.69H60.5408C60.5408 272.02 61.2688 273.112 63.5928 273.112ZM71.2627 273.112C73.3627 273.112 74.4827 272.3 74.4827 270.942C74.4827 270.424 74.2587 269.892 73.7967 269.626C73.3207 269.36 72.7887 269.262 71.7107 269.15C70.8007 269.052 70.1147 268.968 69.7787 268.828C69.3727 268.66 69.3307 268.324 69.3307 268.044C69.3307 267.358 70.1007 266.924 71.2907 266.924C72.5227 266.924 73.1387 267.4 73.1527 268.436H74.1887C74.1887 266.882 73.3207 265.972 71.2487 265.972C69.4007 265.972 68.2107 266.812 68.2107 268.114C68.2107 268.618 68.4067 269.122 68.7847 269.402C69.2047 269.71 69.8907 269.85 71.0247 269.948C71.8787 270.032 72.6067 270.116 72.9287 270.27C73.2787 270.438 73.3627 270.704 73.3627 270.984C73.3627 271.726 72.6767 272.16 71.2487 272.16C69.8067 272.16 69.2467 271.614 69.2467 270.69H68.2107C68.2107 272.02 68.9387 273.112 71.2627 273.112ZM77.3286 273H78.6586L80.5066 267.484H80.5486L82.3406 273H83.7126L85.7706 266.084H84.6926L83.0406 271.824H83.0126L81.1506 266.084H80.0446L78.1126 271.824H78.0846L76.4886 266.084H75.2706L77.3286 273ZM90.0584 273.112C92.2004 273.112 93.5584 271.726 93.5584 269.556C93.5584 267.372 92.2004 265.972 90.0584 265.972C87.9164 265.972 86.5584 267.372 86.5584 269.556C86.5584 271.726 87.9164 273.112 90.0584 273.112ZM90.0584 272.104C88.6024 272.104 87.6784 271.11 87.6784 269.556C87.6784 267.988 88.6024 266.98 90.0584 266.98C91.5144 266.98 92.4384 267.988 92.4384 269.556C92.4384 271.11 91.5144 272.104 90.0584 272.104ZM95.2329 273H96.3529V269.934C96.3529 268.212 97.1789 266.98 98.5929 266.98C99.7269 266.98 100.203 267.638 100.203 268.912C100.203 269.346 100.175 269.696 100.147 269.906H101.169C101.197 269.654 101.239 269.15 101.239 268.674C101.239 267.008 100.413 265.972 98.8589 265.972C97.3749 265.972 96.6609 266.882 96.3389 268.086H96.3249L96.3529 266.084H95.2329V273ZM105.927 273.112C107.467 273.112 108.391 272.342 108.657 271.152H108.685C108.671 271.768 108.657 272.384 108.615 273H109.735V263.298H108.615V267.47H108.601C108.349 266.56 107.467 265.972 106.025 265.972C103.925 265.972 102.637 267.442 102.637 269.5C102.637 271.656 103.925 273.112 105.927 273.112ZM106.109 272.104C104.681 272.104 103.757 271.04 103.757 269.5C103.757 268.058 104.681 266.98 106.123 266.98C107.649 266.98 108.615 267.876 108.615 269.276V269.626C108.615 271.138 107.635 272.104 106.109 272.104Z" fill="black"/>
<rect x="170.5" y="433.5" width="150" height="54" fill="#F3F3F3" stroke="white"/>
<path d="M176.962 456H183.192V454.936H178.138V451.8H182.128V450.932H178.138V447.852H183.066V446.788H176.962V456ZM184.656 456H185.776V452.598C185.776 450.946 186.798 449.98 188.38 449.98C189.864 449.98 190.536 450.736 190.536 451.912V456H191.656V451.674C191.656 450.022 190.578 448.972 188.758 448.972C187.106 448.972 186.14 449.742 185.762 450.946H185.748L185.776 449.084H184.656V456ZM196.287 456.056C196.847 456.056 197.253 455.972 197.463 455.888V454.936C197.309 454.992 196.861 455.076 196.385 455.076C195.349 455.076 195.013 454.446 195.013 453.396V450.064H197.519V449.084H195.013V447.516H194.061L194.005 448.608C193.977 448.972 193.893 449.084 193.669 449.084H192.745V450.064H193.893V453.466C193.893 454.992 194.607 456.056 196.287 456.056ZM205.037 452.248C205.037 450.19 203.875 448.972 201.901 448.972C199.829 448.972 198.499 450.386 198.499 452.598C198.499 454.74 199.843 456.112 201.929 456.112C203.749 456.112 204.967 455.16 205.037 453.662H204.001C203.903 454.572 203.105 455.16 201.943 455.16C200.585 455.16 199.689 454.236 199.619 452.766H205.037V452.248ZM204.001 451.954H199.661C199.871 450.638 200.697 449.924 201.929 449.924C203.245 449.924 204.001 450.652 204.001 451.87V451.954ZM206.722 456H207.842V452.934C207.842 451.212 208.668 449.98 210.082 449.98C211.216 449.98 211.692 450.638 211.692 451.912C211.692 452.346 211.664 452.696 211.636 452.906H212.658C212.686 452.654 212.728 452.15 212.728 451.674C212.728 450.008 211.902 448.972 210.348 448.972C208.864 448.972 208.15 449.882 207.828 451.086H207.814L207.842 449.084H206.722V456ZM217.632 456H218.752V452.598C218.752 450.946 219.774 449.98 221.356 449.98C222.84 449.98 223.512 450.736 223.512 451.912V456H224.632V451.674C224.632 450.022 223.554 448.972 221.734 448.972C220.082 448.972 219.116 449.742 218.738 450.946H218.724L218.752 449.084H217.632V456ZM232.777 452.248C232.777 450.19 231.615 448.972 229.641 448.972C227.569 448.972 226.239 450.386 226.239 452.598C226.239 454.74 227.583 456.112 229.669 456.112C231.489 456.112 232.707 455.16 232.777 453.662H231.741C231.643 454.572 230.845 455.16 229.683 455.16C228.325 455.16 227.429 454.236 227.359 452.766H232.777V452.248ZM231.741 451.954H227.401C227.611 450.638 228.437 449.924 229.669 449.924C230.985 449.924 231.741 450.652 231.741 451.87V451.954ZM235.63 456H236.96L238.808 450.484H238.85L240.642 456H242.014L244.072 449.084H242.994L241.342 454.824H241.314L239.452 449.084H238.346L236.414 454.824H236.386L234.79 449.084H233.572L235.63 456ZM248.683 458.772H249.803V455.986C249.803 455.664 249.775 454.936 249.761 454.474H249.775C250.069 455.412 251.049 456.112 252.519 456.112C254.549 456.112 255.795 454.67 255.795 452.43C255.795 450.316 254.563 448.972 252.547 448.972C251.049 448.972 250.069 449.714 249.789 450.862H249.775L249.803 449.084H248.683V458.772ZM252.365 455.104C250.797 455.104 249.803 454.264 249.803 452.948V452.528C249.831 450.974 250.825 449.98 252.337 449.98C253.793 449.98 254.675 450.946 254.675 452.444C254.675 454.068 253.779 455.104 252.365 455.104ZM259.399 456.112C261.121 456.112 261.989 455.426 262.227 454.362H262.241C262.227 455.034 262.199 455.678 262.185 456H263.305V451.786C263.305 449.98 262.129 448.972 260.099 448.972C258.223 448.972 257.047 449.798 257.047 451.17C257.047 451.296 257.061 451.492 257.075 451.59H258.111C258.097 451.478 258.097 451.38 258.097 451.338C258.097 450.4 258.797 449.924 260.071 449.924C261.485 449.924 262.185 450.498 262.185 451.688V452.192H259.371C257.523 452.192 256.837 453.032 256.837 454.012C256.837 455.314 257.831 456.112 259.399 456.112ZM259.623 455.16C258.531 455.16 257.887 454.712 257.887 454.012C257.887 453.34 258.335 453.004 259.469 453.004H262.185V453.102C262.185 454.362 261.191 455.16 259.623 455.16ZM267.969 456.112C270.069 456.112 271.189 455.3 271.189 453.942C271.189 453.424 270.965 452.892 270.503 452.626C270.027 452.36 269.495 452.262 268.417 452.15C267.507 452.052 266.821 451.968 266.485 451.828C266.079 451.66 266.037 451.324 266.037 451.044C266.037 450.358 266.807 449.924 267.997 449.924C269.229 449.924 269.845 450.4 269.859 451.436H270.895C270.895 449.882 270.027 448.972 267.955 448.972C266.107 448.972 264.917 449.812 264.917 451.114C264.917 451.618 265.113 452.122 265.491 452.402C265.911 452.71 266.597 452.85 267.731 452.948C268.585 453.032 269.313 453.116 269.635 453.27C269.985 453.438 270.069 453.704 270.069 453.984C270.069 454.726 269.383 455.16 267.955 455.16C266.513 455.16 265.953 454.614 265.953 453.69H264.917C264.917 455.02 265.645 456.112 267.969 456.112ZM275.639 456.112C277.739 456.112 278.859 455.3 278.859 453.942C278.859 453.424 278.635 452.892 278.173 452.626C277.697 452.36 277.165 452.262 276.087 452.15C275.177 452.052 274.491 451.968 274.155 451.828C273.749 451.66 273.707 451.324 273.707 451.044C273.707 450.358 274.477 449.924 275.667 449.924C276.899 449.924 277.515 450.4 277.529 451.436H278.565C278.565 449.882 277.697 448.972 275.625 448.972C273.777 448.972 272.587 449.812 272.587 451.114C272.587 451.618 272.783 452.122 273.161 452.402C273.581 452.71 274.267 452.85 275.401 452.948C276.255 453.032 276.983 453.116 277.305 453.27C277.655 453.438 277.739 453.704 277.739 453.984C277.739 454.726 277.053 455.16 275.625 455.16C274.183 455.16 273.623 454.614 273.623 453.69H272.587C272.587 455.02 273.315 456.112 275.639 456.112ZM281.705 456H283.035L284.883 450.484H284.925L286.717 456H288.089L290.147 449.084H289.069L287.417 454.824H287.389L285.527 449.084H284.421L282.489 454.824H282.461L280.865 449.084H279.647L281.705 456ZM294.434 456.112C296.576 456.112 297.934 454.726 297.934 452.556C297.934 450.372 296.576 448.972 294.434 448.972C292.292 448.972 290.934 450.372 290.934 452.556C290.934 454.726 292.292 456.112 294.434 456.112ZM294.434 455.104C292.978 455.104 292.054 454.11 292.054 452.556C292.054 450.988 292.978 449.98 294.434 449.98C295.89 449.98 296.814 450.988 296.814 452.556C296.814 454.11 295.89 455.104 294.434 455.104ZM299.609 456H300.729V452.934C300.729 451.212 301.555 449.98 302.969 449.98C304.103 449.98 304.579 450.638 304.579 451.912C304.579 452.346 304.551 452.696 304.523 452.906H305.545C305.573 452.654 305.615 452.15 305.615 451.674C305.615 450.008 304.789 448.972 303.235 448.972C301.751 448.972 301.037 449.882 300.715 451.086H300.701L300.729 449.084H299.609V456ZM310.303 456.112C311.843 456.112 312.767 455.342 313.033 454.152H313.061C313.047 454.768 313.033 455.384 312.991 456H314.111V446.298H312.991V450.47H312.977C312.725 449.56 311.843 448.972 310.401 448.972C308.301 448.972 307.013 450.442 307.013 452.5C307.013 454.656 308.301 456.112 310.303 456.112ZM310.485 455.104C309.057 455.104 308.133 454.04 308.133 452.5C308.133 451.058 309.057 449.98 310.499 449.98C312.025 449.98 312.991 450.876 312.991 452.276V452.626C312.991 454.138 312.011 455.104 310.485 455.104ZM207.056 477.112C208.778 477.112 209.646 476.426 209.884 475.362H209.898C209.884 476.034 209.856 476.678 209.842 477H210.962V472.786C210.962 470.98 209.786 469.972 207.756 469.972C205.88 469.972 204.704 470.798 204.704 472.17C204.704 472.296 204.718 472.492 204.732 472.59H205.768C205.754 472.478 205.754 472.38 205.754 472.338C205.754 471.4 206.454 470.924 207.728 470.924C209.142 470.924 209.842 471.498 209.842 472.688V473.192H207.028C205.18 473.192 204.494 474.032 204.494 475.012C204.494 476.314 205.488 477.112 207.056 477.112ZM207.28 476.16C206.188 476.16 205.544 475.712 205.544 475.012C205.544 474.34 205.992 474.004 207.126 474.004H209.842V474.102C209.842 475.362 208.848 476.16 207.28 476.16ZM212.854 477H213.974V473.598C213.974 471.946 214.996 470.98 216.578 470.98C218.062 470.98 218.734 471.736 218.734 472.912V477H219.854V472.674C219.854 471.022 218.776 469.972 216.956 469.972C215.304 469.972 214.338 470.742 213.96 471.946H213.946L213.974 470.084H212.854V477ZM224.751 477.112C226.291 477.112 227.215 476.342 227.481 475.152H227.509C227.495 475.768 227.481 476.384 227.439 477H228.559V467.298H227.439V471.47H227.425C227.173 470.56 226.291 469.972 224.849 469.972C222.749 469.972 221.461 471.442 221.461 473.5C221.461 475.656 222.749 477.112 224.751 477.112ZM224.933 476.104C223.505 476.104 222.581 475.04 222.581 473.5C222.581 472.058 223.505 470.98 224.947 470.98C226.473 470.98 227.439 471.876 227.439 473.276V473.626C227.439 475.138 226.459 476.104 224.933 476.104ZM236.837 477.112C238.755 477.112 239.987 475.992 239.987 474.256H238.951C238.937 475.39 238.125 476.104 236.865 476.104C235.521 476.104 234.653 475.11 234.653 473.542C234.653 471.974 235.549 470.98 236.935 470.98C238.139 470.98 238.909 471.708 238.923 472.856H239.959C239.959 471.092 238.769 469.972 236.921 469.972C234.849 469.972 233.533 471.358 233.533 473.542C233.533 475.726 234.821 477.112 236.837 477.112ZM244.963 477.112C247.105 477.112 248.463 475.726 248.463 473.556C248.463 471.372 247.105 469.972 244.963 469.972C242.821 469.972 241.463 471.372 241.463 473.556C241.463 475.726 242.821 477.112 244.963 477.112ZM244.963 476.104C243.507 476.104 242.583 475.11 242.583 473.556C242.583 471.988 243.507 470.98 244.963 470.98C246.419 470.98 247.343 471.988 247.343 473.556C247.343 475.11 246.419 476.104 244.963 476.104ZM250.137 477H251.257V473.598C251.257 471.946 252.279 470.98 253.861 470.98C255.345 470.98 256.017 471.736 256.017 472.912V477H257.137V472.674C257.137 471.022 256.059 469.972 254.239 469.972C252.587 469.972 251.621 470.742 251.243 471.946H251.229L251.257 470.084H250.137V477ZM259.388 477H260.508V471.064H263.084V470.084H260.508V469.398C260.508 468.516 261.012 468.026 261.894 468.026C262.37 468.026 262.72 468.11 262.972 468.194V467.2C262.72 467.116 262.286 467.018 261.754 467.018C260.312 467.018 259.388 467.886 259.388 469.398V470.084H258.226V471.064H259.388V477ZM264.54 469.202H265.744V467.788H264.54V469.202ZM264.582 477H265.702V470.084H264.582V477ZM267.733 477H268.853V473.934C268.853 472.212 269.679 470.98 271.093 470.98C272.227 470.98 272.703 471.638 272.703 472.912C272.703 473.346 272.675 473.696 272.647 473.906H273.669C273.697 473.654 273.739 473.15 273.739 472.674C273.739 471.008 272.913 469.972 271.359 469.972C269.875 469.972 269.161 470.882 268.839 472.086H268.825L268.853 470.084H267.733V477ZM275.417 477H276.537V473.57C276.537 471.932 277.349 470.98 278.623 470.98C279.729 470.98 280.303 471.694 280.303 472.814V477H281.423V473.514C281.423 471.918 282.235 470.98 283.509 470.98C284.615 470.98 285.175 471.708 285.175 472.856V477H286.295V472.618C286.295 471.008 285.385 469.972 283.817 469.972C282.515 469.972 281.619 470.686 281.381 471.792H281.367C281.199 470.686 280.303 469.972 278.945 469.972C277.699 469.972 276.817 470.728 276.523 471.918H276.509L276.537 470.084H275.417V477Z" fill="black"/>
<line x1="121" y1="154.5" x2="124.379" y2="154.5" stroke="white"/>
<line x1="126.069" y1="154.5" x2="129.448" y2="154.5" stroke="white"/>
<line x1="131.138" y1="154.5" x2="134.517" y2="154.5" stroke="white"/>
<line x1="136.207" y1="154.5" x2="139.586" y2="154.5" stroke="white"/>
<line x1="141.276" y1="154.5" x2="144.655" y2="154.5" stroke="white"/>
<line x1="146.345" y1="154.5" x2="149.724" y2="154.5" stroke="white"/>
<line x1="151.414" y1="154.5" x2="154.793" y2="154.5" stroke="white"/>
<line x1="156.483" y1="154.5" x2="159.862" y2="154.5" stroke="white"/>
<line x1="161.552" y1="154.5" x2="164.931" y2="154.5" stroke="white"/>
<line x1="166.621" y1="154.5" x2="170" y2="154.5" stroke="white"/>
</svg>
