<svg width="1051" height="178" viewBox="0 0 1051 178" fill="none" xmlns="http://www.w3.org/2000/svg">
<path d="M563.452 111.14C566.462 111.14 567.33 109.754 567.33 108.354C567.33 107.514 566.952 106.87 566.336 106.562C565.734 106.254 564.768 106.1 563.844 105.974C563.046 105.862 561.94 105.694 561.492 105.47C561.1 105.274 560.876 104.924 560.876 104.336C560.876 103.328 561.94 102.656 563.438 102.656C565.02 102.656 565.916 103.356 565.916 104.966H567.008C567.008 102.838 565.986 101.648 563.41 101.648C561.212 101.648 559.7 102.796 559.7 104.434C559.7 105.302 560.078 105.918 560.61 106.24C561.114 106.548 562.122 106.772 563.074 106.884C563.872 106.996 564.922 107.108 565.426 107.318C565.902 107.514 566.154 107.836 566.154 108.424C566.154 109.306 565.566 110.132 563.452 110.132C561.492 110.132 560.82 109.194 560.82 107.864H559.728C559.728 109.53 560.498 111.14 563.452 111.14ZM575.261 107.248C575.261 105.19 574.099 103.972 572.125 103.972C570.053 103.972 568.723 105.386 568.723 107.598C568.723 109.74 570.067 111.112 572.153 111.112C573.973 111.112 575.191 110.16 575.261 108.662H574.225C574.127 109.572 573.329 110.16 572.167 110.16C570.809 110.16 569.913 109.236 569.843 107.766H575.261V107.248ZM574.225 106.954H569.885C570.095 105.638 570.921 104.924 572.153 104.924C573.469 104.924 574.225 105.652 574.225 106.87V106.954ZM576.947 111H578.067V107.598C578.067 105.946 579.089 104.98 580.671 104.98C582.155 104.98 582.827 105.736 582.827 106.912V111H583.947V106.674C583.947 105.022 582.869 103.972 581.049 103.972C579.397 103.972 578.431 104.742 578.053 105.946H578.039L578.067 104.084H576.947V111ZM588.844 111.112C590.384 111.112 591.308 110.342 591.574 109.152H591.602C591.588 109.768 591.574 110.384 591.532 111H592.652V101.298H591.532V105.47H591.518C591.266 104.56 590.384 103.972 588.942 103.972C586.842 103.972 585.554 105.442 585.554 107.5C585.554 109.656 586.842 111.112 588.844 111.112ZM589.026 110.104C587.598 110.104 586.674 109.04 586.674 107.5C586.674 106.058 587.598 104.98 589.04 104.98C590.566 104.98 591.532 105.876 591.532 107.276V107.626C591.532 109.138 590.552 110.104 589.026 110.104ZM598.046 111H599.222V107.962H601.938C603.996 107.962 605.242 106.856 605.242 104.896C605.242 102.978 603.94 101.788 601.714 101.788H598.046V111ZM599.222 107.066V102.852H601.672C603.226 102.852 604.094 103.594 604.094 104.966C604.094 106.366 603.254 107.066 601.84 107.066H599.222ZM609.117 111H610.391L612.715 103.594H612.757L615.039 111H616.299L619.351 101.788H618.175L615.725 109.474H615.683L613.373 101.886H612.169L609.831 109.474H609.789L607.339 101.788H606.079L609.117 111ZM559.98 132H561.1V128.934C561.1 127.212 561.926 125.98 563.34 125.98C564.474 125.98 564.95 126.638 564.95 127.912C564.95 128.346 564.922 128.696 564.894 128.906H565.916C565.944 128.654 565.986 128.15 565.986 127.674C565.986 126.008 565.16 124.972 563.606 124.972C562.122 124.972 561.408 125.882 561.086 127.086H561.072L561.1 125.084H559.98V132ZM573.922 128.248C573.922 126.19 572.76 124.972 570.786 124.972C568.714 124.972 567.384 126.386 567.384 128.598C567.384 130.74 568.728 132.112 570.814 132.112C572.634 132.112 573.852 131.16 573.922 129.662H572.886C572.788 130.572 571.99 131.16 570.828 131.16C569.47 131.16 568.574 130.236 568.504 128.766H573.922V128.248ZM572.886 127.954H568.546C568.756 126.638 569.582 125.924 570.814 125.924C572.13 125.924 572.886 126.652 572.886 127.87V127.954ZM578.379 132.112C580.479 132.112 581.599 131.3 581.599 129.942C581.599 129.424 581.375 128.892 580.913 128.626C580.437 128.36 579.905 128.262 578.827 128.15C577.917 128.052 577.231 127.968 576.895 127.828C576.489 127.66 576.447 127.324 576.447 127.044C576.447 126.358 577.217 125.924 578.407 125.924C579.639 125.924 580.255 126.4 580.269 127.436H581.305C581.305 125.882 580.437 124.972 578.365 124.972C576.517 124.972 575.327 125.812 575.327 127.114C575.327 127.618 575.523 128.122 575.901 128.402C576.321 128.71 577.007 128.85 578.141 128.948C578.995 129.032 579.723 129.116 580.045 129.27C580.395 129.438 580.479 129.704 580.479 129.984C580.479 130.726 579.793 131.16 578.365 131.16C576.923 131.16 576.363 130.614 576.363 129.69H575.327C575.327 131.02 576.055 132.112 578.379 132.112ZM589.535 128.248C589.535 126.19 588.373 124.972 586.399 124.972C584.327 124.972 582.997 126.386 582.997 128.598C582.997 130.74 584.341 132.112 586.427 132.112C588.247 132.112 589.465 131.16 589.535 129.662H588.499C588.401 130.572 587.603 131.16 586.441 131.16C585.083 131.16 584.187 130.236 584.117 128.766H589.535V128.248ZM588.499 127.954H584.159C584.369 126.638 585.195 125.924 586.427 125.924C587.743 125.924 588.499 126.652 588.499 127.87V127.954ZM593.964 132.056C594.524 132.056 594.93 131.972 595.14 131.888V130.936C594.986 130.992 594.538 131.076 594.062 131.076C593.026 131.076 592.69 130.446 592.69 129.396V126.064H595.196V125.084H592.69V123.516H591.738L591.682 124.608C591.654 124.972 591.57 125.084 591.346 125.084H590.422V126.064H591.57V129.466C591.57 130.992 592.284 132.056 593.964 132.056ZM600.013 132H601.133V122.298H600.013V132ZM603.197 124.202H604.401V122.788H603.197V124.202ZM603.239 132H604.359V125.084H603.239V132ZM606.396 132H607.516V128.598C607.516 126.946 608.538 125.98 610.12 125.98C611.604 125.98 612.276 126.736 612.276 127.912V132H613.396V127.674C613.396 126.022 612.318 124.972 610.498 124.972C608.846 124.972 607.88 125.742 607.502 126.946H607.488L607.516 125.084H606.396V132ZM615.353 132H616.473V130.18L618.055 128.808L620.995 132H622.591L618.895 128.094L622.395 125.084H620.827L616.487 128.948H616.473V122.298H615.353V132Z" fill="white"/>
<path d="M116.5 40C116.5 50.8324 110.079 60.6952 99.5835 67.8715C89.0905 75.0462 74.5668 79.5 58.5 79.5C42.4332 79.5 27.9095 75.0462 17.4165 67.8715C6.92102 60.6952 0.5 50.8324 0.5 40C0.5 29.1676 6.92102 19.3048 17.4165 12.1285C27.9095 4.95375 42.4332 0.5 58.5 0.5C74.5668 0.5 89.0905 4.95375 99.5835 12.1285C110.079 19.3048 116.5 29.1676 116.5 40Z" fill="#E5E5E5" stroke="black"/>
<path d="M190.354 38.3536C190.549 38.1583 190.549 37.8417 190.354 37.6464L187.172 34.4645C186.976 34.2692 186.66 34.2692 186.464 34.4645C186.269 34.6597 186.269 34.9763 186.464 35.1716L189.293 38L186.464 40.8284C186.269 41.0237 186.269 41.3403 186.464 41.5355C186.66 41.7308 186.976 41.7308 187.172 41.5355L190.354 38.3536ZM117 38.5H190V37.5H117V38.5Z" fill="white"/>
<rect x="191.5" y="11.5" width="115" height="54" fill="#F3F3F3" stroke="black"/>
<path d="M35.0048 34H41.0248V32.936H36.1808V24.788H35.0048V34ZM44.6526 34.112C46.3746 34.112 47.2426 33.426 47.4806 32.362H47.4946C47.4806 33.034 47.4526 33.678 47.4386 34H48.5586V29.786C48.5586 27.98 47.3826 26.972 45.3526 26.972C43.4766 26.972 42.3006 27.798 42.3006 29.17C42.3006 29.296 42.3146 29.492 42.3286 29.59H43.3646C43.3506 29.478 43.3506 29.38 43.3506 29.338C43.3506 28.4 44.0506 27.924 45.3246 27.924C46.7386 27.924 47.4386 28.498 47.4386 29.688V30.192H44.6246C42.7766 30.192 42.0906 31.032 42.0906 32.012C42.0906 33.314 43.0846 34.112 44.6526 34.112ZM44.8766 33.16C43.7846 33.16 43.1406 32.712 43.1406 32.012C43.1406 31.34 43.5886 31.004 44.7226 31.004H47.4386V31.102C47.4386 32.362 46.4446 33.16 44.8766 33.16ZM53.2927 34.112C55.0147 34.112 55.9947 33.272 56.2887 31.97H56.3027C56.3027 32.67 56.2747 33.538 56.2467 34H57.3667V27.084H56.2467V30.206C56.2467 32.026 55.2107 33.104 53.6007 33.104C52.2847 33.104 51.5007 32.348 51.5007 31.158V27.084H50.3807V31.354C50.3807 33.034 51.4867 34.112 53.2927 34.112ZM59.3238 34H60.4438V30.598C60.4438 28.946 61.4658 27.98 63.0478 27.98C64.5318 27.98 65.2038 28.736 65.2038 29.912V34H66.3238V29.674C66.3238 28.022 65.2458 26.972 63.4258 26.972C61.7738 26.972 60.8078 27.742 60.4298 28.946H60.4158L60.4438 27.084H59.3238V34ZM71.2345 34.112C73.1525 34.112 74.3845 32.992 74.3845 31.256H73.3485C73.3345 32.39 72.5225 33.104 71.2625 33.104C69.9185 33.104 69.0505 32.11 69.0505 30.542C69.0505 28.974 69.9465 27.98 71.3325 27.98C72.5365 27.98 73.3065 28.708 73.3205 29.856H74.3565C74.3565 28.092 73.1665 26.972 71.3185 26.972C69.2465 26.972 67.9305 28.358 67.9305 30.542C67.9305 32.726 69.2185 34.112 71.2345 34.112ZM76.2102 34H77.3302V30.738C77.3302 28.988 78.3522 27.98 79.9342 27.98C81.4182 27.98 82.0902 28.736 82.0902 29.912V34H83.2102V29.674C83.2102 28.022 82.1322 26.972 80.3122 26.972C78.6602 26.972 77.6942 27.756 77.3162 28.96H77.3022C77.3022 28.708 77.3302 27.882 77.3302 27.504V24.298H76.2102V34ZM38.3878 55.112C40.3058 55.112 41.5378 53.992 41.5378 52.256H40.5018C40.4878 53.39 39.6758 54.104 38.4158 54.104C37.0718 54.104 36.2038 53.11 36.2038 51.542C36.2038 49.974 37.0998 48.98 38.4858 48.98C39.6898 48.98 40.4598 49.708 40.4738 50.856H41.5098C41.5098 49.092 40.3198 47.972 38.4718 47.972C36.3998 47.972 35.0838 49.358 35.0838 51.542C35.0838 53.726 36.3718 55.112 38.3878 55.112ZM45.22 55.112C46.942 55.112 47.81 54.426 48.048 53.362H48.062C48.048 54.034 48.02 54.678 48.006 55H49.126V50.786C49.126 48.98 47.95 47.972 45.92 47.972C44.044 47.972 42.868 48.798 42.868 50.17C42.868 50.296 42.882 50.492 42.896 50.59H43.932C43.918 50.478 43.918 50.38 43.918 50.338C43.918 49.4 44.618 48.924 45.892 48.924C47.306 48.924 48.006 49.498 48.006 50.688V51.192H45.192C43.344 51.192 42.658 52.032 42.658 53.012C42.658 54.314 43.652 55.112 45.22 55.112ZM45.444 54.16C44.352 54.16 43.708 53.712 43.708 53.012C43.708 52.34 44.156 52.004 45.29 52.004H48.006V52.102C48.006 53.362 47.012 54.16 45.444 54.16ZM51.0181 55H52.1381V51.598C52.1381 49.946 53.1601 48.98 54.7421 48.98C56.2261 48.98 56.8981 49.736 56.8981 50.912V55H58.0181V50.674C58.0181 49.022 56.9401 47.972 55.1201 47.972C53.4681 47.972 52.5021 48.742 52.1241 49.946H52.1101L52.1381 48.084H51.0181V55ZM63.1248 55.112C65.2668 55.112 66.6248 53.726 66.6248 51.556C66.6248 49.372 65.2668 47.972 63.1248 47.972C60.9828 47.972 59.6248 49.372 59.6248 51.556C59.6248 53.726 60.9828 55.112 63.1248 55.112ZM63.1248 54.104C61.6688 54.104 60.7448 53.11 60.7448 51.556C60.7448 49.988 61.6688 48.98 63.1248 48.98C64.5808 48.98 65.5048 49.988 65.5048 51.556C65.5048 53.11 64.5808 54.104 63.1248 54.104ZM68.3693 57.772H69.4893V54.986C69.4893 54.664 69.4613 53.936 69.4473 53.474H69.4613C69.7553 54.412 70.7353 55.112 72.2053 55.112C74.2353 55.112 75.4813 53.67 75.4813 51.43C75.4813 49.316 74.2493 47.972 72.2333 47.972C70.7353 47.972 69.7553 48.714 69.4753 49.862H69.4613L69.4893 48.084H68.3693V57.772ZM72.0513 54.104C70.4833 54.104 69.4893 53.264 69.4893 51.948V51.528C69.5173 49.974 70.5113 48.98 72.0233 48.98C73.4793 48.98 74.3613 49.946 74.3613 51.444C74.3613 53.068 73.4653 54.104 72.0513 54.104ZM77.8559 57.912C79.1719 57.912 79.7039 57.268 80.5299 55.126L83.2739 48.084H82.1399L79.9139 53.866H79.8859L77.3659 48.084H76.0499L79.1579 55H79.4519C78.8079 56.568 78.4719 56.932 77.7159 56.932C77.3659 56.932 77.0299 56.848 76.8619 56.792V57.73C77.0579 57.814 77.4639 57.912 77.8559 57.912Z" fill="black"/>
<path d="M1033.5 40C1033.5 50.8324 1027.08 60.6952 1016.58 67.8715C1006.09 75.0462 991.567 79.5 975.5 79.5C959.433 79.5 944.909 75.0462 934.416 67.8715C923.921 60.6952 917.5 50.8324 917.5 40C917.5 29.1676 923.921 19.3048 934.416 12.1285C944.909 4.95375 959.433 0.5 975.5 0.5C991.567 0.5 1006.09 4.95375 1016.58 12.1285C1027.08 19.3048 1033.5 29.1676 1033.5 40Z" fill="#E5E5E5" stroke="black"/>
<path d="M939.126 45H942.78C945.44 45 947.078 43.264 947.078 40.38C947.078 37.524 945.328 35.788 942.486 35.788H939.126V45ZM940.302 43.936V36.852H942.514C944.614 36.852 945.902 38.182 945.902 40.38C945.902 42.62 944.712 43.936 942.752 43.936H940.302ZM951.043 45.112C952.765 45.112 953.633 44.426 953.871 43.362H953.885C953.871 44.034 953.843 44.678 953.829 45H954.949V40.786C954.949 38.98 953.773 37.972 951.743 37.972C949.867 37.972 948.691 38.798 948.691 40.17C948.691 40.296 948.705 40.492 948.719 40.59H949.755C949.741 40.478 949.741 40.38 949.741 40.338C949.741 39.4 950.441 38.924 951.715 38.924C953.129 38.924 953.829 39.498 953.829 40.688V41.192H951.015C949.167 41.192 948.481 42.032 948.481 43.012C948.481 44.314 949.475 45.112 951.043 45.112ZM951.267 44.16C950.175 44.16 949.531 43.712 949.531 43.012C949.531 42.34 949.979 42.004 951.113 42.004H953.829V42.102C953.829 43.362 952.835 44.16 951.267 44.16ZM959.613 45.112C961.713 45.112 962.833 44.3 962.833 42.942C962.833 42.424 962.609 41.892 962.147 41.626C961.671 41.36 961.139 41.262 960.061 41.15C959.151 41.052 958.465 40.968 958.129 40.828C957.723 40.66 957.681 40.324 957.681 40.044C957.681 39.358 958.451 38.924 959.641 38.924C960.873 38.924 961.489 39.4 961.503 40.436H962.539C962.539 38.882 961.671 37.972 959.599 37.972C957.751 37.972 956.561 38.812 956.561 40.114C956.561 40.618 956.757 41.122 957.135 41.402C957.555 41.71 958.241 41.85 959.375 41.948C960.229 42.032 960.957 42.116 961.279 42.27C961.629 42.438 961.713 42.704 961.713 42.984C961.713 43.726 961.027 44.16 959.599 44.16C958.157 44.16 957.597 43.614 957.597 42.69H956.561C956.561 44.02 957.289 45.112 959.613 45.112ZM964.581 45H965.701V41.738C965.701 39.988 966.723 38.98 968.305 38.98C969.789 38.98 970.461 39.736 970.461 40.912V45H971.581V40.674C971.581 39.022 970.503 37.972 968.683 37.972C967.031 37.972 966.065 38.756 965.687 39.96H965.673C965.673 39.708 965.701 38.882 965.701 38.504V35.298H964.581V45ZM977.47 45.112C979.402 45.112 980.648 43.67 980.648 41.416C980.648 39.316 979.43 37.972 977.442 37.972C975.958 37.972 974.95 38.686 974.642 39.792H974.628C974.642 39.456 974.656 38.896 974.656 38.616V35.298H973.536V45H974.656C974.628 44.636 974.6 43.95 974.6 43.404H974.614C974.908 44.44 975.902 45.112 977.47 45.112ZM977.19 44.104C975.65 44.104 974.656 43.25 974.656 41.92V41.556C974.656 39.988 975.664 38.98 977.232 38.98C978.66 38.98 979.528 39.946 979.528 41.444C979.528 43.068 978.618 44.104 977.19 44.104ZM985.546 45.112C987.688 45.112 989.046 43.726 989.046 41.556C989.046 39.372 987.688 37.972 985.546 37.972C983.404 37.972 982.046 39.372 982.046 41.556C982.046 43.726 983.404 45.112 985.546 45.112ZM985.546 44.104C984.09 44.104 983.166 43.11 983.166 41.556C983.166 39.988 984.09 38.98 985.546 38.98C987.002 38.98 987.926 39.988 987.926 41.556C987.926 43.11 987.002 44.104 985.546 44.104ZM992.647 45.112C994.369 45.112 995.237 44.426 995.475 43.362H995.489C995.475 44.034 995.447 44.678 995.433 45H996.553V40.786C996.553 38.98 995.377 37.972 993.347 37.972C991.471 37.972 990.295 38.798 990.295 40.17C990.295 40.296 990.309 40.492 990.323 40.59H991.359C991.345 40.478 991.345 40.38 991.345 40.338C991.345 39.4 992.045 38.924 993.319 38.924C994.733 38.924 995.433 39.498 995.433 40.688V41.192H992.619C990.771 41.192 990.085 42.032 990.085 43.012C990.085 44.314 991.079 45.112 992.647 45.112ZM992.871 44.16C991.779 44.16 991.135 43.712 991.135 43.012C991.135 42.34 991.583 42.004 992.717 42.004H995.433V42.102C995.433 43.362 994.439 44.16 992.871 44.16ZM998.445 45H999.565V41.934C999.565 40.212 1000.39 38.98 1001.8 38.98C1002.94 38.98 1003.41 39.638 1003.41 40.912C1003.41 41.346 1003.39 41.696 1003.36 41.906H1004.38C1004.41 41.654 1004.45 41.15 1004.45 40.674C1004.45 39.008 1003.62 37.972 1002.07 37.972C1000.59 37.972 999.873 38.882 999.551 40.086H999.537L999.565 38.084H998.445V45ZM1009.14 45.112C1010.68 45.112 1011.6 44.342 1011.87 43.152H1011.9C1011.88 43.768 1011.87 44.384 1011.83 45H1012.95V35.298H1011.83V39.47H1011.81C1011.56 38.56 1010.68 37.972 1009.24 37.972C1007.14 37.972 1005.85 39.442 1005.85 41.5C1005.85 43.656 1007.14 45.112 1009.14 45.112ZM1009.32 44.104C1007.89 44.104 1006.97 43.04 1006.97 41.5C1006.97 40.058 1007.89 38.98 1009.33 38.98C1010.86 38.98 1011.83 39.876 1011.83 41.276V41.626C1011.83 43.138 1010.85 44.104 1009.32 44.104Z" fill="black"/>
<path d="M211.117 34.14C213.469 34.14 215.205 32.712 215.205 30.64V30.416H214.113V30.584C214.113 32.054 212.811 33.076 211.117 33.076C209.185 33.076 207.659 31.648 207.659 29.408C207.659 27.154 209.115 25.712 211.117 25.712C212.797 25.712 214.071 26.762 214.071 28.316V28.568H215.149C215.163 28.386 215.163 28.26 215.163 28.232C215.163 26.104 213.455 24.648 211.117 24.648C208.387 24.648 206.483 26.51 206.483 29.408C206.483 32.292 208.443 34.14 211.117 34.14ZM217.019 34H218.139V24.298H217.019V34ZM220.203 26.202H221.407V24.788H220.203V26.202ZM220.245 34H221.365V27.084H220.245V34ZM226.426 34.112C228.344 34.112 229.576 32.992 229.576 31.256H228.54C228.526 32.39 227.714 33.104 226.454 33.104C225.11 33.104 224.242 32.11 224.242 30.542C224.242 28.974 225.138 27.98 226.524 27.98C227.728 27.98 228.498 28.708 228.512 29.856H229.548C229.548 28.092 228.358 26.972 226.51 26.972C224.438 26.972 223.122 28.358 223.122 30.542C223.122 32.726 224.41 34.112 226.426 34.112ZM231.402 34H232.522V32.18L234.104 30.808L237.044 34H238.64L234.944 30.094L238.444 27.084H236.876L232.536 30.948H232.522V24.298H231.402V34ZM244.571 24.704C243.493 24.844 243.031 25.516 243.031 26.944V28.134H244.235V26.538H243.731V26.51C243.745 25.796 243.969 25.432 244.571 25.348V24.704ZM246.853 24.704C245.775 24.844 245.313 25.516 245.313 26.944V28.134H246.517V26.538H246.013V26.51C246.027 25.796 246.251 25.432 246.853 25.348V24.704ZM248.808 34H254.828V32.936H249.984V24.788H248.808V34ZM259.188 34.112C261.33 34.112 262.688 32.726 262.688 30.556C262.688 28.372 261.33 26.972 259.188 26.972C257.046 26.972 255.688 28.372 255.688 30.556C255.688 32.726 257.046 34.112 259.188 34.112ZM259.188 33.104C257.732 33.104 256.808 32.11 256.808 30.556C256.808 28.988 257.732 27.98 259.188 27.98C260.644 27.98 261.568 28.988 261.568 30.556C261.568 32.11 260.644 33.104 259.188 33.104ZM269.011 33.048H266.771C266.183 33.048 265.889 32.754 265.889 32.292C265.889 32.026 265.973 31.816 266.085 31.704C266.463 31.83 266.883 31.9 267.359 31.9C269.165 31.9 270.313 30.934 270.313 29.436C270.313 28.876 270.159 28.4 269.865 28.008C269.753 27.728 269.683 27.462 269.683 27.252C269.683 26.846 269.935 26.636 270.397 26.636C270.621 26.636 270.789 26.678 270.887 26.72V25.824C270.761 25.782 270.551 25.74 270.257 25.74C269.473 25.74 268.983 26.104 268.983 26.664C268.983 26.972 269.095 27.238 269.249 27.434V27.448C268.759 27.14 268.115 26.972 267.359 26.972C265.567 26.972 264.419 27.938 264.419 29.436C264.419 30.276 264.783 30.962 265.427 31.382V31.41C265.161 31.564 264.937 31.97 264.937 32.488C264.937 32.964 265.147 33.37 265.497 33.636V33.65C264.629 33.65 264.083 34.224 264.083 34.91C264.083 36.226 265.441 36.968 267.723 36.968C269.907 36.968 271.209 36.086 271.209 34.714C271.209 33.664 270.411 33.048 269.011 33.048ZM267.359 27.924C268.493 27.924 269.221 28.512 269.221 29.436C269.221 30.36 268.493 30.948 267.359 30.948C266.225 30.948 265.511 30.36 265.511 29.436C265.511 28.512 266.225 27.924 267.359 27.924ZM267.709 36.016C266.183 36.016 265.203 35.652 265.203 34.882C265.203 34.252 265.819 34 266.785 34H268.843C269.683 34 270.089 34.28 270.089 34.826C270.089 35.484 269.487 36.016 267.709 36.016ZM276.026 26.202H277.23V24.788H276.026V26.202ZM276.068 34H277.188V27.084H276.068V34ZM279.224 34H280.344V30.598C280.344 28.946 281.366 27.98 282.948 27.98C284.432 27.98 285.104 28.736 285.104 29.912V34H286.224V29.674C286.224 28.022 285.146 26.972 283.326 26.972C281.674 26.972 280.708 27.742 280.33 28.946H280.316L280.344 27.084H279.224V34ZM287.561 28.218C288.639 28.078 289.101 27.406 289.101 25.978V24.788H287.897V26.384H288.401V26.412C288.387 27.126 288.163 27.49 287.561 27.574V28.218ZM289.843 28.218C290.921 28.078 291.383 27.406 291.383 25.978V24.788H290.179V26.384H290.683V26.412C290.669 27.126 290.445 27.49 289.843 27.574V28.218ZM231.111 55.112C233.043 55.112 234.289 53.67 234.289 51.416C234.289 49.316 233.071 47.972 231.083 47.972C229.599 47.972 228.591 48.686 228.283 49.792H228.269C228.283 49.456 228.297 48.896 228.297 48.616V45.298H227.177V55H228.297C228.269 54.636 228.241 53.95 228.241 53.404H228.255C228.549 54.44 229.543 55.112 231.111 55.112ZM230.831 54.104C229.291 54.104 228.297 53.25 228.297 51.92V51.556C228.297 49.988 229.305 48.98 230.873 48.98C232.301 48.98 233.169 49.946 233.169 51.444C233.169 53.068 232.259 54.104 230.831 54.104ZM238.808 55.112C240.53 55.112 241.51 54.272 241.804 52.97H241.818C241.818 53.67 241.79 54.538 241.762 55H242.882V48.084H241.762V51.206C241.762 53.026 240.726 54.104 239.116 54.104C237.8 54.104 237.016 53.348 237.016 52.158V48.084H235.896V52.354C235.896 54.034 237.002 55.112 238.808 55.112ZM247.583 55.056C248.143 55.056 248.549 54.972 248.759 54.888V53.936C248.605 53.992 248.157 54.076 247.681 54.076C246.645 54.076 246.309 53.446 246.309 52.396V49.064H248.815V48.084H246.309V46.516H245.357L245.301 47.608C245.273 47.972 245.189 48.084 244.965 48.084H244.041V49.064H245.189V52.466C245.189 53.992 245.903 55.056 247.583 55.056ZM253.079 55.056C253.639 55.056 254.045 54.972 254.255 54.888V53.936C254.101 53.992 253.653 54.076 253.177 54.076C252.141 54.076 251.805 53.446 251.805 52.396V49.064H254.311V48.084H251.805V46.516H250.853L250.797 47.608C250.769 47.972 250.685 48.084 250.461 48.084H249.537V49.064H250.685V52.466C250.685 53.992 251.399 55.056 253.079 55.056ZM258.792 55.112C260.934 55.112 262.292 53.726 262.292 51.556C262.292 49.372 260.934 47.972 258.792 47.972C256.65 47.972 255.292 49.372 255.292 51.556C255.292 53.726 256.65 55.112 258.792 55.112ZM258.792 54.104C257.336 54.104 256.412 53.11 256.412 51.556C256.412 49.988 257.336 48.98 258.792 48.98C260.248 48.98 261.172 49.988 261.172 51.556C261.172 53.11 260.248 54.104 258.792 54.104ZM263.966 55H265.086V51.598C265.086 49.946 266.108 48.98 267.69 48.98C269.174 48.98 269.846 49.736 269.846 50.912V55H270.966V50.674C270.966 49.022 269.888 47.972 268.068 47.972C266.416 47.972 265.45 48.742 265.072 49.946H265.058L265.086 48.084H263.966V55Z" fill="black"/>
<rect x="649.5" y="123.5" width="115" height="54" fill="#F3F3F3" stroke="black"/>
<path d="M678.954 146.14C681.558 146.14 683.602 144.306 683.602 141.352C683.602 138.454 681.558 136.648 678.954 136.648C676.35 136.648 674.306 138.454 674.306 141.352C674.306 144.306 676.35 146.14 678.954 146.14ZM678.954 145.076C677.064 145.076 675.482 143.648 675.482 141.352C675.482 139.098 677.064 137.712 678.954 137.712C680.844 137.712 682.426 139.098 682.426 141.352C682.426 143.648 680.844 145.076 678.954 145.076ZM685.348 148.772H686.468V145.986C686.468 145.664 686.44 144.936 686.426 144.474H686.44C686.734 145.412 687.714 146.112 689.184 146.112C691.214 146.112 692.46 144.67 692.46 142.43C692.46 140.316 691.228 138.972 689.212 138.972C687.714 138.972 686.734 139.714 686.454 140.862H686.44L686.468 139.084H685.348V148.772ZM689.03 145.104C687.462 145.104 686.468 144.264 686.468 142.948V142.528C686.496 140.974 687.49 139.98 689.002 139.98C690.458 139.98 691.34 140.946 691.34 142.444C691.34 144.068 690.444 145.104 689.03 145.104ZM700.395 142.248C700.395 140.19 699.233 138.972 697.259 138.972C695.187 138.972 693.857 140.386 693.857 142.598C693.857 144.74 695.201 146.112 697.287 146.112C699.107 146.112 700.325 145.16 700.395 143.662H699.359C699.261 144.572 698.463 145.16 697.301 145.16C695.943 145.16 695.047 144.236 694.977 142.766H700.395V142.248ZM699.359 141.954H695.019C695.229 140.638 696.055 139.924 697.287 139.924C698.603 139.924 699.359 140.652 699.359 141.87V141.954ZM702.081 146H703.201V142.598C703.201 140.946 704.223 139.98 705.805 139.98C707.289 139.98 707.961 140.736 707.961 141.912V146H709.081V141.674C709.081 140.022 708.003 138.972 706.183 138.972C704.531 138.972 703.565 139.742 703.187 140.946H703.173L703.201 139.084H702.081V146ZM714.264 146H715.384V136.298H714.264V146ZM717.448 138.202H718.652V136.788H717.448V138.202ZM717.49 146H718.61V139.084H717.49V146ZM720.647 146H721.767V142.598C721.767 140.946 722.789 139.98 724.371 139.98C725.855 139.98 726.527 140.736 726.527 141.912V146H727.647V141.674C727.647 140.022 726.569 138.972 724.749 138.972C723.097 138.972 722.131 139.742 721.753 140.946H721.739L721.767 139.084H720.647V146ZM729.604 146H730.724V144.18L732.306 142.808L735.246 146H736.842L733.146 142.094L736.646 139.084H735.078L730.738 142.948H730.724V136.298H729.604V146ZM681.102 159.202H682.306V157.788H681.102V159.202ZM681.144 167H682.264V160.084H681.144V167ZM684.3 167H685.42V163.598C685.42 161.946 686.442 160.98 688.024 160.98C689.508 160.98 690.18 161.736 690.18 162.912V167H691.3V162.674C691.3 161.022 690.222 159.972 688.402 159.972C686.75 159.972 685.784 160.742 685.406 161.946H685.392L685.42 160.084H684.3V167ZM702.672 163.248C702.672 161.19 701.51 159.972 699.536 159.972C697.464 159.972 696.134 161.386 696.134 163.598C696.134 165.74 697.478 167.112 699.564 167.112C701.384 167.112 702.602 166.16 702.672 164.662H701.636C701.538 165.572 700.74 166.16 699.578 166.16C698.22 166.16 697.324 165.236 697.254 163.766H702.672V163.248ZM701.636 162.954H697.296C697.506 161.638 698.332 160.924 699.564 160.924C700.88 160.924 701.636 161.652 701.636 162.87V162.954ZM704.357 167H705.477V163.57C705.477 161.932 706.289 160.98 707.563 160.98C708.669 160.98 709.243 161.694 709.243 162.814V167H710.363V163.514C710.363 161.918 711.175 160.98 712.449 160.98C713.555 160.98 714.115 161.708 714.115 162.856V167H715.235V162.618C715.235 161.008 714.325 159.972 712.757 159.972C711.455 159.972 710.559 160.686 710.321 161.792H710.307C710.139 160.686 709.243 159.972 707.885 159.972C706.639 159.972 705.757 160.728 705.463 161.918H705.449L705.477 160.084H704.357V167ZM719.408 167.112C721.13 167.112 721.998 166.426 722.236 165.362H722.25C722.236 166.034 722.208 166.678 722.194 167H723.314V162.786C723.314 160.98 722.138 159.972 720.108 159.972C718.232 159.972 717.056 160.798 717.056 162.17C717.056 162.296 717.07 162.492 717.084 162.59H718.12C718.106 162.478 718.106 162.38 718.106 162.338C718.106 161.4 718.806 160.924 720.08 160.924C721.494 160.924 722.194 161.498 722.194 162.688V163.192H719.38C717.532 163.192 716.846 164.032 716.846 165.012C716.846 166.314 717.84 167.112 719.408 167.112ZM719.632 166.16C718.54 166.16 717.896 165.712 717.896 165.012C717.896 164.34 718.344 164.004 719.478 164.004H722.194V164.102C722.194 165.362 721.2 166.16 719.632 166.16ZM725.235 159.202H726.439V157.788H725.235V159.202ZM725.277 167H726.397V160.084H725.277V167ZM728.461 159.202H729.665V157.788H728.461V159.202ZM728.503 167H729.623V160.084H728.503V167ZM731.73 167H732.85V157.298H731.73V167Z" fill="black"/>
<rect x="420.5" y="123.5" width="115" height="54" fill="#F3F3F3" stroke="black"/>
<path d="M441.092 155H447.322V153.936H442.268V150.8H446.258V149.932H442.268V146.852H447.196V145.788H441.092V155ZM448.786 155H449.906V151.598C449.906 149.946 450.928 148.98 452.51 148.98C453.994 148.98 454.666 149.736 454.666 150.912V155H455.786V150.674C455.786 149.022 454.708 147.972 452.888 147.972C451.236 147.972 450.27 148.742 449.892 149.946H449.878L449.906 148.084H448.786V155ZM460.416 155.056C460.976 155.056 461.382 154.972 461.592 154.888V153.936C461.438 153.992 460.99 154.076 460.514 154.076C459.478 154.076 459.142 153.446 459.142 152.396V149.064H461.648V148.084H459.142V146.516H458.19L458.134 147.608C458.106 147.972 458.022 148.084 457.798 148.084H456.874V149.064H458.022V152.466C458.022 153.992 458.736 155.056 460.416 155.056ZM469.167 151.248C469.167 149.19 468.005 147.972 466.031 147.972C463.959 147.972 462.629 149.386 462.629 151.598C462.629 153.74 463.973 155.112 466.059 155.112C467.879 155.112 469.097 154.16 469.167 152.662H468.131C468.033 153.572 467.235 154.16 466.073 154.16C464.715 154.16 463.819 153.236 463.749 151.766H469.167V151.248ZM468.131 150.954H463.791C464.001 149.638 464.827 148.924 466.059 148.924C467.375 148.924 468.131 149.652 468.131 150.87V150.954ZM470.852 155H471.972V151.934C471.972 150.212 472.798 148.98 474.212 148.98C475.346 148.98 475.822 149.638 475.822 150.912C475.822 151.346 475.794 151.696 475.766 151.906H476.788C476.816 151.654 476.858 151.15 476.858 150.674C476.858 149.008 476.032 147.972 474.478 147.972C472.994 147.972 472.28 148.882 471.958 150.086H471.944L471.972 148.084H470.852V155ZM488.02 151.248C488.02 149.19 486.858 147.972 484.884 147.972C482.812 147.972 481.482 149.386 481.482 151.598C481.482 153.74 482.826 155.112 484.912 155.112C486.732 155.112 487.95 154.16 488.02 152.662H486.984C486.886 153.572 486.088 154.16 484.926 154.16C483.568 154.16 482.672 153.236 482.602 151.766H488.02V151.248ZM486.984 150.954H482.644C482.854 149.638 483.68 148.924 484.912 148.924C486.228 148.924 486.984 149.652 486.984 150.87V150.954ZM489.706 155H490.826V151.57C490.826 149.932 491.638 148.98 492.912 148.98C494.018 148.98 494.592 149.694 494.592 150.814V155H495.712V151.514C495.712 149.918 496.524 148.98 497.798 148.98C498.904 148.98 499.464 149.708 499.464 150.856V155H500.584V150.618C500.584 149.008 499.674 147.972 498.106 147.972C496.804 147.972 495.908 148.686 495.67 149.792H495.656C495.488 148.686 494.592 147.972 493.234 147.972C491.988 147.972 491.106 148.728 490.812 149.918H490.798L490.826 148.084H489.706V155ZM504.757 155.112C506.479 155.112 507.347 154.426 507.585 153.362H507.599C507.585 154.034 507.557 154.678 507.543 155H508.663V150.786C508.663 148.98 507.487 147.972 505.457 147.972C503.581 147.972 502.405 148.798 502.405 150.17C502.405 150.296 502.419 150.492 502.433 150.59H503.469C503.455 150.478 503.455 150.38 503.455 150.338C503.455 149.4 504.155 148.924 505.429 148.924C506.843 148.924 507.543 149.498 507.543 150.688V151.192H504.729C502.881 151.192 502.195 152.032 502.195 153.012C502.195 154.314 503.189 155.112 504.757 155.112ZM504.981 154.16C503.889 154.16 503.245 153.712 503.245 153.012C503.245 152.34 503.693 152.004 504.827 152.004H507.543V152.102C507.543 153.362 506.549 154.16 504.981 154.16ZM510.583 147.202H511.787V145.788H510.583V147.202ZM510.625 155H511.745V148.084H510.625V155ZM513.852 155H514.972V145.298H513.852V155Z" fill="black"/>
<rect x="191.5" y="123.5" width="115" height="54" fill="#F3F3F3" stroke="black"/>
<path d="M227.657 146H228.833V141.996H232.949V141.1H228.833V137.852H233.635V136.788H227.657V146ZM237.983 146.112C240.125 146.112 241.483 144.726 241.483 142.556C241.483 140.372 240.125 138.972 237.983 138.972C235.841 138.972 234.483 140.372 234.483 142.556C234.483 144.726 235.841 146.112 237.983 146.112ZM237.983 145.104C236.527 145.104 235.603 144.11 235.603 142.556C235.603 140.988 236.527 139.98 237.983 139.98C239.439 139.98 240.363 140.988 240.363 142.556C240.363 144.11 239.439 145.104 237.983 145.104ZM243.158 146H244.278V142.934C244.278 141.212 245.104 139.98 246.518 139.98C247.652 139.98 248.128 140.638 248.128 141.912C248.128 142.346 248.1 142.696 248.072 142.906H249.094C249.122 142.654 249.164 142.15 249.164 141.674C249.164 140.008 248.338 138.972 246.784 138.972C245.3 138.972 244.586 139.882 244.264 141.086H244.25L244.278 139.084H243.158V146ZM255.353 145.048H253.113C252.525 145.048 252.231 144.754 252.231 144.292C252.231 144.026 252.315 143.816 252.427 143.704C252.805 143.83 253.225 143.9 253.701 143.9C255.507 143.9 256.655 142.934 256.655 141.436C256.655 140.876 256.501 140.4 256.207 140.008C256.095 139.728 256.025 139.462 256.025 139.252C256.025 138.846 256.277 138.636 256.739 138.636C256.963 138.636 257.131 138.678 257.229 138.72V137.824C257.103 137.782 256.893 137.74 256.599 137.74C255.815 137.74 255.325 138.104 255.325 138.664C255.325 138.972 255.437 139.238 255.591 139.434V139.448C255.101 139.14 254.457 138.972 253.701 138.972C251.909 138.972 250.761 139.938 250.761 141.436C250.761 142.276 251.125 142.962 251.769 143.382V143.41C251.503 143.564 251.279 143.97 251.279 144.488C251.279 144.964 251.489 145.37 251.839 145.636V145.65C250.971 145.65 250.425 146.224 250.425 146.91C250.425 148.226 251.783 148.968 254.065 148.968C256.249 148.968 257.551 148.086 257.551 146.714C257.551 145.664 256.753 145.048 255.353 145.048ZM253.701 139.924C254.835 139.924 255.563 140.512 255.563 141.436C255.563 142.36 254.835 142.948 253.701 142.948C252.567 142.948 251.853 142.36 251.853 141.436C251.853 140.512 252.567 139.924 253.701 139.924ZM254.051 148.016C252.525 148.016 251.545 147.652 251.545 146.882C251.545 146.252 252.161 146 253.127 146H255.185C256.025 146 256.431 146.28 256.431 146.826C256.431 147.484 255.829 148.016 254.051 148.016ZM261.964 146.112C264.106 146.112 265.464 144.726 265.464 142.556C265.464 140.372 264.106 138.972 261.964 138.972C259.822 138.972 258.464 140.372 258.464 142.556C258.464 144.726 259.822 146.112 261.964 146.112ZM261.964 145.104C260.508 145.104 259.584 144.11 259.584 142.556C259.584 140.988 260.508 139.98 261.964 139.98C263.42 139.98 264.344 140.988 264.344 142.556C264.344 144.11 263.42 145.104 261.964 145.104ZM269.691 146.056C270.251 146.056 270.657 145.972 270.867 145.888V144.936C270.713 144.992 270.265 145.076 269.789 145.076C268.753 145.076 268.417 144.446 268.417 143.396V140.064H270.923V139.084H268.417V137.516H267.465L267.409 138.608C267.381 138.972 267.297 139.084 267.073 139.084H266.149V140.064H267.297V143.466C267.297 144.992 268.011 146.056 269.691 146.056ZM216.287 169.772H217.407V166.986C217.407 166.664 217.379 165.936 217.365 165.474H217.379C217.673 166.412 218.653 167.112 220.123 167.112C222.153 167.112 223.399 165.67 223.399 163.43C223.399 161.316 222.167 159.972 220.151 159.972C218.653 159.972 217.673 160.714 217.393 161.862H217.379L217.407 160.084H216.287V169.772ZM219.969 166.104C218.401 166.104 217.407 165.264 217.407 163.948V163.528C217.435 161.974 218.429 160.98 219.941 160.98C221.397 160.98 222.279 161.946 222.279 163.444C222.279 165.068 221.383 166.104 219.969 166.104ZM227.003 167.112C228.725 167.112 229.593 166.426 229.831 165.362H229.845C229.831 166.034 229.803 166.678 229.789 167H230.909V162.786C230.909 160.98 229.733 159.972 227.703 159.972C225.827 159.972 224.651 160.798 224.651 162.17C224.651 162.296 224.665 162.492 224.679 162.59H225.715C225.701 162.478 225.701 162.38 225.701 162.338C225.701 161.4 226.401 160.924 227.675 160.924C229.089 160.924 229.789 161.498 229.789 162.688V163.192H226.975C225.127 163.192 224.441 164.032 224.441 165.012C224.441 166.314 225.435 167.112 227.003 167.112ZM227.227 166.16C226.135 166.16 225.491 165.712 225.491 165.012C225.491 164.34 225.939 164.004 227.073 164.004H229.789V164.102C229.789 165.362 228.795 166.16 227.227 166.16ZM235.573 167.112C237.673 167.112 238.793 166.3 238.793 164.942C238.793 164.424 238.569 163.892 238.107 163.626C237.631 163.36 237.099 163.262 236.021 163.15C235.111 163.052 234.425 162.968 234.089 162.828C233.683 162.66 233.641 162.324 233.641 162.044C233.641 161.358 234.411 160.924 235.601 160.924C236.833 160.924 237.449 161.4 237.463 162.436H238.499C238.499 160.882 237.631 159.972 235.559 159.972C233.711 159.972 232.521 160.812 232.521 162.114C232.521 162.618 232.717 163.122 233.095 163.402C233.515 163.71 234.201 163.85 235.335 163.948C236.189 164.032 236.917 164.116 237.239 164.27C237.589 164.438 237.673 164.704 237.673 164.984C237.673 165.726 236.987 166.16 235.559 166.16C234.117 166.16 233.557 165.614 233.557 164.69H232.521C232.521 166.02 233.249 167.112 235.573 167.112ZM243.243 167.112C245.343 167.112 246.463 166.3 246.463 164.942C246.463 164.424 246.239 163.892 245.777 163.626C245.301 163.36 244.769 163.262 243.691 163.15C242.781 163.052 242.095 162.968 241.759 162.828C241.353 162.66 241.311 162.324 241.311 162.044C241.311 161.358 242.081 160.924 243.271 160.924C244.503 160.924 245.119 161.4 245.133 162.436H246.169C246.169 160.882 245.301 159.972 243.229 159.972C241.381 159.972 240.191 160.812 240.191 162.114C240.191 162.618 240.387 163.122 240.765 163.402C241.185 163.71 241.871 163.85 243.005 163.948C243.859 164.032 244.587 164.116 244.909 164.27C245.259 164.438 245.343 164.704 245.343 164.984C245.343 165.726 244.657 166.16 243.229 166.16C241.787 166.16 241.227 165.614 241.227 164.69H240.191C240.191 166.02 240.919 167.112 243.243 167.112ZM249.309 167H250.639L252.487 161.484H252.529L254.321 167H255.693L257.751 160.084H256.673L255.021 165.824H254.993L253.131 160.084H252.025L250.093 165.824H250.065L248.469 160.084H247.251L249.309 167ZM262.039 167.112C264.181 167.112 265.539 165.726 265.539 163.556C265.539 161.372 264.181 159.972 262.039 159.972C259.897 159.972 258.539 161.372 258.539 163.556C258.539 165.726 259.897 167.112 262.039 167.112ZM262.039 166.104C260.583 166.104 259.659 165.11 259.659 163.556C259.659 161.988 260.583 160.98 262.039 160.98C263.495 160.98 264.419 161.988 264.419 163.556C264.419 165.11 263.495 166.104 262.039 166.104ZM267.213 167H268.333V163.934C268.333 162.212 269.159 160.98 270.573 160.98C271.707 160.98 272.183 161.638 272.183 162.912C272.183 163.346 272.155 163.696 272.127 163.906H273.149C273.177 163.654 273.219 163.15 273.219 162.674C273.219 161.008 272.393 159.972 270.839 159.972C269.355 159.972 268.641 160.882 268.319 162.086H268.305L268.333 160.084H267.213V167ZM277.907 167.112C279.447 167.112 280.371 166.342 280.637 165.152H280.665C280.651 165.768 280.637 166.384 280.595 167H281.715V157.298H280.595V161.47H280.581C280.329 160.56 279.447 159.972 278.005 159.972C275.905 159.972 274.617 161.442 274.617 163.5C274.617 165.656 275.905 167.112 277.907 167.112ZM278.089 166.104C276.661 166.104 275.737 165.04 275.737 163.5C275.737 162.058 276.661 160.98 278.103 160.98C279.629 160.98 280.595 161.876 280.595 163.276V163.626C280.595 165.138 279.615 166.104 278.089 166.104Z" fill="black"/>
<path d="M917.354 37.3536C917.549 37.1583 917.549 36.8417 917.354 36.6464L914.172 33.4645C913.976 33.2692 913.66 33.2692 913.464 33.4645C913.269 33.6597 913.269 33.9763 913.464 34.1716L916.293 37L913.464 39.8284C913.269 40.0237 913.269 40.3403 913.464 40.5355C913.66 40.7308 913.976 40.7308 914.172 40.5355L917.354 37.3536ZM770 37.5H917V36.5H770V37.5Z" fill="white"/>
<path d="M420.354 148.354C420.549 148.158 420.549 147.842 420.354 147.646L417.172 144.464C416.976 144.269 416.66 144.269 416.464 144.464C416.269 144.66 416.269 144.976 416.464 145.172L419.293 148L416.464 150.828C416.269 151.024 416.269 151.34 416.464 151.536C416.66 151.731 416.976 151.731 417.172 151.536L420.354 148.354ZM307 148.5H420V147.5H307V148.5Z" fill="white"/>
<path d="M649.354 148.354C649.549 148.158 649.549 147.842 649.354 147.646L646.172 144.464C645.976 144.269 645.66 144.269 645.464 144.464C645.269 144.66 645.269 144.976 645.464 145.172L648.293 148L645.464 150.828C645.269 151.024 645.269 151.34 645.464 151.536C645.66 151.731 645.976 151.731 646.172 151.536L649.354 148.354ZM536 148.5H649V147.5H536V148.5Z" fill="white"/>
<path d="M900.354 148.354C900.549 148.158 900.549 147.842 900.354 147.646L897.172 144.464C896.976 144.269 896.66 144.269 896.464 144.464C896.269 144.66 896.269 144.976 896.464 145.172L899.293 148L896.464 150.828C896.269 151.024 896.269 151.34 896.464 151.536C896.66 151.731 896.976 151.731 897.172 151.536L900.354 148.354ZM765 148.5H900V147.5H765V148.5Z" fill="white"/>
<path d="M644.354 37.3536C644.549 37.1583 644.549 36.8417 644.354 36.6464L641.172 33.4645C640.976 33.2692 640.66 33.2692 640.464 33.4645C640.269 33.6597 640.269 33.9763 640.464 34.1716L643.293 37L640.464 39.8284C640.269 40.0237 640.269 40.3403 640.464 40.5355C640.66 40.7308 640.976 40.7308 641.172 40.5355L644.354 37.3536ZM307 37.5H644V36.5H307V37.5Z" fill="white"/>
<rect x="644.5" y="10.5" width="125" height="54" fill="#F3F3F3" stroke="black"/>
<path d="M652.29 33H658.52V31.936H653.466V28.8H657.456V27.932H653.466V24.852H658.394V23.788H652.29V33ZM659.984 33H661.104V29.598C661.104 27.946 662.126 26.98 663.708 26.98C665.192 26.98 665.864 27.736 665.864 28.912V33H666.984V28.674C666.984 27.022 665.906 25.972 664.086 25.972C662.434 25.972 661.468 26.742 661.09 27.946H661.076L661.104 26.084H659.984V33ZM671.615 33.056C672.175 33.056 672.581 32.972 672.791 32.888V31.936C672.637 31.992 672.189 32.076 671.713 32.076C670.677 32.076 670.341 31.446 670.341 30.396V27.064H672.847V26.084H670.341V24.516H669.389L669.333 25.608C669.305 25.972 669.221 26.084 668.997 26.084H668.073V27.064H669.221V30.466C669.221 31.992 669.935 33.056 671.615 33.056ZM680.365 29.248C680.365 27.19 679.203 25.972 677.229 25.972C675.157 25.972 673.827 27.386 673.827 29.598C673.827 31.74 675.171 33.112 677.257 33.112C679.077 33.112 680.295 32.16 680.365 30.662H679.329C679.231 31.572 678.433 32.16 677.271 32.16C675.913 32.16 675.017 31.236 674.947 29.766H680.365V29.248ZM679.329 28.954H674.989C675.199 27.638 676.025 26.924 677.257 26.924C678.573 26.924 679.329 27.652 679.329 28.87V28.954ZM682.05 33H683.17V29.934C683.17 28.212 683.996 26.98 685.41 26.98C686.544 26.98 687.02 27.638 687.02 28.912C687.02 29.346 686.992 29.696 686.964 29.906H687.986C688.014 29.654 688.056 29.15 688.056 28.674C688.056 27.008 687.23 25.972 685.676 25.972C684.192 25.972 683.478 26.882 683.156 28.086H683.142L683.17 26.084H682.05V33ZM695.802 33.112C697.524 33.112 698.504 32.272 698.798 30.97H698.812C698.812 31.67 698.784 32.538 698.756 33H699.876V26.084H698.756V29.206C698.756 31.026 697.72 32.104 696.11 32.104C694.794 32.104 694.01 31.348 694.01 30.158V26.084H692.89V30.354C692.89 32.034 693.996 33.112 695.802 33.112ZM704.606 33.112C706.706 33.112 707.826 32.3 707.826 30.942C707.826 30.424 707.602 29.892 707.14 29.626C706.664 29.36 706.132 29.262 705.054 29.15C704.144 29.052 703.458 28.968 703.122 28.828C702.716 28.66 702.674 28.324 702.674 28.044C702.674 27.358 703.444 26.924 704.634 26.924C705.866 26.924 706.482 27.4 706.496 28.436H707.532C707.532 26.882 706.664 25.972 704.592 25.972C702.744 25.972 701.554 26.812 701.554 28.114C701.554 28.618 701.75 29.122 702.128 29.402C702.548 29.71 703.234 29.85 704.368 29.948C705.222 30.032 705.95 30.116 706.272 30.27C706.622 30.438 706.706 30.704 706.706 30.984C706.706 31.726 706.02 32.16 704.592 32.16C703.15 32.16 702.59 31.614 702.59 30.69H701.554C701.554 32.02 702.282 33.112 704.606 33.112ZM715.761 29.248C715.761 27.19 714.599 25.972 712.625 25.972C710.553 25.972 709.223 27.386 709.223 29.598C709.223 31.74 710.567 33.112 712.653 33.112C714.473 33.112 715.691 32.16 715.761 30.662H714.725C714.627 31.572 713.829 32.16 712.667 32.16C711.309 32.16 710.413 31.236 710.343 29.766H715.761V29.248ZM714.725 28.954H710.385C710.595 27.638 711.421 26.924 712.653 26.924C713.969 26.924 714.725 27.652 714.725 28.87V28.954ZM717.447 33H718.567V29.934C718.567 28.212 719.393 26.98 720.807 26.98C721.941 26.98 722.417 27.638 722.417 28.912C722.417 29.346 722.389 29.696 722.361 29.906H723.383C723.411 29.654 723.453 29.15 723.453 28.674C723.453 27.008 722.627 25.972 721.073 25.972C719.589 25.972 718.875 26.882 718.553 28.086H718.539L718.567 26.084H717.447V33ZM725.13 33H726.25V29.598C726.25 27.946 727.272 26.98 728.854 26.98C730.338 26.98 731.01 27.736 731.01 28.912V33H732.13V28.674C732.13 27.022 731.052 25.972 729.232 25.972C727.58 25.972 726.614 26.742 726.236 27.946H726.222L726.25 26.084H725.13V33ZM736.299 33.112C738.021 33.112 738.889 32.426 739.127 31.362H739.141C739.127 32.034 739.099 32.678 739.085 33H740.205V28.786C740.205 26.98 739.029 25.972 736.999 25.972C735.123 25.972 733.947 26.798 733.947 28.17C733.947 28.296 733.961 28.492 733.975 28.59H735.011C734.997 28.478 734.997 28.38 734.997 28.338C734.997 27.4 735.697 26.924 736.971 26.924C738.385 26.924 739.085 27.498 739.085 28.688V29.192H736.271C734.423 29.192 733.737 30.032 733.737 31.012C733.737 32.314 734.731 33.112 736.299 33.112ZM736.523 32.16C735.431 32.16 734.787 31.712 734.787 31.012C734.787 30.34 735.235 30.004 736.369 30.004H739.085V30.102C739.085 31.362 738.091 32.16 736.523 32.16ZM742.097 33H743.217V29.57C743.217 27.932 744.029 26.98 745.303 26.98C746.409 26.98 746.983 27.694 746.983 28.814V33H748.103V29.514C748.103 27.918 748.915 26.98 750.189 26.98C751.295 26.98 751.855 27.708 751.855 28.856V33H752.975V28.618C752.975 27.008 752.065 25.972 750.497 25.972C749.195 25.972 748.299 26.686 748.061 27.792H748.047C747.879 26.686 746.983 25.972 745.625 25.972C744.379 25.972 743.497 26.728 743.203 27.918H743.189L743.217 26.084H742.097V33ZM761.125 29.248C761.125 27.19 759.963 25.972 757.989 25.972C755.917 25.972 754.587 27.386 754.587 29.598C754.587 31.74 755.931 33.112 758.017 33.112C759.837 33.112 761.055 32.16 761.125 30.662H760.089C759.991 31.572 759.193 32.16 758.031 32.16C756.673 32.16 755.777 31.236 755.707 29.766H761.125V29.248ZM760.089 28.954H755.749C755.959 27.638 756.785 26.924 758.017 26.924C759.333 26.924 760.089 27.652 760.089 28.87V28.954ZM661.48 54.112C663.202 54.112 664.07 53.426 664.308 52.362H664.322C664.308 53.034 664.28 53.678 664.266 54H665.386V49.786C665.386 47.98 664.21 46.972 662.18 46.972C660.304 46.972 659.128 47.798 659.128 49.17C659.128 49.296 659.142 49.492 659.156 49.59H660.192C660.178 49.478 660.178 49.38 660.178 49.338C660.178 48.4 660.878 47.924 662.152 47.924C663.566 47.924 664.266 48.498 664.266 49.688V50.192H661.452C659.604 50.192 658.918 51.032 658.918 52.012C658.918 53.314 659.912 54.112 661.48 54.112ZM661.704 53.16C660.612 53.16 659.968 52.712 659.968 52.012C659.968 51.34 660.416 51.004 661.55 51.004H664.266V51.102C664.266 52.362 663.272 53.16 661.704 53.16ZM667.278 54H668.398V50.598C668.398 48.946 669.42 47.98 671.002 47.98C672.486 47.98 673.158 48.736 673.158 49.912V54H674.278V49.674C674.278 48.022 673.2 46.972 671.38 46.972C669.728 46.972 668.762 47.742 668.384 48.946H668.37L668.398 47.084H667.278V54ZM679.175 54.112C680.715 54.112 681.639 53.342 681.905 52.152H681.933C681.919 52.768 681.905 53.384 681.863 54H682.983V44.298H681.863V48.47H681.849C681.597 47.56 680.715 46.972 679.273 46.972C677.173 46.972 675.885 48.442 675.885 50.5C675.885 52.656 677.173 54.112 679.175 54.112ZM679.357 53.104C677.929 53.104 677.005 52.04 677.005 50.5C677.005 49.058 677.929 47.98 679.371 47.98C680.897 47.98 681.863 48.876 681.863 50.276V50.626C681.863 52.138 680.883 53.104 679.357 53.104ZM688.307 56.772H689.427V53.986C689.427 53.664 689.399 52.936 689.385 52.474H689.399C689.693 53.412 690.673 54.112 692.143 54.112C694.173 54.112 695.419 52.67 695.419 50.43C695.419 48.316 694.187 46.972 692.171 46.972C690.673 46.972 689.693 47.714 689.413 48.862H689.399L689.427 47.084H688.307V56.772ZM691.989 53.104C690.421 53.104 689.427 52.264 689.427 50.948V50.528C689.455 48.974 690.449 47.98 691.961 47.98C693.417 47.98 694.299 48.946 694.299 50.444C694.299 52.068 693.403 53.104 691.989 53.104ZM699.023 54.112C700.745 54.112 701.613 53.426 701.851 52.362H701.865C701.851 53.034 701.823 53.678 701.809 54H702.929V49.786C702.929 47.98 701.753 46.972 699.723 46.972C697.847 46.972 696.671 47.798 696.671 49.17C696.671 49.296 696.685 49.492 696.699 49.59H697.735C697.721 49.478 697.721 49.38 697.721 49.338C697.721 48.4 698.421 47.924 699.695 47.924C701.109 47.924 701.809 48.498 701.809 49.688V50.192H698.995C697.147 50.192 696.461 51.032 696.461 52.012C696.461 53.314 697.455 54.112 699.023 54.112ZM699.247 53.16C698.155 53.16 697.511 52.712 697.511 52.012C697.511 51.34 697.959 51.004 699.093 51.004H701.809V51.102C701.809 52.362 700.815 53.16 699.247 53.16ZM707.593 54.112C709.693 54.112 710.813 53.3 710.813 51.942C710.813 51.424 710.589 50.892 710.127 50.626C709.651 50.36 709.119 50.262 708.041 50.15C707.131 50.052 706.445 49.968 706.109 49.828C705.703 49.66 705.661 49.324 705.661 49.044C705.661 48.358 706.431 47.924 707.621 47.924C708.853 47.924 709.469 48.4 709.483 49.436H710.519C710.519 47.882 709.651 46.972 707.579 46.972C705.731 46.972 704.541 47.812 704.541 49.114C704.541 49.618 704.737 50.122 705.115 50.402C705.535 50.71 706.221 50.85 707.355 50.948C708.209 51.032 708.937 51.116 709.259 51.27C709.609 51.438 709.693 51.704 709.693 51.984C709.693 52.726 709.007 53.16 707.579 53.16C706.137 53.16 705.577 52.614 705.577 51.69H704.541C704.541 53.02 705.269 54.112 707.593 54.112ZM715.263 54.112C717.363 54.112 718.483 53.3 718.483 51.942C718.483 51.424 718.259 50.892 717.797 50.626C717.321 50.36 716.789 50.262 715.711 50.15C714.801 50.052 714.115 49.968 713.779 49.828C713.373 49.66 713.331 49.324 713.331 49.044C713.331 48.358 714.101 47.924 715.291 47.924C716.523 47.924 717.139 48.4 717.153 49.436H718.189C718.189 47.882 717.321 46.972 715.249 46.972C713.401 46.972 712.211 47.812 712.211 49.114C712.211 49.618 712.407 50.122 712.785 50.402C713.205 50.71 713.891 50.85 715.025 50.948C715.879 51.032 716.607 51.116 716.929 51.27C717.279 51.438 717.363 51.704 717.363 51.984C717.363 52.726 716.677 53.16 715.249 53.16C713.807 53.16 713.247 52.614 713.247 51.69H712.211C712.211 53.02 712.939 54.112 715.263 54.112ZM721.329 54H722.659L724.507 48.484H724.549L726.341 54H727.713L729.771 47.084H728.693L727.041 52.824H727.013L725.151 47.084H724.045L722.113 52.824H722.085L720.489 47.084H719.271L721.329 54ZM734.058 54.112C736.2 54.112 737.558 52.726 737.558 50.556C737.558 48.372 736.2 46.972 734.058 46.972C731.916 46.972 730.558 48.372 730.558 50.556C730.558 52.726 731.916 54.112 734.058 54.112ZM734.058 53.104C732.602 53.104 731.678 52.11 731.678 50.556C731.678 48.988 732.602 47.98 734.058 47.98C735.514 47.98 736.438 48.988 736.438 50.556C736.438 52.11 735.514 53.104 734.058 53.104ZM739.233 54H740.353V50.934C740.353 49.212 741.179 47.98 742.593 47.98C743.727 47.98 744.203 48.638 744.203 49.912C744.203 50.346 744.175 50.696 744.147 50.906H745.169C745.197 50.654 745.239 50.15 745.239 49.674C745.239 48.008 744.413 46.972 742.859 46.972C741.375 46.972 740.661 47.882 740.339 49.086H740.325L740.353 47.084H739.233V54ZM749.927 54.112C751.467 54.112 752.391 53.342 752.657 52.152H752.685C752.671 52.768 752.657 53.384 752.615 54H753.735V44.298H752.615V48.47H752.601C752.349 47.56 751.467 46.972 750.025 46.972C747.925 46.972 746.637 48.442 746.637 50.5C746.637 52.656 747.925 54.112 749.927 54.112ZM750.109 53.104C748.681 53.104 747.757 52.04 747.757 50.5C747.757 49.058 748.681 47.98 750.123 47.98C751.649 47.98 752.615 48.876 752.615 50.276V50.626C752.615 52.138 751.635 53.104 750.109 53.104Z" fill="black"/>
<path d="M976.354 79.6464C976.158 79.4512 975.842 79.4512 975.646 79.6464L972.464 82.8284C972.269 83.0237 972.269 83.3403 972.464 83.5355C972.66 83.7308 972.976 83.7308 973.172 83.5355L976 80.7071L978.828 83.5355C979.024 83.7308 979.34 83.7308 979.536 83.5355C979.731 83.3403 979.731 83.0237 979.536 82.8284L976.354 79.6464ZM976.5 123L976.5 80L975.5 80L975.5 123L976.5 123Z" fill="white"/>
<rect x="900.5" y="123.5" width="150" height="54" fill="#F3F3F3" stroke="black"/>
<path d="M906.962 146H913.192V144.936H908.138V141.8H912.128V140.932H908.138V137.852H913.066V136.788H906.962V146ZM914.656 146H915.776V142.598C915.776 140.946 916.798 139.98 918.38 139.98C919.864 139.98 920.536 140.736 920.536 141.912V146H921.656V141.674C921.656 140.022 920.578 138.972 918.758 138.972C917.106 138.972 916.14 139.742 915.762 140.946H915.748L915.776 139.084H914.656V146ZM926.287 146.056C926.847 146.056 927.253 145.972 927.463 145.888V144.936C927.309 144.992 926.861 145.076 926.385 145.076C925.349 145.076 925.013 144.446 925.013 143.396V140.064H927.519V139.084H925.013V137.516H924.061L924.005 138.608C923.977 138.972 923.893 139.084 923.669 139.084H922.745V140.064H923.893V143.466C923.893 144.992 924.607 146.056 926.287 146.056ZM935.037 142.248C935.037 140.19 933.875 138.972 931.901 138.972C929.829 138.972 928.499 140.386 928.499 142.598C928.499 144.74 929.843 146.112 931.929 146.112C933.749 146.112 934.967 145.16 935.037 143.662H934.001C933.903 144.572 933.105 145.16 931.943 145.16C930.585 145.16 929.689 144.236 929.619 142.766H935.037V142.248ZM934.001 141.954H929.661C929.871 140.638 930.697 139.924 931.929 139.924C933.245 139.924 934.001 140.652 934.001 141.87V141.954ZM936.722 146H937.842V142.934C937.842 141.212 938.668 139.98 940.082 139.98C941.216 139.98 941.692 140.638 941.692 141.912C941.692 142.346 941.664 142.696 941.636 142.906H942.658C942.686 142.654 942.728 142.15 942.728 141.674C942.728 140.008 941.902 138.972 940.348 138.972C938.864 138.972 938.15 139.882 937.828 141.086H937.814L937.842 139.084H936.722V146ZM947.632 146H948.752V142.598C948.752 140.946 949.774 139.98 951.356 139.98C952.84 139.98 953.512 140.736 953.512 141.912V146H954.632V141.674C954.632 140.022 953.554 138.972 951.734 138.972C950.082 138.972 949.116 139.742 948.738 140.946H948.724L948.752 139.084H947.632V146ZM962.777 142.248C962.777 140.19 961.615 138.972 959.641 138.972C957.569 138.972 956.239 140.386 956.239 142.598C956.239 144.74 957.583 146.112 959.669 146.112C961.489 146.112 962.707 145.16 962.777 143.662H961.741C961.643 144.572 960.845 145.16 959.683 145.16C958.325 145.16 957.429 144.236 957.359 142.766H962.777V142.248ZM961.741 141.954H957.401C957.611 140.638 958.437 139.924 959.669 139.924C960.985 139.924 961.741 140.652 961.741 141.87V141.954ZM965.63 146H966.96L968.808 140.484H968.85L970.642 146H972.014L974.072 139.084H972.994L971.342 144.824H971.314L969.452 139.084H968.346L966.414 144.824H966.386L964.79 139.084H963.572L965.63 146ZM978.683 148.772H979.803V145.986C979.803 145.664 979.775 144.936 979.761 144.474H979.775C980.069 145.412 981.049 146.112 982.519 146.112C984.549 146.112 985.795 144.67 985.795 142.43C985.795 140.316 984.563 138.972 982.547 138.972C981.049 138.972 980.069 139.714 979.789 140.862H979.775L979.803 139.084H978.683V148.772ZM982.365 145.104C980.797 145.104 979.803 144.264 979.803 142.948V142.528C979.831 140.974 980.825 139.98 982.337 139.98C983.793 139.98 984.675 140.946 984.675 142.444C984.675 144.068 983.779 145.104 982.365 145.104ZM989.399 146.112C991.121 146.112 991.989 145.426 992.227 144.362H992.241C992.227 145.034 992.199 145.678 992.185 146H993.305V141.786C993.305 139.98 992.129 138.972 990.099 138.972C988.223 138.972 987.047 139.798 987.047 141.17C987.047 141.296 987.061 141.492 987.075 141.59H988.111C988.097 141.478 988.097 141.38 988.097 141.338C988.097 140.4 988.797 139.924 990.071 139.924C991.485 139.924 992.185 140.498 992.185 141.688V142.192H989.371C987.523 142.192 986.837 143.032 986.837 144.012C986.837 145.314 987.831 146.112 989.399 146.112ZM989.623 145.16C988.531 145.16 987.887 144.712 987.887 144.012C987.887 143.34 988.335 143.004 989.469 143.004H992.185V143.102C992.185 144.362 991.191 145.16 989.623 145.16ZM997.969 146.112C1000.07 146.112 1001.19 145.3 1001.19 143.942C1001.19 143.424 1000.96 142.892 1000.5 142.626C1000.03 142.36 999.495 142.262 998.417 142.15C997.507 142.052 996.821 141.968 996.485 141.828C996.079 141.66 996.037 141.324 996.037 141.044C996.037 140.358 996.807 139.924 997.997 139.924C999.229 139.924 999.845 140.4 999.859 141.436H1000.89C1000.89 139.882 1000.03 138.972 997.955 138.972C996.107 138.972 994.917 139.812 994.917 141.114C994.917 141.618 995.113 142.122 995.491 142.402C995.911 142.71 996.597 142.85 997.731 142.948C998.585 143.032 999.313 143.116 999.635 143.27C999.985 143.438 1000.07 143.704 1000.07 143.984C1000.07 144.726 999.383 145.16 997.955 145.16C996.513 145.16 995.953 144.614 995.953 143.69H994.917C994.917 145.02 995.645 146.112 997.969 146.112ZM1005.64 146.112C1007.74 146.112 1008.86 145.3 1008.86 143.942C1008.86 143.424 1008.63 142.892 1008.17 142.626C1007.7 142.36 1007.16 142.262 1006.09 142.15C1005.18 142.052 1004.49 141.968 1004.15 141.828C1003.75 141.66 1003.71 141.324 1003.71 141.044C1003.71 140.358 1004.48 139.924 1005.67 139.924C1006.9 139.924 1007.51 140.4 1007.53 141.436H1008.56C1008.56 139.882 1007.7 138.972 1005.62 138.972C1003.78 138.972 1002.59 139.812 1002.59 141.114C1002.59 141.618 1002.78 142.122 1003.16 142.402C1003.58 142.71 1004.27 142.85 1005.4 142.948C1006.25 143.032 1006.98 143.116 1007.3 143.27C1007.65 143.438 1007.74 143.704 1007.74 143.984C1007.74 144.726 1007.05 145.16 1005.62 145.16C1004.18 145.16 1003.62 144.614 1003.62 143.69H1002.59C1002.59 145.02 1003.31 146.112 1005.64 146.112ZM1011.7 146H1013.03L1014.88 140.484H1014.92L1016.72 146H1018.09L1020.15 139.084H1019.07L1017.42 144.824H1017.39L1015.53 139.084H1014.42L1012.49 144.824H1012.46L1010.86 139.084H1009.65L1011.7 146ZM1024.43 146.112C1026.58 146.112 1027.93 144.726 1027.93 142.556C1027.93 140.372 1026.58 138.972 1024.43 138.972C1022.29 138.972 1020.93 140.372 1020.93 142.556C1020.93 144.726 1022.29 146.112 1024.43 146.112ZM1024.43 145.104C1022.98 145.104 1022.05 144.11 1022.05 142.556C1022.05 140.988 1022.98 139.98 1024.43 139.98C1025.89 139.98 1026.81 140.988 1026.81 142.556C1026.81 144.11 1025.89 145.104 1024.43 145.104ZM1029.61 146H1030.73V142.934C1030.73 141.212 1031.55 139.98 1032.97 139.98C1034.1 139.98 1034.58 140.638 1034.58 141.912C1034.58 142.346 1034.55 142.696 1034.52 142.906H1035.54C1035.57 142.654 1035.61 142.15 1035.61 141.674C1035.61 140.008 1034.79 138.972 1033.23 138.972C1031.75 138.972 1031.04 139.882 1030.71 141.086H1030.7L1030.73 139.084H1029.61V146ZM1040.3 146.112C1041.84 146.112 1042.77 145.342 1043.03 144.152H1043.06C1043.05 144.768 1043.03 145.384 1042.99 146H1044.11V136.298H1042.99V140.47H1042.98C1042.72 139.56 1041.84 138.972 1040.4 138.972C1038.3 138.972 1037.01 140.442 1037.01 142.5C1037.01 144.656 1038.3 146.112 1040.3 146.112ZM1040.48 145.104C1039.06 145.104 1038.13 144.04 1038.13 142.5C1038.13 141.058 1039.06 139.98 1040.5 139.98C1042.02 139.98 1042.99 140.876 1042.99 142.276V142.626C1042.99 144.138 1042.01 145.104 1040.48 145.104ZM937.056 167.112C938.778 167.112 939.646 166.426 939.884 165.362H939.898C939.884 166.034 939.856 166.678 939.842 167H940.962V162.786C940.962 160.98 939.786 159.972 937.756 159.972C935.88 159.972 934.704 160.798 934.704 162.17C934.704 162.296 934.718 162.492 934.732 162.59H935.768C935.754 162.478 935.754 162.38 935.754 162.338C935.754 161.4 936.454 160.924 937.728 160.924C939.142 160.924 939.842 161.498 939.842 162.688V163.192H937.028C935.18 163.192 934.494 164.032 934.494 165.012C934.494 166.314 935.488 167.112 937.056 167.112ZM937.28 166.16C936.188 166.16 935.544 165.712 935.544 165.012C935.544 164.34 935.992 164.004 937.126 164.004H939.842V164.102C939.842 165.362 938.848 166.16 937.28 166.16ZM942.854 167H943.974V163.598C943.974 161.946 944.996 160.98 946.578 160.98C948.062 160.98 948.734 161.736 948.734 162.912V167H949.854V162.674C949.854 161.022 948.776 159.972 946.956 159.972C945.304 159.972 944.338 160.742 943.96 161.946H943.946L943.974 160.084H942.854V167ZM954.751 167.112C956.291 167.112 957.215 166.342 957.481 165.152H957.509C957.495 165.768 957.481 166.384 957.439 167H958.559V157.298H957.439V161.47H957.425C957.173 160.56 956.291 159.972 954.849 159.972C952.749 159.972 951.461 161.442 951.461 163.5C951.461 165.656 952.749 167.112 954.751 167.112ZM954.933 166.104C953.505 166.104 952.581 165.04 952.581 163.5C952.581 162.058 953.505 160.98 954.947 160.98C956.473 160.98 957.439 161.876 957.439 163.276V163.626C957.439 165.138 956.459 166.104 954.933 166.104ZM966.837 167.112C968.755 167.112 969.987 165.992 969.987 164.256H968.951C968.937 165.39 968.125 166.104 966.865 166.104C965.521 166.104 964.653 165.11 964.653 163.542C964.653 161.974 965.549 160.98 966.935 160.98C968.139 160.98 968.909 161.708 968.923 162.856H969.959C969.959 161.092 968.769 159.972 966.921 159.972C964.849 159.972 963.533 161.358 963.533 163.542C963.533 165.726 964.821 167.112 966.837 167.112ZM974.963 167.112C977.105 167.112 978.463 165.726 978.463 163.556C978.463 161.372 977.105 159.972 974.963 159.972C972.821 159.972 971.463 161.372 971.463 163.556C971.463 165.726 972.821 167.112 974.963 167.112ZM974.963 166.104C973.507 166.104 972.583 165.11 972.583 163.556C972.583 161.988 973.507 160.98 974.963 160.98C976.419 160.98 977.343 161.988 977.343 163.556C977.343 165.11 976.419 166.104 974.963 166.104ZM980.137 167H981.257V163.598C981.257 161.946 982.279 160.98 983.861 160.98C985.345 160.98 986.017 161.736 986.017 162.912V167H987.137V162.674C987.137 161.022 986.059 159.972 984.239 159.972C982.587 159.972 981.621 160.742 981.243 161.946H981.229L981.257 160.084H980.137V167ZM989.388 167H990.508V161.064H993.084V160.084H990.508V159.398C990.508 158.516 991.012 158.026 991.894 158.026C992.37 158.026 992.72 158.11 992.972 158.194V157.2C992.72 157.116 992.286 157.018 991.754 157.018C990.312 157.018 989.388 157.886 989.388 159.398V160.084H988.226V161.064H989.388V167ZM994.54 159.202H995.744V157.788H994.54V159.202ZM994.582 167H995.702V160.084H994.582V167ZM997.733 167H998.853V163.934C998.853 162.212 999.679 160.98 1001.09 160.98C1002.23 160.98 1002.7 161.638 1002.7 162.912C1002.7 163.346 1002.67 163.696 1002.65 163.906H1003.67C1003.7 163.654 1003.74 163.15 1003.74 162.674C1003.74 161.008 1002.91 159.972 1001.36 159.972C999.875 159.972 999.161 160.882 998.839 162.086H998.825L998.853 160.084H997.733V167ZM1005.42 167H1006.54V163.57C1006.54 161.932 1007.35 160.98 1008.62 160.98C1009.73 160.98 1010.3 161.694 1010.3 162.814V167H1011.42V163.514C1011.42 161.918 1012.23 160.98 1013.51 160.98C1014.61 160.98 1015.17 161.708 1015.17 162.856V167H1016.29V162.618C1016.29 161.008 1015.38 159.972 1013.82 159.972C1012.51 159.972 1011.62 160.686 1011.38 161.792H1011.37C1011.2 160.686 1010.3 159.972 1008.94 159.972C1007.7 159.972 1006.82 160.728 1006.52 161.918H1006.51L1006.54 160.084H1005.42V167Z" fill="black"/>
<line x1="249.5" y1="66" x2="249.5" y2="70" stroke="white"/>
<line x1="249.5" y1="72" x2="249.5" y2="76" stroke="white"/>
<line x1="249.5" y1="78" x2="249.5" y2="82" stroke="white"/>
<line x1="249.5" y1="84" x2="249.5" y2="88" stroke="white"/>
<line x1="249.5" y1="90" x2="249.5" y2="94" stroke="white"/>
<line x1="249.5" y1="96" x2="249.5" y2="100" stroke="white"/>
<line x1="249.5" y1="102" x2="249.5" y2="106" stroke="white"/>
<line x1="249.5" y1="108" x2="249.5" y2="112" stroke="white"/>
<line x1="249.5" y1="114" x2="249.5" y2="118" stroke="white"/>
<line x1="249.5" y1="120" x2="249.5" y2="124" stroke="white"/>
</svg>
