<svg width="42" height="70" viewBox="0 0 42 70" fill="none" xmlns="http://www.w3.org/2000/svg">
<path d="M35.5102 0.10001H6.51019C5.73512 0.097359 4.9672 0.24823 4.25074 0.543918C3.53428 0.839605 2.88348 1.27425 2.33588 1.82278C1.78828 2.37131 1.35474 3.02285 1.06027 3.73981C0.765797 4.45677 0.616228 5.22494 0.620194 6.00001V64C0.620194 65.5568 1.23864 67.0499 2.33948 68.1507C3.44031 69.2516 4.93337 69.87 6.49019 69.87H35.4902C36.2627 69.8726 37.0282 69.7227 37.7427 69.4289C38.4572 69.1351 39.1066 68.7032 39.6538 68.1578C40.201 67.6125 40.6352 66.9645 40.9315 66.251C41.2277 65.5375 41.3802 64.7726 41.3802 64V6.00001C41.3841 5.22663 41.2352 4.46009 40.942 3.74444C40.6488 3.0288 40.217 2.37815 39.6716 1.82989C39.1261 1.28162 38.4776 0.846559 37.7635 0.549689C37.0494 0.25282 36.2836 0.0999998 35.5102 0.10001ZM37.3802 64C37.3802 64.496 37.1832 64.9716 36.8325 65.3223C36.4818 65.673 36.0062 65.87 35.5102 65.87H6.51019C6.26294 65.8727 6.01762 65.8262 5.78843 65.7334C5.55924 65.6407 5.35073 65.5033 5.17496 65.3294C4.99919 65.1555 4.85965 64.9485 4.76443 64.7203C4.6692 64.4921 4.62018 64.2473 4.62019 64V6.00001C4.62019 5.50405 4.81721 5.02841 5.1679 4.67772C5.5186 4.32703 5.99424 4.13001 6.49019 4.13001H35.4902C35.7374 4.12736 35.9828 4.17378 36.212 4.26657C36.4411 4.35936 36.6497 4.49669 36.8254 4.6706C37.0012 4.84451 37.1407 5.05155 37.236 5.27974C37.3312 5.50793 37.3802 5.75275 37.3802 6.00001V64Z" fill="white"/>
<path d="M21 58.73C20.6044 58.73 20.2178 58.8473 19.8889 59.067C19.56 59.2868 19.3036 59.5992 19.1522 59.9646C19.0009 60.3301 18.9613 60.7322 19.0384 61.1202C19.1156 61.5081 19.3061 61.8645 19.5858 62.1442C19.8655 62.4239 20.2219 62.6144 20.6098 62.6916C20.9978 62.7687 21.3999 62.7291 21.7654 62.5777C22.1308 62.4264 22.4432 62.17 22.6629 61.8411C22.8827 61.5122 23 61.1255 23 60.73C23 60.1995 22.7893 59.6908 22.4142 59.3158C22.0391 58.9407 21.5304 58.73 21 58.73Z" fill="white"/>
</svg>
