<svg width="43" height="72" viewBox="0 0 43 72" fill="none" xmlns="http://www.w3.org/2000/svg">
<path d="M36.0052 3.54346e-05H6.07833C5.27848 -0.00270024 4.48602 0.152993 3.74666 0.458131C3.00731 0.763269 2.3357 1.21181 1.7706 1.77787C1.2055 2.34393 0.758103 3.01629 0.45422 3.75616C0.150336 4.49604 -0.00401319 5.28877 7.92998e-05 6.08861V65.9424C7.92998e-05 67.5489 0.638289 69.0897 1.77431 70.2257C2.91033 71.3617 4.45111 72 6.05769 72H35.9846C36.7818 72.0027 37.5717 71.848 38.3091 71.5448C39.0464 71.2416 39.7166 70.7958 40.2813 70.233C40.846 69.6703 41.294 69.0016 41.5997 68.2653C41.9055 67.529 42.0628 66.7396 42.0628 65.9424V6.08861C42.0669 5.29051 41.9132 4.49947 41.6106 3.76095C41.308 3.02243 40.8625 2.35098 40.2996 1.7852C39.7367 1.21942 39.0675 0.770445 38.3305 0.464087C37.5936 0.157729 36.8033 2.50114e-05 36.0052 3.54346e-05V3.54346e-05ZM37.935 65.9424C37.935 66.4542 37.7317 66.945 37.3698 67.3069C37.0079 67.6688 36.517 67.8721 36.0052 67.8721H6.07833C5.82318 67.8748 5.57002 67.8269 5.3335 67.7312C5.09698 67.6354 4.8818 67.4937 4.70042 67.3143C4.51903 67.1348 4.37503 66.9211 4.27677 66.6856C4.1785 66.4501 4.12791 66.1975 4.12792 65.9424V6.08861C4.12792 5.5768 4.33124 5.08595 4.69314 4.72405C5.05504 4.36215 5.54589 4.15884 6.05769 4.15884H35.9846C36.2397 4.15611 36.4929 4.20401 36.7294 4.29977C36.9659 4.39552 37.1811 4.53724 37.3625 4.71671C37.5439 4.89617 37.6879 5.10983 37.7861 5.34532C37.8844 5.5808 37.935 5.83344 37.935 6.08861V65.9424Z" fill="black"/>
<path d="M21.0315 60.5039C20.6232 60.5039 20.2242 60.625 19.8848 60.8517C19.5454 61.0785 19.2809 61.4009 19.1246 61.778C18.9684 62.1551 18.9276 62.5701 19.0072 62.9705C19.0868 63.3708 19.2834 63.7386 19.572 64.0272C19.8607 64.3159 20.2284 64.5125 20.6288 64.5921C21.0292 64.6717 21.4441 64.6309 21.8213 64.4746C22.1984 64.3184 22.5208 64.0539 22.7475 63.7145C22.9743 63.3751 23.0954 62.976 23.0954 62.5678C23.0954 62.0204 22.8779 61.4955 22.4909 61.1084C22.1038 60.7214 21.5788 60.5039 21.0315 60.5039Z" fill="black"/>
</svg>
