<svg xmlns="http://www.w3.org/2000/svg" width="16" height="23" fill="none" xmlns:v="https://vecta.io/nano"><path fill-rule="evenodd" d="M8.615.01c0 .007-.046.01-.117.01s-.117.005-.117.01-.024.01-.053.01-.053.005-.053.01-.02.01-.042.01-.042.005-.042.01-.02.01-.042.01-.042.005-.042.01-.024.01-.053.01S8 .12 8 .126s-.024.01-.053.01-.053.005-.053.01-.01.01-.02.01-.026.01-.034.023c-.012.018-.027.023-.077.023-.034 0-.06.005-.06.01s-.01.01-.02.01-.02.005-.02.01-.028.01-.064.01-.064.005-.064.01-.014.01-.032.01-.032.005-.032.01-.023.01-.05.01c-.04 0-.054.006-.066.023s-.027.023-.045.023-.03.005-.03.01-.01.01-.02.01-.02.005-.02.01-.02.01-.042.01-.042.005-.042.01-.01.01-.02.01-.02.005-.02.01-.02.01-.042.01-.042.005-.042.01-.01.01-.02.01-.02.005-.02.01-.014.01-.032.01-.032.005-.032.01-.01.01-.02.01-.02.005-.02.01-.01.01-.02.01-.02.005-.02.01-.028.01-.06.01c-.05 0-.064.005-.077.023-.008.013-.024.023-.034.023s-.02.005-.02.01-.01.01-.02.01-.02.005-.02.01-.01.01-.02.01-.02.005-.02.01-.01.01-.02.01-.02.005-.02.01-.023.01-.05.01c-.04 0-.054.006-.066.023s-.027.023-.045.023-.03.005-.03.01-.014.01-.032.01-.032.005-.032.01-.014.01-.032.01-.032.005-.032.01-.01.01-.02.01-.02.005-.02.01-.01.01-.02.01-.02.005-.02.01-.01.01-.02.01-.02.005-.02.01-.01.01-.02.01-.02.005-.02.01-.01.01-.02.01-.02.005-.02.01-.008.01-.02.01-.026.01-.034.023-.024.023-.034.023-.02.005-.02.01-.01.01-.02.01-.02.005-.02.01-.01.01-.02.01-.02.005-.02.01-.008.01-.017.01-.035.02-.058.046-.05.046-.064.046-.036.016-.053.034-.036.034-.044.034-.02.01-.03.023-.023.023-.032.023-.023.01-.032.023-.024.023-.034.023-.02.005-.02.01-.007.01-.016.01-.045.03-.08.07-.068.07-.074.07-.04.03-.074.07-.068.07-.075.07-.026.016-.042.034-.035.034-.042.034-.03.02-.053.046-.046.046-.053.046-.03.02-.053.046-.046.046-.053.046-.03.02-.053.046-.05.046-.064.046-.044.024-.074.057-.057.057-.064.057c-.015 0-.042.03-.042.046a.24.24 0 0 1-.085.092c-.006 0-.035.026-.063.057a.25.25 0 0 1-.064.057.25.25 0 0 0-.064.057c-.028.032-.057.057-.064.057s-.03.02-.053.046c-.027.03-.05.046-.068.046s-.027.005-.027.01-.007.01-.016.01-.045.03-.08.07-.068.07-.074.07-.05.04-.096.092-.09.092-.095.092c-.014 0-.382.398-.382.414a1.73 1.73 0 0 1-.149.172l-.15.173c0 .007-.014.027-.032.045s-.032.038-.032.045-.03.044-.064.08-.064.077-.064.092-.026.052-.064.092-.064.075-.064.083-.01.023-.02.032-.02.03-.02.057-.007.046-.02.057-.02.024-.02.032c0 .02-.026.048-.042.048-.006 0-.038.028-.07.063-.05.056-.058.068-.058.1s-.007.054-.037.086c-.02.022-.047.04-.06.04-.023 0-.095.07-.095.093 0 .007-.014.027-.032.045s-.032.038-.032.046-.014.028-.032.046-.032.038-.032.046a.18.18 0 0 1-.042.058c-.023.024-.042.05-.042.06s-.01.023-.02.032-.02.03-.02.048-.005.032-.01.032-.01.01-.01.023-.007.023-.017.023c-.02 0-.047.027-.047.046s-.028.046-.047.046c-.01 0-.017.01-.017.02s-.01.028-.02.037-.02.024-.02.032-.02.035-.042.06-.042.052-.042.062-.005.018-.01.018-.01.008-.01.018-.014.033-.032.05-.032.04-.032.048-.01.023-.02.032-.02.03-.02.048-.005.032-.01.032-.01.008-.01.018-.014.033-.032.05-.032.04-.032.048-.01.023-.02.032-.02.026-.02.037-.005.02-.01.02-.01.01-.01.02-.01.028-.02.037-.02.024-.02.032-.014.03-.032.048-.032.044-.032.057-.014.04-.032.057-.032.04-.032.05-.005.018-.01.018-.01.01-.01.023-.005.023-.01.023-.01.01-.01.023-.005.023-.01.023-.01.01-.01.023-.005.023-.01.023-.01.01-.01.02-.01.028-.02.037-.02.025-.02.034-.01.025-.02.034-.02.03-.02.048-.005.032-.01.032-.01.01-.01.023-.005.023-.01.023-.01.01-.01.02-.01.028-.02.037-.02.03-.02.05-.005.032-.01.032-.01.014-.01.032-.01.04-.02.048-.02.026-.02.037-.005.02-.01.02-.01.01-.01.02-.01.028-.02.037-.02.026-.02.037-.005.02-.01.02-.01.016-.01.034-.005.034-.01.034-.01.01-.01.023-.005.023-.01.023-.01.02-.01.046-.005.046-.01.046-.01.01-.01.023-.005.023-.01.023-.01.014-.01.032-.01.04-.02.048-.02.03-.02.048-.005.032-.01.032-.01.01-.01.023-.005.023-.01.023-.01.01-.01.023-.005.023-.01.023-.01.02-.01.046-.005.046-.01.046-.01.014-.01.032-.01.04-.02.048-.02.026-.02.037-.005.02-.01.02-.01.01-.01.023-.005.023-.01.023-.01.026-.01.057-.005.057-.01.057-.01.01-.01.02-.01.028-.02.037-.02.03-.02.06c0 .024-.005.043-.01.043s-.01.016-.01.034-.005.034-.01.034-.01.02-.01.046-.005.046-.01.046-.01.014-.01.032-.01.04-.02.048-.02.03-.02.07c0 .03-.005.055-.01.055s-.01.016-.01.034-.005.034-.01.034-.01.02-.01.046-.005.046-.01.046-.01.016-.01.034-.005.034-.01.034-.01.01-.01.023-.005.023-.01.023-.01.02-.01.046-.005.046-.01.046-.01.034-.01.08-.005.08-.01.08-.01.034-.01.08-.005.08-.01.08-.01.042-.01.103-.004.103-.01.103-.01.016-.01.034-.005.034-.01.034-.01.042-.01.103-.004.103-.01.103-.01.03-.01.07-.005.07-.01.07-.01.034-.01.08-.005.08-.01.08-.01.02-.01.046-.005.046-.01.046-.01.054-.01.138-.004.138-.01.138-.01.07-.01.183c0 .135-.003.184-.013.19.015.03.015.034.005.038s-.013.058-.013.21-.003.207-.013.212c.016.02.018.064.003.064-.006 0-.01.01-.01.023s.005.023.01.023.01.01.01.023.005.023.01.023c.015 0 .013.066-.003.074.007.017.013.03.013.04s-.006.024-.013.028c.01.018.013.052.013.123 0 .06.004.102.01.102s.01.06.01.16-.004.16-.01.16-.01.025-.01.055c0 .042.005.06.02.072s.02.03.02.186c0 .105.004.17.01.17s.01.026.01.058.005.057.01.057.01.01.01.023.005.023.01.023.01.034.01.08c0 .053.004.08.013.085-.015.03-.015.034-.005.038s.013.02.013.04.005.034.01.034.01.034.01.08.005.08.01.08.01.02.01.046.005.046.01.046c.015 0 .013.043-.003.05.007.017.013.035.013.053s.006.036.013.04c-.016.02-.018.1-.003.1.006 0 .01.016.01.034s.005.034.01.034.01.01.01.02.01.028.02.037c.018.014.02.03.02.105 0 .06-.004.1-.013.094s-.006.013.01.028.024.036.024.053.005.03.01.03.01.02.01.042c0 .03.007.05.024.065s.02.025.01.028c-.016.006-.018.05-.003.05.006 0 .01.03.01.066 0 .053.004.07.02.083s.02.03.02.083c0 .037.005.066.01.066s.01.02.01.043c0 .03.006.048.02.06s.02.03.02.048.005.032.01.032.01.016.01.034.005.034.01.034.01.01.01.023.005.023.01.023.01.02.01.046.005.046.01.046.01.01.01.023.005.023.01.023.01.025.01.055c0 .042.005.06.02.072s.02.03.02.057.007.046.02.058.02.03.02.083c0 .037.005.066.01.066s.01.01.01.023.005.023.01.023.01.02.01.046.005.046.01.046.01.02.01.046.005.046.01.046.01.01.01.023.005.023.01.023.01.02.01.043c0 .03.006.05.02.06s.02.03.02.048.005.032.01.032.01.016.01.035.005.034.01.034.01.02.01.043c0 .03.006.048.02.06s.02.03.02.06c0 .024.005.043.01.043s.01.01.01.023.005.023.01.023.01.016.01.035.005.034.01.034.01.02.01.046.005.046.01.046.01.026.01.057.005.057.01.057.01.01.01.023.005.023.01.023.01.01.01.023.005.023.01.023.01.026.01.058.005.057.01.057.01.01.01.023.005.023.01.023.01.01.01.023.005.023.01.023.01.01.01.023.005.023.01.023.01.01.01.023.005.023.01.023.01.024.01.053c0 .044.005.058.032.085s.032.04.032.085c0 .03.005.053.01.053s.01.01.01.023.005.023.01.023.01.013.01.03.012.042.032.062.032.04.032.05.005.018.01.018.01.014.01.03.012.042.032.062.032.04.032.05.005.018.01.018.01.01.01.023.005.023.01.023.01.01.01.023.005.023.01.023.01.01.01.02.01.028.02.037.02.025.02.035.01.025.02.034.02.026.02.037.005.02.01.02.01.01.01.02.01.028.02.037.02.03.02.05.006.032.016.032a.18.18 0 0 1 .09.104c0 .013.02.044.042.068s.042.055.042.07.014.04.032.057.032.04.032.05.005.018.01.018.01.01.01.02.01.028.02.037.02.026.02.037.005.02.01.02.01.01.01.023.005.023.01.023.01.01.01.023.005.023.01.023.01.01.01.02.01.028.02.037.02.026.02.037.005.02.01.02.01.008.01.018.02.038.042.062.042.054.042.074.006.03.017.03c.02 0 .047.027.047.046 0 .007.02.033.042.057s.042.052.042.062.01.018.02.018.02.008.02.023.007.023.02.023.02.008.02.023.007.023.016.023c.02 0 .068.05.068.07 0 .007.02.033.042.057s.042.052.042.062.007.018.016.018c.02 0 .1.074.1.097 0 .01.005.018.01.018s.01.01.01.023c0 .018.007.023.032.023s.032.006.032.018c0 .02.068.097.085.097.006 0 .03.02.053.046s.046.046.053.046a.24.24 0 0 1 .085.092c0 .027.032.045.08.045.04 0 .048.003.048.023 0 .013.005.023.01.023s.01.008.01.018c0 .023.026.05.047.05.01 0 .017.01.017.023s.007.023.02.023.02.005.02.012c.037.01.106.086.106.11 0 .01.007.018.017.018.02 0 .047.028.047.05 0 .01.01.018.02.018s.026.01.034.023.022.023.03.023.028.015.044.034.037.035.047.035.017.005.017.01.007.01.016.01c.02 0 .068.05.068.07s.156.184.17.184c.006 0 .025.015.042.034s.036.035.044.035.022.01.03.023.022.023.03.023.038.026.066.057.06.057.068.057.017.01.017.023.007.023.02.023.026.01.034.023.022.023.03.023.038.026.066.058.06.057.068.057.017.005.017.012.01.01.02.01.02.008.02.018c0 .024.055.084.06.065s.024-.016.024.01c0 .014.007.023.02.023s.026.01.034.023.024.023.034.023.02.01.02.023.007.023.028.023.04.013.057.035.04.034.053.034c.028 0 .065.036.045.043s-.013.026.02.026c.018 0 .032.005.032.01s.01.012.02.012.026.01.034.023.027.023.055.023c.033 0 .04.004.04.023s.007.023.04.023c.028 0 .045.007.055.023s.024.023.034.023.02.005.02.012.008.01.02.01.026.01.034.023.027.023.045.023.03.005.03.012.01.01.02.01.02.005.02.012.01.01.02.01.02.008.02.023.007.023.03.023c.017 0 .036.01.045.023s.024.023.034.023.02.005.02.01.013.012.03.012.036.01.045.023.027.023.045.023.03.005.03.01.01.012.02.012.02.005.02.01.018.012.04.012c.028 0 .045.007.055.023s.027.023.04.023c.033 0 .055.026.055.062 0 .03.015.04.026.015.016.008.038.014.066.014.042 0 .053.006.088.046.022.025.048.046.058.046s.017.005.017.01.01.012.02.012.02.005.02.01.008.012.02.012.026.01.034.023.024.023.034.023.02.005.02.012.01.01.02.01.02.005.02.012.013.01.03.01.036.01.045.023.023.023.033.023.02.007.023.014c.027-.016.03-.017.035-.006s.013.014.023.014.025.01.033.023.023.023.032.023.023.01.032.023.024.023.034.023.02.005.02.01.012.012.028.012.04.013.057.034.04.034.057.034.028.005.028.01.02.012.042.012.042.005.042.012.01.01.02.01.02.005.02.012.01.01.02.01.02.005.02.01.014.01.032.01.032.005.032.012.008.01.02.01.026.01.034.023c.012.018.027.023.076.023.038 0 .063.005.067.014.016-.008.032-.014.05-.014s.033.006.036.014c.016-.01.04-.014.07-.014.05 0 .052.001.052.034s.003.035.04.035c.028 0 .045.007.055.023s.024.023.034.023.02.005.02.01.01.012.02.012.02.005.02.01c0 .017.04.014.047-.003.017.01.05.014.124.014.063 0 .105.005.105.01s.024.012.053.012.053.005.053.012.014.01.032.01.032.005.032.01.01.01.02.01.02.005.02.012.028.01.064.01.064.005.064.012.01.01.02.01.02.005.02.012.028.01.064.01.064.005.064.01.034.01.08.01c.076 0 .082.002.1.035s.037.035.085.035.06.005.076.025.022.023.03.01a.23.23 0 0 0 .074.012c.03 0 .052.005.052.01s.02.012.042.012.042.005.042.01.023.012.05.012c.04 0 .054.006.066.023s.027.023.055.023c.022 0 .04.005.04.012s.024.01.053.01.053.005.053.012.02.01.042.01.042.005.042.012.032.01.074.01.074.005.074.01.046.01.117.01.117.005.117.012c0 .018.167.015.174-.003.016.008.037.014.06.014s.042.005.042.012.067.012.18.012.18.004.18.01a.54.54 0 0 0 .238-.003c.016.008.032.014.05.014s.033-.007.036-.014c.017.01.046.014.103.014.05 0 .084.005.084.01s.024.012.053.012.053-.005.053-.012.014-.01.032-.01.032.005.032.01a.37.37 0 0 0 .195-.003c.016.008.032.014.05.014s.033-.006.036-.014c.017.01.07.014.23.014s.212-.004.217-.014c.02.017.06.02.06.003 0-.006.01-.01.02-.01s.023-.007.027-.014c.02.017.08.02.08.003s.04-.014.047.003c.016-.008.037-.014.06-.014s.042-.005.042-.012c0-.017.082-.014.088.003.003.01.012.006.026-.012s.033-.026.07-.026c.027 0 .05-.005.05-.01s.046-.01.117-.01.117-.005.117-.01.014-.012.032-.012.032-.005.032-.01.024-.012.053-.012.053-.005.053-.01.01-.012.02-.012.02-.005.02-.01.014-.012.032-.012.032-.005.032-.01c0-.017.103-.014.11.003a.17.17 0 0 1 .081-.014c.035 0 .063-.005.063-.012s.02-.01.042-.01.043-.005.043-.012.023-.01.05-.01c.04 0 .054-.006.066-.023.017-.026.048-.03.057-.01.016-.008.033-.014.05-.014s.03-.005.03-.012.032-.01.074-.01.074-.005.074-.012.014-.01.032-.01.032-.005.032-.012.035-.012.083-.012c.07 0 .085-.003.098-.023.01-.013.027-.023.045-.023s.03-.005.03-.01.014-.012.032-.012.032-.005.032-.01.02-.012.043-.012.042-.005.042-.01.028-.01.064-.01.064-.005.064-.01.032-.012.074-.012.074-.005.074-.012.012-.01.027-.01.034-.007.043-.016c.017-.02.02-.052.005-.052-.006 0-.01-.01-.01-.023s.007-.023.02-.023.02-.005.02-.012.02-.012.042-.012.043-.005.043-.01.024-.012.053-.012.053-.005.053-.01c0-.017.06-.014.068.003.016-.008.026-.014.034-.014s.044-.03.078-.07l.068-.07c.003 0 .006.01.006.023 0 .025.016.03.025.01.027.016.03.017.035.006s.015-.014.026-.014.02-.005.02-.012.02-.01.042-.01.043-.005.043-.012.013-.01.03-.01.036-.01.045-.023.027-.023.045-.023.03-.005.03-.012.01-.01.02-.01.02-.005.02-.012.01-.01.02-.01.02-.008.02-.023.007-.023.042-.023.042-.004.042-.023.007-.023.032-.023c.018 0 .032-.005.032-.01s.013-.01.028-.01.037-.01.048-.025c.017-.02.022-.023.03-.01.023.001.02-.006.013-.008-.023-.01-.014-.026.014-.026.02 0 .046-.02.1-.07.034-.038.07-.07.08-.07s.016-.005.016-.012.008-.012.017-.012c.03 0 .047-.03.047-.08 0-.038-.007-.055-.037-.087-.02-.022-.042-.04-.05-.04-.017 0-.042-.03-.042-.05 0-.01-.005-.018-.01-.018s-.01-.02-.01-.045-.006-.048-.013-.05c.014-.027.014-.03 0-.047-.01-.01-.024-.018-.033-.018s-.017-.005-.017-.01-.01-.012-.02-.012-.02.005-.02.012-.02.01-.042.01-.044.006-.048.014c-.016-.008-.033-.014-.05-.014s-.03-.005-.03-.01-.024-.012-.053-.012-.053-.005-.053-.01-.01-.012-.02-.012-.02-.005-.02-.012-.01-.01-.02-.01-.02-.005-.02-.012-.024-.01-.053-.01c-.046 0-.053-.003-.053-.023s-.007-.023-.053-.023c-.03 0-.053-.005-.053-.012s-.024-.01-.053-.01-.053-.005-.053-.012.01-.01.02-.01c.018 0 .02-.008.02-.046s-.004-.046-.02-.046c-.012 0-.02-.005-.02-.01s-.014-.012-.032-.012-.032-.005-.032-.01-.01-.012-.02-.012-.02-.008-.02-.023-.007-.023-.05-.023-.054-.006-.08-.034-.034-.034-.1-.034c-.047 0-.08-.005-.08-.012s-.014-.01-.032-.01-.032-.005-.032-.012-.014-.01-.032-.01-.032-.005-.032-.012-.008-.01-.017-.01-.03-.017-.05-.037-.034-.032-.037-.023c-.008.024-.045.017-.045-.01 0-.015-.007-.023-.02-.023s-.02-.005-.02-.01-.01-.012-.02-.012-.02-.005-.02-.01-.008-.012-.02-.012-.026-.01-.034-.023-.027-.023-.05-.023-.044-.01-.068-.037-.034-.032-.037-.023c-.005.017-.045.02-.045.003 0-.006-.01-.01-.02-.01s-.02-.005-.02-.012-.008-.01-.02-.01-.026-.01-.034-.023-.027-.023-.045-.023-.03-.005-.03-.01-.008-.012-.02-.012-.026-.01-.034-.023-.022-.023-.03-.023-.028-.016-.044-.034-.037-.035-.047-.035-.017-.005-.017-.012-.008-.01-.017-.01-.027-.01-.038-.025c-.017-.022-.022-.023-.03-.01-.02-.005-.03-.012-.042-.012s-.02-.008-.02-.023c0-.025-.017-.03-.024-.01-.003.01-.012.006-.026-.01s-.027-.026-.034-.026-.026-.016-.043-.035-.037-.035-.047-.035-.017-.005-.017-.01-.008-.01-.017-.01-.03-.015-.047-.034-.04-.035-.057-.035-.028-.005-.028-.01-.008-.01-.02-.01-.026-.01-.034-.023-.027-.023-.043-.023-.034-.01-.042-.023-.027-.023-.04-.023-.035-.01-.046-.025c-.017-.02-.022-.023-.03-.01s-.013.012-.03-.01c-.01-.014-.03-.025-.044-.025s-.04-.02-.064-.046-.048-.046-.057-.046-.017-.005-.017-.01-.017-.012-.038-.012c-.03 0-.046-.008-.068-.034-.016-.02-.036-.035-.044-.035s-.02-.01-.03-.023-.027-.023-.04-.023c-.03 0-.055-.025-.055-.05 0-.01-.01-.018-.02-.018s-.02-.008-.02-.018c0-.032-.03-.05-.08-.05-.037 0-.05-.004-.05-.018s-.02-.038-.043-.062-.042-.05-.042-.057c0-.022-.035-.054-.04-.037-.008.027-.036.014-.087-.043-.03-.032-.057-.057-.064-.057s-.026-.016-.042-.035-.04-.035-.057-.035-.027-.006-.027-.023-.007-.023-.02-.023-.02-.008-.02-.018c0-.026-.048-.074-.074-.074-.013 0-.048-.028-.085-.07s-.068-.07-.074-.07-.04-.03-.074-.07-.07-.07-.08-.07-.017-.01-.017-.023-.007-.023-.02-.023-.02-.008-.02-.023-.007-.023-.02-.023-.026-.01-.034-.023-.023-.023-.032-.023-.023-.01-.032-.023-.022-.023-.03-.023-.033-.02-.055-.046-.046-.046-.053-.046-.026-.015-.042-.034-.035-.035-.042-.035-.03-.02-.053-.046-.05-.046-.063-.046c-.026 0-.075-.048-.075-.074 0-.012-.01-.018-.032-.018s-.032-.005-.032-.01-.01-.012-.02-.012-.02-.008-.02-.023-.007-.023-.017-.023-.035-.02-.058-.046-.048-.046-.057-.046-.017-.005-.017-.012-.01-.01-.02-.01-.02-.008-.02-.023-.007-.023-.017-.023-.035-.02-.058-.046-.048-.046-.057-.046-.017-.01-.017-.023-.007-.023-.02-.023-.02-.005-.02-.01c-.025-.012-.108-.094-.202-.195l-.18-.184c-.006 0-.054-.047-.106-.103s-.1-.103-.106-.103c-.017 0-.042-.03-.042-.05 0-.01-.008-.018-.017-.018s-.03-.015-.047-.035-.037-.034-.047-.034-.017-.008-.017-.018c0-.02-.046-.074-.063-.074s-.106-.1-.106-.12c0-.012-.01-.018-.032-.018s-.032-.006-.032-.018c0-.02-.025-.05-.043-.05-.007 0-.026-.015-.042-.034s-.037-.034-.047-.034-.017-.008-.017-.018a.12.12 0 0 0-.066-.074c-.008 0-.02-.01-.03-.023s-.022-.023-.03-.023-.033-.02-.055-.046-.048-.046-.058-.046-.017-.008-.017-.018c0-.02-.068-.097-.085-.097s-.064-.053-.064-.07-.07-.092-.085-.092c-.006 0-.03-.02-.053-.046s-.048-.046-.058-.046-.017-.01-.017-.034c0-.03-.004-.034-.032-.034-.018 0-.032-.005-.032-.01s-.007-.01-.016-.01a.45.45 0 0 1-.1-.092c-.046-.05-.09-.092-.1-.092s-.016-.008-.016-.017c0-.02-.216-.258-.234-.258-.023 0-.085-.08-.085-.11 0-.02-.006-.03-.02-.03s-.02-.008-.02-.023-.005-.023-.01-.023-.01-.008-.01-.018-.014-.033-.032-.05-.032-.044-.032-.062-.005-.03-.01-.03-.01-.008-.01-.018-.014-.033-.032-.05-.032-.04-.032-.05-.005-.018-.01-.018-.01-.014-.01-.032-.01-.04-.02-.048-.02-.026-.02-.037-.008-.02-.02-.02-.02-.008-.02-.034c0-.02-.005-.034-.01-.034s-.01-.014-.01-.032-.01-.04-.02-.05-.02-.026-.02-.037-.008-.02-.017-.02c-.02 0-.047-.028-.047-.05 0-.01-.005-.018-.01-.018s-.01-.01-.01-.023-.005-.023-.01-.023-.01-.01-.01-.02-.01-.028-.02-.037-.02-.026-.02-.037-.005-.02-.01-.02-.01-.01-.01-.023-.005-.023-.01-.023-.01-.008-.01-.018-.024-.043-.053-.074c-.044-.046-.053-.063-.053-.097 0-.022-.005-.04-.01-.04s-.01-.008-.01-.018-.014-.033-.032-.05-.032-.04-.032-.05-.01-.018-.032-.018c-.03 0-.032-.003-.032-.046 0-.034-.004-.046-.017-.046-.02 0-.047-.027-.047-.048 0-.008-.01-.023-.02-.032s-.02-.03-.02-.044-.016-.044-.042-.07-.042-.054-.042-.074-.005-.03-.02-.03-.02-.008-.02-.023-.005-.023-.01-.023-.01-.018-.01-.04c0-.044-.038-.097-.068-.097-.012 0-.016-.012-.016-.043s-.006-.048-.02-.06-.02-.03-.02-.046-.01-.037-.02-.046-.02-.026-.02-.037-.005-.02-.01-.02-.01-.01-.01-.023-.005-.023-.01-.023-.01-.014-.01-.032-.01-.04-.02-.048-.02-.03-.02-.05-.005-.032-.01-.032-.01-.01-.01-.023-.005-.023-.01-.023-.01-.01-.01-.023-.005-.023-.01-.023-.01-.01-.01-.023-.005-.023-.01-.023-.01-.01-.01-.023-.005-.023-.01-.023-.01-.01-.01-.023-.005-.023-.01-.023-.01-.01-.01-.022-.006-.025-.013-.028c.015-.03.015-.034.005-.038s-.013-.016-.013-.028-.005-.022-.01-.022-.01-.01-.01-.023-.005-.023-.01-.023-.01-.016-.01-.035-.005-.034-.01-.034-.01-.01-.01-.023-.005-.023-.01-.023-.01-.015-.01-.034-.005-.035-.01-.035c-.016 0-.013-.09.003-.095s-.014-.043-.034-.043c-.025 0-.042-.034-.042-.085 0-.03-.005-.053-.01-.053s-.01-.01-.01-.023-.007-.023-.02-.023-.02-.008-.02-.07c0-.038-.005-.07-.01-.07s-.01-.026-.01-.057-.005-.057-.01-.057-.01-.01-.01-.02-.01-.028-.02-.037c-.017-.013-.02-.03-.02-.083 0-.037-.005-.066-.01-.066s-.01-.02-.01-.046-.005-.046-.01-.046-.01-.01-.01-.023-.005-.023-.01-.023-.01-.01-.01-.023-.005-.023-.01-.023-.01-.03-.01-.066c0-.053-.004-.07-.02-.083-.024-.02-.028-.052-.008-.062-.007-.017-.013-.035-.013-.054s-.005-.034-.01-.034-.01-.01-.01-.023-.005-.023-.01-.023-.01-.026-.01-.057-.005-.057-.01-.057-.01-.01-.01-.023-.005-.023-.01-.023-.01-.01-.01-.023-.005-.023-.01-.023-.01-.015-.01-.034-.005-.034-.01-.034-.01-.026-.01-.057-.005-.057-.01-.057-.01-.01-.01-.023-.005-.023-.01-.023-.01-.015-.01-.034-.006-.036-.013-.04c.02-.024.016-.08-.008-.1-.012-.01-.02-.03-.02-.048s-.005-.032-.01-.032-.01-.026-.01-.058-.005-.057-.01-.057-.01-.02-.01-.046-.005-.046-.01-.046-.01-.026-.01-.057-.005-.057-.01-.057-.01-.026-.01-.057-.005-.057-.01-.057-.01-.038-.01-.092-.004-.092-.01-.092-.01-.042-.01-.103-.004-.103-.01-.103-.01-.042-.01-.103-.004-.103-.01-.103a6.45 6.45 0 0 1 .003-.809c-.016-.02-.018-.1-.003-.1.006 0 .01-.052.01-.134 0-.124.002-.135.024-.157.016-.016.02-.025.01-.028a.56.56 0 0 1-.003-.233c.006 0 .01-.034.01-.08s-.005-.08-.01-.08-.01-.016-.01-.034.005-.034.01-.034.01-.03.01-.07.005-.07.01-.07.01-.038.01-.092.004-.092.01-.092.01-.05.01-.126.004-.126.01-.126.01-.038.01-.092.004-.092.01-.092.01-.034.01-.08.005-.08.01-.08.01-.01.01-.023.005-.023.01-.023.01-.026.01-.057.005-.057.01-.057.01-.034.01-.08.005-.08.01-.08.01-.016.01-.034.005-.034.01-.034.01-.02.01-.046.005-.046.01-.046.01-.02.01-.046.005-.046.01-.046.01-.026.01-.057.005-.057.01-.057.01-.02.01-.046.005-.046.01-.046.01-.016.01-.034.005-.034.01-.034.01-.016.01-.034.005-.034.01-.034.01-.02.01-.046.005-.046.01-.046.01-.01.01-.023.005-.023.01-.023.01-.016.01-.034.005-.034.01-.034.01-.02.01-.046.005-.046.01-.046.01-.02.01-.046.005-.046.01-.046.01-.01.01-.023.005-.023.01-.023.01-.01.01-.023.005-.023.01-.023.01-.016.01-.034.005-.034.01-.034.01-.02.01-.046.005-.046.01-.046.01-.01.01-.02.01-.028.02-.037.02-.03.02-.048.005-.032.01-.032.01-.016.01-.034.005-.034.01-.034.01-.01.01-.023.005-.023.01-.023.01-.01.01-.023.005-.023.01-.023.01-.016.01-.034.005-.034.01-.034.01-.01.01-.023.005-.023.01-.023.01-.01.01-.023.005-.023.01-.023.01-.01.01-.023.005-.023.01-.023.01-.01.01-.023.005-.023.01-.023.01-.015.01-.034.006-.037.013-.04c-.024-.025-.014-.054.03-.1.028-.03.042-.054.042-.074s.005-.03.01-.03.01-.01.01-.02.01-.028.02-.037.02-.026.02-.037.005-.02.01-.02.01-.01.01-.023.005-.023.01-.023.01-.01.01-.023.005-.023.01-.023.01-.01.01-.023.005-.023.01-.023.01-.01.01-.023.005-.023.01-.023.01-.01.01-.02.01-.028.02-.037.02-.03.02-.048.005-.032.01-.032.01-.01.01-.023.005-.023.01-.023.01-.013.01-.03.012-.042.032-.062.032-.04.032-.05.005-.018.01-.018.01-.01.01-.023.005-.023.01-.023.01-.016.01-.034.005-.034.01-.034.01-.013.01-.03.012-.042.032-.062.032-.04.032-.05.005-.018.01-.018c.015 0 .013-.043-.003-.05.007-.017.013-.03.013-.042s.005-.022.01-.022.01-.008.01-.018.02-.038.042-.062.042-.055.042-.07.014-.04.032-.057.032-.044.032-.062.005-.03.01-.03.01-.01.01-.02.01-.028.02-.037.02-.03.02-.046.01-.037.02-.046.02-.024.02-.032.014-.03.032-.048.032-.04.032-.048.01-.023.02-.032.02-.026.02-.037.005-.02.01-.02.01-.01.01-.023.005-.023.01-.023.01-.01.01-.02.01-.028.02-.037.02-.026.02-.037.008-.02.02-.02.02-.008.02-.034.005-.034.02-.034.02-.008.02-.018.014-.033.032-.05.032-.04.032-.05.005-.018.01-.018.01-.008.01-.018.03-.048.064-.086.064-.076.064-.086.005-.018.01-.018.01-.01.01-.023.007-.023.016-.023c.018 0 .175-.165.175-.184a.38.38 0 0 1 .107-.115c.017 0 .042-.03.042-.05 0-.01.01-.018.02-.018s.02-.008.02-.02.01-.028.02-.037.02-.024.02-.032c0-.02.026-.048.042-.048s.042-.03.042-.05c0-.01.005-.018.01-.018s.01-.016.01-.034.005-.034.01-.034.01-.01.01-.02.01-.028.02-.037.02-.026.02-.037.008-.02.017-.02.03-.016.047-.034.037-.034.047-.034.017-.01.017-.023.005-.023.01-.023.01-.008.01-.018.02-.038.042-.062.042-.05.042-.057c0-.023.03-.046.058-.046.02 0 .027-.006.027-.023s.005-.023.01-.023.01-.008.01-.018c0-.023.1-.12.11-.12.01 0 .016-.008.016-.018 0-.03.07-.097.1-.097.024 0 .027-.005.027-.043 0-.03.006-.048.02-.06S9.04.56 9.04.55s.008-.02.02-.02.02-.008.02-.023-.005-.023-.01-.023c-.016 0-.013-.09.003-.095.01-.003.006-.013-.01-.028S9.04.324 9.04.276 9.035.212 9.008.184c-.02-.02-.032-.044-.032-.062s-.005-.03-.02-.03-.02-.008-.02-.023-.007-.023-.02-.023S8.89.036 8.88.023C8.868.003 8.853 0 8.784 0 8.73 0 8.7.005 8.696.014c-.02-.017-.08-.02-.08-.003zm-.735.8c.015.016.014.02-.006.04-.012.012-.022.027-.022.035 0 .018-.05.07-.066.07-.008 0-.02.01-.03.023s-.022.023-.03.023c-.02 0-.045.03-.045.05 0 .01-.005.018-.01.018s-.01.01-.01.02-.01.028-.02.037-.02.024-.02.032c0 .02-.026.048-.042.048s-.128.125-.128.15-.044.08-.064.08-.042.03-.042.05c0 .01-.005.018-.01.018s-.01.008-.01.018c0 .02-.068.097-.085.097s-.085.077-.085.097c0 .01-.005.018-.01.018s-.01.008-.01.018-.014.033-.032.05-.032.04-.032.05-.005.018-.01.018-.01.008-.01.018-.014.033-.032.05S6.98 1.99 6.98 2a.18.18 0 0 1-.042.058c-.023.024-.042.05-.042.06s-.01.023-.02.032-.02.03-.02.044-.014.04-.032.06-.032.04-.032.048-.01.023-.02.032-.02.026-.02.037-.005.02-.01.02-.01.01-.01.02-.01.028-.02.037-.02.03-.02.044-.016.044-.042.07-.042.052-.042.062-.005.018-.01.018-.01.01-.01.023-.005.023-.01.023-.01.016-.01.034c0 .027-.005.034-.02.034s-.02.008-.02.02-.01.028-.02.037-.02.03-.02.046-.01.037-.02.046-.02.03-.02.057-.007.046-.02.057-.02.03-.02.048-.005.032-.01.032-.01.01-.01.023-.005.023-.01.023-.01.01-.01.02-.01.028-.02.037-.02.026-.02.037-.005.02-.01.02-.01.016-.01.034-.005.034-.01.034-.01.01-.01.023-.005.023-.01.023-.01.01-.01.02-.01.028-.02.037-.02.025-.02.034-.01.025-.02.034-.02.026-.02.037-.005.02-.01.02-.01.008-.01.02-.01.03-.024.04c-.02.02-.02.024-.008.034-.005.02-.01.032-.01.043s-.01.027-.02.036-.02.026-.02.037-.005.02-.01.02-.01.01-.01.023-.005.023-.01.023-.01.016-.01.034-.005.034-.01.034-.01.01-.01.023-.005.023-.01.023-.01.01-.01.02-.01.028-.02.037-.02.03-.02.057-.007.046-.02.057-.02.026-.02.037-.005.02-.01.02-.01.01-.01.023-.005.023-.01.023-.01.016-.01.034-.005.034-.01.034-.01.01-.01.023-.005.023-.01.023-.01.016-.01.034-.005.034-.01.034-.01.01-.01.023-.005.023-.01.023-.01.02-.01.043c0 .03-.006.048-.02.06s-.02.03-.02.048-.005.032-.01.032-.01.016-.01.034-.005.034-.01.034-.01.01-.01.023-.005.023-.01.023-.01.01-.01.023-.005.023-.01.023-.01.01-.01.023-.005.023-.01.023-.01.01-.01.023-.005.023-.01.023-.01.01-.01.023-.005.023-.01.023-.01.02-.01.046-.005.046-.01.046-.01.01-.01.023-.005.023-.01.023-.01.01-.01.023-.005.023-.01.023-.01.016-.01.034-.005.034-.01.034-.01.016-.01.034-.005.034-.01.034-.01.016-.01.034-.005.034-.01.034-.01.01-.01.023-.005.023-.01.023-.01.026-.01.057-.005.057-.01.057-.01.01-.01.023-.005.023-.01.023-.01.02-.01.046-.005.046-.01.046-.01.016-.01.034-.005.034-.01.034-.01.03-.01.07-.005.07-.01.07-.01.01-.01.022-.006.025-.013.028c.015.03.015.034.005.038s-.013.016-.013.028-.005.022-.01.022-.01.026-.01.057-.005.057-.01.057-.01.016-.01.034-.005.034-.01.034-.01.03-.01.07-.005.07-.01.07-.01.038-.01.092-.004.092-.01.092-.01.02-.01.046-.005.046-.01.046-.01.026-.01.057-.005.057-.01.057-.01.042-.01.102c0 .07-.004.104-.013.108.015.03.015.034.005.038-.016.007-.02.142-.003.142.006 0 .01.025.01.055 0 .042-.005.06-.02.07s-.02.03-.02.06c0 .024-.005.043-.01.043s-.01.03-.01.07.005.07.01.07.01.015.01.034-.005.034-.01.034-.01.038-.01.092-.004.092-.01.092-.01.016-.01.034-.005.034-.01.034-.01.034-.01.08-.005.08-.01.08-.01.07-.01.184-.004.184-.01.184-.01.026-.01.057.005.057.01.057.01.01.01.023-.005.023-.01.023-.01.05-.01.126-.004.126-.01.126-.01.042-.01.103.004.103.01.103.01.103.01.287l.01.287c.006 0 .01.038.01.092s-.004.092-.01.092c-.01.018-.001.023.01.023.02 0 .02.008.02.103 0 .06.004.103.01.103s.01.038.01.092.004.092.01.092.01.042.01.103.004.103.01.103.01.01.01.02.01.028.02.037c.017.013.02.03.02.078 0 .054.004.066.032.094s.045.092.02.092c-.006 0-.01.01-.01.023s.005.023.01.023.01.038.01.092c0 .084.002.092.02.092s.02.008.02.034c0 .02.005.034.01.034s.01.02.01.046.005.046.01.046.01.02.01.046.005.046.01.046.01.01.01.023.005.023.01.023.01.034.01.078c0 .065.004.08.02.095.012.01.02.03.02.048s.005.032.01.032.01.02.01.046.005.046.01.046.01.02.01.043c0 .03.006.048.02.06s.02.03.02.07c0 .03.005.055.01.055s.01.016.01.034.005.035.01.035.01.025.01.055c0 .042.005.06.02.07s.02.03.02.072c0 .03.005.055.01.055s.01.025.01.055c0 .042.005.06.02.072s.02.03.02.072c0 .03.005.055.01.055s.01.02.01.046.005.046.01.046.01.02.01.046c0 .038.004.046.02.046.012 0 .02-.005.02-.01.026-.01.024.03.008.04.007.017.013.035.013.054s.005.034.01.034.01.025.01.055c0 .042.005.06.02.07s.02.026.02.037.005.02.01.02.01.015.01.034.005.034.01.034.01.016.01.034.005.034.01.034.01.01.01.02.01.028.02.037.02.03.02.07c0 .047.003.055.02.055s.02.008.02.034c0 .02.005.034.01.034s.01.016.01.034.005.035.01.035.01.01.01.023.005.023.01.023.01.01.01.023.005.023.01.023.01.01.01.023.005.023.01.023.01.015.01.034c0 .03.004.034.032.034s.032.001.032.057c0 .032.005.058.01.058s.01.01.01.023.005.023.01.023.01.015.01.034.006.036.013.04c-.016.027-.014.033.006.05.013.012.024.03.024.04s.005.02.01.02.01.01.01.023.005.023.01.023.01.01.01.02.01.028.02.037.02.026.02.037.008.02.02.02.02.008.02.023.005.023.01.023.01.01.01.02.01.028.02.037.02.03.02.055c0 .03.01.05.053.094.03.03.053.064.053.074s.005.018.01.018.01.008.01.018.014.033.032.05.032.04.032.05.005.018.01.018.01.01.01.02.01.028.02.037.02.025.02.034.01.025.02.034.02.026.02.037.005.02.01.02.01.008.01.018.02.038.042.062.042.05.042.058.014.028.032.046.032.04.032.048.01.023.02.032.02.03.02.044.014.04.032.06.032.04.032.05.005.018.01.018.01.01.01.023.005.023.01.023.01.01.01.023.005.023.01.023.01.015.01.034c0 .027.005.034.02.034s.02.008.02.023.005.023.01.023.01.01.01.02.01.028.02.037.02.026.02.037.005.02.01.02.01.01.01.023.005.023.01.023.01.008.01.02.01.03.024.042.02.025.01.028c-.022.01-.016.05.008.05.012 0 .02.008.02.018s.014.033.032.05.032.038.032.046.014.028.032.046.032.038.032.046.02.033.042.058.042.055.042.07.01.035.02.044.02.023.02.032.057.077.127.152c.096.103.127.144.127.166s.006.03.02.03.02.005.02.01.01.012.02.012.02.005.02.01.01.012.02.012.02.008.02.03c0 .036.022.062.053.062s.075.048.075.074c0 .01.01.018.02.018s.02.005.02.012.007.01.016.01c.02 0 .068.05.068.074 0 .01.007.018.016.018a.47.47 0 0 1 .132.138c0 .02.05.07.068.07.01 0 .016.005.016.012s.007.01.016.01c.02 0 .068.05.068.074 0 .01.007.018.017.018s.04.026.068.057.06.058.074.058c.024 0 .074.047.074.07s.028.046.047.046c.01 0 .017.005.017.012s.008.01.017.01.035.02.058.046.046.046.053.046c.015 0 .064.052.064.07s.05.07.064.07.07.06.055.066c-.023.008-.014.026.014.026s.058.023.058.046.05.07.068.07c.01 0 .016.01.016.023s.007.023.032.023.032.006.032.018c0 .023.026.05.047.05.01 0 .017.008.017.018 0 .02.025.05.042.05s.085.076.085.092a.33.33 0 0 0 .111.115c.01 0 .016.01.016.023 0 .02.007.023.037.023s.048.01.106.075c.038.04.07.08.07.087 0 .017.05.07.066.07.008 0 .02.01.03.023s.022.023.03.023c.02 0 .045.03.045.05 0 .01.01.018.02.018s.02.005.02.012.012.01.027.01c.028 0 .058.023.058.045a.63.63 0 0 0 .154.161c.016.018.028.023.044.023s.04.013.057.035.037.034.047.034.017.008.017.018c0 .02.046.074.064.074.007 0 .026.015.042.034s.035.035.042.035.036.026.064.057.06.057.068.057.017.005.017.012.007.01.017.01.04.026.068.058.057.057.064.057.035.026.064.057.06.057.068.057.017.005.017.012.008.01.017.01.035.02.057.046.046.046.053.046a1.19 1.19 0 0 1 .139.138c.07.076.134.138.143.138s.016.01.016.023c0 .02.007.023.038.023.037 0 .1.04.1.07 0 .02.05.07.07.07.016.018.026.023.038.023s.02.008.02.023.007.023.02.023.026.01.034.023.023.023.032.023.023.01.032.023.022.023.03.023.038.026.066.057.06.057.068.057.017.01.017.023.007.023.02.023.02.005.02.01.01.012.02.012.02.005.02.01.008.01.017.01.03.016.047.035.037.034.047.034.017.005.017.012.01.01.02.01.02.005.02.01.012.01.027.01c.03 0 .058.024.058.05 0 .012.01.018.032.018s.032.005.032.01.008.01.017.01.03.015.047.034.037.035.047.035.017.005.017.01.014.01.032.01.032.005.032.01.014.012.032.012.032.005.032.012.008.01.017.01c.02 0 .047.028.047.05 0 .013.01.018.042.018s.042.004.042.023.007.023.02.023.02.005.02.012.014.012.032.012.032.005.032.01.008.012.02.012.026.01.034.023.024.023.034.023.02.01.02.023c0 .026.016.03.026.01.016.008.037.014.06.014.034 0 .042.004.042.023 0 .025.017.03.024.01.003-.01.012-.006.026.01s.03.026.038.026.017.005.017.012.01.01.02.01.02.008.02.023.007.023.02.023.02.005.02.012.01.01.02.01.02.005.02.012.01.01.02.01.02.008.02.023c0 .025.017.03.024.01.003-.01.012-.006.026.012s.03.026.04.026.017.01.017.023.007.023.032.023.032.005.032.023.007.023.02.023.02.005.02.012.02.01.043.01.042.005.042.012.01.01.02.01.02.008.02.023.007.023.02.023.026.01.034.023.023.023.032.023.023.01.032.023.024.023.034.023.02.005.02.01c0 .016.06.014.066-.002s.104.086.104.106.027.045.043.045c.007 0 .026.015.042.035s.037.034.047.034.017.005.017.012.014.01.032.01.032.005.032.012.01.01.02.01.02.005.02.012c0 .017-.124.014-.132-.003-.016.008-.033.014-.05.014s-.03.005-.03.012-.01.012-.02.012-.02.005-.02.01-.01.012-.02.012-.02-.005-.02-.012-.01-.01-.02-.01-.02.005-.02.01-.01.012-.02.012-.02.005-.02.01-.02.012-.042.012-.042.005-.042.01-.02.012-.043.012-.042.005-.042.01-.014.012-.032.012-.032.005-.032.01-.03.012-.073.012c-.048 0-.075.005-.08.014-.02-.017-.06-.02-.06-.003 0 .006-.014.012-.032.012s-.032.005-.032.012-.032.01-.074.01-.074.005-.074.012-.01.01-.02.01-.02.005-.02.012-.02.01-.043.01-.042.005-.042.01-.014.01-.032.01-.032.005-.032.012-.02.01-.042.01-.042.005-.042.012-.028.01-.064.01-.064.005-.064.012-.014.012-.032.012-.032.005-.032.01-.01.01-.02.01-.02.005-.02.01-.01.012-.02.012-.02.005-.02.01-.05.012-.127.012-.127.005-.127.01-.024.012-.053.012-.053.005-.053.01-.014.012-.032.012-.032.005-.032.01-.035.012-.085.012-.085.005-.085.01-.035.012-.085.012-.085.005-.085.012a.23.23 0 0 1-.152-.003c-.027.018-.03.018-.04.003-.024.015-.827.018-.827 0 0-.006-.028-.012-.064-.012s-.064.005-.064.012-.01.01-.02.01-.02-.005-.02-.01-.05-.012-.126-.012c-.09 0-.128-.004-.133-.014a.5.5 0 0 1-.229.003c0-.017-.04-.014-.047.003-.017-.01-.046-.014-.102-.014-.05 0-.084-.005-.084-.012s-.014-.01-.032-.01-.032.005-.032.01-.01.012-.02.012-.02-.005-.02-.012-.024-.01-.053-.01-.053-.005-.053-.012-.035-.01-.085-.01-.085-.005-.085-.012-.028-.01-.064-.01-.064-.005-.064-.012-.02-.01-.042-.01-.042-.005-.042-.012-.014-.01-.032-.01S9.4 22.006 9.4 22s-.014-.01-.032-.01-.032-.005-.032-.012-.028-.012-.064-.012-.064-.005-.064-.01-.014-.012-.032-.012-.032-.005-.032-.01-.02-.012-.042-.012-.042-.005-.042-.01-.01-.01-.02-.01-.02-.005-.02-.01-.035-.012-.085-.012-.085-.005-.085-.01-.01-.012-.02-.012-.02-.005-.02-.01-.024-.012-.053-.012-.053-.005-.053-.012-.028-.01-.064-.01-.064-.005-.064-.012-.024-.01-.053-.01-.053-.005-.053-.012-.01-.01-.02-.01-.02-.005-.02-.012-.032-.01-.074-.01-.074-.005-.074-.012-.035-.01-.085-.01-.085-.005-.085-.012-.02-.01-.042-.01-.042-.005-.042-.012-.008-.012-.02-.012-.026-.01-.034-.023c-.016-.024-.074-.033-.074-.01 0 .006-.014.01-.032.01s-.032-.005-.032-.01-.01-.012-.02-.012-.02-.005-.02-.01-.022-.012-.048-.012c-.05 0-.08-.02-.08-.05 0-.013-.01-.018-.042-.018-.023 0-.042-.005-.042-.012s-.028-.01-.064-.01-.064-.005-.064-.012-.01-.01-.02-.01-.02-.008-.02-.023c0-.02-.007-.023-.064-.023s-.064-.003-.064-.023-.007-.023-.042-.023c-.023 0-.042-.005-.042-.012s-.014-.01-.032-.01-.032-.005-.032-.012-.01-.012-.02-.012-.02-.005-.02-.01-.01-.012-.02-.012-.02-.005-.02-.01-.01-.012-.02-.012-.02-.005-.02-.01-.01-.012-.02-.012-.02-.005-.02-.01-.012-.012-.028-.012-.04-.013-.057-.034-.04-.035-.057-.035-.028-.005-.028-.012-.013-.01-.03-.01-.036-.01-.045-.023-.024-.023-.034-.023-.02-.005-.02-.012-.008-.01-.02-.01-.026-.01-.034-.023-.024-.023-.034-.023-.02-.005-.02-.012-.01-.01-.02-.01-.02-.005-.02-.01S6.5 21 6.483 21c-.025 0-.032-.005-.032-.023s-.007-.023-.02-.023-.02-.005-.02-.01-.01-.012-.02-.012-.02-.005-.02-.01-.008-.012-.017-.012-.03-.015-.047-.035c-.022-.025-.04-.034-.066-.034s-.04-.008-.05-.023-.027-.023-.05-.023c-.03 0-.045-.01-.087-.058-.047-.052-.056-.057-.1-.057s-.048-.003-.048-.023c0-.014-.007-.023-.02-.023s-.026-.01-.034-.023-.027-.023-.055-.023c-.022 0-.04-.005-.04-.01s-.014-.012-.032-.012c-.025 0-.032-.005-.032-.023s-.007-.023-.032-.023c-.018 0-.032-.005-.032-.012s-.01-.01-.02-.01-.02-.005-.02-.012-.008-.01-.02-.01-.026-.01-.034-.023-.023-.023-.032-.023-.023-.01-.032-.023-.027-.023-.042-.023-.034-.01-.042-.023-.027-.023-.066-.023-.05-.004-.05-.018c0-.023-.026-.05-.047-.05-.01 0-.017-.005-.017-.012s-.01-.01-.02-.01-.02-.005-.02-.01-.014-.01-.032-.01-.032-.006-.032-.018c0-.023-.026-.05-.047-.05-.01 0-.017-.005-.017-.01s-.01-.01-.02-.01-.026-.01-.034-.023-.022-.023-.03-.023-.038-.026-.066-.057-.058-.058-.066-.058-.02-.01-.03-.023-.024-.023-.034-.023-.02-.005-.02-.012-.008-.01-.017-.01c-.02 0-.047-.028-.047-.05 0-.01-.01-.018-.02-.018s-.02-.005-.02-.012-.007-.01-.016-.01-.05-.036-.1-.08-.08-.08-.087-.08-.02-.01-.03-.023-.022-.023-.03-.023-.033-.02-.055-.046-.046-.046-.053-.046c-.018 0-.043-.03-.043-.05 0-.01-.005-.018-.01-.018-.01.018-.015.023-.02.023s-.01-.013-.01-.03c0-.038-.023-.062-.058-.062-.018 0-.027-.006-.027-.018 0-.02-.046-.074-.064-.074s-.042-.03-.042-.05c0-.01-.008-.018-.017-.018s-.035-.02-.058-.046-.048-.046-.058-.046-.017-.008-.017-.018c0-.023-.026-.05-.047-.05-.01 0-.017-.008-.017-.018 0-.02-.046-.074-.064-.074s-.042-.03-.042-.05c0-.012-.01-.018-.028-.018s-.04-.013-.057-.034-.036-.035-.044-.035-.022-.01-.03-.023-.022-.023-.03-.023a.06.06 0 0 1-.045-.046c0-.018-.05-.07-.066-.07-.008 0-.02-.01-.03-.023s-.023-.023-.032-.023-.023-.01-.032-.023-.024-.023-.034-.023-.02-.008-.02-.018-.03-.048-.064-.085-.064-.076-.064-.086-.01-.018-.02-.018-.02-.008-.02-.018c0-.023-.026-.05-.047-.05-.01 0-.017-.01-.017-.023s-.007-.023-.016-.023a.12.12 0 0 1-.068-.072c0-.008-.01-.023-.02-.032s-.02-.024-.02-.032-.03-.046-.064-.083-.064-.073-.064-.08-.02-.033-.042-.057-.042-.05-.042-.058-.014-.028-.032-.046-.032-.038-.032-.046c0-.02-.028-.046-.053-.046-.035 0-.053-.028-.053-.083 0-.037-.006-.054-.02-.067s-.02-.024-.02-.032-.014-.03-.032-.048-.032-.04-.032-.05-.005-.018-.01-.018-.01-.01-.01-.023-.005-.023-.01-.023-.01-.01-.01-.02-.01-.028-.02-.037-.02-.03-.02-.044-.014-.04-.032-.06-.032-.043-.032-.057-.018-.044-.042-.07c-.034-.035-.042-.052-.042-.085 0-.023-.005-.04-.01-.04s-.01-.01-.01-.023-.007-.023-.017-.023c-.02 0-.047-.027-.047-.048 0-.01-.01-.023-.02-.032s-.02-.03-.02-.044-.014-.04-.032-.06-.032-.04-.032-.048-.01-.023-.02-.032-.02-.026-.02-.037-.005-.02-.01-.02-.01-.01-.01-.023-.007-.023-.02-.023-.02-.008-.02-.057c0-.032-.005-.057-.01-.057s-.01-.014-.01-.032-.01-.04-.02-.05-.02-.03-.02-.048-.005-.032-.01-.032-.01-.01-.01-.023-.007-.023-.02-.023-.02-.008-.02-.034c0-.02-.005-.035-.01-.035s-.01-.026-.01-.057-.005-.057-.01-.057-.01-.01-.01-.023-.005-.023-.01-.023-.01-.02-.01-.046-.005-.046-.01-.046-.01-.02-.01-.046-.005-.046-.01-.046-.01-.016-.01-.034-.005-.034-.01-.034-.01-.01-.01-.023-.005-.023-.01-.023-.01-.015-.01-.034-.005-.034-.01-.034-.01-.02-.01-.043c0-.03-.006-.05-.02-.06s-.02-.03-.02-.05-.005-.032-.01-.032-.01-.02-.01-.046-.005-.046-.01-.046-.01-.01-.01-.023.005-.023.01-.023c.016 0 .013-.034-.005-.053-.008-.01-.023-.016-.032-.016s-.017-.01-.017-.034-.005-.034-.01-.034-.01-.026-.01-.058-.005-.057-.01-.057-.01-.01-.01-.023-.005-.023-.01-.023-.01-.02-.01-.046-.005-.046-.01-.046-.01-.01-.01-.023-.005-.023-.01-.023-.01-.026-.01-.058-.005-.057-.01-.057-.01-.01-.01-.023-.005-.023-.01-.023-.01-.01-.01-.023-.005-.023-.01-.023-.01-.02-.01-.046-.005-.046-.01-.046-.01-.015-.01-.034-.005-.035-.01-.035-.01-.015-.01-.034-.005-.034-.01-.034-.01-.01-.01-.023-.005-.023-.01-.023-.01-.016-.01-.034-.005-.035-.01-.035-.01-.01-.01-.023-.005-.023-.01-.023-.01-.015-.01-.034-.005-.034-.01-.034-.01-.016-.01-.034-.005-.034-.01-.034-.01-.015-.01-.034-.005-.034-.01-.034-.01-.026-.01-.058-.005-.057-.01-.057-.01-.02-.01-.046-.005-.046-.01-.046-.01-.02-.01-.046-.005-.046-.01-.046-.01-.01-.01-.022-.006-.025-.013-.028c.015-.03.015-.034.005-.038s-.013-.016-.013-.028-.005-.022-.01-.022-.01-.01-.01-.023-.005-.023-.01-.023-.01-.042-.01-.103-.004-.103-.01-.103-.01-.025-.01-.056-.005-.06-.013-.063c.02-.024.016-.057-.008-.076-.018-.014-.02-.03-.02-.092s-.004-.078-.02-.092-.02-.03-.02-.083c0-.037-.005-.066-.01-.066s-.01-.02-.01-.046-.005-.046-.01-.046-.01-.03-.01-.07-.005-.07-.01-.07-.01-.026-.01-.056-.005-.06-.013-.062c.015-.03.015-.034.005-.038s-.013-.02-.013-.038-.006-.036-.013-.04c.016-.02.018-.087.003-.087-.006 0-.01-.038-.01-.092s-.004-.092-.01-.092-.01-.01-.01-.023-.005-.023-.01-.023a.8.8 0 0 1 .003-.28c-.008-.017-.013-.043-.013-.077s-.005-.057-.01-.057-.01-.157-.01-.447l-.013-.454c.007-.017.013-.03.013-.042s.005-.022.01-.022.01-.01.01-.023-.005-.023-.01-.023c-.016 0-.013-.09.003-.096-.015-.03-.015-.034-.005-.038s.013-.042.013-.13c0-.076.004-.125.01-.125s.01-.01.01-.023.005-.023.01-.023.01-.06.01-.16.004-.16.01-.16.01-.026.01-.057.005-.057.01-.057.01-.034.01-.08.005-.08.01-.08.01-.03.01-.068c0-.044.005-.07.013-.074C.784 9.4.783 9.406.793 9.4s.013-.032.013-.085c0-.045.005-.08.01-.08s.01-.01.01-.023.005-.023.01-.023.01-.026.01-.057.005-.057.01-.057.01-.03.01-.07.005-.07.01-.07.01-.01.01-.023.005-.023.01-.023.01-.026.01-.057.005-.057.01-.057.01-.034.01-.078c0-.065.004-.08.02-.094.012-.01.02-.03.02-.048s.005-.032.01-.032.01-.02.01-.046.005-.046.01-.046.01-.016.01-.034.005-.034.01-.034.01-.016.01-.034.005-.034.01-.034.01-.024.01-.053c0-.044.005-.058.032-.085s.032-.043.032-.07.007-.044.02-.055.02-.026.02-.037.005-.02.01-.02.01-.02.01-.043c0-.03.006-.048.02-.06s.02-.03.02-.06c0-.024.005-.043.01-.043s.01-.016.01-.034.005-.034.01-.034.01-.01.01-.023.005-.023.01-.023.01-.015.01-.034.005-.034.01-.034.01-.024.01-.053c0-.044.005-.058.032-.085.018-.018.032-.044.032-.057s.014-.04.032-.057.032-.04.032-.05.005-.018.01-.018.01-.016.01-.034.005-.034.01-.034.01-.01.01-.023.005-.023.01-.023.01-.01.01-.023.005-.023.01-.023.01-.01.01-.023.005-.023.01-.023.01-.01.01-.023.007-.023.02-.023.02-.008.02-.046c0-.025.005-.046.01-.046s.01-.01.01-.023.005-.023.01-.023.01-.008.01-.018.014-.033.032-.05.032-.04.032-.048.01-.023.02-.032.02-.03.02-.06c0-.024.005-.043.01-.043s.01-.01.01-.02.01-.028.02-.037.02-.03.02-.057.007-.046.02-.057.02-.024.02-.032c0-.02.026-.048.042-.048.022 0 .042-.033.042-.07 0-.027.01-.047.042-.08.023-.024.042-.05.042-.06s.01-.023.02-.032.02-.024.02-.032.014-.03.032-.048c.022-.023.032-.043.032-.07s.01-.047.042-.08c.023-.024.042-.05.042-.058s.014-.028.032-.046.032-.04.032-.05.005-.018.01-.018.01-.01.01-.02.01-.028.02-.037.02-.024.02-.033.01-.026.024-.038c.02-.02.02-.024.008-.034.005-.02.01-.033.01-.045s.007-.022.027-.022c.03 0 .08-.046.08-.074 0-.01.01-.018.02-.018s.02-.008.02-.032c0-.02.01-.04.02-.048s.02-.023.02-.032.03-.046.064-.083c.045-.048.064-.076.064-.097s.005-.03.01-.03.01-.01.01-.023.005-.023.01-.023.01-.01.01-.023.005-.023.01-.023.01-.013.01-.03.012-.042.032-.062.032-.038.032-.046.02-.033.042-.058.042-.055.042-.07.014-.04.032-.057.032-.04.032-.05.005-.018.01-.018.01-.01.01-.023S3 4.55 3.01 4.55c.02 0 .047-.027.047-.048 0-.01.01-.023.02-.032s.02-.025.02-.034.01-.025.02-.034.02-.024.02-.032.02-.035.042-.06.042-.05.042-.058.014-.028.032-.046.032-.038.032-.046.024-.04.053-.07.053-.064.053-.074.005-.018.01-.018.01-.01.01-.023.007-.023.016-.023.064-.052.122-.115.11-.115.117-.115c.015 0 .064-.053.064-.07s.028-.046.047-.046c.01 0 .017-.01.017-.02s.01-.028.02-.037.02-.024.02-.032c0-.02.026-.048.045-.048.008 0 .02-.01.03-.023s.022-.023.03-.023a.13.13 0 0 0 .066-.069c0-.02.028-.046.047-.046.01 0 .017-.005.017-.01s.007-.01.016-.01.045-.03.08-.07.07-.07.085-.07.04-.02.063-.046.046-.046.053-.046c.016 0 .043-.03.043-.045s.09-.115.106-.115c.006 0 .04-.03.074-.07s.068-.07.074-.07c.02 0 .064-.055.064-.08 0-.033.024-.057.058-.057.018 0 .027-.006.027-.018 0-.026.026-.05.053-.05.013 0 .036-.016.053-.034s.037-.034.047-.034.017-.01.017-.023.007-.023.017-.023.04-.026.068-.057.06-.057.068-.057.017-.005.017-.01.007-.01.016-.01.045-.03.08-.07.072-.07.085-.07.05-.03.096-.08.08-.08.087-.08.02-.01.03-.023.022-.023.03-.023.038-.026.066-.057.06-.057.068-.057.017-.005.017-.01.01-.01.02-.01.02-.005.02-.01.008-.01.017-.01c.02 0 .047-.028.047-.05 0-.01.01-.018.02-.018s.02-.005.02-.01.012-.01.027-.01c.03 0 .1-.068.1-.097 0-.01.01-.018.02-.018s.02-.005.02-.01.024-.01.053-.01.053-.005.053-.01.01-.01.02-.01.02-.005.02-.01.008-.01.02-.01.026-.01.034-.023.027-.023.045-.023.03-.005.03-.01.01-.01.02-.01.02-.005.02-.01.01-.01.02-.01.02-.005.02-.01.02-.01.042-.01.042-.005.042-.01.008-.01.017-.01.03-.016.047-.034.04-.034.055-.034.032-.01.04-.023.027-.023.045-.023.03-.005.03-.01.014-.01.032-.01.032-.005.032-.01.01-.01.02-.01.02-.005.02-.01.014-.01.032-.01.032-.005.032-.01.01-.01.02-.01.02-.005.02-.01.014-.01.032-.01.032-.005.032-.01.01-.01.02-.01.02-.005.02-.01.014-.01.032-.01.032-.005.032-.01.02-.01.042-.01.042-.005.042-.01.008-.01.017-.01.03-.016.047-.034.04-.034.057-.034.028-.005.028-.01.024-.01.053-.01.053-.005.053-.01.014-.01.032-.01.032-.005.032-.01.01-.01.02-.01.02-.005.02-.01.023-.01.05-.01c.04 0 .054-.006.066-.023S7.7.85 7.735.85s.052-.006.064-.023c.018-.027.06-.03.08-.005zm6.55 19.87c-.016.01-.02.006-.02 0 .016-.012.02-.006.02 0zm.276 1.63c.016.012.02.006.02 0-.017-.012-.02-.006-.02 0z" fill="#000"/></svg>