<svg xmlns="http://www.w3.org/2000/svg" width="32" height="28" fill="none" xmlns:v="https://vecta.io/nano"><path fill-rule="evenodd" d="M14.927.034c-.018.018-.032.04-.032.05s-.02.033-.043.054-.042.05-.042.06-.006.022-.014.022-.014.01-.014.022-.025.046-.057.075-.057.062-.057.072-.013.028-.028.04c-.022.015-.028.036-.028.086 0 .036.006.066.014.066s.014.012.014.028.006.028.014.028.014.02.014.04.006.04.014.04.014.046.014.11.006.11.014.11.014.06.014.152.005.152.014.152c.02 0 .017.107-.004.116.02.026.024.105.004.105-.01 0-.014.092-.014.25s-.005.25-.014.25-.014.02-.014.04.006.04.014.04.014.012.014.028-.006.028-.014.028-.014.055-.014.138-.006.138-.014.138-.014.046-.014.11.006.11.014.11.014.012.014.028-.006.028-.014.028-.014.018-.014.04-.008.044-.018.048c.01.02.018.036.018.05s.008.03.018.033c-.01.02-.018.05-.018.078s-.006.054-.014.054-.014.07-.014.18-.005.18-.014.18-.014.055-.014.138-.006.138-.014.138c-.02 0-.017.08.004.09-.01.02-.018.05-.018.078s-.006.054-.014.054-.014.012-.014.028-.006.028-.014.028-.014.02-.014.04.006.04.014.04.014.012.014.028-.006.028-.014.028-.014.046-.014.11-.006.11-.014.11-.014.02-.014.04-.006.04-.014.04-.014.012-.014.028-.006.028-.014.028-.014.03-.014.07.006.07.014.07.014.012.014.028.006.028.014.028.014.01.014.025.013.034.028.045.028.034.028.052c0 .043.06.1.106.1.02 0 .036.006.036.014s.037.014.082.014c.066 0 .086-.005.102-.028.01-.015.03-.028.043-.028s.03-.012.043-.028.03-.028.04-.028c.026 0 .088-.063.088-.09 0-.012.006-.02.014-.02s.014-.016.014-.036c0-.037.03-.075.057-.075s.067-.045.046-.052a.4.4 0 0 1-.004-.225c.008 0 .014-.012.014-.028s-.006-.028-.014-.028c-.02 0-.017-.052.004-.06.013-.005.012-.01-.004-.023s-.017-.018-.003-.023.018-.05.018-.158c0-.09.006-.15.014-.15s.014-.012.014-.028-.006-.028-.014-.028c-.026 0-.015-.076.014-.097s.038-.063.01-.074c-.013-.005-.012-.01.004-.022s.02-.017 0-.03-.017-.017-.004-.022c.02-.008.024-.06.004-.06-.008 0-.014-.012-.014-.028s.006-.028.014-.028.014-.03.014-.07.006-.07.014-.07.014-.115.014-.318l.014-.318c.01 0 .014-.083.014-.22s.005-.22.014-.22.014-.083.014-.22c0-.162.005-.222.018-.228-.02-.026-.024-.132-.004-.132.008 0 .014-.02.014-.04s-.006-.04-.014-.04-.014-.012-.014-.028.006-.028.014-.028.014-.074.014-.193S15.4.994 15.39.994s-.014-.012-.014-.028.006-.028.014-.028.014-.012.014-.028S15.4.884 15.39.884s-.014-.036-.014-.082c0-.052-.007-.085-.018-.1.02-.026.024-.105.004-.105-.008 0-.014-.025-.014-.055s.006-.055.014-.055.014-.06.014-.152c0-.13-.003-.152-.022-.152-.026 0-.063-.032-.063-.055s-.095-.11-.12-.11c-.012 0-.022-.006-.022-.014S15.1 0 15.055 0c-.082.001-.1.006-.127.034zM4.163 4.076c0 .008-.013.014-.028.014s-.028.006-.028.014-.01.014-.025.014-.034.012-.046.028-.03.028-.04.028-.04.022-.068.048c-.038.037-.05.06-.05.097 0 .027-.006.05-.014.05s-.014.04-.014.097-.006.097-.014.097-.014.016-.014.035c0 .04.057.103.09.103.012 0 .022.01.022.02s.045.064.1.117.1.102.1.11c0 .023.037.055.063.055.012 0 .022.01.022.025s.013.034.028.045.028.028.028.04c0 .023.034.058.057.058s.057.035.057.055c0 .01.038.052.085.097s.085.088.085.097c0 .02.036.055.056.055s.312.285.312.304a.31.31 0 0 0 .114.11c.027 0 .056.038.056.075 0 .022.008.036.02.036a5.16 5.16 0 0 1 .517.498c0 .022.037.054.063.054.012 0 .022.01.022.02a1.15 1.15 0 0 0 .262.255c.012 0 .02.006.02.014s.01.014.022.014c.03 0 .063.033.063.06 0 .012.006.022.014.022s.014.01.014.022.02.04.042.06.042.046.042.054a.27.27 0 0 0 .12.111c.012 0 .022.012.022.028s.006.028.014.028.014.012.014.028.01.028.028.028.028.01.028.028.01.028.022.028c.03 0 .063.033.063.06 0 .012.012.022.028.022s.028.01.028.02.115.133.255.27l.255.263c0 .02.036.055.056.055s.142.12.142.138a.16.16 0 0 0 .091.083c.012 0 .022.012.022.028s.006.028.014.028.014.022.014.05c0 .052.026.09.063.09.012 0 .022.006.022.014s.013.014.028.014.028.006.028.014.01.014.025.014.034.012.046.028c.016.022.037.028.102.028.045 0 .082.006.082.014s.032.014.07.014.07-.006.07-.014.01-.014.02-.014.07-.047.127-.103.106-.113.106-.124.006-.02.014-.02.014-.012.014-.028.006-.028.014-.028.014-.04.014-.097-.006-.097-.014-.097-.014-.012-.014-.028-.006-.028-.014-.028-.014-.01-.014-.022-.025-.046-.057-.075-.057-.06-.057-.068c0-.02-.094-.11-.117-.11-.01 0-.028-.012-.04-.028s-.032-.028-.046-.028-.025-.01-.025-.028-.01-.028-.028-.028-.028-.01-.028-.022c0-.028-.034-.06-.063-.06-.012 0-.022-.01-.022-.022 0-.025-.033-.06-.056-.06a1.61 1.61 0 0 1-.284-.283c0-.01-.01-.02-.022-.02s-.03-.01-.042-.02-.02-.03-.02-.04-.01-.022-.022-.022c-.026 0-.063-.032-.063-.055 0-.01-.045-.058-.1-.11s-.1-.102-.1-.11-.045-.058-.1-.11-.1-.102-.1-.1c0-.02-.207-.222-.227-.222s-.056-.035-.056-.055-.066-.083-.09-.083c-.012 0-.022-.01-.022-.02a.42.42 0 0 0-.142-.145.29.29 0 0 1-.113-.114c0-.01-.013-.027-.028-.038s-.028-.03-.028-.045-.01-.025-.022-.025-.06-.037-.105-.083-.09-.083-.1-.083-.047-.03-.085-.07-.08-.07-.09-.07-.022-.01-.022-.02a.58.58 0 0 0-.113-.131c-.062-.06-.113-.118-.113-.128s-.013-.027-.028-.038-.028-.03-.028-.045-.01-.025-.028-.025-.028-.01-.028-.022-.032-.052-.07-.09c-.068-.065-.07-.07-.07-.143 0-.048.006-.078.018-.08.023-.008-.02-.052-.052-.052-.017 0-.022-.015-.022-.063 0-.053-.008-.07-.05-.11-.027-.026-.06-.048-.07-.048s-.022-.006-.022-.014-.018-.014-.04-.014-.048-.01-.06-.028-.03-.028-.04-.028c-.023 0-.088-.062-.088-.083 0-.027-.04-.055-.077-.055-.02 0-.036-.006-.036-.014s-.01-.014-.025-.014-.034-.012-.046-.028-.037-.028-.06-.028-.04-.006-.04-.014S4.5 4.2 4.474 4.2s-.028-.006-.028-.014-.013-.014-.028-.014-.028-.006-.028-.014-.013-.014-.028-.014-.028-.006-.028-.014-.02-.014-.042-.014-.042-.006-.042-.014S4.235 4.1 4.22 4.1s-.028-.006-.028-.014c-.022-.014-.028-.008-.028 0zm22.88.663c0 .008-.013.014-.028.014s-.028.006-.028.014-.01.014-.025.014-.034.012-.046.028-.032.028-.046.028-.025.006-.025.014-.01.014-.022.014c-.026 0-.063.032-.063.055s-.124.14-.148.14c-.012 0-.022.006-.022.014s-.013.014-.028.014-.028.006-.028.014-.01.014-.022.014c-.028 0-.12.09-.12.117 0 .012-.01.02-.025.02s-.034.012-.046.028-.03.028-.043.028-.03.012-.042.028-.03.028-.04.028-.056.037-.102.083a.44.44 0 0 1-.1.083c-.01 0-.04.025-.07.055s-.063.055-.074.055-.028.012-.04.028-.03.028-.043.028-.03.012-.043.028-.03.028-.04.028a.4.4 0 0 0-.102.083c-.046.046-.1.083-.1.083s-.06.044-.113.097-.108.097-.12.097-.022.01-.022.022c0 .027-.034.06-.06.06-.01 0-.028.012-.04.028s-.03.028-.04.028a.52.52 0 0 0-.116.097.47.47 0 0 1-.12.097c-.012 0-.022.006-.022.014s-.01.014-.022.014a.16.16 0 0 0-.091.083c0 .02-.122.138-.14.138a2.37 2.37 0 0 0-.312.304.45.45 0 0 1-.145.138c-.01 0-.028.012-.04.028s-.03.028-.04.028c-.023 0-.06.034-.06.055a.48.48 0 0 1-.141.139 1.33 1.33 0 0 0-.255.255c0 .012-.01.02-.022.02s-.06.037-.105.083c-.06.058-.094.083-.12.083-.02 0-.036.006-.036.014s-.013.014-.028.014-.028.01-.028.028-.006.028-.014.028-.014.012-.014.028-.006.028-.014.028-.014.012-.014.028-.006.028-.014.028-.014.012-.014.028-.006.028-.014.028-.014.03-.014.07.006.07.014.07.014.022.014.05c0 .052.026.09.063.09.012 0 .022.006.022.014s.01.014.023.014.04.02.062.04c.037.04.046.04.146.04.072 0 .108.006.113.017s.015.007.035-.014.04-.03.05-.03.023-.006.023-.014.02-.014.042-.014.043-.006.043-.014.01-.014.02-.014.076-.053.142-.117.12-.127.12-.138.01-.02.022-.02c.025 0 .148-.116.148-.14s.037-.055.063-.055c.013 0 .022-.012.022-.028s.01-.028.022-.028c.025 0 .09-.06.09-.083a.42.42 0 0 1 .148-.138c.012 0 .022-.01.022-.02a1.15 1.15 0 0 1 .262-.255c.012 0 .02-.006.02-.014s.013-.014.028-.014.028-.01.028-.028.006-.028.014-.028.014-.01.014-.02c0-.024.12-.145.142-.145s.056-.035.056-.054a1.74 1.74 0 0 1 .287-.277c.01 0 .027-.012.04-.028s.032-.028.046-.028.025-.01.025-.036c0-.04.03-.075.06-.075.01 0 .028-.012.04-.028s.03-.028.04-.028c.023 0 .06-.034.06-.055s.066-.083.088-.083c.01 0 .028-.012.04-.028s.03-.028.04-.028.044-.025.074-.055.063-.055.074-.055.028-.012.04-.028.03-.028.04-.028.044-.025.074-.055.062-.055.07-.055a.44.44 0 0 0 .099-.083c.046-.046.093-.083.105-.083s.022-.006.022-.014.01-.014.022-.014.053-.03.09-.07.08-.07.09-.07.022-.006.022-.014.01-.014.022-.014c.028 0 .09-.062.09-.09 0-.012.01-.02.023-.02s.04-.02.062-.04.05-.04.062-.04.023-.006.023-.014.01-.014.022-.014.047-.025.077-.055.064-.055.077-.055.022-.006.022-.014.013-.014.028-.014.028-.006.028-.014.013-.014.028-.014.028-.006.028-.014.013-.014.028-.014c.02 0 .028-.01.028-.036s.016-.05.042-.075.042-.05.042-.06.006-.022.014-.022.014-.02.014-.04.006-.04.014-.04c.03 0 .013-.045-.028-.083-.023-.02-.043-.046-.043-.054 0-.022-.094-.11-.117-.11-.01 0-.028-.012-.04-.028-.018-.024-.037-.028-.145-.028-.074 0-.124.006-.124.014zm-11.497 2c0 .008-.07.014-.184.014s-.184.005-.184.014-.047.014-.113.014-.113.006-.113.014-.013.014-.028.014-.028-.006-.028-.014-.013-.014-.028-.014-.028.006-.028.014-.046.014-.1.014c-.094 0-.113.004-.13.028-.01.015-.03.028-.04.028s-.07.05-.13.11-.122.11-.134.11-.022.006-.022.014-.047.014-.113.014-.113.006-.113.014-.047.014-.113.014-.113.006-.113.014-.025.014-.057.014-.057.006-.057.014-.06.014-.156.014-.156.005-.156.014-.038.014-.085.014-.085.006-.085.014-.032.014-.07.014-.07.006-.07.014-.052.014-.127.014-.127.006-.127.014-.043.014-.1.014-.1.006-.1.014-.026.014-.057.014-.057.006-.057.014-.02.014-.043.014-.042.006-.042.014-.02.014-.043.014-.043.006-.043.014-.025.014-.057.014-.057.006-.057.014-.013.014-.028.014-.028.006-.028.014-.013.014-.028.014-.028.006-.028.014-.013.014-.028.014-.028.006-.028.014-.013.014-.028.014-.028.006-.028.014-.013.014-.028.014-.028.006-.028.014-.01.014-.025.014-.034.012-.046.028-.032.028-.046.028-.025.006-.025.014-.013.014-.028.014-.028.006-.028.014-.013.014-.028.014-.028.006-.028.014-.01.014-.023.014-.04.02-.062.04-.048.04-.06.04-.03.012-.04.028-.03.028-.04.028-.037.02-.06.04-.047.04-.056.04a.73.73 0 0 0-.128.111.76.76 0 0 1-.127.111c-.008 0-.123.106-.255.235l-.255.235c-.008 0-.097.08-.198.18s-.193.18-.205.18-.022.01-.022.02a2.36 2.36 0 0 1-.375.366c-.014 0-.02.013-.02.036s-.017.05-.045.077c-.035.032-.04.044-.026.053s.001.03-.054.08c-.04.038-.073.076-.073.085s-.038.052-.085.097c-.072.07-.085.09-.085.13 0 .027-.006.05-.014.05s-.014.01-.014.022-.025.046-.057.075-.057.062-.057.072-.013.028-.028.04-.028.03-.028.044-.01.025-.028.025-.028.01-.028.04c0 .023-.006.04-.014.04s-.014.012-.014.028-.006.028-.014.028-.014.022-.014.05c0 .04-.01.06-.057.103-.052.05-.057.06-.057.125s-.006.077-.042.1c-.023.02-.042.05-.042.06s-.006.022-.014.022-.014.012-.014.028-.006.028-.014.028-.014.02-.014.04S8.83 11 8.82 11s-.014.02-.014.04-.006.04-.014.04-.014.017-.014.038-.012.047-.028.058-.028.03-.028.045-.006.025-.014.025-.014.02-.014.04-.006.042-.014.042-.014.024-.014.052c0 .036-.01.058-.028.072s-.028.036-.028.058-.006.038-.014.038-.014.012-.014.028-.006.028-.014.028-.014.02-.014.042-.006.04-.014.04-.014.02-.014.042-.006.04-.014.04-.014.02-.014.04-.006.042-.014.042-.014.012-.014.027-.008.03-.018.034c.027.028.02.07-.01.09-.017.012-.028.036-.028.058s-.006.038-.014.038-.014.017-.014.038-.012.047-.028.058-.028.036-.028.086c0 .036-.006.066-.014.066s-.014.012-.014.028-.006.028-.014.028-.014.012-.014.027-.008.03-.018.034-.013.01.004.023.017.018.004.023-.018.025-.018.047-.006.04-.014.04-.014.02-.014.042-.006.04-.014.04-.014.03-.014.07-.006.07-.014.07-.014.046-.014.11-.006.11-.014.11-.014.03-.014.07-.006.07-.014.07-.014.04-.014.096c0 .063-.006.098-.018.104.02.026.024.105.004.105-.01 0-.014.17-.014.484l.014.484c.01 0 .014.074.014.194s.005.194.014.194.014.04.014.097.006.097.014.097.014.037.014.083.006.083.014.083.014.037.014.083.006.083.014.083.014.046.014.11.006.11.014.11.014.03.014.07.006.07.014.07.014.046.014.11.006.11.014.11.014.013.014.028.006.028.014.028.014.04.014.094c0 .078.005.097.028.114.016.01.028.03.028.045s.006.025.014.025.014.023.014.052c0 .036.01.058.028.072s.028.036.028.1c0 .044.006.08.014.08s.014.012.014.028.006.028.014.028.014.025.014.055.006.055.014.055.014.016.014.036.016.05.042.075.042.053.042.075.006.036.014.036.014.01.014.022.02.04.042.06c.032.03.042.05.042.088 0 .027.006.05.014.05s.014.01.014.025.013.034.028.044.028.036.028.058.006.038.014.038.014.016.014.036.016.05.042.075.042.05.042.06.006.022.014.022.014.016.014.036.016.05.042.075.042.052.042.07.03.057.07.097.07.076.07.086.013.028.028.04.028.028.028.038.032.05.07.086.07.076.07.086.013.027.028.038.028.03.028.04.02.036.042.058.042.046.042.055.02.034.042.055.042.05.042.06.006.022.014.022.014.01.014.022.032.052.07.09.07.075.07.083.02.034.042.055.042.046.042.055.045.06.1.11.1.103.1.11.02.033.043.055.042.046.042.054a3.85 3.85 0 0 0 .429.416c.01 0 .027.012.04.028s.03.028.04.028.063.043.117.097a.47.47 0 0 0 .12.097c.012 0 .022.006.022.014s.01.014.025.014.034.012.046.028.032.028.046.028.025.006.025.014.01.014.025.014.034.012.046.028.03.028.042.028.03.013.043.028.037.028.057.028.045.012.057.028.037.028.07.028.057.01.07.028.032.028.046.028.025.006.025.014.013.014.028.014.028.006.028.014.013.014.028.014.028.006.028.014.013.014.028.014.028.006.028.014.02.014.043.014.042.006.042.014.02.014.043.014c.033 0 .043.006.043.028s.01.028.028.028.028.006.028.014.025.014.057.014.057.006.057.014.032.014.07.014.07.006.07.014.013.014.028.014.028.006.028.014.013.014.028.014.028.006.028.014.025.014.057.014.057.006.057.014.02.014.042.014.043.006.043.014.013.014.028.014.028.006.028.014.032.014.07.014.07.006.07.014.032.014.07.014.07.006.07.014.013.014.028.014.028.006.028.014.043.014.1.014.1.006.1.014.02.014.043.014.043.006.043.014.013.014.028.014.028.006.028.014.013.014.028.014.028-.006.028-.014.013-.014.028-.014.028.006.028.014.013.014.028.014.028.006.028.014.043.014.1.014.1.006.1.014.013.014.028.014.028.006.028.014.057.014.142.014.142.006.142.014.02.014.042.014.042.006.042.014c0 .02.138.017.148-.003.02.01.043.017.066.017s.04.006.04.014.025.014.057.014.057.006.057.014.057.014.142.014.142.006.142.014.032.014.07.014.07.006.07.014.032.014.07.014.07.006.07.014.032.014.07.014.07.006.07.014.037.014.084.014c.054 0 .086.006.09.017s.01.012.023-.004.018-.016.023-.003.034.017.077.017.07.006.07.014.042.014.1.014.1.006.1.014.012.014.027.014.03.008.034.017.01.012.022-.003.017-.018.03 0 .017.016.023.003c.016-.04.1-.003.1.044 0 .012.006.022.014.022.014-.022.06-.028.127-.028s.113.006.113.014.09.014.24.014c.178 0 .242.004.248.017.02-.01.037-.017.05-.017s.03.008.033.017.01.012.024-.003.018-.017.023-.003c.01.02.06.023.06.003 0-.01.1-.014.24-.014s.24-.005.24-.014.026-.014.057-.014.057-.006.057-.014.038-.014.085-.014.085-.006.085-.014.02-.014.042-.014.043-.006.043-.014.025-.014.057-.014.057-.006.057-.014.032-.014.07-.014.07-.006.07-.014.02-.014.043-.014.042-.006.042-.014.025-.014.057-.014.057-.006.057-.014.026-.014.057-.014.057-.006.057-.014.013-.014.028-.014.028-.006.028-.014.03-.014.068-.014c.05 0 .073-.007.088-.028.01-.015.032-.028.046-.028s.025-.006.025-.014.02-.014.043-.014.042-.006.042-.014.02-.014.043-.014.042-.006.042-.014.02-.014.043-.014.042-.006.042-.014.026-.014.057-.014.057-.006.057-.014.013-.014.028-.014.028-.006.028-.014.02-.014.042-.014.043-.006.043-.014.013-.014.028-.014.028-.006.028-.014.024-.014.054-.014c.037 0 .06-.008.074-.028s.037-.028.074-.028c.03 0 .053-.006.053-.014s.013-.014.028-.014.028-.006.028-.014.02-.014.043-.014.043-.006.043-.014.02-.014.042-.014.043-.006.043-.014.013-.014.028-.014.028-.006.028-.014.013-.014.028-.014.028-.006.028-.014.013-.014.028-.014.028-.006.028-.014.018-.014.04-.014.048-.01.06-.028.036-.028.054-.028.05-.018.073-.04c.028-.03.053-.04.085-.04s.057-.012.085-.04c.022-.023.047-.04.056-.04.024 0 .057-.036.057-.06 0-.014.013-.022.04-.022s.048-.01.06-.028.03-.028.04-.028.037-.02.06-.04.05-.04.062-.04.023-.01.023-.028.01-.028.025-.028.034-.012.046-.028.03-.028.04-.028c.023 0 .06-.034.06-.055s.094-.11.114-.11c.01 0 .04-.025.07-.055s.064-.055.077-.055.022-.012.022-.028.01-.028.022-.028.053-.03.09-.07.08-.07.09-.07.022-.012.022-.028.01-.028.022-.028c.033 0 .063-.035.063-.075 0-.023.008-.035.022-.035a.27.27 0 0 0 .12-.111c0-.01.02-.033.043-.054s.042-.05.042-.06.01-.022.022-.022c.028 0 .12-.09.12-.117 0-.012.006-.02.014-.02s.014-.012.014-.028.006-.028.014-.028.014-.01.014-.025.013-.034.028-.044.028-.036.028-.055.013-.044.028-.055.028-.03.028-.04.013-.03.028-.04.028-.03.028-.04.013-.03.028-.04.028-.03.028-.044.006-.025.014-.025.014-.013.014-.028.006-.028.014-.028.014-.016.014-.036.016-.05.042-.075c.032-.03.043-.05.043-.088 0-.027.006-.05.014-.05s.014-.012.014-.028.006-.028.014-.028.014-.01.014-.024.013-.034.028-.045.028-.03.028-.044.006-.025.014-.025.014-.01.014-.025.013-.034.028-.044.028-.036.028-.058.006-.038.014-.038.014-.012.014-.028.006-.028.014-.028.014-.02.014-.04.006-.04.014-.04.014-.017.014-.038.012-.047.028-.058.028-.03.028-.044.006-.025.014-.025c.02 0 .017-.052-.003-.06.01-.02.018-.036.018-.05s.006-.027.014-.027.014-.01.014-.025.013-.034.028-.044.028-.03.028-.044.006-.025.014-.025.014-.012.014-.028.006-.028.014-.028.014-.012.014-.028.006-.028.014-.028.014-.012.014-.028.006-.028.014-.028.014-.024.014-.052c0-.036.01-.058.028-.072s.028-.03.028-.044.006-.025.014-.025.014-.012.014-.028.006-.028.014-.028.014-.02.014-.042.006-.04.014-.04.014-.02.014-.04.006-.04.014-.04.014-.03.014-.07.006-.07.014-.07.014-.02.014-.04.006-.04.014-.04.014-.018.014-.04.008-.043.018-.047.013-.01-.003-.022-.02-.016 0-.03.02-.015 0-.03-.017-.017-.003-.022.018-.03.018-.06.006-.054.014-.054.014-.025.014-.055.006-.055.014-.055.014-.03.014-.07.006-.07.014-.07.014-.025.014-.055.006-.055.014-.055.014-.012.014-.028-.006-.028-.014-.028-.014-.02-.014-.04.006-.04.014-.04.014-.012.014-.028.006-.028.014-.028.014-.03.014-.07.006-.07.014-.07.014-.055.014-.138.006-.138.014-.138.014-.037.014-.083.006-.083.014-.083c.02 0 .017-.052-.004-.06.01-.02.018-.048.018-.077s.008-.057.018-.06c-.02-.026-.024-.105-.004-.105.008 0 .014-.046.014-.11s.006-.11.014-.11c.02 0 .017-.052-.004-.06.013-.022.018-.068.018-.175 0-.09.006-.15.014-.15.02 0 .018-.052-.003-.06a.69.69 0 0 0 .003-.298c-.02 0-.017-.05.004-.06-.01-.02-.018-.036-.018-.05s.008-.028.018-.032.012-.01-.004-.022-.02-.016 0-.03.02-.015 0-.028-.02-.015 0-.03.017-.017.004-.022-.018-.058-.018-.2c0-.12-.005-.192-.014-.192s-.014-.04-.014-.097-.006-.097-.014-.097-.014-.025-.014-.055-.006-.055-.014-.055-.014-.046-.014-.11-.006-.11-.014-.11-.014-.02-.014-.04-.006-.042-.014-.042-.014-.025-.014-.055-.006-.055-.014-.055-.014-.02-.014-.04-.006-.04-.014-.04-.014-.012-.014-.028-.006-.028-.014-.028-.014-.025-.014-.055-.006-.055-.014-.055-.014-.02-.014-.042-.006-.04-.014-.04-.014-.02-.014-.042-.006-.04-.014-.04-.014-.012-.014-.028-.006-.028-.014-.028-.014-.013-.014-.028-.006-.028-.014-.028-.014-.025-.014-.055-.006-.055-.014-.055-.014-.02-.014-.04-.006-.042-.014-.042-.014-.012-.014-.028-.006-.028-.014-.028-.014-.012-.014-.028-.006-.028-.014-.028-.014-.025-.014-.055-.006-.055-.014-.055-.014-.02-.014-.04-.006-.042-.014-.042-.014-.012-.014-.028-.006-.028-.014-.028-.014-.013-.014-.028-.006-.028-.014-.028-.014-.02-.014-.04-.006-.04-.014-.04-.014-.012-.014-.028-.006-.028-.014-.028-.014-.02-.014-.042-.006-.04-.014-.04-.014-.02-.014-.04-.006-.042-.014-.042-.014-.01-.014-.025-.013-.034-.028-.044-.028-.03-.028-.045-.006-.025-.014-.025-.014-.012-.014-.028-.006-.028-.014-.028-.014-.01-.014-.025-.013-.034-.028-.044-.028-.03-.028-.045-.006-.025-.014-.025-.014-.012-.014-.028-.006-.028-.014-.028-.014-.01-.014-.024-.013-.034-.028-.045-.028-.035-.028-.053-.018-.05-.043-.072-.043-.046-.043-.055-.032-.046-.07-.083-.07-.075-.07-.083-.02-.034-.042-.055-.042-.046-.042-.054a.59.59 0 0 0-.177-.167c-.012 0-.02-.01-.02-.022s-.032-.052-.07-.09-.07-.074-.07-.083-.057-.07-.128-.14-.127-.133-.127-.145-.006-.02-.014-.02-.014-.01-.014-.022-.026-.046-.057-.075-.057-.062-.057-.072-.013-.028-.028-.04-.028-.03-.028-.045-.006-.025-.014-.025-.014-.01-.014-.022-.02-.04-.042-.06-.043-.046-.043-.055-.02-.034-.043-.055-.043-.046-.043-.055-.025-.04-.057-.07-.057-.06-.057-.07c0-.023-.066-.083-.09-.083-.012 0-.022-.01-.022-.022 0-.026-.033-.06-.057-.06-.01 0-.034-.02-.056-.04s-.047-.04-.057-.04-.035-.02-.057-.04-.048-.04-.06-.04-.03-.012-.04-.028-.037-.028-.074-.028c-.03 0-.053-.006-.053-.014s-.02-.014-.043-.014-.043-.006-.043-.014-.013-.014-.028-.014-.028-.006-.028-.014-.013-.014-.028-.014-.028-.01-.028-.028-.01-.028-.028-.028-.028-.006-.028-.014-.018-.014-.04-.014-.048-.01-.06-.028-.032-.028-.046-.028-.025-.006-.025-.014-.013-.014-.028-.014-.028-.006-.028-.014-.01-.014-.025-.014-.034-.012-.046-.028-.037-.028-.057-.028-.045-.012-.057-.028-.037-.028-.057-.028-.045-.012-.057-.028-.032-.028-.046-.028-.025-.006-.025-.014-.013-.014-.028-.014-.028-.006-.028-.014-.018-.014-.04-.014-.048-.01-.06-.028-.037-.028-.06-.028-.04-.006-.04-.014-.013-.014-.028-.014-.028-.006-.028-.014-.024-.014-.053-.014c-.037 0-.06-.008-.074-.028s-.037-.028-.057-.028-.045-.012-.057-.028-.037-.028-.07-.028-.057-.01-.07-.028-.037-.028-.116-.028c-.055 0-.096-.006-.096-.014s-.013-.014-.028-.014-.028-.006-.028-.014-.013-.014-.028-.014-.028-.006-.028-.014-.02-.014-.042-.014-.043-.006-.043-.014-.026-.014-.057-.014-.057-.006-.057-.014-.013-.014-.028-.014-.028-.006-.028-.014-.02-.014-.043-.014-.042-.006-.042-.014-.02-.014-.042-.014-.043-.006-.043-.014-.02-.014-.043-.014-.043-.006-.043-.014-.013-.014-.028-.014-.028-.006-.028-.014-.026-.014-.057-.014-.057-.006-.057-.014-.02-.014-.043-.014-.042-.006-.042-.014-.013-.014-.028-.014-.028-.006-.028-.014-.026-.014-.057-.014-.057-.006-.057-.014-.032-.014-.07-.014-.07-.006-.07-.014-.032-.014-.07-.014-.07-.006-.07-.014-.032-.014-.07-.014-.07-.006-.07-.014-.047-.014-.113-.014-.113-.006-.113-.014-.047-.014-.113-.014-.113-.006-.113-.014-.047-.014-.113-.014-.113-.006-.113-.014-.047-.014-.113-.014-.113-.006-.113-.014-.032-.014-.07-.014-.07-.006-.07-.014c0-.02-.08-.017-.09.003-.022-.012-.067-.017-.165-.017-.084 0-.14-.006-.14-.014-.022-.014-.028-.008-.028 0zm-.198.83c0 .008.02.014.043.014s.042-.006.042-.014.1-.014.27-.014.27.005.27.014.013.014.028.014.028.006.028.014.042.014.1.014.1.006.1.014.065.014.167.014c.15 0 .17.003.187.028s.037.028.102.028c.045 0 .082.006.082.014s.032.014.07.014.07.006.07.014.032.014.07.014.07.006.07.014.032.014.07.014.07.006.07.014.013.014.028.014.028.006.028.014.038.014.085.014.085.006.085.014.02.014.043.014.043.006.043.014.02.014.042.014.042.006.042.014.02.014.043.014.043.006.043.014.02.014.043.014.043.006.043.014.024.014.053.014c.037 0 .06.008.074.028s.037.028.088.028c.037 0 .068.006.068.014s.013.014.028.014.028.006.028.014.013.014.028.014.028.006.028.014.026.014.057.014.057.006.057.014.026.014.057.014.057.006.057.014.013.014.028.014.028.006.028.014.02.014.043.014.042.006.042.014.013.014.028.014.028.006.028.014.013.014.028.014.028.006.028.014.032.014.07.014.07.006.07.014.013.014.028.014.028.006.028.014.01.014.025.014.034.012.046.028.037.028.06.028.04.006.04.014.013.014.028.014.028.006.028.014.013.014.028.014.028.006.028.014.013.014.028.014.028.006.028.014.018.014.04.014.048.01.06.028.032.028.046.028.025.006.025.014.013.014.028.014.028.006.028.014.013.014.028.014.028.006.028.014.01.014.025.014.034.012.046.028.037.028.057.028.045.012.057.028.037.028.06.028.04.006.04.014.013.014.028.014.028.006.028.014.01.014.023.014.04.02.062.04.05.04.062.04.023.006.023.014.013.014.028.014.028.01.028.028.01.028.022.028c.026 0 .063.032.063.055s.065.083.085.083.056.036.056.058c0 .01.013.028.028.04s.028.03.028.04.013.03.028.04.028.028.028.04.02.036.042.058.043.046.043.055.025.04.057.07.057.062.057.072.013.028.028.04.028.03.028.04.02.036.043.058.043.046.043.055a.43.43 0 0 0 .085.097.44.44 0 0 1 .085.097c0 .008.038.052.085.097s.085.088.085.096.064.077.142.152.142.144.142.153.02.033.043.054.042.046.042.055.02.034.043.055.043.052.043.07.02.048.043.07.043.05.043.06.006.022.014.022.014.012.014.028.006.028.014.028.014.01.014.025.013.034.028.044.028.03.028.042.013.03.028.04.028.03.028.04.013.03.028.042c.02.015.028.036.028.086 0 .036.006.066.014.066s.014.012.014.028.006.028.014.028.014.012.014.028.006.028.014.028.014.02.014.04.006.04.014.04.014.02.014.042.006.04.014.04.014.012.014.028.006.028.014.028.014.012.014.028.006.028.014.028.014.012.014.028.006.028.014.028.014.02.014.04.006.04.014.04.014.012.014.028.006.028.014.028.014.024.014.052c0 .036.01.058.028.072s.028.036.028.058.006.038.014.038.014.02.014.04.006.04.014.04.014.012.014.028.006.028.014.028.014.03.014.07.006.07.014.07.014.037.014.083.006.083.014.083.014.02.014.04.006.04.014.04.014.02.014.042.006.04.014.04.014.03.014.07.006.07.014.07.014.046.014.11c0 .075.006.112.018.117s.013.01-.004.023-.017.018-.003.023.018.05.018.158c0 .09.006.15.014.15.022 0 .02.327-.004.338.022.026.026.353.004.353-.008 0-.014.013-.014.028s.006.028.014.028.014.037.014.083-.006.083-.014.083-.014.037-.014.083-.006.083-.014.083-.014.046-.014.11-.006.11-.014.11c-.02 0-.017.052.004.06.013.005.012.01-.004.023s-.017.018-.004.023c.02.008.024.06.004.06-.008 0-.014.03-.014.07s-.006.07-.014.07-.014.03-.014.068-.007.07-.018.075-.012.01.004.023.017.018.004.023-.018.036-.018.09c0 .045-.006.082-.014.082s-.014.025-.014.055-.006.055-.014.055-.014.03-.014.07-.006.07-.014.07-.014.03-.014.07-.006.07-.014.07-.014.02-.014.042-.006.04-.014.04-.014.02-.014.04-.006.04-.014.04-.014.012-.014.027-.008.03-.018.034-.012.01.004.023.017.018.004.023-.018.025-.018.047-.006.04-.014.04-.014.02-.014.04-.006.04-.014.04-.014.025-.014.055-.006.055-.014.055-.014.025-.014.055-.006.055-.014.055-.014.013-.014.028-.006.028-.014.028-.014.012-.014.028-.006.028-.014.028-.014.03-.014.07-.006.07-.014.07-.014.012-.014.028-.006.028-.014.028-.014.02-.014.04-.006.04-.014.04-.014.012-.014.028-.006.028-.014.028-.014.01-.014.025-.013.034-.028.044-.028.036-.028.07-.01.056-.028.07-.028.03-.028.045-.006.025-.014.025-.014.012-.014.028-.006.028-.014.028-.014.023-.014.052c0 .036-.01.058-.028.072s-.028.03-.028.044-.006.025-.014.025-.014.02-.014.04-.006.04-.014.04-.014.01-.014.025-.013.034-.028.044-.028.036-.028.058-.006.038-.014.038-.014.012-.014.028-.006.028-.014.028-.014.013-.014.028-.006.028-.014.028-.014.012-.014.028-.006.028-.014.028-.014.01-.014.025-.013.034-.028.044-.028.036-.028.055-.013.044-.028.055-.028.03-.028.044-.006.025-.014.025-.014.01-.014.025-.013.034-.028.045-.028.03-.028.044-.006.025-.014.025-.014.01-.014.022-.02.04-.042.06-.043.046-.043.055-.026.04-.057.07-.057.063-.057.075-.006.022-.014.022-.014.016-.014.035c0 .025-.025.06-.085.117-.047.045-.085.088-.085.096 0 .023-.095.11-.12.11-.012 0-.022.01-.022.02a2.31 2.31 0 0 1-.341.338c-.008 0-.046.03-.084.07s-.078.07-.088.07-.028.013-.04.028-.032.028-.046.028-.025.006-.025.014-.01.014-.023.014-.04.02-.062.04-.054.04-.076.04-.037.006-.037.014-.013.014-.028.014-.028.006-.028.014-.013.014-.028.014-.028.006-.028.014-.02.014-.042.014-.043.006-.043.014-.01.014-.025.014-.034.012-.046.028-.037.028-.06.028-.04.006-.04.014-.02.014-.042.014-.042.006-.042.014-.02.014-.043.014-.043.006-.043.014-.013.014-.028.014-.028.006-.028.014-.013.014-.028.014-.028.006-.028.014-.013.014-.028.014-.028.006-.028.014-.02.014-.043.014-.042.006-.042.014-.02.014-.043.014-.043.006-.043.014-.01.014-.025.014-.034.012-.046.028-.037.028-.074.028c-.03 0-.053.006-.053.014s-.013.014-.028.014-.028.006-.028.014-.018.014-.04.014-.048.01-.06.028-.037.028-.06.028-.04.006-.04.014-.02.014-.043.014-.043.006-.043.014-.013.014-.028.014-.028.006-.028.014-.032.014-.07.014-.07.006-.07.014-.02.014-.043.014-.042.006-.042.014-.013.014-.028.014-.028.006-.028.014-.043.014-.1.014-.1.006-.1.014-.052.014-.127.014-.127.006-.127.014-.026.014-.057.014-.057.006-.057.014-.013.014-.028.014-.028.006-.028.014-.025.014-.057.014-.057.006-.057.014-.052.014-.127.014-.127.006-.127.014-.06.014-.156.014-.156.005-.156.014-.013.014-.028.014-.028-.006-.028-.014c0-.02-.053-.017-.062.003-.022-.012-.06-.017-.137-.017-.065 0-.112-.006-.112-.014s-.038-.014-.085-.014-.085-.006-.085-.014-.042-.014-.1-.014-.1-.006-.1-.014-.043-.014-.1-.014-.1-.006-.1-.014-.047-.014-.113-.014-.113-.006-.113-.014-.038-.014-.085-.014-.085-.006-.085-.014-.032-.014-.07-.014-.07-.006-.07-.014-.032-.014-.07-.014-.07-.006-.07-.014-.052-.014-.127-.014-.127-.006-.127-.014-.025-.014-.057-.014-.057-.006-.057-.014-.038-.014-.085-.014-.085-.006-.085-.014-.013-.014-.028-.014-.028.006-.028.014-.013.014-.028.014-.028-.006-.028-.014-.012-.014-.027-.014-.03-.008-.034-.017-.01-.012-.024.003-.018.017-.024.003-.034-.017-.077-.017-.07-.006-.07-.014-.025-.014-.056-.014-.06-.008-.063-.017-.01-.012-.024.003-.018.016-.023.003-.034-.017-.077-.017-.07-.006-.07-.014-.037-.014-.084-.014c-.053 0-.087-.006-.092-.017-.03.026-.07.02-.093-.01-.016-.022-.037-.028-.102-.028-.045 0-.082-.006-.082-.014s-.012-.014-.027-.014-.03-.008-.035-.017c-.026.02-.136.024-.136.003 0-.008-.02-.014-.043-.014s-.043-.006-.043-.014-.025-.014-.057-.014-.057-.006-.057-.014-.02-.014-.042-.014-.043-.006-.043-.014-.025-.014-.057-.014-.057-.006-.057-.014-.032-.014-.07-.014-.07-.006-.07-.014-.013-.014-.028-.014-.028-.006-.028-.014-.02-.014-.043-.014-.043-.006-.043-.014-.024-.014-.053-.014c-.037 0-.06-.008-.074-.028s-.032-.028-.046-.028-.025-.006-.025-.014-.024-.014-.053-.014c-.037 0-.06-.008-.074-.028s-.037-.028-.057-.028-.045-.012-.057-.028c-.023-.03-.064-.037-.077-.01-.02-.01-.04-.017-.06-.017s-.06-.026-.118-.083-.094-.083-.12-.083c-.02 0-.036-.006-.036-.014s-.013-.014-.028-.014-.028-.006-.028-.014-.013-.014-.028-.014-.028-.01-.028-.028-.01-.028-.028-.028-.028-.006-.028-.014-.013-.014-.028-.014-.028-.006-.028-.014-.013-.014-.028-.014-.028-.006-.028-.014-.02-.014-.043-.014c-.033 0-.042-.006-.042-.028s-.01-.028-.028-.028-.028-.01-.028-.022c0-.025-.033-.06-.057-.06-.01 0-.04-.025-.07-.055s-.062-.055-.07-.055-.044-.028-.08-.062-.063-.07-.063-.077-.025-.04-.057-.068-.057-.06-.057-.07a.57.57 0 0 0-.099-.111c-.055-.052-.1-.102-.1-.11s-.02-.033-.043-.055-.043-.05-.043-.06-.01-.022-.022-.022c-.032 0-.09-.063-.09-.097 0-.018-.044-.07-.113-.138-.062-.06-.113-.12-.113-.13s-.006-.02-.014-.02-.014-.01-.014-.02-.028-.05-.063-.083-.073-.062-.085-.062-.022-.012-.022-.028-.006-.028-.014-.028-.014-.01-.014-.02c0-.028-.063-.09-.09-.09-.017 0-.022-.015-.022-.063 0-.056-.007-.07-.057-.116-.03-.03-.057-.06-.057-.07s-.02-.034-.042-.055-.042-.05-.042-.06-.006-.022-.014-.022-.014-.02-.014-.04-.006-.04-.014-.04-.014-.01-.014-.025-.013-.034-.028-.044-.028-.03-.028-.04-.013-.03-.028-.04-.028-.03-.028-.045-.006-.025-.014-.025-.014-.012-.014-.028-.006-.028-.014-.028-.014-.012-.014-.028-.006-.028-.014-.028-.014-.012-.014-.027-.008-.03-.018-.034-.013-.01.003-.02.016-.018-.01-.04c-.017-.015-.03-.035-.03-.046s-.013-.03-.028-.04-.028-.03-.028-.044-.006-.025-.014-.025-.014-.024-.014-.052c0-.036-.01-.058-.028-.072s-.028-.03-.028-.044-.006-.025-.014-.025-.014-.013-.014-.028-.006-.028-.014-.028-.014-.02-.014-.04-.006-.04-.014-.04-.014-.02-.014-.04-.006-.042-.014-.042-.014-.012-.014-.028-.006-.028-.014-.028-.014-.025-.014-.055-.006-.055-.014-.055-.014-.03-.014-.07-.006-.07-.014-.07-.014-.02-.014-.04-.006-.04-.014-.04-.014-.025-.014-.055-.006-.055-.014-.055-.014-.03-.014-.07-.006-.07-.014-.07-.014-.037-.014-.083-.006-.083-.014-.083-.014-.04-.014-.097-.006-.097-.014-.097-.014-.083-.014-.22-.005-.22-.014-.22-.014-.037-.014-.082c0-.052-.006-.085-.018-.1.02-.026.025-.188.004-.188s-.018-.134.004-.144c-.022-.026-.025-.243-.004-.243.008 0 .014-.04.014-.097s-.006-.097-.014-.097-.014-.06-.014-.152.006-.152.014-.152.014-.04.014-.097.006-.097.014-.097.014-.035.014-.078c0-.063.006-.083.032-.105s.026-.03.014-.034c-.02-.007-.024-.06-.004-.06.008 0 .014-.024.014-.052 0-.036.01-.058.028-.072s.028-.036.028-.1c0-.044.006-.08.014-.08s.014-.013.014-.028.006-.028.014-.028.014-.037.014-.083.006-.083.014-.083.014-.012.014-.028.006-.028.014-.028.014-.023.014-.05c0-.035.01-.058.03-.077s.028-.03.01-.04-.016-.016-.003-.02.018-.033.018-.072c0-.05.007-.07.028-.085.016-.01.028-.036.028-.055s.013-.044.028-.055.028-.03.028-.045.006-.024.014-.024.014-.03.014-.066c0-.05.007-.07.028-.086.016-.01.028-.03.028-.045s.006-.025.014-.025.014-.02.014-.04.006-.042.014-.042.014-.017.014-.038.012-.047.028-.058.028-.036.028-.072c0-.03.006-.052.014-.052s.014-.012.014-.028.006-.028.014-.028.014-.02.014-.042.006-.04.014-.04.014-.013.014-.028.006-.028.014-.028.014-.02.014-.04.006-.04.014-.04.014-.012.014-.028.006-.028.014-.028.014-.013.014-.028.006-.028.014-.028.014-.03.014-.07c0-.06.004-.07.028-.07.02 0 .028-.01.028-.028s.006-.028.014-.028.014-.012.014-.028.006-.028.014-.028.014-.017.014-.038.012-.047.028-.058.028-.028.028-.04.02-.037.042-.058.042-.047.042-.058.013-.028.028-.04.028-.028.028-.04.02-.037.042-.058.043-.053.043-.072.013-.042.028-.053.028-.03.028-.04.013-.03.028-.042.028-.028.028-.038a.79.79 0 0 1 .127-.142c.07-.068.127-.13.127-.138a6.36 6.36 0 0 1 .51-.498 6.28 6.28 0 0 0 .51-.498c0-.02.036-.054.056-.054.01 0 .047-.03.085-.07s.076-.07.085-.07.047-.03.085-.07.08-.07.09-.07.022-.006.022-.014.018-.014.04-.014.048-.01.06-.028.032-.028.046-.028.025-.006.025-.014.01-.014.025-.014.034-.012.046-.028.032-.028.046-.028.025-.006.025-.014.01-.014.025-.014.034-.012.046-.028.032-.028.046-.028.025-.006.025-.014.018-.014.04-.014.048-.01.06-.028.037-.028.074-.028c.03 0 .053-.006.053-.014s.026-.014.057-.014.057-.006.057-.014.032-.014.07-.014.07-.006.07-.014.025-.014.057-.014.057-.006.057-.014.052-.014.127-.014.127-.006.127-.014.012-.014.027-.014.03-.008.034-.017.01-.012.024.003.018.016.024.003.05-.017.162-.017c.094 0 .155-.005.155-.014s.047-.014.113-.014.113-.006.113-.014.032-.014.07-.014.07-.006.07-.014.032-.014.07-.014.07-.006.07-.014.03-.014.07-.014.072-.007.077-.017.01-.012.024.003.018.016.023.003.043-.017.12-.017c.065 0 .112-.006.112-.014s.038-.014.085-.014.085-.006.085-.014.025-.014.057-.014.057-.006.057-.014.02-.014.042-.014.043-.006.043-.014.013-.014.028-.014.028-.006.028-.014.026-.014.057-.014.057-.006.057-.014.043-.014.1-.014.1-.006.1-.014.02-.014.043-.014.042.006.042.014zm16.127 6.012c-.017.023-.037.028-.116.028-.055 0-.096.006-.096.014s-.038.014-.085.014-.085.006-.085.014-.047.014-.113.014-.113.006-.113.014-.038.014-.085.014-.085.006-.085.014-.042.014-.098.014c-.065 0-.1.006-.105.017s-.01.012-.023-.003-.018-.017-.024-.004-.034.017-.077.017-.07.006-.07.014-.047.014-.113.014-.113.006-.113.014c0 .02-.08.017-.09-.003-.022.012-.067.017-.165.017-.084 0-.14.006-.14.014s-.06.014-.156.014-.156.005-.156.014-.302.014-.878.014l-.878.014c0 .01-.16.014-.453.014l-.453.014c0 .01-.075.014-.198.014s-.198-.005-.198-.014-.085-.014-.227-.014-.226-.005-.226-.014-.026-.014-.057-.014-.057.006-.057.014-.042.014-.1.014-.1.006-.1.014-.02.014-.042.014-.043.006-.043.014-.01.014-.022.014c-.034 0-.063.035-.063.075 0 .02-.006.036-.014.036s-.014.012-.014.028-.006.028-.014.028-.014.013-.014.028-.006.028-.014.028-.014.012-.014.027-.008.03-.018.035c.01.02.018.036.018.05s.006.027.014.027.014.025.014.055c0 .04.006.055.022.055s.047.025.077.055.067.055.088.055.043.012.054.028.032.028.046.028.025.006.025.014.123.014.34.014l.34-.014c0-.01.137-.014.382-.014l.382-.014c0-.01.16-.014.453-.014l.453-.014c0-.01.198-.014.566-.014l.566-.014c0-.008.076-.014.198-.014s.198-.005.198-.014.06-.014.156-.014.156-.005.156-.014.047-.014.113-.014.113-.006.113-.014.052-.014.128-.014.127-.006.127-.014.02-.014.04-.014.045-.008.05-.017c.026.02.107.024.107.003 0-.008.013-.014.028-.014s.028-.006.028-.014.07-.014.184-.014.184-.005.184-.014.026-.014.057-.014.057.006.057.014.013.014.028.014.028-.006.028-.014c0-.02.07-.016.093.006s.027.063.006.063c-.008 0-.014.012-.014.028s-.006.028-.014.028-.014.02-.014.04c0 .035.005.04.036.04.04 0 .077-.03.077-.06 0-.012.012-.022.028-.022s.028-.006.028-.014.032-.014.07-.014c.07 0 .07-.001.07-.04 0-.032.006-.04.028-.04.015 0 .028-.006.028-.014s.013-.014.028-.014.028-.006.028-.014.013-.014.028-.014.028-.006.028-.014.02-.014.042-.014.043-.006.043-.014.02-.014.043-.014.043-.006.043-.014.016-.014.036-.014c.04 0 .077-.028.077-.058 0-.01.013-.028.028-.04s.028-.036.028-.058.006-.038.014-.038.014-.035.014-.077c0-.072-.004-.08-.057-.13-.03-.03-.057-.06-.057-.07 0-.023-.066-.083-.09-.083-.012 0-.022-.006-.022-.014s-.02-.014-.042-.014-.043-.006-.043-.014-.026-.014-.057-.014-.057-.006-.057-.014c0-.025-.078-.015-.1.014zm-25.784.152c0 .008-.02.014-.042.014s-.042.006-.042.014-.025.014-.057.014-.057.006-.057.014-.013.014-.028.014-.028.006-.028.014-.052.014-.127.014-.127.006-.127.014-.025.014-.057.014-.057.006-.057.014-.052.014-.127.014-.127.006-.127.014-.013.014-.028.014-.028.006-.028.014-.025.014-.057.014-.057.006-.057.014-.047.014-.113.014-.113.006-.113.014-.085.014-.227.014-.227.005-.227.014-.08.014-.21.014c-.155 0-.213.005-.22.017-.026-.02-.08-.023-.08-.003 0 .008-.013.014-.028.014s-.028-.006-.028-.014-.02-.014-.042-.014-.042.006-.042.014-.066.014-.17.014-.17.005-.17.014-.104.014-.283.014l-.283.014c0 .01-.076.014-.198.014s-.198.005-.198.014-.047.014-.113.014-.113.006-.113.014-.14.014-.39.014h-.39l-.04-.04-.04-.042H.688c-.147 0-.235.005-.235.014s-.013.014-.028.014-.028.006-.028.014-.038.014-.085.014-.085.006-.085.014-.01.014-.022.014c-.025 0-.09.06-.09.084 0 .01-.02.033-.042.054s-.042.05-.042.06-.006.022-.014.022-.014.04-.014.097.006.097.014.097.014.01.014.02.048.068.106.124l.106.103h.078c.043 0 .078-.006.078-.014 0-.02.053-.017.063.004.027-.02.22-.024.22-.004 0 .01.123.014.34.014l.34-.014c0-.008.06-.014.156-.014s.156-.005.156-.014.06-.014.156-.014.156-.005.156-.014.042-.014.1-.014.1-.006.1-.014.16-.014.453-.014l.453-.014c0-.01.08-.014.212-.014s.212-.005.212-.014.104-.014.283-.014l.283-.014c0-.008.066-.014.17-.014s.17-.005.17-.014.042-.014.1-.014.1-.006.1-.014.042-.014.1-.014.1-.006.1-.014.038-.014.085-.014.085-.006.085-.014.052-.014.127-.014.127-.006.127-.014.038-.014.085-.014.085-.006.085-.014.02-.014.042-.014.042-.006.042-.014.057-.014.142-.014.142-.006.142-.014.037-.014.082-.014c.066 0 .086-.005.102-.028.01-.015.037-.028.057-.028s.045-.012.057-.028.032-.028.046-.028.025-.01.025-.028.01-.028.028-.028.028-.01.028-.04c0-.023.006-.04.014-.04s.014-.044.014-.104v-.104L6 13.71h-.15c-.1 0-.15.005-.15.014zm25.6.746c.022.014.028.008.028 0-.022-.014-.028-.008-.028 0zm-7.968 6.17c-.025.026-.046.054-.046.063s-.02.033-.043.054-.042.053-.042.075-.006.036-.014.036-.014.04-.014.094c0 .078.005.097.028.114s.028.036.028.1.005.08.022.08c.012 0 .047.025.077.055s.064.055.077.055.022.006.022.014.01.014.022.014a.47.47 0 0 1 .12.097c.054.053.105.097.114.097.023 0 .056.036.056.06 0 .012.006.022.014.022.014-.02.02-.028.028-.028s.014.02.014.04c0 .028.007.04.022.04.026 0 .063.032.063.055 0 .01.045.058.1.11s.1.105.1.117.012.02.028.02.028.01.028.02.076.095.17.186l.17.18c0 .02.036.055.056.055s.114.09.114.11c0 .008.032.046.07.082s.07.074.07.082.07.083.156.166l.156.166a.81.81 0 0 0 .205.194c.012 0 .02.01.02.02 0 .024.175.2.2.2s.085.064.085.083.18.194.2.194.056.035.056.055.036.055.06.055c.01 0 .028.012.04.028s.03.028.04.028.05.03.088.07.08.07.09.07.022.01.022.02.035.055.078.097.087.076.1.076.02.01.02.022c0 .025.033.06.057.06.01 0 .047.03.085.07s.076.07.085.07.034.02.056.04.047.042.057.042.035.02.057.04.047.04.056.04c.024 0 .114.093.114.117 0 .012.006.02.014.02s.014.012.014.028.01.028.025.028.034.012.046.028.032.028.046.028.025.006.025.014.01.014.023.014.04.02.062.04.048.04.06.04.03.012.04.028.032.028.046.028.025.006.025.014.032.014.07.014.07-.006.07-.014.013-.014.028-.014.028-.006.028-.014.01-.014.025-.014.034-.012.046-.028.032-.028.046-.028.025-.006.025-.014.013-.014.028-.014.028-.01.028-.022.02-.04.043-.06c.035-.032.043-.05.043-.102 0-.035.006-.064.014-.064.02 0 .017-.052-.003-.06.032-.03.02-.064-.04-.12-.03-.03-.057-.063-.057-.075s-.012-.022-.028-.022-.028-.006-.028-.014-.01-.014-.023-.014-.04-.02-.062-.04-.047-.04-.057-.04-.035-.02-.057-.04-.05-.04-.062-.04-.023-.006-.023-.014-.01-.014-.023-.014-.04-.02-.062-.04-.05-.042-.062-.042-.023-.01-.023-.028-.01-.028-.036-.028-.064-.027-.134-.097c-.054-.053-.105-.097-.113-.097s-.072-.056-.142-.124-.133-.124-.142-.124a.59.59 0 0 1-.113-.097c-.054-.053-.108-.097-.12-.097s-.022-.012-.022-.028-.01-.028-.028-.028-.028-.01-.028-.028-.01-.028-.022-.028-.037-.015-.057-.034-.035-.044-.035-.055-.01-.02-.022-.02c-.024 0-.148-.116-.148-.138 0-.008-.083-.095-.184-.194l-.184-.194a1.84 1.84 0 0 0-.184-.193l-.184-.194c0-.008-.076-.09-.17-.18l-.17-.18c0-.023-.21-.22-.233-.22-.012 0-.02-.01-.02-.02s-.038-.058-.085-.103-.085-.09-.085-.097-.02-.033-.042-.055-.043-.05-.043-.06-.01-.022-.022-.022c-.024 0-.12-.088-.12-.1 0-.008-.083-.095-.184-.194-.116-.113-.184-.19-.184-.207s-.04-.066-.092-.118c-.078-.076-.1-.09-.142-.09-.027 0-.05-.006-.05-.014s-.013-.014-.028-.014-.028-.006-.028-.014-.02-.014-.042-.014-.043.006-.043.014-.032.014-.07.014-.07-.006-.07-.014c0-.033-.08-.01-.124.035zM8.75 21.16c0 .008-.016.014-.036.014-.026 0-.066.03-.144.106-.06.058-.1.11-.092.112.032.01.018.074-.025.114-.023.02-.042.052-.042.07s-.02.048-.042.07-.042.047-.042.058-.013.028-.028.04-.028.034-.028.052-.03.06-.085.114c-.047.045-.085.09-.085.103s-.006.02-.014.02-.014.012-.014.028-.01.028-.028.028-.028.01-.028.028-.01.028-.028.028-.028.01-.028.02-.064.083-.142.16l-.142.152c0 .02-.207.22-.227.22-.008 0-.06.044-.113.097a.47.47 0 0 1-.12.097c-.012 0-.022.01-.022.022 0 .027-.034.06-.06.06-.01 0-.028.012-.04.028s-.03.028-.042.028-.03.012-.042.028-.03.028-.04.028c-.023 0-.117.1-.117.11s-.038.055-.07.055c-.017 0-.05.02-.07.04s-.05.042-.062.042-.023.006-.023.014-.01.014-.022.014-.06.037-.105.083c-.07.07-.09.083-.134.083-.036 0-.05.006-.05.022 0 .035-.037.06-.085.06-.032 0-.057.012-.085.04-.022.023-.048.04-.06.04s-.03.012-.04.028-.032.028-.046.028-.025.006-.025.014-.01.014-.023.014-.04.02-.062.04c-.033.035-.05.04-.105.04-.036 0-.065.006-.065.014s-.013.014-.028.014-.028.01-.028.028-.01.028-.028.028-.028.006-.028.014-.017.014-.037.014-.052.016-.076.04-.054.04-.076.04-.037.006-.037.014-.013.014-.028.014-.028.006-.028.014-.02.014-.042.014-.042.006-.042.014-.01.014-.022.014c-.028 0-.148.117-.148.145 0 .012-.01.02-.022.02-.03 0-.063.033-.063.06 0 .012-.006.022-.014.022s-.014.024-.014.054-.008.058-.018.062c.01.02.018.04.018.058 0 .038.057.102.09.102.012 0 .022.01.022.02a.38.38 0 0 0 .147.145c.01 0 .024-.008.028-.017s.01-.012.023.003.018.016.023.003.05-.017.162-.017c.094 0 .155-.006.155-.014s.038-.014.085-.014.085-.006.085-.014.02-.014.042-.014.042-.006.042-.014.025-.014.057-.014.057-.006.057-.014.013-.014.028-.014.028-.006.028-.014.02-.014.042-.014.042-.006.042-.014.013-.014.028-.014.028-.006.028-.014.013-.014.028-.014.028-.006.028-.014.013-.014.028-.014.028-.006.028-.014.01-.014.022-.014.044-.02.07-.048c.045-.044.05-.054.05-.132 0-.087.02-.124.063-.124.013 0 .022-.012.022-.028s.01-.028.025-.028.034-.013.046-.028.03-.028.042-.028.03-.012.042-.028.032-.028.046-.028.025-.006.025-.014.01-.014.022-.014.053-.03.09-.07.08-.07.09-.07.022-.006.022-.014.013-.014.028-.014.028-.006.028-.014.01-.014.022-.014.032-.01.045-.022c.018-.018.02-.024.004-.033s-.014-.015.004-.033c.012-.012.03-.022.04-.022s.04-.025.07-.055.064-.055.077-.055.022-.006.022-.014.01-.014.022-.014a.47.47 0 0 0 .12-.097c.06-.06.11-.097.127-.097s.073-.043.142-.11c.062-.06.122-.1.134-.1s.022-.012.022-.028.01-.028.02-.028c.024 0 .602-.558.602-.58s.037-.054.063-.054c.013 0 .022-.012.022-.028s.01-.028.028-.028.028-.01.028-.025.013-.034.028-.044.028-.028.028-.038.032-.05.07-.086.07-.076.07-.086.013-.028.028-.038.028-.03.028-.04.013-.03.028-.04.028-.03.028-.04.013-.03.028-.04.028-.028.028-.038c0-.022.063-.086.085-.086s.113-.092.113-.114c0-.01.013-.027.028-.038s.028-.03.028-.043.008-.027.018-.03c-.02-.026-.024-.105-.004-.105.008 0 .014-.02.014-.04s-.006-.042-.014-.042-.014-.012-.014-.028-.01-.028-.022-.028-.06-.037-.105-.083c-.06-.06-.094-.083-.12-.083-.02 0-.036-.006-.036-.014s-.032-.014-.07-.014-.07-.006-.07-.014-.02-.014-.042-.014-.042.006-.042.014zm7.01 1.645c-.01.015-.032.028-.046.028s-.025.006-.025.014-.02.014-.042.014c-.03 0-.043.007-.043.022 0 .025-.033.06-.057.06s-.057.035-.057.058c0 .01-.013.028-.028.04-.023.016-.028.036-.028.1 0 .044.006.08.014.08s.014.012.014.028.006.028.014.028.014.042.014.097.006.097.014.097.014.03.014.07.006.07.014.07c.02 0 .018.052-.004.06.012.022.018.065.018.16s.005.138.018.144c-.02.026-.024.133-.004.133.008 0 .014.025.014.055s.006.055.014.055.014.13.014.36l.014.36c.01 0 .014.078.014.207s.005.207.014.207c.02 0 .018.052-.004.06.013.022.018.1.018.286 0 .165.005.26.014.26s.014.055.014.138.006.138.014.138.014.06.014.152-.006.152-.014.152-.014.04-.014.097-.006.097-.014.097-.014.012-.014.028.006.028.014.028.014.03.014.07-.006.07-.014.07-.014.106-.014.3l-.014.3c-.008 0-.014.053-.014.132v.132l.05.048c.027.026.06.048.07.048s.022.006.022.014.01.014.025.014.034.013.046.028c.017.023.037.028.116.028.055 0 .096.006.096.014s.02.014.043.014.043.006.043.014.047.014.113.014.113-.006.113-.014.013-.014.028-.014.028-.006.028-.014.016-.014.036-.014a.31.31 0 0 0 .163-.145c0-.012.006-.02.014-.02s.014-.025.014-.055-.006-.055-.014-.055-.014-.01-.014-.022-.032-.052-.07-.09c-.05-.046-.07-.078-.07-.103s-.006-.035-.014-.035c-.022 0-.018-.244.003-.255-.02-.026-.025-.188-.003-.188s.018-.162-.004-.172a.37.37 0 0 0 .004-.215c-.008 0-.014-.025-.014-.055s.006-.055.014-.055.014-.02.014-.04-.006-.042-.014-.042-.014-.134-.014-.373l-.014-.373c-.008 0-.014-.025-.014-.055s.006-.055.014-.055.014-.037.014-.083-.006-.083-.014-.083-.014-.055-.014-.138-.006-.138-.014-.138-.014-.092-.014-.248c0-.185-.005-.25-.018-.256.02-.026.024-.077.004-.077-.01 0-.014-.078-.014-.207s-.005-.207-.014-.207-.014-.065-.014-.166-.006-.166-.014-.166-.014-.05-.014-.124-.006-.124-.014-.124-.014-.046-.014-.11c0-.074-.006-.112-.018-.117.02-.026.024-.077.003-.077-.008 0-.014-.02-.014-.04s.006-.04.014-.04c.022 0 .017-.096-.006-.12-.01-.01-.03-.02-.043-.02s-.022-.01-.022-.02-.03-.05-.063-.083c-.05-.05-.073-.062-.113-.062-.027 0-.05-.006-.05-.014s-.013-.014-.028-.014-.028-.006-.028-.014-.03-.014-.068-.014c-.052 0-.073.007-.088.028z" fill="#fff"/></svg>