<svg width="305" height="337" viewBox="0 0 305 337" fill="none" xmlns="http://www.w3.org/2000/svg">
<path d="M6.15 25.14V33H1.92V11.82H9.63C12.13 11.82 14.01 12.42 15.27 13.62C16.55 14.82 17.19 16.45 17.19 18.51C17.19 20.53 16.53 22.14 15.21 23.34C13.91 24.54 12.05 25.14 9.63 25.14H6.15ZM9.18 21.75C11.66 21.75 12.9 20.67 12.9 18.51C12.9 17.45 12.61 16.64 12.03 16.08C11.45 15.52 10.5 15.24 9.18 15.24H6.15V21.75H9.18ZM27.6176 16.17C29.2376 16.17 30.6876 16.51 31.9676 17.19C33.2676 17.87 34.2876 18.86 35.0276 20.16C35.7676 21.44 36.1376 22.95 36.1376 24.69C36.1376 26.43 35.7676 27.94 35.0276 29.22C34.2876 30.5 33.2676 31.49 31.9676 32.19C30.6876 32.87 29.2376 33.21 27.6176 33.21C25.9976 33.21 24.5376 32.87 23.2376 32.19C21.9576 31.49 20.9476 30.5 20.2076 29.22C19.4676 27.94 19.0976 26.43 19.0976 24.69C19.0976 22.95 19.4676 21.44 20.2076 20.16C20.9476 18.86 21.9576 17.87 23.2376 17.19C24.5376 16.51 25.9976 16.17 27.6176 16.17ZM27.6176 19.83C26.4376 19.83 25.4376 20.25 24.6176 21.09C23.7976 21.91 23.3876 23.11 23.3876 24.69C23.3876 26.27 23.7976 27.48 24.6176 28.32C25.4376 29.14 26.4376 29.55 27.6176 29.55C28.7976 29.55 29.7976 29.14 30.6176 28.32C31.4376 27.48 31.8476 26.27 31.8476 24.69C31.8476 23.11 31.4376 21.91 30.6176 21.09C29.7976 20.25 28.7976 19.83 27.6176 19.83ZM49.057 16.17C50.457 16.17 51.717 16.51 52.837 17.19C53.957 17.87 54.827 18.86 55.447 20.16C56.087 21.44 56.407 22.95 56.407 24.69C56.407 26.43 56.087 27.95 55.447 29.25C54.827 30.53 53.957 31.51 52.837 32.19C51.717 32.87 50.457 33.21 49.057 33.21C47.657 33.21 46.457 32.88 45.457 32.22C44.477 31.54 43.777 30.64 43.357 29.52V40.92H39.127V16.38H43.357V19.83C43.777 18.71 44.477 17.82 45.457 17.16C46.457 16.5 47.657 16.17 49.057 16.17ZM47.737 19.86C46.457 19.86 45.397 20.3 44.557 21.18C43.737 22.04 43.327 23.21 43.327 24.69C43.327 26.15 43.737 27.32 44.557 28.2C45.397 29.06 46.457 29.49 47.737 29.49C49.057 29.49 50.117 29.07 50.917 28.23C51.717 27.37 52.117 26.19 52.117 24.69C52.117 23.19 51.717 22.01 50.917 21.15C50.117 20.29 49.057 19.86 47.737 19.86ZM69.3305 16.17C70.7305 16.17 71.9905 16.51 73.1105 17.19C74.2305 17.87 75.1005 18.86 75.7205 20.16C76.3605 21.44 76.6805 22.95 76.6805 24.69C76.6805 26.43 76.3605 27.95 75.7205 29.25C75.1005 30.53 74.2305 31.51 73.1105 32.19C71.9905 32.87 70.7305 33.21 69.3305 33.21C67.9305 33.21 66.7305 32.88 65.7305 32.22C64.7505 31.54 64.0505 30.64 63.6305 29.52V40.92H59.4005V16.38H63.6305V19.83C64.0505 18.71 64.7505 17.82 65.7305 17.16C66.7305 16.5 67.9305 16.17 69.3305 16.17ZM68.0105 19.86C66.7305 19.86 65.6705 20.3 64.8305 21.18C64.0105 22.04 63.6005 23.21 63.6005 24.69C63.6005 26.15 64.0105 27.32 64.8305 28.2C65.6705 29.06 66.7305 29.49 68.0105 29.49C69.3305 29.49 70.3905 29.07 71.1905 28.23C71.9905 27.37 72.3905 26.19 72.3905 24.69C72.3905 23.19 71.9905 22.01 71.1905 21.15C70.3905 20.29 69.3305 19.86 68.0105 19.86ZM79.1939 11.61C79.1939 10.93 79.4339 10.38 79.9139 9.96C80.3939 9.52 81.0239 9.3 81.8039 9.3C82.5839 9.3 83.2139 9.52 83.6939 9.96C84.1739 10.38 84.4139 10.93 84.4139 11.61C84.4139 12.27 84.1739 12.82 83.6939 13.26C83.2139 13.68 82.5839 13.89 81.8039 13.89C81.0239 13.89 80.3939 13.68 79.9139 13.26C79.4339 12.82 79.1939 12.27 79.1939 11.61ZM83.9039 16.38V33H79.6739V16.38H83.9039ZM97.6305 16.14C99.5505 16.14 101.081 16.77 102.221 18.03C103.361 19.29 103.931 21.06 103.931 23.34V33H99.7305V23.82C99.7305 22.5 99.3905 21.48 98.7105 20.76C98.0305 20.02 97.1005 19.65 95.9205 19.65C94.7205 19.65 93.7605 20.04 93.0405 20.82C92.3205 21.6 91.9605 22.72 91.9605 24.18V33H87.7305V16.38H91.9605V19.71C92.4005 18.59 93.1205 17.72 94.1205 17.1C95.1405 16.46 96.3105 16.14 97.6305 16.14ZM113.382 16.17C115.402 16.17 117.022 16.68 118.242 17.7C119.462 18.72 120.222 20.08 120.522 21.78H116.562C116.402 20.98 116.042 20.34 115.482 19.86C114.922 19.38 114.192 19.14 113.292 19.14C112.572 19.14 112.012 19.31 111.612 19.65C111.212 19.99 111.012 20.45 111.012 21.03C111.012 21.49 111.172 21.86 111.492 22.14C111.812 22.42 112.212 22.64 112.692 22.8C113.172 22.96 113.862 23.15 114.762 23.37C116.022 23.65 117.042 23.95 117.822 24.27C118.622 24.57 119.302 25.06 119.862 25.74C120.442 26.4 120.732 27.3 120.732 28.44C120.732 29.86 120.172 31.01 119.052 31.89C117.952 32.77 116.462 33.21 114.582 33.21C112.422 33.21 110.692 32.73 109.392 31.77C108.092 30.79 107.302 29.4 107.022 27.6H111.072C111.172 28.42 111.532 29.07 112.152 29.55C112.772 30.01 113.582 30.24 114.582 30.24C115.302 30.24 115.852 30.07 116.232 29.73C116.612 29.37 116.802 28.91 116.802 28.35C116.802 27.87 116.632 27.48 116.292 27.18C115.972 26.88 115.562 26.65 115.062 26.49C114.582 26.33 113.892 26.14 112.992 25.92C111.752 25.64 110.742 25.36 109.962 25.08C109.202 24.78 108.542 24.31 107.982 23.67C107.442 23.03 107.172 22.15 107.172 21.03C107.172 19.59 107.722 18.42 108.822 17.52C109.922 16.62 111.442 16.17 113.382 16.17ZM144.966 27.21C144.966 28.29 144.696 29.29 144.156 30.21C143.616 31.11 142.816 31.84 141.756 32.4C140.696 32.94 139.406 33.21 137.886 33.21C136.386 33.21 135.046 32.96 133.866 32.46C132.686 31.94 131.736 31.2 131.016 30.24C130.316 29.28 129.916 28.16 129.816 26.88H134.316C134.416 27.74 134.756 28.46 135.336 29.04C135.936 29.6 136.726 29.88 137.706 29.88C138.586 29.88 139.256 29.65 139.716 29.19C140.196 28.71 140.436 28.1 140.436 27.36C140.436 26.7 140.246 26.16 139.866 25.74C139.486 25.3 139.006 24.95 138.426 24.69C137.846 24.43 137.046 24.13 136.026 23.79C134.706 23.35 133.626 22.92 132.786 22.5C131.946 22.06 131.226 21.43 130.626 20.61C130.046 19.79 129.756 18.72 129.756 17.4C129.756 15.58 130.406 14.15 131.706 13.11C133.026 12.05 134.766 11.52 136.926 11.52C139.166 11.52 140.946 12.06 142.266 13.14C143.606 14.22 144.366 15.66 144.546 17.46H139.986C139.866 16.7 139.546 16.08 139.026 15.6C138.506 15.1 137.796 14.85 136.896 14.85C136.116 14.85 135.486 15.06 135.006 15.48C134.526 15.88 134.286 16.47 134.286 17.25C134.286 17.87 134.466 18.39 134.826 18.81C135.206 19.21 135.676 19.54 136.236 19.8C136.816 20.06 137.596 20.35 138.576 20.67C139.936 21.15 141.036 21.6 141.876 22.02C142.736 22.44 143.466 23.07 144.066 23.91C144.666 24.75 144.966 25.85 144.966 27.21ZM163.712 24.06C163.712 24.48 163.662 24.96 163.562 25.5H151.382C151.442 26.98 151.842 28.07 152.582 28.77C153.322 29.47 154.242 29.82 155.342 29.82C156.322 29.82 157.132 29.58 157.772 29.1C158.432 28.62 158.852 27.97 159.032 27.15H163.502C163.282 28.31 162.812 29.35 162.092 30.27C161.372 31.19 160.442 31.91 159.302 32.43C158.182 32.95 156.932 33.21 155.552 33.21C153.932 33.21 152.492 32.87 151.232 32.19C149.972 31.49 148.992 30.5 148.292 29.22C147.592 27.94 147.242 26.43 147.242 24.69C147.242 22.95 147.592 21.44 148.292 20.16C148.992 18.86 149.972 17.87 151.232 17.19C152.492 16.51 153.932 16.17 155.552 16.17C157.192 16.17 158.622 16.51 159.842 17.19C161.082 17.87 162.032 18.81 162.692 20.01C163.372 21.19 163.712 22.54 163.712 24.06ZM159.452 23.64C159.512 22.28 159.152 21.25 158.372 20.55C157.612 19.85 156.672 19.5 155.552 19.5C154.412 19.5 153.452 19.85 152.672 20.55C151.892 21.25 151.462 22.28 151.382 23.64H159.452ZM187.865 16.14C189.885 16.14 191.475 16.77 192.635 18.03C193.815 19.27 194.405 21.04 194.405 23.34V33H190.205V23.82C190.205 22.54 189.875 21.56 189.215 20.88C188.575 20.18 187.685 19.83 186.545 19.83C185.365 19.83 184.425 20.2 183.725 20.94C183.025 21.68 182.675 22.76 182.675 24.18V33H178.475V23.82C178.475 22.54 178.145 21.56 177.485 20.88C176.845 20.18 175.955 19.83 174.815 19.83C173.635 19.83 172.695 20.2 171.995 20.94C171.295 21.68 170.945 22.76 170.945 24.18V33H166.715V16.38H170.945V19.53C171.385 18.45 172.075 17.62 173.015 17.04C173.975 16.44 175.085 16.14 176.345 16.14C177.685 16.14 178.845 16.46 179.825 17.1C180.825 17.74 181.575 18.66 182.075 19.86C182.595 18.72 183.365 17.82 184.385 17.16C185.425 16.48 186.585 16.14 187.865 16.14ZM197.641 11.61C197.641 10.93 197.881 10.38 198.361 9.96C198.841 9.52 199.471 9.3 200.251 9.3C201.031 9.3 201.661 9.52 202.141 9.96C202.621 10.38 202.861 10.93 202.861 11.61C202.861 12.27 202.621 12.82 202.141 13.26C201.661 13.68 201.031 13.89 200.251 13.89C199.471 13.89 198.841 13.68 198.361 13.26C197.881 12.82 197.641 12.27 197.641 11.61ZM202.351 16.38V33H198.121V16.38H202.351ZM217.998 22.08C219.278 22.34 220.298 22.95 221.058 23.91C221.838 24.85 222.228 25.96 222.228 27.24C222.228 29.02 221.628 30.43 220.428 31.47C219.248 32.49 217.528 33 215.268 33H206.178V11.82H215.088C217.228 11.82 218.868 12.29 220.008 13.23C221.168 14.17 221.748 15.49 221.748 17.19C221.748 18.51 221.398 19.59 220.698 20.43C220.018 21.27 219.118 21.82 217.998 22.08ZM210.408 20.7H214.218C215.278 20.7 216.078 20.47 216.618 20.01C217.178 19.53 217.458 18.85 217.458 17.97C217.458 17.09 217.188 16.41 216.648 15.93C216.108 15.45 215.278 15.21 214.158 15.21H210.408V20.7ZM214.428 29.55C215.548 29.55 216.408 29.31 217.008 28.83C217.608 28.33 217.908 27.61 217.908 26.67C217.908 25.73 217.598 25.01 216.978 24.51C216.378 23.99 215.518 23.73 214.398 23.73H210.408V29.55H214.428ZM232.871 16.17C234.491 16.17 235.941 16.51 237.221 17.19C238.521 17.87 239.541 18.86 240.281 20.16C241.021 21.44 241.391 22.95 241.391 24.69C241.391 26.43 241.021 27.94 240.281 29.22C239.541 30.5 238.521 31.49 237.221 32.19C235.941 32.87 234.491 33.21 232.871 33.21C231.251 33.21 229.791 32.87 228.491 32.19C227.211 31.49 226.201 30.5 225.461 29.22C224.721 27.94 224.351 26.43 224.351 24.69C224.351 22.95 224.721 21.44 225.461 20.16C226.201 18.86 227.211 17.87 228.491 17.19C229.791 16.51 231.251 16.17 232.871 16.17ZM232.871 19.83C231.691 19.83 230.691 20.25 229.871 21.09C229.051 21.91 228.641 23.11 228.641 24.69C228.641 26.27 229.051 27.48 229.871 28.32C230.691 29.14 231.691 29.55 232.871 29.55C234.051 29.55 235.051 29.14 235.871 28.32C236.691 27.48 237.101 26.27 237.101 24.69C237.101 23.11 236.691 21.91 235.871 21.09C235.051 20.25 234.051 19.83 232.871 19.83ZM248.611 10.8V33H244.381V10.8H248.611ZM258.948 16.17C260.348 16.17 261.538 16.5 262.518 17.16C263.518 17.82 264.238 18.71 264.678 19.83V10.8H268.878V33H264.678V29.52C264.238 30.64 263.518 31.54 262.518 32.22C261.538 32.88 260.348 33.21 258.948 33.21C257.548 33.21 256.288 32.87 255.168 32.19C254.048 31.51 253.168 30.53 252.528 29.25C251.908 27.95 251.598 26.43 251.598 24.69C251.598 22.95 251.908 21.44 252.528 20.16C253.168 18.86 254.048 17.87 255.168 17.19C256.288 16.51 257.548 16.17 258.948 16.17ZM260.268 19.86C258.948 19.86 257.888 20.29 257.088 21.15C256.288 22.01 255.888 23.19 255.888 24.69C255.888 26.19 256.288 27.37 257.088 28.23C257.888 29.07 258.948 29.49 260.268 29.49C261.548 29.49 262.598 29.06 263.418 28.2C264.258 27.32 264.678 26.15 264.678 24.69C264.678 23.21 264.258 22.04 263.418 21.18C262.598 20.3 261.548 19.86 260.268 19.86Z" fill="#1A2321"/>
<path d="M4.92 80.48V89H2.19V67.85H8.91C11.33 67.85 13.14 68.42 14.34 69.56C15.54 70.68 16.14 72.22 16.14 74.18C16.14 76.16 15.52 77.71 14.28 78.83C13.04 79.93 11.25 80.48 8.91 80.48H4.92ZM8.67 78.2C10.33 78.2 11.52 77.85 12.24 77.15C12.98 76.45 13.35 75.46 13.35 74.18C13.35 72.86 12.98 71.86 12.24 71.18C11.52 70.48 10.33 70.13 8.67 70.13H4.92V78.2H8.67ZM26.7987 72.32C28.3787 72.32 29.7887 72.66 31.0287 73.34C32.2887 74.02 33.2687 75 33.9687 76.28C34.6887 77.56 35.0487 79.06 35.0487 80.78C35.0487 82.5 34.6887 84 33.9687 85.28C33.2687 86.54 32.2887 87.51 31.0287 88.19C29.7887 88.87 28.3787 89.21 26.7987 89.21C25.2187 89.21 23.7987 88.87 22.5387 88.19C21.2987 87.51 20.3187 86.54 19.5987 85.28C18.8787 84 18.5187 82.5 18.5187 80.78C18.5187 79.06 18.8787 77.56 19.5987 76.28C20.3187 75 21.2987 74.02 22.5387 73.34C23.7987 72.66 25.2187 72.32 26.7987 72.32ZM26.7987 74.72C25.8187 74.72 24.9087 74.94 24.0687 75.38C23.2487 75.82 22.5787 76.5 22.0587 77.42C21.5587 78.32 21.3087 79.44 21.3087 80.78C21.3087 82.1 21.5587 83.22 22.0587 84.14C22.5787 85.04 23.2487 85.71 24.0687 86.15C24.9087 86.59 25.8187 86.81 26.7987 86.81C27.7787 86.81 28.6787 86.59 29.4987 86.15C30.3387 85.71 31.0087 85.04 31.5087 84.14C32.0287 83.22 32.2887 82.1 32.2887 80.78C32.2887 79.44 32.0287 78.32 31.5087 77.42C31.0087 76.5 30.3387 75.82 29.4987 75.38C28.6787 74.94 27.7787 74.72 26.7987 74.72ZM47.696 72.32C49.156 72.32 50.456 72.66 51.596 73.34C52.736 74.02 53.626 75 54.266 76.28C54.926 77.56 55.256 79.06 55.256 80.78C55.256 82.5 54.926 84 54.266 85.28C53.626 86.54 52.736 87.51 51.596 88.19C50.456 88.87 49.156 89.21 47.696 89.21C46.096 89.21 44.736 88.81 43.616 88.01C42.516 87.19 41.756 86.12 41.336 84.8V96.8H38.606V72.53H41.336V76.73C41.756 75.41 42.516 74.35 43.616 73.55C44.736 72.73 46.096 72.32 47.696 72.32ZM46.916 74.75C45.856 74.75 44.896 75 44.036 75.5C43.176 75.98 42.506 76.68 42.026 77.6C41.546 78.52 41.306 79.58 41.306 80.78C41.306 81.98 41.546 83.04 42.026 83.96C42.506 84.86 43.176 85.56 44.036 86.06C44.896 86.56 45.856 86.81 46.916 86.81C48.616 86.81 49.966 86.28 50.966 85.22C51.986 84.14 52.496 82.66 52.496 80.78C52.496 78.9 51.986 77.43 50.966 76.37C49.966 75.29 48.616 74.75 46.916 74.75ZM67.9109 72.32C69.3709 72.32 70.6709 72.66 71.8109 73.34C72.9509 74.02 73.8409 75 74.4809 76.28C75.1409 77.56 75.4709 79.06 75.4709 80.78C75.4709 82.5 75.1409 84 74.4809 85.28C73.8409 86.54 72.9509 87.51 71.8109 88.19C70.6709 88.87 69.3709 89.21 67.9109 89.21C66.3109 89.21 64.9509 88.81 63.8309 88.01C62.7309 87.19 61.9709 86.12 61.5509 84.8V96.8H58.8209V72.53H61.5509V76.73C61.9709 75.41 62.7309 74.35 63.8309 73.55C64.9509 72.73 66.3109 72.32 67.9109 72.32ZM67.1309 74.75C66.0709 74.75 65.1109 75 64.2509 75.5C63.3909 75.98 62.7209 76.68 62.2409 77.6C61.7609 78.52 61.5209 79.58 61.5209 80.78C61.5209 81.98 61.7609 83.04 62.2409 83.96C62.7209 84.86 63.3909 85.56 64.2509 86.06C65.1109 86.56 66.0709 86.81 67.1309 86.81C68.8309 86.81 70.1809 86.28 71.1809 85.22C72.2009 84.14 72.7109 82.66 72.7109 80.78C72.7109 78.9 72.2009 77.43 71.1809 76.37C70.1809 75.29 68.8309 74.75 67.1309 74.75ZM78.5557 67.7C78.5557 67.2 78.7257 66.8 79.0657 66.5C79.4057 66.18 79.8557 66.02 80.4157 66.02C80.9757 66.02 81.4257 66.18 81.7657 66.5C82.1057 66.8 82.2757 67.2 82.2757 67.7C82.2757 68.2 82.1057 68.61 81.7657 68.93C81.4257 69.23 80.9757 69.38 80.4157 69.38C79.8557 69.38 79.4057 69.23 79.0657 68.93C78.7257 68.61 78.5557 68.2 78.5557 67.7ZM81.7657 72.53V89H79.0357V72.53H81.7657ZM94.8248 72.26C96.7448 72.26 98.2948 72.88 99.4748 74.12C100.655 75.34 101.245 77.11 101.245 79.43V89H98.5148V79.67C98.5148 78.03 98.0948 76.77 97.2548 75.89C96.4148 75.01 95.2748 74.57 93.8348 74.57C92.3348 74.57 91.1348 75.06 90.2348 76.04C89.3348 77 88.8848 78.41 88.8848 80.27V89H86.1548V72.53H88.8848V76.43C89.3048 75.09 90.0448 74.06 91.1048 73.34C92.1848 72.62 93.4248 72.26 94.8248 72.26ZM110.592 72.32C112.452 72.32 113.942 72.81 115.062 73.79C116.202 74.75 116.892 76.05 117.132 77.69H114.522C114.402 76.71 113.992 75.91 113.292 75.29C112.612 74.65 111.692 74.33 110.532 74.33C109.552 74.33 108.782 74.57 108.222 75.05C107.682 75.51 107.412 76.14 107.412 76.94C107.412 77.54 107.592 78.03 107.952 78.41C108.332 78.77 108.792 79.05 109.332 79.25C109.892 79.43 110.652 79.63 111.612 79.85C112.832 80.13 113.812 80.42 114.552 80.72C115.312 81 115.952 81.46 116.472 82.1C117.012 82.74 117.282 83.6 117.282 84.68C117.282 86.02 116.772 87.11 115.752 87.95C114.752 88.79 113.412 89.21 111.732 89.21C109.772 89.21 108.172 88.74 106.932 87.8C105.692 86.86 104.962 85.55 104.742 83.87H107.382C107.482 84.87 107.912 85.68 108.672 86.3C109.452 86.92 110.472 87.23 111.732 87.23C112.672 87.23 113.402 86.99 113.922 86.51C114.462 86.03 114.732 85.4 114.732 84.62C114.732 83.98 114.542 83.47 114.162 83.09C113.782 82.71 113.312 82.42 112.752 82.22C112.192 82.02 111.422 81.81 110.442 81.59C109.222 81.31 108.242 81.03 107.502 80.75C106.782 80.47 106.162 80.03 105.642 79.43C105.142 78.81 104.892 77.98 104.892 76.94C104.892 75.56 105.402 74.45 106.422 73.61C107.442 72.75 108.832 72.32 110.592 72.32ZM139.562 89L134.042 80.36H131.072V89H128.342V67.85H135.302C137.702 67.85 139.502 68.43 140.702 69.59C141.902 70.73 142.502 72.25 142.502 74.15C142.502 75.87 142.022 77.26 141.062 78.32C140.102 79.36 138.712 80.01 136.892 80.27L142.652 89H139.562ZM131.072 78.38H135.062C138.162 78.38 139.712 77.02 139.712 74.3C139.712 71.58 138.162 70.22 135.062 70.22H131.072V78.38ZM160.983 79.85C160.983 80.43 160.943 80.93 160.863 81.35H147.693C147.753 83.23 148.283 84.64 149.283 85.58C150.303 86.52 151.543 86.99 153.003 86.99C154.323 86.99 155.423 86.66 156.303 86C157.203 85.32 157.753 84.42 157.953 83.3H160.863C160.663 84.44 160.213 85.46 159.513 86.36C158.833 87.26 157.943 87.96 156.843 88.46C155.743 88.96 154.503 89.21 153.123 89.21C151.543 89.21 150.143 88.87 148.923 88.19C147.703 87.51 146.743 86.54 146.043 85.28C145.363 84 145.023 82.5 145.023 80.78C145.023 79.06 145.363 77.56 146.043 76.28C146.743 75 147.703 74.02 148.923 73.34C150.143 72.66 151.543 72.32 153.123 72.32C154.723 72.32 156.113 72.66 157.293 73.34C158.493 74.02 159.403 74.93 160.023 76.07C160.663 77.21 160.983 78.47 160.983 79.85ZM158.223 80.03C158.283 78.81 158.083 77.79 157.623 76.97C157.163 76.15 156.533 75.54 155.733 75.14C154.933 74.74 154.063 74.54 153.123 74.54C151.623 74.54 150.363 75.01 149.343 75.95C148.323 76.87 147.773 78.23 147.693 80.03H158.223ZM171.303 72.32C172.903 72.32 174.253 72.72 175.353 73.52C176.473 74.32 177.253 75.39 177.693 76.73V72.53H180.423V89.27C180.423 90.79 180.103 92.14 179.463 93.32C178.823 94.5 177.923 95.42 176.763 96.08C175.603 96.74 174.253 97.07 172.713 97.07C170.493 97.07 168.683 96.53 167.283 95.45C165.883 94.39 164.993 92.95 164.613 91.13H167.313C167.633 92.23 168.233 93.09 169.113 93.71C170.013 94.35 171.163 94.67 172.563 94.67C174.043 94.67 175.263 94.19 176.223 93.23C177.203 92.29 177.693 90.97 177.693 89.27V84.8C177.253 86.14 176.473 87.21 175.353 88.01C174.253 88.81 172.903 89.21 171.303 89.21C169.843 89.21 168.543 88.87 167.403 88.19C166.263 87.51 165.363 86.54 164.703 85.28C164.063 84 163.743 82.5 163.743 80.78C163.743 79.06 164.063 77.56 164.703 76.28C165.363 75 166.263 74.02 167.403 73.34C168.543 72.66 169.843 72.32 171.303 72.32ZM172.083 74.75C170.403 74.75 169.053 75.29 168.033 76.37C167.033 77.43 166.533 78.9 166.533 80.78C166.533 82.66 167.033 84.14 168.033 85.22C169.053 86.28 170.403 86.81 172.083 86.81C173.163 86.81 174.123 86.56 174.963 86.06C175.823 85.56 176.493 84.86 176.973 83.96C177.453 83.04 177.693 81.98 177.693 80.78C177.693 79.58 177.453 78.52 176.973 77.6C176.493 76.68 175.823 75.98 174.963 75.5C174.123 75 173.163 74.75 172.083 74.75ZM199.408 72.53V89H196.678V85.13C196.258 86.47 195.508 87.5 194.428 88.22C193.368 88.92 192.128 89.27 190.708 89.27C188.808 89.27 187.268 88.66 186.088 87.44C184.908 86.2 184.318 84.43 184.318 82.13V72.53H187.048V81.86C187.048 83.5 187.468 84.77 188.308 85.67C189.148 86.55 190.288 86.99 191.728 86.99C193.228 86.99 194.428 86.51 195.328 85.55C196.228 84.57 196.678 83.15 196.678 81.29V72.53H199.408ZM206.512 66.8V89H203.782V66.8H206.512ZM217.651 72.32C219.251 72.32 220.601 72.72 221.701 73.52C222.821 74.32 223.601 75.39 224.041 76.73V72.53H226.771V89H224.041V84.8C223.601 86.14 222.821 87.21 221.701 88.01C220.601 88.81 219.251 89.21 217.651 89.21C216.191 89.21 214.891 88.87 213.751 88.19C212.611 87.51 211.711 86.54 211.051 85.28C210.411 84 210.091 82.5 210.091 80.78C210.091 79.06 210.411 77.56 211.051 76.28C211.711 75 212.611 74.02 213.751 73.34C214.891 72.66 216.191 72.32 217.651 72.32ZM218.431 74.75C216.751 74.75 215.401 75.29 214.381 76.37C213.381 77.43 212.881 78.9 212.881 80.78C212.881 82.66 213.381 84.14 214.381 85.22C215.401 86.28 216.751 86.81 218.431 86.81C219.511 86.81 220.471 86.56 221.311 86.06C222.171 85.56 222.841 84.86 223.321 83.96C223.801 83.04 224.041 81.98 224.041 80.78C224.041 79.58 223.801 78.52 223.321 77.6C222.841 76.68 222.171 75.98 221.311 75.5C220.471 75 219.511 74.75 218.431 74.75ZM233.846 75.86C234.386 74.72 235.176 73.84 236.216 73.22C237.256 72.58 238.496 72.26 239.936 72.26V75.23H239.096C237.556 75.23 236.296 75.63 235.316 76.43C234.336 77.21 233.846 78.51 233.846 80.33V89H231.116V72.53H233.846V75.86Z" fill="#1A2321"/>
<path d="M4.41 136.18V145H2.28V123.85H8.61C10.99 123.85 12.76 124.4 13.92 125.5C15.1 126.6 15.69 128.11 15.69 130.03C15.69 131.99 15.08 133.51 13.86 134.59C12.66 135.65 10.91 136.18 8.61 136.18H4.41ZM8.43 134.38C10.25 134.38 11.56 134.01 12.36 133.27C13.16 132.51 13.56 131.43 13.56 130.03C13.56 128.59 13.16 127.5 12.36 126.76C11.56 126 10.25 125.62 8.43 125.62H4.41V134.38H8.43ZM26.4185 128.41C27.9785 128.41 29.3685 128.75 30.5885 129.43C31.8285 130.09 32.7985 131.06 33.4985 132.34C34.1985 133.6 34.5485 135.09 34.5485 136.81C34.5485 138.53 34.1985 140.02 33.4985 141.28C32.7985 142.54 31.8285 143.51 30.5885 144.19C29.3685 144.87 27.9785 145.21 26.4185 145.21C24.8585 145.21 23.4585 144.87 22.2185 144.19C20.9785 143.51 19.9985 142.54 19.2785 141.28C18.5785 140 18.2285 138.51 18.2285 136.81C18.2285 135.09 18.5785 133.6 19.2785 132.34C19.9985 131.06 20.9785 130.09 22.2185 129.43C23.4585 128.75 24.8585 128.41 26.4185 128.41ZM26.4185 130.24C25.3385 130.24 24.3385 130.48 23.4185 130.96C22.4985 131.44 21.7585 132.18 21.1985 133.18C20.6385 134.16 20.3585 135.37 20.3585 136.81C20.3585 138.25 20.6385 139.46 21.1985 140.44C21.7585 141.42 22.4985 142.15 23.4185 142.63C24.3385 143.11 25.3385 143.35 26.4185 143.35C27.4785 143.35 28.4585 143.11 29.3585 142.63C30.2785 142.15 31.0185 141.42 31.5785 140.44C32.1385 139.46 32.4185 138.25 32.4185 136.81C32.4185 135.37 32.1385 134.16 31.5785 133.18C31.0185 132.18 30.2785 131.44 29.3585 130.96C28.4585 130.48 27.4785 130.24 26.4185 130.24ZM47.0752 128.41C48.5752 128.41 49.8952 128.75 51.0352 129.43C52.1952 130.09 53.0952 131.06 53.7352 132.34C54.3952 133.6 54.7252 135.09 54.7252 136.81C54.7252 138.51 54.3952 140 53.7352 141.28C53.0952 142.54 52.1952 143.51 51.0352 144.19C49.8752 144.87 48.5552 145.21 47.0752 145.21C45.3952 145.21 43.9752 144.78 42.8152 143.92C41.6552 143.06 40.8552 141.92 40.4152 140.5V152.74H38.3152V128.62H40.4152V133.12C40.8552 131.7 41.6552 130.56 42.8152 129.7C43.9752 128.84 45.3952 128.41 47.0752 128.41ZM46.5052 130.27C45.3452 130.27 44.2952 130.54 43.3552 131.08C42.4352 131.62 41.7152 132.39 41.1952 133.39C40.6752 134.37 40.4152 135.51 40.4152 136.81C40.4152 138.11 40.6752 139.26 41.1952 140.26C41.7152 141.24 42.4352 142 43.3552 142.54C44.2952 143.08 45.3452 143.35 46.5052 143.35C48.3652 143.35 49.8452 142.77 50.9452 141.61C52.0452 140.43 52.5952 138.83 52.5952 136.81C52.5952 134.79 52.0452 133.2 50.9452 132.04C49.8452 130.86 48.3652 130.27 46.5052 130.27ZM67.2607 128.41C68.7607 128.41 70.0807 128.75 71.2207 129.43C72.3807 130.09 73.2807 131.06 73.9207 132.34C74.5807 133.6 74.9107 135.09 74.9107 136.81C74.9107 138.51 74.5807 140 73.9207 141.28C73.2807 142.54 72.3807 143.51 71.2207 144.19C70.0607 144.87 68.7407 145.21 67.2607 145.21C65.5807 145.21 64.1607 144.78 63.0007 143.92C61.8407 143.06 61.0407 141.92 60.6007 140.5V152.74H58.5007V128.62H60.6007V133.12C61.0407 131.7 61.8407 130.56 63.0007 129.7C64.1607 128.84 65.5807 128.41 67.2607 128.41ZM66.6907 130.27C65.5307 130.27 64.4807 130.54 63.5407 131.08C62.6207 131.62 61.9007 132.39 61.3807 133.39C60.8607 134.37 60.6007 135.51 60.6007 136.81C60.6007 138.11 60.8607 139.26 61.3807 140.26C61.9007 141.24 62.6207 142 63.5407 142.54C64.4807 143.08 65.5307 143.35 66.6907 143.35C68.5507 143.35 70.0307 142.77 71.1307 141.61C72.2307 140.43 72.7807 138.83 72.7807 136.81C72.7807 134.79 72.2307 133.2 71.1307 132.04C70.0307 130.86 68.5507 130.27 66.6907 130.27ZM78.2063 123.76C78.2063 123.32 78.3463 122.97 78.6263 122.71C78.9263 122.45 79.3063 122.32 79.7663 122.32C80.2263 122.32 80.5963 122.45 80.8763 122.71C81.1563 122.97 81.2963 123.32 81.2963 123.76C81.2963 124.18 81.1563 124.52 80.8763 124.78C80.5963 125.04 80.2263 125.17 79.7663 125.17C79.3063 125.17 78.9263 125.04 78.6263 124.78C78.3463 124.52 78.2063 124.18 78.2063 123.76ZM80.8162 128.62V145H78.6863V128.62H80.8162ZM93.5559 128.32C95.4559 128.32 96.9959 128.93 98.1759 130.15C99.3759 131.35 99.9759 133.12 99.9759 135.46V145H97.9059V135.61C97.9059 133.83 97.4559 132.47 96.5559 131.53C95.6559 130.57 94.4259 130.09 92.8659 130.09C91.2259 130.09 89.9159 130.62 88.9359 131.68C87.9759 132.72 87.4959 134.26 87.4959 136.3V145H85.3659V128.62H87.4959V132.64C87.9159 131.24 88.6759 130.17 89.7759 129.43C90.8759 128.69 92.1359 128.32 93.5559 128.32ZM109.359 128.41C111.139 128.41 112.569 128.88 113.649 129.82C114.729 130.76 115.389 132.03 115.629 133.63H113.619C113.499 132.57 113.059 131.7 112.299 131.02C111.559 130.32 110.559 129.97 109.299 129.97C108.219 129.97 107.369 130.24 106.749 130.78C106.149 131.3 105.849 132 105.849 132.88C105.849 133.54 106.039 134.07 106.419 134.47C106.819 134.87 107.309 135.18 107.889 135.4C108.469 135.6 109.249 135.81 110.229 136.03C111.429 136.31 112.389 136.6 113.109 136.9C113.849 137.18 114.479 137.63 114.999 138.25C115.519 138.87 115.779 139.71 115.779 140.77C115.779 142.07 115.289 143.14 114.309 143.98C113.349 144.8 112.069 145.21 110.469 145.21C108.589 145.21 107.049 144.75 105.849 143.83C104.649 142.89 103.939 141.61 103.719 139.99H105.759C105.879 141.07 106.349 141.95 107.169 142.63C107.989 143.31 109.099 143.65 110.499 143.65C111.539 143.65 112.349 143.38 112.929 142.84C113.509 142.3 113.799 141.6 113.799 140.74C113.799 140.04 113.599 139.48 113.199 139.06C112.799 138.64 112.299 138.33 111.699 138.13C111.119 137.91 110.319 137.68 109.299 137.44C108.119 137.16 107.169 136.88 106.449 136.6C105.749 136.32 105.149 135.89 104.649 135.31C104.149 134.71 103.899 133.9 103.899 132.88C103.899 131.54 104.389 130.46 105.369 129.64C106.349 128.82 107.679 128.41 109.359 128.41ZM129.537 122.8V145H127.407V122.8H129.537ZM133.607 123.76C133.607 123.32 133.747 122.97 134.027 122.71C134.327 122.45 134.707 122.32 135.167 122.32C135.627 122.32 135.997 122.45 136.277 122.71C136.557 122.97 136.697 123.32 136.697 123.76C136.697 124.18 136.557 124.52 136.277 124.78C135.997 125.04 135.627 125.17 135.167 125.17C134.707 125.17 134.327 125.04 134.027 124.78C133.747 124.52 133.607 124.18 133.607 123.76ZM136.217 128.62V145H134.087V128.62H136.217ZM147.666 128.41C149.326 128.41 150.736 128.84 151.896 129.7C153.076 130.56 153.886 131.7 154.326 133.12V128.62H156.396V145.39C156.396 146.91 156.076 148.24 155.436 149.38C154.796 150.54 153.906 151.43 152.766 152.05C151.626 152.69 150.326 153.01 148.866 153.01C146.726 153.01 144.966 152.49 143.586 151.45C142.226 150.43 141.336 149.04 140.916 147.28H143.016C143.376 148.48 144.036 149.43 144.996 150.13C145.976 150.83 147.226 151.18 148.746 151.18C149.786 151.18 150.726 150.95 151.566 150.49C152.426 150.05 153.096 149.39 153.576 148.51C154.076 147.63 154.326 146.59 154.326 145.39V140.5C153.886 141.92 153.076 143.06 151.896 143.92C150.736 144.78 149.326 145.21 147.666 145.21C146.186 145.21 144.856 144.87 143.676 144.19C142.516 143.51 141.606 142.54 140.946 141.28C140.306 140 139.986 138.51 139.986 136.81C139.986 135.09 140.306 133.6 140.946 132.34C141.606 131.06 142.516 130.09 143.676 129.43C144.836 128.75 146.166 128.41 147.666 128.41ZM148.206 130.27C146.366 130.27 144.886 130.86 143.766 132.04C142.666 133.2 142.116 134.79 142.116 136.81C142.116 138.83 142.666 140.43 143.766 141.61C144.886 142.77 146.366 143.35 148.206 143.35C149.366 143.35 150.406 143.08 151.326 142.54C152.266 142 152.996 141.24 153.516 140.26C154.056 139.26 154.326 138.11 154.326 136.81C154.326 135.51 154.056 134.37 153.516 133.39C152.996 132.39 152.266 131.62 151.326 131.08C150.406 130.54 149.366 130.27 148.206 130.27ZM169.142 128.32C171.042 128.32 172.582 128.93 173.762 130.15C174.962 131.35 175.562 133.12 175.562 135.46V145H173.492V135.61C173.492 133.83 173.042 132.47 172.142 131.53C171.242 130.57 170.012 130.09 168.452 130.09C166.812 130.09 165.502 130.62 164.522 131.68C163.562 132.72 163.082 134.26 163.082 136.3V145H160.952V122.8H163.082V132.64C163.502 131.24 164.262 130.17 165.362 129.43C166.462 128.69 167.722 128.32 169.142 128.32ZM187.435 143.14V145H185.485C183.905 145 182.725 144.63 181.945 143.89C181.165 143.13 180.775 141.86 180.775 140.08V130.45H178.285V128.62H180.775V124.48H182.905V128.62H187.405V130.45H182.905V140.11C182.905 141.27 183.115 142.07 183.535 142.51C183.955 142.93 184.695 143.14 185.755 143.14H187.435Z" fill="#1A2321"/>
<path d="M21.8408 218.263C21.8408 221.749 20.9668 224.459 19.2188 226.393C17.4805 228.326 15.0146 229.293 11.8213 229.293C8.58887 229.293 6.10352 228.336 4.36523 226.422C2.63672 224.498 1.77246 221.769 1.77246 218.233C1.77246 214.698 2.6416 211.983 4.37988 210.089C6.12793 208.194 8.61816 207.247 11.8506 207.247C15.0342 207.247 17.4951 208.209 19.2334 210.133C20.9717 212.057 21.8408 214.767 21.8408 218.263ZM5.49316 218.263C5.49316 220.899 6.02539 222.901 7.08984 224.269C8.1543 225.626 9.73145 226.305 11.8213 226.305C13.9014 226.305 15.4688 225.631 16.5234 224.283C17.5879 222.936 18.1201 220.929 18.1201 218.263C18.1201 215.636 17.5928 213.644 16.5381 212.286C15.4932 210.929 13.9307 210.25 11.8506 210.25C9.75098 210.25 8.16406 210.929 7.08984 212.286C6.02539 213.644 5.49316 215.636 5.49316 218.263ZM34.292 229.293C32.2412 229.293 30.6494 228.556 29.5166 227.081H29.3115C29.4482 228.448 29.5166 229.278 29.5166 229.571V236.207H26.0742V212.799H28.8574C28.9355 213.102 29.0967 213.824 29.3408 214.967H29.5166C30.5908 213.326 32.2021 212.506 34.3506 212.506C36.3721 212.506 37.9443 213.238 39.0674 214.703C40.2002 216.168 40.7666 218.224 40.7666 220.87C40.7666 223.517 40.1904 225.582 39.0381 227.066C37.8955 228.551 36.3135 229.293 34.292 229.293ZM33.457 215.318C32.0898 215.318 31.0889 215.719 30.4541 216.52C29.8291 217.32 29.5166 218.6 29.5166 220.357V220.87C29.5166 222.843 29.8291 224.273 30.4541 225.162C31.0791 226.041 32.0996 226.48 33.5156 226.48C34.707 226.48 35.625 225.992 36.2695 225.016C36.9141 224.039 37.2363 222.647 37.2363 220.841C37.2363 219.024 36.9141 217.652 36.2695 216.725C35.6348 215.787 34.6973 215.318 33.457 215.318ZM51.8408 229.293C49.3213 229.293 47.3486 228.561 45.9229 227.096C44.5068 225.621 43.7988 223.595 43.7988 221.017C43.7988 218.37 44.458 216.29 45.7764 214.776C47.0947 213.263 48.9062 212.506 51.2109 212.506C53.3496 212.506 55.0391 213.155 56.2793 214.454C57.5195 215.753 58.1396 217.54 58.1396 219.815V221.676H47.3438C47.3926 223.248 47.8174 224.459 48.6182 225.309C49.4189 226.148 50.5469 226.568 52.002 226.568C52.959 226.568 53.8477 226.48 54.668 226.305C55.498 226.119 56.3867 225.816 57.334 225.396V228.194C56.4941 228.595 55.6445 228.878 54.7852 229.044C53.9258 229.21 52.9443 229.293 51.8408 229.293ZM51.2109 215.113C50.1172 215.113 49.2383 215.46 48.5742 216.153C47.9199 216.847 47.5293 217.857 47.4023 219.186H54.7559C54.7363 217.848 54.4141 216.837 53.7891 216.153C53.1641 215.46 52.3047 215.113 51.2109 215.113ZM76.3037 229H72.8467V219.039C72.8467 217.789 72.5928 216.856 72.085 216.241C71.5869 215.626 70.791 215.318 69.6973 215.318C68.2422 215.318 67.1777 215.748 66.5039 216.607C65.8301 217.467 65.4932 218.907 65.4932 220.929V229H62.0508V212.799H64.7461L65.2295 214.923H65.4053C65.8936 214.151 66.5869 213.556 67.4854 213.136C68.3838 212.716 69.3799 212.506 70.4736 212.506C74.3604 212.506 76.3037 214.483 76.3037 218.438V229ZM101.602 223.185C101.602 225.089 100.913 226.583 99.5361 227.667C98.1592 228.751 96.2598 229.293 93.8379 229.293C91.416 229.293 89.4336 228.917 87.8906 228.165V224.854C88.8672 225.313 89.9023 225.675 90.9961 225.938C92.0996 226.202 93.125 226.334 94.0723 226.334C95.459 226.334 96.4795 226.07 97.1338 225.543C97.7979 225.016 98.1299 224.308 98.1299 223.419C98.1299 222.618 97.8271 221.939 97.2217 221.383C96.6162 220.826 95.3662 220.167 93.4717 219.405C91.5186 218.614 90.1416 217.711 89.3408 216.695C88.54 215.68 88.1396 214.459 88.1396 213.033C88.1396 211.246 88.7744 209.84 90.0439 208.814C91.3135 207.789 93.0176 207.276 95.1562 207.276C97.207 207.276 99.248 207.726 101.279 208.624L100.166 211.48C98.2617 210.68 96.5625 210.279 95.0684 210.279C93.9355 210.279 93.0762 210.528 92.4902 211.026C91.9043 211.515 91.6113 212.164 91.6113 212.975C91.6113 213.531 91.7285 214.01 91.9629 214.41C92.1973 214.801 92.583 215.172 93.1201 215.523C93.6572 215.875 94.624 216.339 96.0205 216.915C97.5928 217.569 98.7451 218.18 99.4775 218.746C100.21 219.312 100.747 219.952 101.089 220.665C101.431 221.378 101.602 222.218 101.602 223.185ZM115.518 229L114.829 226.744H114.712C113.931 227.73 113.145 228.404 112.354 228.766C111.562 229.117 110.547 229.293 109.307 229.293C107.715 229.293 106.47 228.863 105.571 228.004C104.683 227.145 104.238 225.929 104.238 224.356C104.238 222.687 104.858 221.427 106.099 220.577C107.339 219.728 109.229 219.264 111.768 219.186L114.565 219.098V218.233C114.565 217.198 114.321 216.427 113.833 215.919C113.354 215.401 112.607 215.143 111.592 215.143C110.762 215.143 109.966 215.265 109.204 215.509C108.442 215.753 107.71 216.041 107.007 216.373L105.894 213.912C106.772 213.453 107.734 213.106 108.779 212.872C109.824 212.628 110.811 212.506 111.738 212.506C113.799 212.506 115.352 212.955 116.396 213.854C117.451 214.752 117.979 216.163 117.979 218.087V229H115.518ZM110.391 226.656C111.641 226.656 112.642 226.31 113.394 225.616C114.155 224.913 114.536 223.932 114.536 222.672V221.266L112.456 221.354C110.835 221.412 109.653 221.686 108.911 222.174C108.179 222.652 107.812 223.39 107.812 224.386C107.812 225.108 108.027 225.67 108.457 226.07C108.887 226.461 109.531 226.656 110.391 226.656ZM137.036 229H133.579V219.039C133.579 217.789 133.325 216.856 132.817 216.241C132.319 215.626 131.523 215.318 130.43 215.318C128.975 215.318 127.91 215.748 127.236 216.607C126.562 217.467 126.226 218.907 126.226 220.929V229H122.783V212.799H125.479L125.962 214.923H126.138C126.626 214.151 127.319 213.556 128.218 213.136C129.116 212.716 130.112 212.506 131.206 212.506C135.093 212.506 137.036 214.483 137.036 218.438V229ZM152.71 224.386C152.71 225.968 152.134 227.184 150.981 228.033C149.829 228.873 148.179 229.293 146.03 229.293C143.872 229.293 142.139 228.966 140.83 228.312V225.338C142.734 226.217 144.507 226.656 146.147 226.656C148.267 226.656 149.326 226.017 149.326 224.737C149.326 224.327 149.209 223.985 148.975 223.712C148.74 223.438 148.354 223.155 147.817 222.862C147.28 222.569 146.533 222.237 145.576 221.866C143.711 221.144 142.446 220.421 141.782 219.698C141.128 218.976 140.801 218.038 140.801 216.886C140.801 215.499 141.357 214.425 142.471 213.663C143.594 212.892 145.117 212.506 147.041 212.506C148.945 212.506 150.747 212.892 152.446 213.663L151.333 216.256C149.585 215.533 148.115 215.172 146.924 215.172C145.107 215.172 144.199 215.689 144.199 216.725C144.199 217.232 144.434 217.662 144.902 218.014C145.381 218.365 146.416 218.849 148.008 219.464C149.346 219.981 150.317 220.455 150.923 220.885C151.528 221.314 151.978 221.812 152.271 222.379C152.563 222.936 152.71 223.604 152.71 224.386ZM176.953 223.185C176.953 225.089 176.265 226.583 174.888 227.667C173.511 228.751 171.611 229.293 169.189 229.293C166.768 229.293 164.785 228.917 163.242 228.165V224.854C164.219 225.313 165.254 225.675 166.348 225.938C167.451 226.202 168.477 226.334 169.424 226.334C170.811 226.334 171.831 226.07 172.485 225.543C173.149 225.016 173.481 224.308 173.481 223.419C173.481 222.618 173.179 221.939 172.573 221.383C171.968 220.826 170.718 220.167 168.823 219.405C166.87 218.614 165.493 217.711 164.692 216.695C163.892 215.68 163.491 214.459 163.491 213.033C163.491 211.246 164.126 209.84 165.396 208.814C166.665 207.789 168.369 207.276 170.508 207.276C172.559 207.276 174.6 207.726 176.631 208.624L175.518 211.48C173.613 210.68 171.914 210.279 170.42 210.279C169.287 210.279 168.428 210.528 167.842 211.026C167.256 211.515 166.963 212.164 166.963 212.975C166.963 213.531 167.08 214.01 167.314 214.41C167.549 214.801 167.935 215.172 168.472 215.523C169.009 215.875 169.976 216.339 171.372 216.915C172.944 217.569 174.097 218.18 174.829 218.746C175.562 219.312 176.099 219.952 176.44 220.665C176.782 221.378 176.953 222.218 176.953 223.185ZM187.808 229.293C185.288 229.293 183.315 228.561 181.89 227.096C180.474 225.621 179.766 223.595 179.766 221.017C179.766 218.37 180.425 216.29 181.743 214.776C183.062 213.263 184.873 212.506 187.178 212.506C189.316 212.506 191.006 213.155 192.246 214.454C193.486 215.753 194.106 217.54 194.106 219.815V221.676H183.311C183.359 223.248 183.784 224.459 184.585 225.309C185.386 226.148 186.514 226.568 187.969 226.568C188.926 226.568 189.814 226.48 190.635 226.305C191.465 226.119 192.354 225.816 193.301 225.396V228.194C192.461 228.595 191.611 228.878 190.752 229.044C189.893 229.21 188.911 229.293 187.808 229.293ZM187.178 215.113C186.084 215.113 185.205 215.46 184.541 216.153C183.887 216.847 183.496 217.857 183.369 219.186H190.723C190.703 217.848 190.381 216.837 189.756 216.153C189.131 215.46 188.271 215.113 187.178 215.113ZM211.67 229H208.213V219.01C208.213 217.77 207.979 216.847 207.51 216.241C207.041 215.626 206.309 215.318 205.312 215.318C203.984 215.318 203.008 215.753 202.383 216.622C201.768 217.481 201.46 218.917 201.46 220.929V229H198.018V212.799H200.713L201.196 214.923H201.372C201.821 214.151 202.471 213.556 203.32 213.136C204.18 212.716 205.122 212.506 206.147 212.506C208.638 212.506 210.288 213.355 211.099 215.055H211.333C211.812 214.254 212.485 213.629 213.354 213.18C214.224 212.73 215.22 212.506 216.343 212.506C218.276 212.506 219.683 212.994 220.562 213.971C221.45 214.947 221.895 216.437 221.895 218.438V229H218.452V219.01C218.452 217.77 218.213 216.847 217.734 216.241C217.266 215.626 216.533 215.318 215.537 215.318C214.199 215.318 213.218 215.738 212.593 216.578C211.978 217.408 211.67 218.688 211.67 220.416V229ZM230.142 229H226.699V212.799H230.142V229ZM226.494 208.507C226.494 207.892 226.66 207.418 226.992 207.086C227.334 206.754 227.817 206.588 228.442 206.588C229.048 206.588 229.517 206.754 229.849 207.086C230.19 207.418 230.361 207.892 230.361 208.507C230.361 209.093 230.19 209.557 229.849 209.898C229.517 210.23 229.048 210.396 228.442 210.396C227.817 210.396 227.334 210.23 226.992 209.898C226.66 209.557 226.494 209.093 226.494 208.507ZM235.444 207.584H241.802C244.751 207.584 246.88 208.014 248.188 208.873C249.507 209.732 250.166 211.09 250.166 212.945C250.166 214.195 249.844 215.235 249.199 216.065C248.555 216.896 247.627 217.418 246.416 217.633V217.779C247.92 218.062 249.023 218.624 249.727 219.464C250.439 220.294 250.796 221.422 250.796 222.848C250.796 224.771 250.122 226.28 248.774 227.374C247.437 228.458 245.571 229 243.179 229H235.444V207.584ZM238.945 216.432H242.314C243.779 216.432 244.849 216.202 245.522 215.743C246.196 215.274 246.533 214.483 246.533 213.37C246.533 212.364 246.167 211.637 245.435 211.188C244.712 210.738 243.56 210.514 241.978 210.514H238.945V216.432ZM238.945 219.273V226.056H242.666C244.131 226.056 245.234 225.777 245.977 225.221C246.729 224.654 247.104 223.766 247.104 222.555C247.104 221.441 246.724 220.616 245.962 220.079C245.2 219.542 244.043 219.273 242.49 219.273H238.945ZM269.253 220.87C269.253 223.517 268.574 225.582 267.217 227.066C265.859 228.551 263.97 229.293 261.548 229.293C260.034 229.293 258.696 228.951 257.534 228.268C256.372 227.584 255.479 226.603 254.854 225.323C254.229 224.044 253.916 222.56 253.916 220.87C253.916 218.243 254.59 216.192 255.938 214.718C257.285 213.243 259.185 212.506 261.636 212.506C263.979 212.506 265.835 213.263 267.202 214.776C268.569 216.28 269.253 218.312 269.253 220.87ZM257.461 220.87C257.461 224.61 258.843 226.48 261.606 226.48C264.341 226.48 265.708 224.61 265.708 220.87C265.708 217.169 264.331 215.318 261.577 215.318C260.132 215.318 259.082 215.797 258.428 216.754C257.783 217.711 257.461 219.083 257.461 220.87ZM276.665 229H273.223V206.207H276.665V229ZM287.065 229.293C285.044 229.293 283.467 228.561 282.334 227.096C281.201 225.631 280.635 223.575 280.635 220.929C280.635 218.272 281.206 216.207 282.349 214.732C283.501 213.248 285.093 212.506 287.124 212.506C289.253 212.506 290.874 213.292 291.987 214.864H292.163C291.997 213.702 291.914 212.784 291.914 212.11V206.207H295.371V229H292.676L292.075 226.876H291.914C290.811 228.487 289.194 229.293 287.065 229.293ZM287.988 226.51C289.404 226.51 290.435 226.114 291.079 225.323C291.724 224.522 292.056 223.229 292.075 221.441V220.958C292.075 218.917 291.743 217.467 291.079 216.607C290.415 215.748 289.375 215.318 287.959 215.318C286.748 215.318 285.815 215.812 285.161 216.798C284.507 217.774 284.18 219.171 284.18 220.987C284.18 222.784 284.497 224.156 285.132 225.104C285.767 226.041 286.719 226.51 287.988 226.51Z" fill="#52796B"/>
<path d="M21.5332 268.263C21.5332 271.69 20.6641 274.386 18.9258 276.349C17.1973 278.312 14.79 279.293 11.7041 279.293C8.5498 279.293 6.11328 278.331 4.39453 276.407C2.68555 274.474 1.83105 271.749 1.83105 268.233C1.83105 264.747 2.69043 262.047 4.40918 260.133C6.12793 258.209 8.56934 257.247 11.7334 257.247C14.8096 257.247 17.2119 258.224 18.9404 260.177C20.6689 262.13 21.5332 264.825 21.5332 268.263ZM4.46777 268.263C4.46777 271.163 5.08301 273.365 6.31348 274.869C7.55371 276.363 9.35059 277.11 11.7041 277.11C14.0771 277.11 15.8691 276.363 17.0801 274.869C18.291 273.375 18.8965 271.173 18.8965 268.263C18.8965 265.382 18.291 263.199 17.0801 261.715C15.8789 260.221 14.0967 259.474 11.7334 259.474C9.36035 259.474 7.55371 260.226 6.31348 261.729C5.08301 263.224 4.46777 265.401 4.46777 268.263ZM33.4277 279.293C32.3828 279.293 31.4258 279.103 30.5566 278.722C29.6973 278.331 28.9746 277.735 28.3887 276.935H28.2129C28.3301 277.872 28.3887 278.761 28.3887 279.601V286.207H25.957V262.945H27.9346L28.2715 265.143H28.3887C29.0137 264.264 29.7412 263.629 30.5713 263.238C31.4014 262.848 32.3535 262.652 33.4277 262.652C35.5566 262.652 37.1973 263.38 38.3496 264.835C39.5117 266.29 40.0928 268.331 40.0928 270.958C40.0928 273.595 39.502 275.646 38.3203 277.11C37.1484 278.565 35.5176 279.293 33.4277 279.293ZM33.0762 264.718C31.4355 264.718 30.249 265.172 29.5166 266.08C28.7842 266.988 28.4082 268.434 28.3887 270.416V270.958C28.3887 273.214 28.7646 274.83 29.5166 275.807C30.2686 276.773 31.4746 277.257 33.1348 277.257C34.5215 277.257 35.6055 276.695 36.3867 275.572C37.1777 274.449 37.5732 272.901 37.5732 270.929C37.5732 268.927 37.1777 267.394 36.3867 266.329C35.6055 265.255 34.502 264.718 33.0762 264.718ZM51.1377 279.293C48.7646 279.293 46.8896 278.57 45.5127 277.125C44.1455 275.68 43.4619 273.673 43.4619 271.104C43.4619 268.517 44.0967 266.461 45.3662 264.938C46.6455 263.414 48.3594 262.652 50.5078 262.652C52.5195 262.652 54.1113 263.316 55.2832 264.645C56.4551 265.963 57.041 267.706 57.041 269.874V271.412H45.9814C46.0303 273.297 46.5039 274.728 47.4023 275.704C48.3105 276.681 49.585 277.169 51.2256 277.169C52.9541 277.169 54.6631 276.808 56.3525 276.085V278.253C55.4932 278.624 54.6777 278.888 53.9062 279.044C53.1445 279.21 52.2217 279.293 51.1377 279.293ZM50.4785 264.688C49.1895 264.688 48.1592 265.108 47.3877 265.948C46.626 266.788 46.1768 267.95 46.04 269.435H54.4336C54.4336 267.901 54.0918 266.729 53.4082 265.919C52.7246 265.099 51.748 264.688 50.4785 264.688ZM72.1875 279V268.614C72.1875 267.306 71.8896 266.329 71.2939 265.685C70.6982 265.04 69.7656 264.718 68.4961 264.718C66.8164 264.718 65.5859 265.172 64.8047 266.08C64.0234 266.988 63.6328 268.487 63.6328 270.577V279H61.2012V262.945H63.1787L63.5742 265.143H63.6914C64.1895 264.352 64.8877 263.741 65.7861 263.312C66.6846 262.872 67.6855 262.652 68.7891 262.652C70.7227 262.652 72.1777 263.121 73.1543 264.059C74.1309 264.986 74.6191 266.476 74.6191 268.526V279H72.1875ZM99.873 273.302C99.873 275.187 99.1895 276.656 97.8223 277.711C96.4551 278.766 94.5996 279.293 92.2559 279.293C89.7168 279.293 87.7637 278.966 86.3965 278.312V275.909C87.2754 276.28 88.2324 276.573 89.2676 276.788C90.3027 277.003 91.3281 277.11 92.3438 277.11C94.0039 277.11 95.2539 276.798 96.0938 276.173C96.9336 275.538 97.3535 274.659 97.3535 273.536C97.3535 272.794 97.2021 272.188 96.8994 271.72C96.6064 271.241 96.1084 270.802 95.4053 270.401C94.7119 270.001 93.6523 269.547 92.2266 269.039C90.2344 268.326 88.8086 267.481 87.9492 266.505C87.0996 265.528 86.6748 264.254 86.6748 262.682C86.6748 261.031 87.2949 259.718 88.5352 258.741C89.7754 257.765 91.416 257.276 93.457 257.276C95.5859 257.276 97.5439 257.667 99.3311 258.448L98.5547 260.616C96.7871 259.874 95.0684 259.503 93.3984 259.503C92.0801 259.503 91.0498 259.786 90.3076 260.353C89.5654 260.919 89.1943 261.705 89.1943 262.711C89.1943 263.453 89.3311 264.063 89.6045 264.542C89.8779 265.011 90.3369 265.445 90.9814 265.846C91.6357 266.236 92.6318 266.671 93.9697 267.149C96.2158 267.95 97.7588 268.81 98.5986 269.728C99.4482 270.646 99.873 271.837 99.873 273.302ZM113.76 279L113.276 276.715H113.159C112.358 277.721 111.558 278.404 110.757 278.766C109.966 279.117 108.975 279.293 107.783 279.293C106.191 279.293 104.941 278.883 104.033 278.062C103.135 277.242 102.686 276.075 102.686 274.562C102.686 271.319 105.278 269.62 110.464 269.464L113.188 269.376V268.38C113.188 267.12 112.915 266.192 112.368 265.597C111.831 264.991 110.967 264.688 109.775 264.688C108.438 264.688 106.924 265.099 105.234 265.919L104.487 264.059C105.278 263.629 106.143 263.292 107.08 263.048C108.027 262.804 108.975 262.682 109.922 262.682C111.836 262.682 113.252 263.106 114.17 263.956C115.098 264.806 115.562 266.168 115.562 268.043V279H113.76ZM108.267 277.286C109.78 277.286 110.967 276.871 111.826 276.041C112.695 275.211 113.13 274.049 113.13 272.555V271.104L110.698 271.207C108.765 271.275 107.368 271.578 106.509 272.115C105.659 272.643 105.234 273.468 105.234 274.591C105.234 275.47 105.498 276.139 106.025 276.598C106.562 277.057 107.31 277.286 108.267 277.286ZM131.572 279V268.614C131.572 267.306 131.274 266.329 130.679 265.685C130.083 265.04 129.15 264.718 127.881 264.718C126.201 264.718 124.971 265.172 124.189 266.08C123.408 266.988 123.018 268.487 123.018 270.577V279H120.586V262.945H122.563L122.959 265.143H123.076C123.574 264.352 124.272 263.741 125.171 263.312C126.069 262.872 127.07 262.652 128.174 262.652C130.107 262.652 131.562 263.121 132.539 264.059C133.516 264.986 134.004 266.476 134.004 268.526V279H131.572ZM149.37 274.62C149.37 276.114 148.813 277.267 147.7 278.077C146.587 278.888 145.024 279.293 143.013 279.293C140.884 279.293 139.224 278.956 138.032 278.282V276.026C138.804 276.417 139.629 276.725 140.508 276.949C141.396 277.174 142.251 277.286 143.071 277.286C144.341 277.286 145.317 277.086 146.001 276.686C146.685 276.275 147.026 275.655 147.026 274.825C147.026 274.2 146.753 273.668 146.206 273.229C145.669 272.779 144.614 272.252 143.042 271.646C141.548 271.09 140.483 270.606 139.849 270.196C139.224 269.776 138.755 269.303 138.442 268.775C138.14 268.248 137.988 267.618 137.988 266.886C137.988 265.577 138.521 264.547 139.585 263.795C140.649 263.033 142.109 262.652 143.965 262.652C145.693 262.652 147.383 263.004 149.033 263.707L148.169 265.685C146.558 265.021 145.098 264.688 143.789 264.688C142.637 264.688 141.768 264.869 141.182 265.23C140.596 265.592 140.303 266.09 140.303 266.725C140.303 267.154 140.41 267.521 140.625 267.823C140.85 268.126 141.206 268.414 141.694 268.688C142.183 268.961 143.12 269.356 144.507 269.874C146.411 270.567 147.695 271.266 148.359 271.969C149.033 272.672 149.37 273.556 149.37 274.62ZM163.989 270.094V279H161.499V257.584H167.373C170 257.584 171.938 258.087 173.188 259.093C174.448 260.099 175.078 261.612 175.078 263.634C175.078 266.466 173.643 268.38 170.771 269.376L176.587 279H173.643L168.457 270.094H163.989ZM163.989 267.955H167.402C169.16 267.955 170.449 267.608 171.27 266.915C172.09 266.212 172.5 265.162 172.5 263.766C172.5 262.35 172.08 261.329 171.24 260.704C170.41 260.079 169.072 259.767 167.227 259.767H163.989V267.955ZM186.46 279.293C184.087 279.293 182.212 278.57 180.835 277.125C179.468 275.68 178.784 273.673 178.784 271.104C178.784 268.517 179.419 266.461 180.688 264.938C181.968 263.414 183.682 262.652 185.83 262.652C187.842 262.652 189.434 263.316 190.605 264.645C191.777 265.963 192.363 267.706 192.363 269.874V271.412H181.304C181.353 273.297 181.826 274.728 182.725 275.704C183.633 276.681 184.907 277.169 186.548 277.169C188.276 277.169 189.985 276.808 191.675 276.085V278.253C190.815 278.624 190 278.888 189.229 279.044C188.467 279.21 187.544 279.293 186.46 279.293ZM185.801 264.688C184.512 264.688 183.481 265.108 182.71 265.948C181.948 266.788 181.499 267.95 181.362 269.435H189.756C189.756 267.901 189.414 266.729 188.73 265.919C188.047 265.099 187.07 264.688 185.801 264.688ZM209.663 262.945V264.483L206.689 264.835C206.963 265.177 207.207 265.626 207.422 266.183C207.637 266.729 207.744 267.35 207.744 268.043C207.744 269.615 207.207 270.87 206.133 271.808C205.059 272.745 203.584 273.214 201.709 273.214C201.23 273.214 200.781 273.175 200.361 273.097C199.326 273.644 198.809 274.332 198.809 275.162C198.809 275.602 198.989 275.929 199.351 276.144C199.712 276.349 200.332 276.451 201.211 276.451H204.053C205.791 276.451 207.124 276.817 208.052 277.55C208.989 278.282 209.458 279.347 209.458 280.743C209.458 282.521 208.745 283.873 207.319 284.801C205.894 285.738 203.813 286.207 201.079 286.207C198.979 286.207 197.358 285.816 196.216 285.035C195.083 284.254 194.517 283.15 194.517 281.725C194.517 280.748 194.829 279.903 195.454 279.19C196.079 278.478 196.958 277.994 198.091 277.74C197.681 277.555 197.334 277.267 197.051 276.876C196.777 276.485 196.641 276.031 196.641 275.514C196.641 274.928 196.797 274.415 197.109 273.976C197.422 273.536 197.915 273.111 198.589 272.701C197.759 272.359 197.08 271.778 196.553 270.958C196.035 270.138 195.776 269.2 195.776 268.146C195.776 266.388 196.304 265.035 197.358 264.088C198.413 263.131 199.907 262.652 201.841 262.652C202.681 262.652 203.438 262.75 204.111 262.945H209.663ZM196.86 281.695C196.86 282.564 197.227 283.224 197.959 283.673C198.691 284.122 199.741 284.347 201.108 284.347C203.149 284.347 204.658 284.039 205.635 283.424C206.621 282.818 207.114 281.993 207.114 280.948C207.114 280.079 206.846 279.474 206.309 279.132C205.771 278.8 204.761 278.634 203.276 278.634H200.361C199.258 278.634 198.398 278.897 197.783 279.425C197.168 279.952 196.86 280.709 196.86 281.695ZM198.179 268.087C198.179 269.21 198.496 270.06 199.131 270.636C199.766 271.212 200.649 271.5 201.782 271.5C204.155 271.5 205.342 270.348 205.342 268.043C205.342 265.631 204.141 264.425 201.738 264.425C200.596 264.425 199.717 264.732 199.102 265.348C198.486 265.963 198.179 266.876 198.179 268.087ZM215.244 262.945V273.36C215.244 274.669 215.542 275.646 216.138 276.29C216.733 276.935 217.666 277.257 218.936 277.257C220.615 277.257 221.841 276.798 222.612 275.88C223.394 274.962 223.784 273.463 223.784 271.383V262.945H226.216V279H224.209L223.857 276.847H223.726C223.228 277.638 222.534 278.243 221.646 278.663C220.767 279.083 219.761 279.293 218.628 279.293C216.675 279.293 215.21 278.829 214.233 277.901C213.267 276.974 212.783 275.489 212.783 273.448V262.945H215.244ZM233.818 279H231.387V256.207H233.818V279ZM248.848 279L248.364 276.715H248.247C247.446 277.721 246.646 278.404 245.845 278.766C245.054 279.117 244.062 279.293 242.871 279.293C241.279 279.293 240.029 278.883 239.121 278.062C238.223 277.242 237.773 276.075 237.773 274.562C237.773 271.319 240.366 269.62 245.552 269.464L248.276 269.376V268.38C248.276 267.12 248.003 266.192 247.456 265.597C246.919 264.991 246.055 264.688 244.863 264.688C243.525 264.688 242.012 265.099 240.322 265.919L239.575 264.059C240.366 263.629 241.23 263.292 242.168 263.048C243.115 262.804 244.062 262.682 245.01 262.682C246.924 262.682 248.34 263.106 249.258 263.956C250.186 264.806 250.649 266.168 250.649 268.043V279H248.848ZM243.354 277.286C244.868 277.286 246.055 276.871 246.914 276.041C247.783 275.211 248.218 274.049 248.218 272.555V271.104L245.786 271.207C243.853 271.275 242.456 271.578 241.597 272.115C240.747 272.643 240.322 273.468 240.322 274.591C240.322 275.47 240.586 276.139 241.113 276.598C241.65 277.057 242.397 277.286 243.354 277.286ZM262.998 262.652C263.711 262.652 264.351 262.711 264.917 262.828L264.58 265.084C263.916 264.938 263.33 264.864 262.822 264.864C261.523 264.864 260.41 265.392 259.482 266.446C258.564 267.501 258.105 268.814 258.105 270.387V279H255.674V262.945H257.681L257.959 265.919H258.076C258.672 264.874 259.39 264.068 260.229 263.502C261.069 262.936 261.992 262.652 262.998 262.652Z" fill="#52796B"/>
<path d="M21.0352 318.263C21.0352 321.661 20.1855 324.352 18.4863 326.334C16.7871 328.307 14.4434 329.293 11.4551 329.293C8.47656 329.293 6.1377 328.307 4.43848 326.334C2.73926 324.352 1.88965 321.651 1.88965 318.233C1.88965 314.825 2.74414 312.145 4.45312 310.191C6.17188 308.229 8.51562 307.247 11.4844 307.247C14.4727 307.247 16.8115 308.233 18.501 310.206C20.1904 312.169 21.0352 314.854 21.0352 318.263ZM3.51562 318.263C3.51562 321.329 4.19922 323.702 5.56641 325.382C6.93359 327.052 8.89648 327.887 11.4551 327.887C14.0332 327.887 16.001 327.057 17.3584 325.396C18.7256 323.736 19.4092 321.358 19.4092 318.263C19.4092 315.177 18.7256 312.813 17.3584 311.173C16.001 309.522 14.043 308.697 11.4844 308.697C8.93555 308.697 6.96777 309.527 5.58105 311.188C4.2041 312.848 3.51562 315.206 3.51562 318.263ZM32.417 329.293C29.9658 329.293 28.1787 328.375 27.0557 326.539H26.9531L26.9971 327.77C27.0361 328.492 27.0557 329.283 27.0557 330.143V336.207H25.6055V313.077H26.8359L27.1143 315.348H27.2021C28.2959 313.629 30.0439 312.77 32.4463 312.77C34.5947 312.77 36.2305 313.478 37.3535 314.894C38.4863 316.3 39.0527 318.351 39.0527 321.046C39.0527 323.663 38.457 325.694 37.2656 327.14C36.084 328.575 34.4678 329.293 32.417 329.293ZM32.3877 328.004C34.0186 328.004 35.2783 327.398 36.167 326.188C37.0654 324.977 37.5146 323.282 37.5146 321.104C37.5146 316.427 35.8252 314.088 32.4463 314.088C30.5908 314.088 29.2285 314.601 28.3594 315.626C27.4902 316.642 27.0557 318.302 27.0557 320.606V321.075C27.0557 323.565 27.4707 325.343 28.3008 326.407C29.1406 327.472 30.5029 328.004 32.3877 328.004ZM49.9072 329.293C47.5928 329.293 45.7861 328.58 44.4873 327.154C43.1982 325.729 42.5537 323.731 42.5537 321.163C42.5537 318.624 43.1787 316.593 44.4287 315.069C45.6787 313.536 47.3633 312.77 49.4824 312.77C51.3574 312.77 52.8369 313.424 53.9209 314.732C55.0049 316.041 55.5469 317.818 55.5469 320.064V321.236H44.0771C44.0967 323.424 44.6045 325.094 45.6006 326.246C46.6064 327.398 48.042 327.975 49.9072 327.975C50.8154 327.975 51.6113 327.911 52.2949 327.784C52.9883 327.657 53.8623 327.384 54.917 326.964V328.282C54.0186 328.673 53.1885 328.937 52.4268 329.073C51.665 329.22 50.8252 329.293 49.9072 329.293ZM49.4824 314.059C47.9492 314.059 46.7188 314.566 45.791 315.582C44.8633 316.588 44.3213 318.043 44.165 319.947H54.0088C54.0088 318.102 53.6084 316.661 52.8076 315.626C52.0068 314.581 50.8984 314.059 49.4824 314.059ZM71.0449 329V318.673C71.0449 317.071 70.708 315.909 70.0342 315.187C69.3604 314.454 68.3154 314.088 66.8994 314.088C64.9951 314.088 63.5986 314.571 62.71 315.538C61.8311 316.495 61.3916 318.053 61.3916 320.211V329H59.9414V313.077H61.1719L61.4502 315.26H61.5381C62.5732 313.6 64.4141 312.77 67.0605 312.77C70.6738 312.77 72.4805 314.708 72.4805 318.585V329H71.0449ZM97.6172 323.478C97.6172 325.265 96.958 326.681 95.6396 327.726C94.3311 328.771 92.5879 329.293 90.4102 329.293C87.793 329.293 85.7861 329.005 84.3896 328.429V326.935C85.9326 327.589 87.9004 327.916 90.293 327.916C92.0508 327.916 93.4424 327.516 94.4678 326.715C95.5029 325.904 96.0205 324.845 96.0205 323.536C96.0205 322.726 95.8496 322.057 95.5078 321.529C95.166 320.992 94.6094 320.504 93.8379 320.064C93.0664 319.625 91.9336 319.151 90.4395 318.644C88.252 317.892 86.7383 317.081 85.8984 316.212C85.0684 315.333 84.6533 314.166 84.6533 312.711C84.6533 311.109 85.2783 309.806 86.5283 308.8C87.7881 307.784 89.4043 307.276 91.377 307.276C93.3887 307.276 95.2783 307.657 97.0459 308.419L96.5039 309.708C94.7266 308.966 93.0273 308.595 91.4062 308.595C89.8242 308.595 88.5645 308.961 87.627 309.693C86.6895 310.426 86.2207 311.422 86.2207 312.682C86.2207 313.473 86.3623 314.122 86.6455 314.63C86.9385 315.138 87.4121 315.597 88.0664 316.007C88.7207 316.407 89.8438 316.891 91.4355 317.457C93.1055 318.033 94.3604 318.595 95.2002 319.142C96.04 319.679 96.6504 320.294 97.0312 320.987C97.4219 321.671 97.6172 322.501 97.6172 323.478ZM111.445 329L111.079 326.48H110.962C110.161 327.506 109.336 328.233 108.486 328.663C107.646 329.083 106.65 329.293 105.498 329.293C103.936 329.293 102.72 328.893 101.851 328.092C100.981 327.291 100.547 326.183 100.547 324.767C100.547 323.214 101.191 322.008 102.48 321.148C103.779 320.289 105.654 319.835 108.105 319.786L111.138 319.698V318.644C111.138 317.13 110.83 315.987 110.215 315.216C109.6 314.444 108.608 314.059 107.241 314.059C105.767 314.059 104.238 314.469 102.656 315.289L102.114 314.029C103.862 313.209 105.591 312.799 107.3 312.799C109.048 312.799 110.352 313.253 111.211 314.161C112.08 315.069 112.515 316.485 112.515 318.409V329H111.445ZM105.586 327.975C107.285 327.975 108.623 327.491 109.6 326.524C110.586 325.548 111.079 324.195 111.079 322.467V320.899L108.296 321.017C106.06 321.124 104.463 321.476 103.506 322.071C102.559 322.657 102.085 323.575 102.085 324.825C102.085 325.821 102.388 326.598 102.993 327.154C103.608 327.701 104.473 327.975 105.586 327.975ZM128.789 329V318.673C128.789 317.071 128.452 315.909 127.778 315.187C127.104 314.454 126.06 314.088 124.644 314.088C122.739 314.088 121.343 314.571 120.454 315.538C119.575 316.495 119.136 318.053 119.136 320.211V329H117.686V313.077H118.916L119.194 315.26H119.282C120.317 313.6 122.158 312.77 124.805 312.77C128.418 312.77 130.225 314.708 130.225 318.585V329H128.789ZM145.254 324.854C145.254 326.28 144.712 327.379 143.628 328.15C142.544 328.912 141.006 329.293 139.014 329.293C136.885 329.293 135.195 328.966 133.945 328.312V326.744C135.547 327.545 137.236 327.945 139.014 327.945C140.586 327.945 141.777 327.687 142.588 327.169C143.408 326.642 143.818 325.943 143.818 325.074C143.818 324.273 143.491 323.6 142.837 323.053C142.192 322.506 141.128 321.969 139.644 321.441C138.052 320.865 136.934 320.372 136.289 319.962C135.645 319.542 135.156 319.073 134.824 318.556C134.502 318.028 134.341 317.389 134.341 316.637C134.341 315.445 134.839 314.503 135.835 313.81C136.841 313.116 138.242 312.77 140.039 312.77C141.758 312.77 143.389 313.092 144.932 313.736L144.39 315.055C142.827 314.41 141.377 314.088 140.039 314.088C138.74 314.088 137.71 314.303 136.948 314.732C136.187 315.162 135.806 315.758 135.806 316.52C135.806 317.35 136.099 318.014 136.685 318.512C137.28 319.01 138.438 319.566 140.156 320.182C141.592 320.699 142.637 321.168 143.291 321.588C143.945 321.998 144.434 322.467 144.756 322.994C145.088 323.521 145.254 324.142 145.254 324.854ZM157.515 329V307.584H159.009V327.594H169.219V329H157.515ZM174.009 329H172.559V313.077H174.009V329ZM172.354 308.653C172.354 307.716 172.661 307.247 173.276 307.247C173.579 307.247 173.813 307.369 173.979 307.613C174.155 307.857 174.243 308.204 174.243 308.653C174.243 309.093 174.155 309.439 173.979 309.693C173.813 309.947 173.579 310.074 173.276 310.074C172.661 310.074 172.354 309.601 172.354 308.653ZM191.777 313.077V314.088L188.481 314.293C189.36 315.387 189.8 316.588 189.8 317.896C189.8 319.43 189.287 320.675 188.262 321.632C187.246 322.579 185.879 323.053 184.16 323.053C183.438 323.053 182.93 323.023 182.637 322.965C182.061 323.268 181.621 323.624 181.318 324.034C181.016 324.444 180.864 324.879 180.864 325.338C180.864 325.846 181.055 326.217 181.436 326.451C181.826 326.686 182.476 326.803 183.384 326.803H186.167C187.896 326.803 189.219 327.154 190.137 327.857C191.055 328.551 191.514 329.581 191.514 330.948C191.514 332.628 190.83 333.922 189.463 334.83C188.105 335.748 186.167 336.207 183.647 336.207C181.646 336.207 180.093 335.821 178.989 335.05C177.896 334.278 177.349 333.204 177.349 331.827C177.349 330.733 177.686 329.825 178.359 329.103C179.043 328.38 179.966 327.887 181.128 327.623C180.649 327.418 180.264 327.13 179.971 326.759C179.688 326.378 179.546 325.943 179.546 325.455C179.546 324.391 180.225 323.453 181.582 322.643C180.654 322.262 179.932 321.666 179.414 320.855C178.896 320.035 178.638 319.098 178.638 318.043C178.638 316.451 179.141 315.177 180.146 314.22C181.162 313.253 182.529 312.77 184.248 312.77C185.293 312.77 186.104 312.872 186.68 313.077H191.777ZM178.887 331.695C178.887 333.883 180.513 334.977 183.765 334.977C187.944 334.977 190.034 333.644 190.034 330.978C190.034 330.021 189.707 329.327 189.053 328.897C188.398 328.468 187.339 328.253 185.874 328.253H183.267C180.347 328.253 178.887 329.4 178.887 331.695ZM180.103 318.043C180.103 319.273 180.474 320.23 181.216 320.914C181.968 321.588 182.969 321.925 184.219 321.925C185.547 321.925 186.562 321.588 187.266 320.914C187.979 320.24 188.335 319.264 188.335 317.984C188.335 316.627 187.969 315.611 187.236 314.938C186.514 314.254 185.498 313.912 184.189 313.912C182.92 313.912 181.919 314.278 181.187 315.011C180.464 315.733 180.103 316.744 180.103 318.043ZM206.162 329V318.673C206.162 317.071 205.825 315.909 205.151 315.187C204.478 314.454 203.433 314.088 202.017 314.088C200.112 314.088 198.716 314.571 197.827 315.538C196.948 316.495 196.509 318.053 196.509 320.211V329H195.059V306.207H196.509V313.458L196.436 315.494H196.538C197.134 314.537 197.886 313.844 198.794 313.414C199.702 312.984 200.83 312.77 202.178 312.77C205.791 312.77 207.598 314.708 207.598 318.585V329H206.162ZM216.958 328.004C217.876 328.004 218.677 327.926 219.36 327.77V328.941C218.657 329.176 217.847 329.293 216.929 329.293C215.522 329.293 214.482 328.917 213.809 328.165C213.145 327.413 212.812 326.231 212.812 324.62V314.337H210.454V313.487L212.812 312.828L213.545 309.225H214.292V313.077H218.965V314.337H214.292V324.415C214.292 325.636 214.507 326.539 214.937 327.125C215.366 327.711 216.04 328.004 216.958 328.004Z" fill="#52796B"/>
</svg>
