<svg width="1070" height="80" viewBox="0 0 1070 80" fill="none" xmlns="http://www.w3.org/2000/svg">
<path d="M116.5 40C116.5 50.8324 110.079 60.6952 99.5835 67.8715C89.0905 75.0462 74.5668 79.5 58.5 79.5C42.4332 79.5 27.9095 75.0462 17.4165 67.8715C6.92102 60.6952 0.5 50.8324 0.5 40C0.5 29.1676 6.92102 19.3048 17.4165 12.1285C27.9095 4.95375 42.4332 0.5 58.5 0.5C74.5668 0.5 89.0905 4.95375 99.5835 12.1285C110.079 19.3048 116.5 29.1676 116.5 40Z" fill="#E5E5E5" stroke="black"/>
<path d="M1069.5 40C1069.5 50.8324 1063.08 60.6952 1052.58 67.8715C1042.09 75.0462 1027.57 79.5 1011.5 79.5C995.433 79.5 980.909 75.0462 970.416 67.8715C959.921 60.6952 953.5 50.8324 953.5 40C953.5 29.1676 959.921 19.3048 970.416 12.1285C980.909 4.95375 995.433 0.5 1011.5 0.5C1027.57 0.5 1042.09 4.95375 1052.58 12.1285C1063.08 19.3048 1069.5 29.1676 1069.5 40Z" fill="#E5E5E5" stroke="black"/>
<path d="M190.354 38.3536C190.549 38.1583 190.549 37.8417 190.354 37.6464L187.172 34.4645C186.976 34.2692 186.66 34.2692 186.464 34.4645C186.269 34.6597 186.269 34.9763 186.464 35.1716L189.293 38L186.464 40.8284C186.269 41.0237 186.269 41.3403 186.464 41.5355C186.66 41.7308 186.976 41.7308 187.172 41.5355L190.354 38.3536ZM117 38.5H190V37.5H117V38.5Z" fill="black"/>
<rect x="191.5" y="11.5" width="115" height="54" fill="#F3F3F3" stroke="black"/>
<path d="M951.354 38.3536C951.549 38.1583 951.549 37.8417 951.354 37.6464L948.172 34.4645C947.976 34.2692 947.66 34.2692 947.464 34.4645C947.269 34.6597 947.269 34.9763 947.464 35.1716L950.293 38L947.464 40.8284C947.269 41.0237 947.269 41.3403 947.464 41.5355C947.66 41.7308 947.976 41.7308 948.172 41.5355L951.354 38.3536ZM878 38.5H951V37.5H878V38.5Z" fill="black"/>
<path d="M761.354 38.3536C761.549 38.1583 761.549 37.8417 761.354 37.6464L758.172 34.4645C757.976 34.2692 757.66 34.2692 757.464 34.4645C757.269 34.6597 757.269 34.9763 757.464 35.1716L760.293 38L757.464 40.8284C757.269 41.0237 757.269 41.3403 757.464 41.5355C757.66 41.7308 757.976 41.7308 758.172 41.5355L761.354 38.3536ZM688 38.5H761V37.5H688V38.5Z" fill="black"/>
<rect x="762.5" y="11.5" width="115" height="54" fill="#F3F3F3" stroke="black"/>
<path d="M570.354 38.3536C570.549 38.1583 570.549 37.8417 570.354 37.6464L567.172 34.4645C566.976 34.2692 566.66 34.2692 566.464 34.4645C566.269 34.6597 566.269 34.9763 566.464 35.1716L569.293 38L566.464 40.8284C566.269 41.0237 566.269 41.3403 566.464 41.5355C566.66 41.7308 566.976 41.7308 567.172 41.5355L570.354 38.3536ZM497 38.5H570V37.5H497V38.5Z" fill="black"/>
<rect x="571.5" y="11.5" width="115" height="54" fill="#F3F3F3" stroke="black"/>
<path d="M380.354 38.3536C380.549 38.1583 380.549 37.8417 380.354 37.6464L377.172 34.4645C376.976 34.2692 376.66 34.2692 376.464 34.4645C376.269 34.6597 376.269 34.9763 376.464 35.1716L379.293 38L376.464 40.8284C376.269 41.0237 376.269 41.3403 376.464 41.5355C376.66 41.7308 376.976 41.7308 377.172 41.5355L380.354 38.3536ZM307 38.5H380V37.5H307V38.5Z" fill="black"/>
<rect x="381.5" y="11.5" width="115" height="54" fill="#F3F3F3" stroke="black"/>
<path d="M25.8388 34H27.2108L23.3188 24.788H21.9188L18.0268 34H19.2588L20.1688 31.76H24.9428L25.8388 34ZM20.5188 30.892L22.5628 25.866H22.5908L24.5928 30.892H20.5188ZM28.5415 34H29.6615V30.598C29.6615 28.946 30.6835 27.98 32.2655 27.98C33.7495 27.98 34.4215 28.736 34.4215 29.912V34H35.5415V29.674C35.5415 28.022 34.4635 26.972 32.6435 26.972C30.9915 26.972 30.0255 27.742 29.6475 28.946H29.6335L29.6615 27.084H28.5415V34ZM38.2621 36.912C39.5781 36.912 40.1101 36.268 40.9361 34.126L43.6801 27.084H42.5461L40.3201 32.866H40.2921L37.7721 27.084H36.4561L39.5641 34H39.8581C39.2141 35.568 38.8781 35.932 38.1221 35.932C37.7721 35.932 37.4361 35.848 37.2681 35.792V36.73C37.4641 36.814 37.8701 36.912 38.2621 36.912ZM48.299 36.772H49.419V33.986C49.419 33.664 49.391 32.936 49.377 32.474H49.391C49.685 33.412 50.665 34.112 52.135 34.112C54.165 34.112 55.411 32.67 55.411 30.43C55.411 28.316 54.179 26.972 52.163 26.972C50.665 26.972 49.685 27.714 49.405 28.862H49.391L49.419 27.084H48.299V36.772ZM51.981 33.104C50.413 33.104 49.419 32.264 49.419 30.948V30.528C49.447 28.974 50.441 27.98 51.953 27.98C53.409 27.98 54.291 28.946 54.291 30.444C54.291 32.068 53.395 33.104 51.981 33.104ZM59.0149 34.112C60.7369 34.112 61.6049 33.426 61.8429 32.362H61.8569C61.8429 33.034 61.8149 33.678 61.8009 34H62.9209V29.786C62.9209 27.98 61.7449 26.972 59.7149 26.972C57.8389 26.972 56.6629 27.798 56.6629 29.17C56.6629 29.296 56.6769 29.492 56.6909 29.59H57.7269C57.7129 29.478 57.7129 29.38 57.7129 29.338C57.7129 28.4 58.4129 27.924 59.6869 27.924C61.1009 27.924 61.8009 28.498 61.8009 29.688V30.192H58.9869C57.1389 30.192 56.4529 31.032 56.4529 32.012C56.4529 33.314 57.4469 34.112 59.0149 34.112ZM59.2389 33.16C58.1469 33.16 57.5029 32.712 57.5029 32.012C57.5029 31.34 57.9509 31.004 59.0849 31.004H61.8009V31.102C61.8009 32.362 60.8069 33.16 59.2389 33.16ZM69.461 33.048H67.221C66.633 33.048 66.339 32.754 66.339 32.292C66.339 32.026 66.423 31.816 66.535 31.704C66.913 31.83 67.333 31.9 67.809 31.9C69.615 31.9 70.763 30.934 70.763 29.436C70.763 28.876 70.609 28.4 70.315 28.008C70.203 27.728 70.133 27.462 70.133 27.252C70.133 26.846 70.385 26.636 70.847 26.636C71.071 26.636 71.239 26.678 71.337 26.72V25.824C71.211 25.782 71.001 25.74 70.707 25.74C69.923 25.74 69.433 26.104 69.433 26.664C69.433 26.972 69.545 27.238 69.699 27.434V27.448C69.209 27.14 68.565 26.972 67.809 26.972C66.017 26.972 64.869 27.938 64.869 29.436C64.869 30.276 65.233 30.962 65.877 31.382V31.41C65.611 31.564 65.387 31.97 65.387 32.488C65.387 32.964 65.597 33.37 65.947 33.636V33.65C65.079 33.65 64.533 34.224 64.533 34.91C64.533 36.226 65.891 36.968 68.173 36.968C70.357 36.968 71.659 36.086 71.659 34.714C71.659 33.664 70.861 33.048 69.461 33.048ZM67.809 27.924C68.943 27.924 69.671 28.512 69.671 29.436C69.671 30.36 68.943 30.948 67.809 30.948C66.675 30.948 65.961 30.36 65.961 29.436C65.961 28.512 66.675 27.924 67.809 27.924ZM68.159 36.016C66.633 36.016 65.653 35.652 65.653 34.882C65.653 34.252 66.269 34 67.235 34H69.293C70.133 34 70.539 34.28 70.539 34.826C70.539 35.484 69.937 36.016 68.159 36.016ZM79.1101 30.248C79.1101 28.19 77.9481 26.972 75.9741 26.972C73.9021 26.972 72.5721 28.386 72.5721 30.598C72.5721 32.74 73.9161 34.112 76.0021 34.112C77.8221 34.112 79.0401 33.16 79.1101 31.662H78.0741C77.9761 32.572 77.1781 33.16 76.0161 33.16C74.6581 33.16 73.7621 32.236 73.6921 30.766H79.1101V30.248ZM78.0741 29.954H73.7341C73.9441 28.638 74.7701 27.924 76.0021 27.924C77.3181 27.924 78.0741 28.652 78.0741 29.87V29.954ZM87.242 34.112C89.384 34.112 90.742 32.726 90.742 30.556C90.742 28.372 89.384 26.972 87.242 26.972C85.1 26.972 83.742 28.372 83.742 30.556C83.742 32.726 85.1 34.112 87.242 34.112ZM87.242 33.104C85.786 33.104 84.862 32.11 84.862 30.556C84.862 28.988 85.786 27.98 87.242 27.98C88.698 27.98 89.622 28.988 89.622 30.556C89.622 32.11 88.698 33.104 87.242 33.104ZM92.4165 34H93.5365V30.598C93.5365 28.946 94.5585 27.98 96.1405 27.98C97.6245 27.98 98.2965 28.736 98.2965 29.912V34H99.4165V29.674C99.4165 28.022 98.3385 26.972 96.5185 26.972C94.8665 26.972 93.9005 27.742 93.5225 28.946H93.5085L93.5365 27.084H92.4165V34ZM25.4607 55.112C27.0007 55.112 27.9247 54.342 28.1907 53.152H28.2187C28.2047 53.768 28.1907 54.384 28.1487 55H29.2687V45.298H28.1487V49.47H28.1347C27.8827 48.56 27.0007 47.972 25.5587 47.972C23.4587 47.972 22.1707 49.442 22.1707 51.5C22.1707 53.656 23.4587 55.112 25.4607 55.112ZM25.6427 54.104C24.2147 54.104 23.2907 53.04 23.2907 51.5C23.2907 50.058 24.2147 48.98 25.6567 48.98C27.1827 48.98 28.1487 49.876 28.1487 51.276V51.626C28.1487 53.138 27.1687 54.104 25.6427 54.104ZM33.5784 55.112C35.3004 55.112 36.1684 54.426 36.4064 53.362H36.4204C36.4064 54.034 36.3784 54.678 36.3644 55H37.4844V50.786C37.4844 48.98 36.3084 47.972 34.2784 47.972C32.4024 47.972 31.2264 48.798 31.2264 50.17C31.2264 50.296 31.2404 50.492 31.2544 50.59H32.2904C32.2764 50.478 32.2764 50.38 32.2764 50.338C32.2764 49.4 32.9764 48.924 34.2504 48.924C35.6644 48.924 36.3644 49.498 36.3644 50.688V51.192H33.5504C31.7024 51.192 31.0164 52.032 31.0164 53.012C31.0164 54.314 32.0104 55.112 33.5784 55.112ZM33.8024 54.16C32.7104 54.16 32.0664 53.712 32.0664 53.012C32.0664 52.34 32.5144 52.004 33.6484 52.004H36.3644V52.102C36.3644 53.362 35.3704 54.16 33.8024 54.16ZM42.1485 55.112C44.2485 55.112 45.3685 54.3 45.3685 52.942C45.3685 52.424 45.1445 51.892 44.6825 51.626C44.2065 51.36 43.6745 51.262 42.5965 51.15C41.6865 51.052 41.0005 50.968 40.6645 50.828C40.2585 50.66 40.2165 50.324 40.2165 50.044C40.2165 49.358 40.9865 48.924 42.1765 48.924C43.4085 48.924 44.0245 49.4 44.0385 50.436H45.0745C45.0745 48.882 44.2065 47.972 42.1345 47.972C40.2865 47.972 39.0965 48.812 39.0965 50.114C39.0965 50.618 39.2925 51.122 39.6705 51.402C40.0905 51.71 40.7765 51.85 41.9105 51.948C42.7645 52.032 43.4925 52.116 43.8145 52.27C44.1645 52.438 44.2485 52.704 44.2485 52.984C44.2485 53.726 43.5625 54.16 42.1345 54.16C40.6925 54.16 40.1325 53.614 40.1325 52.69H39.0965C39.0965 54.02 39.8245 55.112 42.1485 55.112ZM47.1164 55H48.2364V51.738C48.2364 49.988 49.2584 48.98 50.8404 48.98C52.3244 48.98 52.9964 49.736 52.9964 50.912V55H54.1164V50.674C54.1164 49.022 53.0384 47.972 51.2184 47.972C49.5664 47.972 48.6004 48.756 48.2224 49.96H48.2084C48.2084 49.708 48.2364 48.882 48.2364 48.504V45.298H47.1164V55ZM60.0055 55.112C61.9375 55.112 63.1835 53.67 63.1835 51.416C63.1835 49.316 61.9655 47.972 59.9775 47.972C58.4935 47.972 57.4855 48.686 57.1775 49.792H57.1635C57.1775 49.456 57.1915 48.896 57.1915 48.616V45.298H56.0715V55H57.1915C57.1635 54.636 57.1355 53.95 57.1355 53.404H57.1495C57.4435 54.44 58.4375 55.112 60.0055 55.112ZM59.7255 54.104C58.1855 54.104 57.1915 53.25 57.1915 51.92V51.556C57.1915 49.988 58.1995 48.98 59.7675 48.98C61.1955 48.98 62.0635 49.946 62.0635 51.444C62.0635 53.068 61.1535 54.104 59.7255 54.104ZM68.0809 55.112C70.2229 55.112 71.5809 53.726 71.5809 51.556C71.5809 49.372 70.2229 47.972 68.0809 47.972C65.9389 47.972 64.5809 49.372 64.5809 51.556C64.5809 53.726 65.9389 55.112 68.0809 55.112ZM68.0809 54.104C66.6249 54.104 65.7009 53.11 65.7009 51.556C65.7009 49.988 66.6249 48.98 68.0809 48.98C69.5369 48.98 70.4609 49.988 70.4609 51.556C70.4609 53.11 69.5369 54.104 68.0809 54.104ZM75.1819 55.112C76.9039 55.112 77.7719 54.426 78.0099 53.362H78.0239C78.0099 54.034 77.9819 54.678 77.9679 55H79.0879V50.786C79.0879 48.98 77.9119 47.972 75.8819 47.972C74.0059 47.972 72.8299 48.798 72.8299 50.17C72.8299 50.296 72.8439 50.492 72.8579 50.59H73.8939C73.8799 50.478 73.8799 50.38 73.8799 50.338C73.8799 49.4 74.5799 48.924 75.8539 48.924C77.2679 48.924 77.9679 49.498 77.9679 50.688V51.192H75.1539C73.3059 51.192 72.6199 52.032 72.6199 53.012C72.6199 54.314 73.6139 55.112 75.1819 55.112ZM75.4059 54.16C74.3139 54.16 73.6699 53.712 73.6699 53.012C73.6699 52.34 74.1179 52.004 75.2519 52.004H77.9679V52.102C77.9679 53.362 76.9739 54.16 75.4059 54.16ZM80.98 55H82.1V51.934C82.1 50.212 82.926 48.98 84.34 48.98C85.474 48.98 85.95 49.638 85.95 50.912C85.95 51.346 85.922 51.696 85.894 51.906H86.916C86.944 51.654 86.986 51.15 86.986 50.674C86.986 49.008 86.16 47.972 84.606 47.972C83.122 47.972 82.408 48.882 82.086 50.086H82.072L82.1 48.084H80.98V55ZM91.6736 55.112C93.2136 55.112 94.1376 54.342 94.4036 53.152H94.4316C94.4176 53.768 94.4036 54.384 94.3616 55H95.4816V45.298H94.3616V49.47H94.3476C94.0956 48.56 93.2136 47.972 91.7716 47.972C89.6716 47.972 88.3836 49.442 88.3836 51.5C88.3836 53.656 89.6716 55.112 91.6736 55.112ZM91.8556 54.104C90.4276 54.104 89.5036 53.04 89.5036 51.5C89.5036 50.058 90.4276 48.98 91.8696 48.98C93.3956 48.98 94.3616 49.876 94.3616 51.276V51.626C94.3616 53.138 93.3816 54.104 91.8556 54.104Z" fill="black"/>
<path d="M207.809 34.14C210.161 34.14 211.897 32.712 211.897 30.64V30.416H210.805V30.584C210.805 32.054 209.503 33.076 207.809 33.076C205.877 33.076 204.351 31.648 204.351 29.408C204.351 27.154 205.807 25.712 207.809 25.712C209.489 25.712 210.763 26.762 210.763 28.316V28.568H211.841C211.855 28.386 211.855 28.26 211.855 28.232C211.855 26.104 210.147 24.648 207.809 24.648C205.079 24.648 203.175 26.51 203.175 29.408C203.175 32.292 205.135 34.14 207.809 34.14ZM213.71 34H214.83V24.298H213.71V34ZM216.895 26.202H218.099V24.788H216.895V26.202ZM216.937 34H218.057V27.084H216.937V34ZM223.117 34.112C225.035 34.112 226.267 32.992 226.267 31.256H225.231C225.217 32.39 224.405 33.104 223.145 33.104C221.801 33.104 220.933 32.11 220.933 30.542C220.933 28.974 221.829 27.98 223.215 27.98C224.419 27.98 225.189 28.708 225.203 29.856H226.239C226.239 28.092 225.049 26.972 223.201 26.972C221.129 26.972 219.813 28.358 219.813 30.542C219.813 32.726 221.101 34.112 223.117 34.112ZM228.093 34H229.213V32.18L230.795 30.808L233.735 34H235.331L231.635 30.094L235.135 27.084H233.567L229.227 30.948H229.213V24.298H228.093V34ZM241.263 24.704C240.185 24.844 239.723 25.516 239.723 26.944V28.134H240.927V26.538H240.423V26.51C240.437 25.796 240.661 25.432 241.263 25.348V24.704ZM243.545 24.704C242.467 24.844 242.005 25.516 242.005 26.944V28.134H243.209V26.538H242.705V26.51C242.719 25.796 242.943 25.432 243.545 25.348V24.704ZM248.201 34.112C249.923 34.112 250.903 33.272 251.197 31.97H251.211C251.211 32.67 251.183 33.538 251.155 34H252.275V27.084H251.155V30.206C251.155 32.026 250.119 33.104 248.509 33.104C247.193 33.104 246.409 32.348 246.409 31.158V27.084H245.289V31.354C245.289 33.034 246.395 34.112 248.201 34.112ZM254.302 36.772H255.422V33.986C255.422 33.664 255.394 32.936 255.38 32.474H255.394C255.688 33.412 256.668 34.112 258.138 34.112C260.168 34.112 261.414 32.67 261.414 30.43C261.414 28.316 260.182 26.972 258.166 26.972C256.668 26.972 255.688 27.714 255.408 28.862H255.394L255.422 27.084H254.302V36.772ZM257.984 33.104C256.416 33.104 255.422 32.264 255.422 30.948V30.528C255.45 28.974 256.444 27.98 257.956 27.98C259.412 27.98 260.294 28.946 260.294 30.444C260.294 32.068 259.398 33.104 257.984 33.104ZM263.161 34H264.281V24.298H263.161V34ZM269.538 34.112C271.68 34.112 273.038 32.726 273.038 30.556C273.038 28.372 271.68 26.972 269.538 26.972C267.396 26.972 266.038 28.372 266.038 30.556C266.038 32.726 267.396 34.112 269.538 34.112ZM269.538 33.104C268.082 33.104 267.158 32.11 267.158 30.556C267.158 28.988 268.082 27.98 269.538 27.98C270.994 27.98 271.918 28.988 271.918 30.556C271.918 32.11 270.994 33.104 269.538 33.104ZM276.639 34.112C278.361 34.112 279.229 33.426 279.467 32.362H279.481C279.467 33.034 279.439 33.678 279.425 34H280.545V29.786C280.545 27.98 279.369 26.972 277.339 26.972C275.463 26.972 274.287 27.798 274.287 29.17C274.287 29.296 274.301 29.492 274.315 29.59H275.351C275.337 29.478 275.337 29.38 275.337 29.338C275.337 28.4 276.037 27.924 277.311 27.924C278.725 27.924 279.425 28.498 279.425 29.688V30.192H276.611C274.763 30.192 274.077 31.032 274.077 32.012C274.077 33.314 275.071 34.112 276.639 34.112ZM276.863 33.16C275.771 33.16 275.127 32.712 275.127 32.012C275.127 31.34 275.575 31.004 276.709 31.004H279.425V31.102C279.425 32.362 278.431 33.16 276.863 33.16ZM285.447 34.112C286.987 34.112 287.911 33.342 288.177 32.152H288.205C288.191 32.768 288.177 33.384 288.135 34H289.255V24.298H288.135V28.47H288.121C287.869 27.56 286.987 26.972 285.545 26.972C283.445 26.972 282.157 28.442 282.157 30.5C282.157 32.656 283.445 34.112 285.447 34.112ZM285.629 33.104C284.201 33.104 283.277 32.04 283.277 30.5C283.277 29.058 284.201 27.98 285.643 27.98C287.169 27.98 288.135 28.876 288.135 30.276V30.626C288.135 32.138 287.155 33.104 285.629 33.104ZM290.869 28.218C291.947 28.078 292.409 27.406 292.409 25.978V24.788H291.205V26.384H291.709V26.412C291.695 27.126 291.471 27.49 290.869 27.574V28.218ZM293.151 28.218C294.229 28.078 294.691 27.406 294.691 25.978V24.788H293.487V26.384H293.991V26.412C293.977 27.126 293.753 27.49 293.151 27.574V28.218ZM231.111 55.112C233.043 55.112 234.289 53.67 234.289 51.416C234.289 49.316 233.071 47.972 231.083 47.972C229.599 47.972 228.591 48.686 228.283 49.792H228.269C228.283 49.456 228.297 48.896 228.297 48.616V45.298H227.177V55H228.297C228.269 54.636 228.241 53.95 228.241 53.404H228.255C228.549 54.44 229.543 55.112 231.111 55.112ZM230.831 54.104C229.291 54.104 228.297 53.25 228.297 51.92V51.556C228.297 49.988 229.305 48.98 230.873 48.98C232.301 48.98 233.169 49.946 233.169 51.444C233.169 53.068 232.259 54.104 230.831 54.104ZM238.808 55.112C240.53 55.112 241.51 54.272 241.804 52.97H241.818C241.818 53.67 241.79 54.538 241.762 55H242.882V48.084H241.762V51.206C241.762 53.026 240.726 54.104 239.116 54.104C237.8 54.104 237.016 53.348 237.016 52.158V48.084H235.896V52.354C235.896 54.034 237.002 55.112 238.808 55.112ZM247.583 55.056C248.143 55.056 248.549 54.972 248.759 54.888V53.936C248.605 53.992 248.157 54.076 247.681 54.076C246.645 54.076 246.309 53.446 246.309 52.396V49.064H248.815V48.084H246.309V46.516H245.357L245.301 47.608C245.273 47.972 245.189 48.084 244.965 48.084H244.041V49.064H245.189V52.466C245.189 53.992 245.903 55.056 247.583 55.056ZM253.079 55.056C253.639 55.056 254.045 54.972 254.255 54.888V53.936C254.101 53.992 253.653 54.076 253.177 54.076C252.141 54.076 251.805 53.446 251.805 52.396V49.064H254.311V48.084H251.805V46.516H250.853L250.797 47.608C250.769 47.972 250.685 48.084 250.461 48.084H249.537V49.064H250.685V52.466C250.685 53.992 251.399 55.056 253.079 55.056ZM258.792 55.112C260.934 55.112 262.292 53.726 262.292 51.556C262.292 49.372 260.934 47.972 258.792 47.972C256.65 47.972 255.292 49.372 255.292 51.556C255.292 53.726 256.65 55.112 258.792 55.112ZM258.792 54.104C257.336 54.104 256.412 53.11 256.412 51.556C256.412 49.988 257.336 48.98 258.792 48.98C260.248 48.98 261.172 49.988 261.172 51.556C261.172 53.11 260.248 54.104 258.792 54.104ZM263.966 55H265.086V51.598C265.086 49.946 266.108 48.98 267.69 48.98C269.174 48.98 269.846 49.736 269.846 50.912V55H270.966V50.674C270.966 49.022 269.888 47.972 268.068 47.972C266.416 47.972 265.45 48.742 265.072 49.946H265.058L265.086 48.084H263.966V55Z" fill="black"/>
<path d="M407.058 34.14C409.41 34.14 411.146 32.712 411.146 30.64V30.416H410.054V30.584C410.054 32.054 408.752 33.076 407.058 33.076C405.126 33.076 403.6 31.648 403.6 29.408C403.6 27.154 405.056 25.712 407.058 25.712C408.738 25.712 410.012 26.762 410.012 28.316V28.568H411.09C411.104 28.386 411.104 28.26 411.104 28.232C411.104 26.104 409.396 24.648 407.058 24.648C404.328 24.648 402.424 26.51 402.424 29.408C402.424 32.292 404.384 34.14 407.058 34.14ZM412.959 34H414.079V30.738C414.079 28.988 415.101 27.98 416.683 27.98C418.167 27.98 418.839 28.736 418.839 29.912V34H419.959V29.674C419.959 28.022 418.881 26.972 417.061 26.972C415.409 26.972 414.443 27.756 414.065 28.96H414.051C414.051 28.708 414.079 27.882 414.079 27.504V24.298H412.959V34ZM425.064 34.112C427.206 34.112 428.564 32.726 428.564 30.556C428.564 28.372 427.206 26.972 425.064 26.972C422.922 26.972 421.564 28.372 421.564 30.556C421.564 32.726 422.922 34.112 425.064 34.112ZM425.064 33.104C423.608 33.104 422.684 32.11 422.684 30.556C422.684 28.988 423.608 27.98 425.064 27.98C426.52 27.98 427.444 28.988 427.444 30.556C427.444 32.11 426.52 33.104 425.064 33.104ZM433.459 34.112C435.601 34.112 436.959 32.726 436.959 30.556C436.959 28.372 435.601 26.972 433.459 26.972C431.317 26.972 429.959 28.372 429.959 30.556C429.959 32.726 431.317 34.112 433.459 34.112ZM433.459 33.104C432.003 33.104 431.079 32.11 431.079 30.556C431.079 28.988 432.003 27.98 433.459 27.98C434.915 27.98 435.839 28.988 435.839 30.556C435.839 32.11 434.915 33.104 433.459 33.104ZM441.31 34.112C443.41 34.112 444.53 33.3 444.53 31.942C444.53 31.424 444.306 30.892 443.844 30.626C443.368 30.36 442.836 30.262 441.758 30.15C440.848 30.052 440.162 29.968 439.826 29.828C439.42 29.66 439.378 29.324 439.378 29.044C439.378 28.358 440.148 27.924 441.338 27.924C442.57 27.924 443.186 28.4 443.2 29.436H444.236C444.236 27.882 443.368 26.972 441.296 26.972C439.448 26.972 438.258 27.812 438.258 29.114C438.258 29.618 438.454 30.122 438.832 30.402C439.252 30.71 439.938 30.85 441.072 30.948C441.926 31.032 442.654 31.116 442.976 31.27C443.326 31.438 443.41 31.704 443.41 31.984C443.41 32.726 442.724 33.16 441.296 33.16C439.854 33.16 439.294 32.614 439.294 31.69H438.258C438.258 33.02 438.986 34.112 441.31 34.112ZM452.466 30.248C452.466 28.19 451.304 26.972 449.33 26.972C447.258 26.972 445.928 28.386 445.928 30.598C445.928 32.74 447.272 34.112 449.358 34.112C451.178 34.112 452.396 33.16 452.466 31.662H451.43C451.332 32.572 450.534 33.16 449.372 33.16C448.014 33.16 447.118 32.236 447.048 30.766H452.466V30.248ZM451.43 29.954H447.09C447.3 28.638 448.126 27.924 449.358 27.924C450.674 27.924 451.43 28.652 451.43 29.87V29.954ZM457.741 34H458.861V28.064H461.437V27.084H458.861V26.398C458.861 25.516 459.365 25.026 460.247 25.026C460.723 25.026 461.073 25.11 461.325 25.194V24.2C461.073 24.116 460.639 24.018 460.107 24.018C458.665 24.018 457.741 24.886 457.741 26.398V27.084H456.579V28.064H457.741V34ZM462.893 26.202H464.097V24.788H462.893V26.202ZM462.935 34H464.055V27.084H462.935V34ZM466.156 34H467.276V24.298H466.156V34ZM475.571 30.248C475.571 28.19 474.409 26.972 472.435 26.972C470.363 26.972 469.033 28.386 469.033 30.598C469.033 32.74 470.377 34.112 472.463 34.112C474.283 34.112 475.501 33.16 475.571 31.662H474.535C474.437 32.572 473.639 33.16 472.477 33.16C471.119 33.16 470.223 32.236 470.153 30.766H475.571V30.248ZM474.535 29.954H470.195C470.405 28.638 471.231 27.924 472.463 27.924C473.779 27.924 474.535 28.652 474.535 29.87V29.954ZM418.505 55.112C420.605 55.112 421.725 54.3 421.725 52.942C421.725 52.424 421.501 51.892 421.039 51.626C420.563 51.36 420.031 51.262 418.953 51.15C418.043 51.052 417.357 50.968 417.021 50.828C416.615 50.66 416.573 50.324 416.573 50.044C416.573 49.358 417.343 48.924 418.533 48.924C419.765 48.924 420.381 49.4 420.395 50.436H421.431C421.431 48.882 420.563 47.972 418.491 47.972C416.643 47.972 415.453 48.812 415.453 50.114C415.453 50.618 415.649 51.122 416.027 51.402C416.447 51.71 417.133 51.85 418.267 51.948C419.121 52.032 419.849 52.116 420.171 52.27C420.521 52.438 420.605 52.704 420.605 52.984C420.605 53.726 419.919 54.16 418.491 54.16C417.049 54.16 416.489 53.614 416.489 52.69H415.453C415.453 54.02 416.181 55.112 418.505 55.112ZM426.623 55.112C428.765 55.112 430.123 53.726 430.123 51.556C430.123 49.372 428.765 47.972 426.623 47.972C424.481 47.972 423.123 49.372 423.123 51.556C423.123 53.726 424.481 55.112 426.623 55.112ZM426.623 54.104C425.167 54.104 424.243 53.11 424.243 51.556C424.243 49.988 425.167 48.98 426.623 48.98C428.079 48.98 429.003 49.988 429.003 51.556C429.003 53.11 428.079 54.104 426.623 54.104ZM434.639 55.112C436.361 55.112 437.341 54.272 437.635 52.97H437.649C437.649 53.67 437.621 54.538 437.593 55H438.713V48.084H437.593V51.206C437.593 53.026 436.557 54.104 434.947 54.104C433.631 54.104 432.847 53.348 432.847 52.158V48.084H431.727V52.354C431.727 54.034 432.833 55.112 434.639 55.112ZM440.67 55H441.79V51.934C441.79 50.212 442.616 48.98 444.03 48.98C445.164 48.98 445.64 49.638 445.64 50.912C445.64 51.346 445.612 51.696 445.584 51.906H446.606C446.634 51.654 446.676 51.15 446.676 50.674C446.676 49.008 445.85 47.972 444.296 47.972C442.812 47.972 442.098 48.882 441.776 50.086H441.762L441.79 48.084H440.67V55ZM451.378 55.112C453.296 55.112 454.528 53.992 454.528 52.256H453.492C453.478 53.39 452.666 54.104 451.406 54.104C450.062 54.104 449.194 53.11 449.194 51.542C449.194 49.974 450.09 48.98 451.476 48.98C452.68 48.98 453.45 49.708 453.464 50.856H454.5C454.5 49.092 453.31 47.972 451.462 47.972C449.39 47.972 448.074 49.358 448.074 51.542C448.074 53.726 449.362 55.112 451.378 55.112ZM462.542 51.248C462.542 49.19 461.38 47.972 459.406 47.972C457.334 47.972 456.004 49.386 456.004 51.598C456.004 53.74 457.348 55.112 459.434 55.112C461.254 55.112 462.472 54.16 462.542 52.662H461.506C461.408 53.572 460.61 54.16 459.448 54.16C458.09 54.16 457.194 53.236 457.124 51.766H462.542V51.248ZM461.506 50.954H457.166C457.376 49.638 458.202 48.924 459.434 48.924C460.75 48.924 461.506 49.652 461.506 50.87V50.954Z" fill="black"/>
<path d="M781.42 34.14C783.772 34.14 785.508 32.712 785.508 30.64V30.416H784.416V30.584C784.416 32.054 783.114 33.076 781.42 33.076C779.488 33.076 777.962 31.648 777.962 29.408C777.962 27.154 779.418 25.712 781.42 25.712C783.1 25.712 784.374 26.762 784.374 28.316V28.568H785.452C785.466 28.386 785.466 28.26 785.466 28.232C785.466 26.104 783.758 24.648 781.42 24.648C778.69 24.648 776.786 26.51 776.786 29.408C776.786 32.292 778.746 34.14 781.42 34.14ZM787.321 34H788.441V24.298H787.321V34ZM790.506 26.202H791.71V24.788H790.506V26.202ZM790.548 34H791.668V27.084H790.548V34ZM796.729 34.112C798.647 34.112 799.879 32.992 799.879 31.256H798.843C798.829 32.39 798.017 33.104 796.757 33.104C795.413 33.104 794.545 32.11 794.545 30.542C794.545 28.974 795.441 27.98 796.827 27.98C798.031 27.98 798.801 28.708 798.815 29.856H799.851C799.851 28.092 798.661 26.972 796.813 26.972C794.741 26.972 793.425 28.358 793.425 30.542C793.425 32.726 794.713 34.112 796.729 34.112ZM801.704 34H802.824V32.18L804.406 30.808L807.346 34H808.942L805.246 30.094L808.746 27.084H807.178L802.838 30.948H802.824V24.298H801.704V34ZM814.874 24.704C813.796 24.844 813.334 25.516 813.334 26.944V28.134H814.538V26.538H814.034V26.51C814.048 25.796 814.272 25.432 814.874 25.348V24.704ZM817.156 24.704C816.078 24.844 815.616 25.516 815.616 26.944V28.134H816.82V26.538H816.316V26.51C816.33 25.796 816.554 25.432 817.156 25.348V24.704ZM821.812 34.112C823.534 34.112 824.514 33.272 824.808 31.97H824.822C824.822 32.67 824.794 33.538 824.766 34H825.886V27.084H824.766V30.206C824.766 32.026 823.73 33.104 822.12 33.104C820.804 33.104 820.02 32.348 820.02 31.158V27.084H818.9V31.354C818.9 33.034 820.006 34.112 821.812 34.112ZM827.913 36.772H829.033V33.986C829.033 33.664 829.005 32.936 828.991 32.474H829.005C829.299 33.412 830.279 34.112 831.749 34.112C833.779 34.112 835.025 32.67 835.025 30.43C835.025 28.316 833.793 26.972 831.777 26.972C830.279 26.972 829.299 27.714 829.019 28.862H829.005L829.033 27.084H827.913V36.772ZM831.595 33.104C830.027 33.104 829.033 32.264 829.033 30.948V30.528C829.061 28.974 830.055 27.98 831.567 27.98C833.023 27.98 833.905 28.946 833.905 30.444C833.905 32.068 833.009 33.104 831.595 33.104ZM836.773 34H837.893V24.298H836.773V34ZM843.149 34.112C845.291 34.112 846.649 32.726 846.649 30.556C846.649 28.372 845.291 26.972 843.149 26.972C841.007 26.972 839.649 28.372 839.649 30.556C839.649 32.726 841.007 34.112 843.149 34.112ZM843.149 33.104C841.693 33.104 840.769 32.11 840.769 30.556C840.769 28.988 841.693 27.98 843.149 27.98C844.605 27.98 845.529 28.988 845.529 30.556C845.529 32.11 844.605 33.104 843.149 33.104ZM850.25 34.112C851.972 34.112 852.84 33.426 853.078 32.362H853.092C853.078 33.034 853.05 33.678 853.036 34H854.156V29.786C854.156 27.98 852.98 26.972 850.95 26.972C849.074 26.972 847.898 27.798 847.898 29.17C847.898 29.296 847.912 29.492 847.926 29.59H848.962C848.948 29.478 848.948 29.38 848.948 29.338C848.948 28.4 849.648 27.924 850.922 27.924C852.336 27.924 853.036 28.498 853.036 29.688V30.192H850.222C848.374 30.192 847.688 31.032 847.688 32.012C847.688 33.314 848.682 34.112 850.25 34.112ZM850.474 33.16C849.382 33.16 848.738 32.712 848.738 32.012C848.738 31.34 849.186 31.004 850.32 31.004H853.036V31.102C853.036 32.362 852.042 33.16 850.474 33.16ZM859.058 34.112C860.598 34.112 861.522 33.342 861.788 32.152H861.816C861.802 32.768 861.788 33.384 861.746 34H862.866V24.298H861.746V28.47H861.732C861.48 27.56 860.598 26.972 859.156 26.972C857.056 26.972 855.768 28.442 855.768 30.5C855.768 32.656 857.056 34.112 859.058 34.112ZM859.24 33.104C857.812 33.104 856.888 32.04 856.888 30.5C856.888 29.058 857.812 27.98 859.254 27.98C860.78 27.98 861.746 28.876 861.746 30.276V30.626C861.746 32.138 860.766 33.104 859.24 33.104ZM808.773 55H809.893V49.064H812.469V48.084H809.893V47.398C809.893 46.516 810.397 46.026 811.279 46.026C811.755 46.026 812.105 46.11 812.357 46.194V45.2C812.105 45.116 811.671 45.018 811.139 45.018C809.697 45.018 808.773 45.886 808.773 47.398V48.084H807.611V49.064H808.773V55ZM813.925 47.202H815.129V45.788H813.925V47.202ZM813.967 55H815.087V48.084H813.967V55ZM817.188 55H818.308V45.298H817.188V55ZM826.602 51.248C826.602 49.19 825.44 47.972 823.466 47.972C821.394 47.972 820.064 49.386 820.064 51.598C820.064 53.74 821.408 55.112 823.494 55.112C825.314 55.112 826.532 54.16 826.602 52.662H825.566C825.468 53.572 824.67 54.16 823.508 54.16C822.15 54.16 821.254 53.236 821.184 51.766H826.602V51.248ZM825.566 50.954H821.226C821.436 49.638 822.262 48.924 823.494 48.924C824.81 48.924 825.566 49.652 825.566 50.87V50.954ZM827.915 49.218C828.993 49.078 829.455 48.406 829.455 46.978V45.788H828.251V47.384H828.755V47.412C828.741 48.126 828.517 48.49 827.915 48.574V49.218ZM830.197 49.218C831.275 49.078 831.737 48.406 831.737 46.978V45.788H830.533V47.384H831.037V47.412C831.023 48.126 830.799 48.49 830.197 48.574V49.218Z" fill="black"/>
<path d="M980.964 34H982.14V30.962H984.856C986.914 30.962 988.16 29.856 988.16 27.896C988.16 25.978 986.858 24.788 984.632 24.788H980.964V34ZM982.14 30.066V25.852H984.59C986.144 25.852 987.012 26.594 987.012 27.966C987.012 29.366 986.172 30.066 984.758 30.066H982.14ZM992.102 34.112C993.824 34.112 994.692 33.426 994.93 32.362H994.944C994.93 33.034 994.902 33.678 994.888 34H996.008V29.786C996.008 27.98 994.832 26.972 992.802 26.972C990.926 26.972 989.75 27.798 989.75 29.17C989.75 29.296 989.764 29.492 989.778 29.59H990.814C990.8 29.478 990.8 29.38 990.8 29.338C990.8 28.4 991.5 27.924 992.774 27.924C994.188 27.924 994.888 28.498 994.888 29.688V30.192H992.074C990.226 30.192 989.54 31.032 989.54 32.012C989.54 33.314 990.534 34.112 992.102 34.112ZM992.326 33.16C991.234 33.16 990.59 32.712 990.59 32.012C990.59 31.34 991.038 31.004 992.172 31.004H994.888V31.102C994.888 32.362 993.894 33.16 992.326 33.16ZM1002.55 33.048H1000.31C999.72 33.048 999.426 32.754 999.426 32.292C999.426 32.026 999.51 31.816 999.622 31.704C1000 31.83 1000.42 31.9 1000.9 31.9C1002.7 31.9 1003.85 30.934 1003.85 29.436C1003.85 28.876 1003.7 28.4 1003.4 28.008C1003.29 27.728 1003.22 27.462 1003.22 27.252C1003.22 26.846 1003.47 26.636 1003.93 26.636C1004.16 26.636 1004.33 26.678 1004.42 26.72V25.824C1004.3 25.782 1004.09 25.74 1003.79 25.74C1003.01 25.74 1002.52 26.104 1002.52 26.664C1002.52 26.972 1002.63 27.238 1002.79 27.434V27.448C1002.3 27.14 1001.65 26.972 1000.9 26.972C999.104 26.972 997.956 27.938 997.956 29.436C997.956 30.276 998.32 30.962 998.964 31.382V31.41C998.698 31.564 998.474 31.97 998.474 32.488C998.474 32.964 998.684 33.37 999.034 33.636V33.65C998.166 33.65 997.62 34.224 997.62 34.91C997.62 36.226 998.978 36.968 1001.26 36.968C1003.44 36.968 1004.75 36.086 1004.75 34.714C1004.75 33.664 1003.95 33.048 1002.55 33.048ZM1000.9 27.924C1002.03 27.924 1002.76 28.512 1002.76 29.436C1002.76 30.36 1002.03 30.948 1000.9 30.948C999.762 30.948 999.048 30.36 999.048 29.436C999.048 28.512 999.762 27.924 1000.9 27.924ZM1001.25 36.016C999.72 36.016 998.74 35.652 998.74 34.882C998.74 34.252 999.356 34 1000.32 34H1002.38C1003.22 34 1003.63 34.28 1003.63 34.826C1003.63 35.484 1003.02 36.016 1001.25 36.016ZM1012.2 30.248C1012.2 28.19 1011.03 26.972 1009.06 26.972C1006.99 26.972 1005.66 28.386 1005.66 30.598C1005.66 32.74 1007 34.112 1009.09 34.112C1010.91 34.112 1012.13 33.16 1012.2 31.662H1011.16C1011.06 32.572 1010.26 33.16 1009.1 33.16C1007.74 33.16 1006.85 32.236 1006.78 30.766H1012.2V30.248ZM1011.16 29.954H1006.82C1007.03 28.638 1007.86 27.924 1009.09 27.924C1010.4 27.924 1011.16 28.652 1011.16 29.87V29.954ZM1019.85 34.056C1020.41 34.056 1020.82 33.972 1021.03 33.888V32.936C1020.87 32.992 1020.43 33.076 1019.95 33.076C1018.91 33.076 1018.58 32.446 1018.58 31.396V28.064H1021.08V27.084H1018.58V25.516H1017.63L1017.57 26.608C1017.54 26.972 1017.46 27.084 1017.23 27.084H1016.31V28.064H1017.46V31.466C1017.46 32.992 1018.17 34.056 1019.85 34.056ZM1022.68 34H1023.8V30.738C1023.8 28.988 1024.82 27.98 1026.4 27.98C1027.88 27.98 1028.56 28.736 1028.56 29.912V34H1029.68V29.674C1029.68 28.022 1028.6 26.972 1026.78 26.972C1025.12 26.972 1024.16 27.756 1023.78 28.96H1023.77C1023.77 28.708 1023.8 27.882 1023.8 27.504V24.298H1022.68V34ZM1033.84 34.112C1035.56 34.112 1036.43 33.426 1036.67 32.362H1036.68C1036.67 33.034 1036.64 33.678 1036.63 34H1037.75V29.786C1037.75 27.98 1036.57 26.972 1034.54 26.972C1032.67 26.972 1031.49 27.798 1031.49 29.17C1031.49 29.296 1031.5 29.492 1031.52 29.59H1032.55C1032.54 29.478 1032.54 29.38 1032.54 29.338C1032.54 28.4 1033.24 27.924 1034.51 27.924C1035.93 27.924 1036.63 28.498 1036.63 29.688V30.192H1033.81C1031.97 30.192 1031.28 31.032 1031.28 32.012C1031.28 33.314 1032.27 34.112 1033.84 34.112ZM1034.07 33.16C1032.97 33.16 1032.33 32.712 1032.33 32.012C1032.33 31.34 1032.78 31.004 1033.91 31.004H1036.63V31.102C1036.63 32.362 1035.63 33.16 1034.07 33.16ZM1042.38 34.056C1042.94 34.056 1043.35 33.972 1043.56 33.888V32.936C1043.41 32.992 1042.96 33.076 1042.48 33.076C1041.45 33.076 1041.11 32.446 1041.11 31.396V28.064H1043.62V27.084H1041.11V25.516H1040.16L1040.1 26.608C1040.07 26.972 1039.99 27.084 1039.77 27.084H1038.84V28.064H1039.99V31.466C1039.99 32.992 1040.7 34.056 1042.38 34.056ZM974.54 55.112C976.262 55.112 977.242 54.272 977.536 52.97H977.55C977.55 53.67 977.522 54.538 977.494 55H978.614V48.084H977.494V51.206C977.494 53.026 976.458 54.104 974.848 54.104C973.532 54.104 972.748 53.348 972.748 52.158V48.084H971.628V52.354C971.628 54.034 972.734 55.112 974.54 55.112ZM983.343 55.112C985.443 55.112 986.563 54.3 986.563 52.942C986.563 52.424 986.339 51.892 985.877 51.626C985.401 51.36 984.869 51.262 983.791 51.15C982.881 51.052 982.195 50.968 981.859 50.828C981.453 50.66 981.411 50.324 981.411 50.044C981.411 49.358 982.181 48.924 983.371 48.924C984.603 48.924 985.219 49.4 985.233 50.436H986.269C986.269 48.882 985.401 47.972 983.329 47.972C981.481 47.972 980.291 48.812 980.291 50.114C980.291 50.618 980.487 51.122 980.865 51.402C981.285 51.71 981.971 51.85 983.105 51.948C983.959 52.032 984.687 52.116 985.009 52.27C985.359 52.438 985.443 52.704 985.443 52.984C985.443 53.726 984.757 54.16 983.329 54.16C981.887 54.16 981.327 53.614 981.327 52.69H980.291C980.291 54.02 981.019 55.112 983.343 55.112ZM994.499 51.248C994.499 49.19 993.337 47.972 991.363 47.972C989.291 47.972 987.961 49.386 987.961 51.598C987.961 53.74 989.305 55.112 991.391 55.112C993.211 55.112 994.429 54.16 994.499 52.662H993.463C993.365 53.572 992.567 54.16 991.405 54.16C990.047 54.16 989.151 53.236 989.081 51.766H994.499V51.248ZM993.463 50.954H989.123C989.333 49.638 990.159 48.924 991.391 48.924C992.707 48.924 993.463 49.652 993.463 50.87V50.954ZM996.184 55H997.304V51.934C997.304 50.212 998.13 48.98 999.544 48.98C1000.68 48.98 1001.15 49.638 1001.15 50.912C1001.15 51.346 1001.13 51.696 1001.1 51.906H1002.12C1002.15 51.654 1002.19 51.15 1002.19 50.674C1002.19 49.008 1001.36 47.972 999.81 47.972C998.326 47.972 997.612 48.882 997.29 50.086H997.276L997.304 48.084H996.184V55ZM1008.51 55H1009.84L1011.69 49.484H1011.73L1013.52 55H1014.89L1016.95 48.084H1015.87L1014.22 53.824H1014.19L1012.33 48.084H1011.22L1009.29 53.824H1009.26L1007.67 48.084H1006.45L1008.51 55ZM1020.29 55.112C1022.01 55.112 1022.88 54.426 1023.11 53.362H1023.13C1023.11 54.034 1023.09 54.678 1023.07 55H1024.19V50.786C1024.19 48.98 1023.02 47.972 1020.99 47.972C1019.11 47.972 1017.93 48.798 1017.93 50.17C1017.93 50.296 1017.95 50.492 1017.96 50.59H1019C1018.98 50.478 1018.98 50.38 1018.98 50.338C1018.98 49.4 1019.68 48.924 1020.96 48.924C1022.37 48.924 1023.07 49.498 1023.07 50.688V51.192H1020.26C1018.41 51.192 1017.72 52.032 1017.72 53.012C1017.72 54.314 1018.72 55.112 1020.29 55.112ZM1020.51 54.16C1019.42 54.16 1018.77 53.712 1018.77 53.012C1018.77 52.34 1019.22 52.004 1020.36 52.004H1023.07V52.102C1023.07 53.362 1022.08 54.16 1020.51 54.16ZM1028.86 55.112C1030.96 55.112 1032.08 54.3 1032.08 52.942C1032.08 52.424 1031.85 51.892 1031.39 51.626C1030.91 51.36 1030.38 51.262 1029.3 51.15C1028.39 51.052 1027.71 50.968 1027.37 50.828C1026.97 50.66 1026.92 50.324 1026.92 50.044C1026.92 49.358 1027.69 48.924 1028.88 48.924C1030.12 48.924 1030.73 49.4 1030.75 50.436H1031.78C1031.78 48.882 1030.91 47.972 1028.84 47.972C1026.99 47.972 1025.8 48.812 1025.8 50.114C1025.8 50.618 1026 51.122 1026.38 51.402C1026.8 51.71 1027.48 51.85 1028.62 51.948C1029.47 52.032 1030.2 52.116 1030.52 52.27C1030.87 52.438 1030.96 52.704 1030.96 52.984C1030.96 53.726 1030.27 54.16 1028.84 54.16C1027.4 54.16 1026.84 53.614 1026.84 52.69H1025.8C1025.8 54.02 1026.53 55.112 1028.86 55.112ZM1040.2 55.112C1042.34 55.112 1043.7 53.726 1043.7 51.556C1043.7 49.372 1042.34 47.972 1040.2 47.972C1038.06 47.972 1036.7 49.372 1036.7 51.556C1036.7 53.726 1038.06 55.112 1040.2 55.112ZM1040.2 54.104C1038.74 54.104 1037.82 53.11 1037.82 51.556C1037.82 49.988 1038.74 48.98 1040.2 48.98C1041.66 48.98 1042.58 49.988 1042.58 51.556C1042.58 53.11 1041.66 54.104 1040.2 54.104ZM1045.38 55H1046.5V51.598C1046.5 49.946 1047.52 48.98 1049.1 48.98C1050.58 48.98 1051.26 49.736 1051.26 50.912V55H1052.38V50.674C1052.38 49.022 1051.3 47.972 1049.48 47.972C1047.83 47.972 1046.86 48.742 1046.48 49.946H1046.47L1046.5 48.084H1045.38V55Z" fill="black"/>
<path d="M601.214 41.14C604.224 41.14 605.092 39.754 605.092 38.354C605.092 37.514 604.714 36.87 604.098 36.562C603.496 36.254 602.53 36.1 601.606 35.974C600.808 35.862 599.702 35.694 599.254 35.47C598.862 35.274 598.638 34.924 598.638 34.336C598.638 33.328 599.702 32.656 601.2 32.656C602.782 32.656 603.678 33.356 603.678 34.966H604.77C604.77 32.838 603.748 31.648 601.172 31.648C598.974 31.648 597.462 32.796 597.462 34.434C597.462 35.302 597.84 35.918 598.372 36.24C598.876 36.548 599.884 36.772 600.836 36.884C601.634 36.996 602.684 37.108 603.188 37.318C603.664 37.514 603.916 37.836 603.916 38.424C603.916 39.306 603.328 40.132 601.214 40.132C599.254 40.132 598.582 39.194 598.582 37.864H597.49C597.49 39.53 598.26 41.14 601.214 41.14ZM613.023 37.248C613.023 35.19 611.861 33.972 609.887 33.972C607.815 33.972 606.485 35.386 606.485 37.598C606.485 39.74 607.829 41.112 609.915 41.112C611.735 41.112 612.953 40.16 613.023 38.662H611.987C611.889 39.572 611.091 40.16 609.929 40.16C608.571 40.16 607.675 39.236 607.605 37.766H613.023V37.248ZM611.987 36.954H607.647C607.857 35.638 608.683 34.924 609.915 34.924C611.231 34.924 611.987 35.652 611.987 36.87V36.954ZM614.779 41H615.899V31.298H614.779V41ZM624.193 37.248C624.193 35.19 623.031 33.972 621.057 33.972C618.985 33.972 617.655 35.386 617.655 37.598C617.655 39.74 618.999 41.112 621.085 41.112C622.905 41.112 624.123 40.16 624.193 38.662H623.157C623.059 39.572 622.261 40.16 621.099 40.16C619.741 40.16 618.845 39.236 618.775 37.766H624.193V37.248ZM623.157 36.954H618.817C619.027 35.638 619.853 34.924 621.085 34.924C622.401 34.924 623.157 35.652 623.157 36.87V36.954ZM628.902 41.112C630.82 41.112 632.052 39.992 632.052 38.256H631.016C631.002 39.39 630.19 40.104 628.93 40.104C627.586 40.104 626.718 39.11 626.718 37.542C626.718 35.974 627.614 34.98 629 34.98C630.204 34.98 630.974 35.708 630.988 36.856H632.024C632.024 35.092 630.834 33.972 628.986 33.972C626.914 33.972 625.598 35.358 625.598 37.542C625.598 39.726 626.886 41.112 628.902 41.112ZM636.361 41.056C636.921 41.056 637.327 40.972 637.537 40.888V39.936C637.383 39.992 636.935 40.076 636.459 40.076C635.423 40.076 635.087 39.446 635.087 38.396V35.064H637.593V34.084H635.087V32.516H634.135L634.079 33.608C634.051 33.972 633.967 34.084 633.743 34.084H632.819V35.064H633.967V38.466C633.967 39.992 634.681 41.056 636.361 41.056ZM642.703 41H643.823V35.064H646.399V34.084H643.823V33.398C643.823 32.516 644.327 32.026 645.209 32.026C645.685 32.026 646.035 32.11 646.287 32.194V31.2C646.035 31.116 645.601 31.018 645.069 31.018C643.627 31.018 642.703 31.886 642.703 33.398V34.084H641.541V35.064H642.703V41ZM647.855 33.202H649.059V31.788H647.855V33.202ZM647.897 41H649.017V34.084H647.897V41ZM651.118 41H652.238V31.298H651.118V41ZM660.533 37.248C660.533 35.19 659.371 33.972 657.397 33.972C655.325 33.972 653.995 35.386 653.995 37.598C653.995 39.74 655.339 41.112 657.425 41.112C659.245 41.112 660.463 40.16 660.533 38.662H659.497C659.399 39.572 658.601 40.16 657.439 40.16C656.081 40.16 655.185 39.236 655.115 37.766H660.533V37.248ZM659.497 36.954H655.157C655.367 35.638 656.193 34.924 657.425 34.924C658.741 34.924 659.497 35.652 659.497 36.87V36.954Z" fill="black"/>
</svg>
