<svg width="118" height="616" viewBox="0 0 118 616" fill="none" xmlns="http://www.w3.org/2000/svg">
<path d="M58.6464 229.354C58.8417 229.549 59.1583 229.549 59.3536 229.354L62.5355 226.172C62.7308 225.976 62.7308 225.66 62.5355 225.464C62.3403 225.269 62.0237 225.269 61.8284 225.464L59 228.293L56.1716 225.464C55.9763 225.269 55.6597 225.269 55.4645 225.464C55.2692 225.66 55.2692 225.976 55.4645 226.172L58.6464 229.354ZM58.5 182L58.5 229L59.5 229L59.5 182L58.5 182Z" fill="white"/>
<path d="M58.6464 331.354C58.8417 331.549 59.1583 331.549 59.3536 331.354L62.5355 328.172C62.7308 327.976 62.7308 327.66 62.5355 327.464C62.3403 327.269 62.0237 327.269 61.8284 327.464L59 330.293L56.1716 327.464C55.9763 327.269 55.6597 327.269 55.4645 327.464C55.2692 327.66 55.2692 327.976 55.4645 328.172L58.6464 331.354ZM58.5 284L58.5 331L59.5 331L59.5 284L58.5 284Z" fill="white"/>
<path d="M58.6464 434.354C58.8417 434.549 59.1583 434.549 59.3536 434.354L62.5355 431.172C62.7308 430.976 62.7308 430.66 62.5355 430.464C62.3403 430.269 62.0237 430.269 61.8284 430.464L59 433.293L56.1716 430.464C55.9763 430.269 55.6597 430.269 55.4645 430.464C55.2692 430.66 55.2692 430.976 55.4645 431.172L58.6464 434.354ZM58.5 387L58.5 434L59.5 434L59.5 387L58.5 387Z" fill="white"/>
<path d="M58.6464 536.354C58.8417 536.549 59.1583 536.549 59.3536 536.354L62.5355 533.172C62.7308 532.976 62.7308 532.66 62.5355 532.464C62.3403 532.269 62.0237 532.269 61.8284 532.464L59 535.293L56.1716 532.464C55.9763 532.269 55.6597 532.269 55.4645 532.464C55.2692 532.66 55.2692 532.976 55.4645 533.172L58.6464 536.354ZM58.5 489L58.5 536L59.5 536L59.5 489L58.5 489Z" fill="white"/>
<rect x="1.5" y="229.5" width="115" height="54" fill="black" stroke="white"/>
<path d="M27.0576 252.14C29.4096 252.14 31.1456 250.712 31.1456 248.64V248.416H30.0536V248.584C30.0536 250.054 28.7516 251.076 27.0576 251.076C25.1256 251.076 23.5996 249.648 23.5996 247.408C23.5996 245.154 25.0556 243.712 27.0576 243.712C28.7376 243.712 30.0116 244.762 30.0116 246.316V246.568H31.0896C31.1036 246.386 31.1036 246.26 31.1036 246.232C31.1036 244.104 29.3956 242.648 27.0576 242.648C24.3276 242.648 22.4236 244.51 22.4236 247.408C22.4236 250.292 24.3836 252.14 27.0576 252.14ZM32.9592 252H34.0792V248.738C34.0792 246.988 35.1012 245.98 36.6832 245.98C38.1672 245.98 38.8392 246.736 38.8392 247.912V252H39.9592V247.674C39.9592 246.022 38.8812 244.972 37.0612 244.972C35.4092 244.972 34.4432 245.756 34.0652 246.96H34.0512C34.0512 246.708 34.0792 245.882 34.0792 245.504V242.298H32.9592V252ZM45.0643 252.112C47.2063 252.112 48.5643 250.726 48.5643 248.556C48.5643 246.372 47.2063 244.972 45.0643 244.972C42.9223 244.972 41.5643 246.372 41.5643 248.556C41.5643 250.726 42.9223 252.112 45.0643 252.112ZM45.0643 251.104C43.6083 251.104 42.6843 250.11 42.6843 248.556C42.6843 246.988 43.6083 245.98 45.0643 245.98C46.5203 245.98 47.4443 246.988 47.4443 248.556C47.4443 250.11 46.5203 251.104 45.0643 251.104ZM53.4588 252.112C55.6008 252.112 56.9588 250.726 56.9588 248.556C56.9588 246.372 55.6008 244.972 53.4588 244.972C51.3168 244.972 49.9588 246.372 49.9588 248.556C49.9588 250.726 51.3168 252.112 53.4588 252.112ZM53.4588 251.104C52.0028 251.104 51.0788 250.11 51.0788 248.556C51.0788 246.988 52.0028 245.98 53.4588 245.98C54.9148 245.98 55.8388 246.988 55.8388 248.556C55.8388 250.11 54.9148 251.104 53.4588 251.104ZM61.3096 252.112C63.4096 252.112 64.5296 251.3 64.5296 249.942C64.5296 249.424 64.3056 248.892 63.8436 248.626C63.3676 248.36 62.8356 248.262 61.7576 248.15C60.8476 248.052 60.1616 247.968 59.8256 247.828C59.4196 247.66 59.3776 247.324 59.3776 247.044C59.3776 246.358 60.1476 245.924 61.3376 245.924C62.5696 245.924 63.1856 246.4 63.1996 247.436H64.2356C64.2356 245.882 63.3676 244.972 61.2956 244.972C59.4476 244.972 58.2576 245.812 58.2576 247.114C58.2576 247.618 58.4536 248.122 58.8316 248.402C59.2516 248.71 59.9376 248.85 61.0716 248.948C61.9256 249.032 62.6536 249.116 62.9756 249.27C63.3256 249.438 63.4096 249.704 63.4096 249.984C63.4096 250.726 62.7236 251.16 61.2956 251.16C59.8536 251.16 59.2936 250.614 59.2936 249.69H58.2576C58.2576 251.02 58.9856 252.112 61.3096 252.112ZM72.4655 248.248C72.4655 246.19 71.3035 244.972 69.3295 244.972C67.2575 244.972 65.9275 246.386 65.9275 248.598C65.9275 250.74 67.2715 252.112 69.3575 252.112C71.1775 252.112 72.3955 251.16 72.4655 249.662H71.4295C71.3315 250.572 70.5335 251.16 69.3715 251.16C68.0135 251.16 67.1175 250.236 67.0475 248.766H72.4655V248.248ZM71.4295 247.954H67.0895C67.2995 246.638 68.1255 245.924 69.3575 245.924C70.6735 245.924 71.4295 246.652 71.4295 247.87V247.954ZM77.7415 252H78.8615V246.064H81.4375V245.084H78.8615V244.398C78.8615 243.516 79.3655 243.026 80.2475 243.026C80.7235 243.026 81.0735 243.11 81.3255 243.194V242.2C81.0735 242.116 80.6395 242.018 80.1075 242.018C78.6655 242.018 77.7415 242.886 77.7415 244.398V245.084H76.5795V246.064H77.7415V252ZM82.8935 244.202H84.0975V242.788H82.8935V244.202ZM82.9355 252H84.0555V245.084H82.9355V252ZM86.1564 252H87.2764V242.298H86.1564V252ZM95.571 248.248C95.571 246.19 94.409 244.972 92.435 244.972C90.363 244.972 89.033 246.386 89.033 248.598C89.033 250.74 90.377 252.112 92.463 252.112C94.283 252.112 95.501 251.16 95.571 249.662H94.535C94.437 250.572 93.639 251.16 92.477 251.16C91.119 251.16 90.223 250.236 90.153 248.766H95.571V248.248ZM94.535 247.954H90.195C90.405 246.638 91.231 245.924 92.463 245.924C93.779 245.924 94.535 246.652 94.535 247.87V247.954ZM38.5049 273.112C40.6049 273.112 41.7249 272.3 41.7249 270.942C41.7249 270.424 41.5009 269.892 41.0389 269.626C40.5629 269.36 40.0309 269.262 38.9529 269.15C38.0429 269.052 37.3569 268.968 37.0209 268.828C36.6149 268.66 36.5729 268.324 36.5729 268.044C36.5729 267.358 37.3429 266.924 38.5329 266.924C39.7649 266.924 40.3809 267.4 40.3949 268.436H41.4309C41.4309 266.882 40.5629 265.972 38.4909 265.972C36.6429 265.972 35.4529 266.812 35.4529 268.114C35.4529 268.618 35.6489 269.122 36.0269 269.402C36.4469 269.71 37.1329 269.85 38.2669 269.948C39.1209 270.032 39.8489 270.116 40.1709 270.27C40.5209 270.438 40.6049 270.704 40.6049 270.984C40.6049 271.726 39.9189 272.16 38.4909 272.16C37.0489 272.16 36.4889 271.614 36.4889 270.69H35.4529C35.4529 272.02 36.1809 273.112 38.5049 273.112ZM46.6229 273.112C48.7649 273.112 50.1229 271.726 50.1229 269.556C50.1229 267.372 48.7649 265.972 46.6229 265.972C44.4809 265.972 43.1229 267.372 43.1229 269.556C43.1229 271.726 44.4809 273.112 46.6229 273.112ZM46.6229 272.104C45.1669 272.104 44.2429 271.11 44.2429 269.556C44.2429 267.988 45.1669 266.98 46.6229 266.98C48.0789 266.98 49.0029 267.988 49.0029 269.556C49.0029 271.11 48.0789 272.104 46.6229 272.104ZM54.6394 273.112C56.3614 273.112 57.3414 272.272 57.6354 270.97H57.6494C57.6494 271.67 57.6214 272.538 57.5934 273H58.7134V266.084H57.5934V269.206C57.5934 271.026 56.5574 272.104 54.9474 272.104C53.6314 272.104 52.8474 271.348 52.8474 270.158V266.084H51.7274V270.354C51.7274 272.034 52.8334 273.112 54.6394 273.112ZM60.6704 273H61.7904V269.934C61.7904 268.212 62.6164 266.98 64.0304 266.98C65.1644 266.98 65.6404 267.638 65.6404 268.912C65.6404 269.346 65.6124 269.696 65.5844 269.906H66.6064C66.6344 269.654 66.6764 269.15 66.6764 268.674C66.6764 267.008 65.8504 265.972 64.2964 265.972C62.8124 265.972 62.0984 266.882 61.7764 268.086H61.7624L61.7904 266.084H60.6704V273ZM71.378 273.112C73.296 273.112 74.528 271.992 74.528 270.256H73.492C73.478 271.39 72.666 272.104 71.406 272.104C70.062 272.104 69.194 271.11 69.194 269.542C69.194 267.974 70.09 266.98 71.476 266.98C72.68 266.98 73.45 267.708 73.464 268.856H74.5C74.5 267.092 73.31 265.972 71.462 265.972C69.39 265.972 68.074 267.358 68.074 269.542C68.074 271.726 69.362 273.112 71.378 273.112ZM82.5417 269.248C82.5417 267.19 81.3797 265.972 79.4057 265.972C77.3337 265.972 76.0037 267.386 76.0037 269.598C76.0037 271.74 77.3477 273.112 79.4337 273.112C81.2537 273.112 82.4717 272.16 82.5417 270.662H81.5057C81.4077 271.572 80.6097 272.16 79.4477 272.16C78.0897 272.16 77.1937 271.236 77.1237 269.766H82.5417V269.248ZM81.5057 268.954H77.1657C77.3757 267.638 78.2017 266.924 79.4337 266.924C80.7497 266.924 81.5057 267.652 81.5057 268.87V268.954Z" fill="white"/>
<rect x="1.5" y="434.5" width="115" height="54" fill="black" stroke="white"/>
<path d="M20.4199 457.14C22.7719 457.14 24.5079 455.712 24.5079 453.64V453.416H23.4159V453.584C23.4159 455.054 22.1139 456.076 20.4199 456.076C18.4879 456.076 16.9619 454.648 16.9619 452.408C16.9619 450.154 18.4179 448.712 20.4199 448.712C22.0999 448.712 23.3739 449.762 23.3739 451.316V451.568H24.4519C24.4659 451.386 24.4659 451.26 24.4659 451.232C24.4659 449.104 22.7579 447.648 20.4199 447.648C17.6899 447.648 15.7859 449.51 15.7859 452.408C15.7859 455.292 17.7459 457.14 20.4199 457.14ZM26.3215 457H27.4415V447.298H26.3215V457ZM29.506 449.202H30.71V447.788H29.506V449.202ZM29.548 457H30.668V450.084H29.548V457ZM35.7286 457.112C37.6466 457.112 38.8786 455.992 38.8786 454.256H37.8426C37.8286 455.39 37.0166 456.104 35.7566 456.104C34.4126 456.104 33.5446 455.11 33.5446 453.542C33.5446 451.974 34.4406 450.98 35.8266 450.98C37.0306 450.98 37.8006 451.708 37.8146 452.856H38.8506C38.8506 451.092 37.6606 449.972 35.8126 449.972C33.7406 449.972 32.4246 451.358 32.4246 453.542C32.4246 455.726 33.7126 457.112 35.7286 457.112ZM40.7043 457H41.8243V455.18L43.4063 453.808L46.3463 457H47.9423L44.2463 453.094L47.7463 450.084H46.1783L41.8383 453.948H41.8243V447.298H40.7043V457ZM53.8741 447.704C52.7961 447.844 52.3341 448.516 52.3341 449.944V451.134H53.5381V449.538H53.0341V449.51C53.0481 448.796 53.2721 448.432 53.8741 448.348V447.704ZM56.1561 447.704C55.0781 447.844 54.6161 448.516 54.6161 449.944V451.134H55.8201V449.538H55.3161V449.51C55.3301 448.796 55.5541 448.432 56.1561 448.348V447.704ZM60.8122 457.112C62.5342 457.112 63.5142 456.272 63.8082 454.97H63.8222C63.8222 455.67 63.7942 456.538 63.7662 457H64.8862V450.084H63.7662V453.206C63.7662 455.026 62.7302 456.104 61.1202 456.104C59.8042 456.104 59.0202 455.348 59.0202 454.158V450.084H57.9002V454.354C57.9002 456.034 59.0062 457.112 60.8122 457.112ZM66.9133 459.772H68.0333V456.986C68.0333 456.664 68.0053 455.936 67.9913 455.474H68.0053C68.2993 456.412 69.2793 457.112 70.7493 457.112C72.7793 457.112 74.0253 455.67 74.0253 453.43C74.0253 451.316 72.7933 449.972 70.7773 449.972C69.2793 449.972 68.2993 450.714 68.0193 451.862H68.0053L68.0333 450.084H66.9133V459.772ZM70.5953 456.104C69.0273 456.104 68.0333 455.264 68.0333 453.948V453.528C68.0613 451.974 69.0553 450.98 70.5673 450.98C72.0233 450.98 72.9053 451.946 72.9053 453.444C72.9053 455.068 72.0093 456.104 70.5953 456.104ZM75.7727 457H76.8927V447.298H75.7727V457ZM82.1492 457.112C84.2912 457.112 85.6492 455.726 85.6492 453.556C85.6492 451.372 84.2912 449.972 82.1492 449.972C80.0072 449.972 78.6492 451.372 78.6492 453.556C78.6492 455.726 80.0072 457.112 82.1492 457.112ZM82.1492 456.104C80.6932 456.104 79.7692 455.11 79.7692 453.556C79.7692 451.988 80.6932 450.98 82.1492 450.98C83.6052 450.98 84.5292 451.988 84.5292 453.556C84.5292 455.11 83.6052 456.104 82.1492 456.104ZM89.2503 457.112C90.9723 457.112 91.8403 456.426 92.0783 455.362H92.0923C92.0783 456.034 92.0503 456.678 92.0363 457H93.1563V452.786C93.1563 450.98 91.9803 449.972 89.9503 449.972C88.0743 449.972 86.8983 450.798 86.8983 452.17C86.8983 452.296 86.9123 452.492 86.9263 452.59H87.9623C87.9483 452.478 87.9483 452.38 87.9483 452.338C87.9483 451.4 88.6483 450.924 89.9223 450.924C91.3363 450.924 92.0363 451.498 92.0363 452.688V453.192H89.2223C87.3743 453.192 86.6883 454.032 86.6883 455.012C86.6883 456.314 87.6823 457.112 89.2503 457.112ZM89.4743 456.16C88.3823 456.16 87.7383 455.712 87.7383 455.012C87.7383 454.34 88.1863 454.004 89.3203 454.004H92.0363V454.102C92.0363 455.362 91.0423 456.16 89.4743 456.16ZM98.0584 457.112C99.5984 457.112 100.522 456.342 100.788 455.152H100.816C100.802 455.768 100.788 456.384 100.746 457H101.866V447.298H100.746V451.47H100.732C100.48 450.56 99.5984 449.972 98.1564 449.972C96.0564 449.972 94.7684 451.442 94.7684 453.5C94.7684 455.656 96.0564 457.112 98.0584 457.112ZM98.2404 456.104C96.8124 456.104 95.8884 455.04 95.8884 453.5C95.8884 452.058 96.8124 450.98 98.2544 450.98C99.7804 450.98 100.746 451.876 100.746 453.276V453.626C100.746 455.138 99.7664 456.104 98.2404 456.104ZM47.7727 478H48.8927V472.064H51.4687V471.084H48.8927V470.398C48.8927 469.516 49.3967 469.026 50.2787 469.026C50.7547 469.026 51.1047 469.11 51.3567 469.194V468.2C51.1047 468.116 50.6707 468.018 50.1387 468.018C48.6967 468.018 47.7727 468.886 47.7727 470.398V471.084H46.6107V472.064H47.7727V478ZM52.9247 470.202H54.1287V468.788H52.9247V470.202ZM52.9667 478H54.0867V471.084H52.9667V478ZM56.1877 478H57.3077V468.298H56.1877V478ZM65.6023 474.248C65.6023 472.19 64.4403 470.972 62.4663 470.972C60.3943 470.972 59.0643 472.386 59.0643 474.598C59.0643 476.74 60.4083 478.112 62.4943 478.112C64.3143 478.112 65.5323 477.16 65.6023 475.662H64.5663C64.4683 476.572 63.6703 477.16 62.5083 477.16C61.1503 477.16 60.2543 476.236 60.1843 474.766H65.6023V474.248ZM64.5663 473.954H60.2263C60.4363 472.638 61.2623 471.924 62.4943 471.924C63.8103 471.924 64.5663 472.652 64.5663 473.87V473.954ZM66.9152 472.218C67.9932 472.078 68.4552 471.406 68.4552 469.978V468.788H67.2512V470.384H67.7552V470.412C67.7412 471.126 67.5172 471.49 66.9152 471.574V472.218ZM69.1972 472.218C70.2752 472.078 70.7372 471.406 70.7372 469.978V468.788H69.5332V470.384H70.0372V470.412C70.0232 471.126 69.7992 471.49 69.1972 471.574V472.218Z" fill="white"/>
<rect x="1.5" y="332.5" width="115" height="54" fill="black" stroke="white"/>
<path d="M31.2137 362.14C34.2237 362.14 35.0917 360.754 35.0917 359.354C35.0917 358.514 34.7137 357.87 34.0977 357.562C33.4957 357.254 32.5297 357.1 31.6057 356.974C30.8077 356.862 29.7017 356.694 29.2537 356.47C28.8617 356.274 28.6377 355.924 28.6377 355.336C28.6377 354.328 29.7017 353.656 31.1997 353.656C32.7817 353.656 33.6777 354.356 33.6777 355.966H34.7697C34.7697 353.838 33.7477 352.648 31.1717 352.648C28.9737 352.648 27.4617 353.796 27.4617 355.434C27.4617 356.302 27.8397 356.918 28.3717 357.24C28.8757 357.548 29.8837 357.772 30.8357 357.884C31.6337 357.996 32.6837 358.108 33.1877 358.318C33.6637 358.514 33.9157 358.836 33.9157 359.424C33.9157 360.306 33.3277 361.132 31.2137 361.132C29.2537 361.132 28.5817 360.194 28.5817 358.864H27.4897C27.4897 360.53 28.2597 362.14 31.2137 362.14ZM43.0232 358.248C43.0232 356.19 41.8612 354.972 39.8872 354.972C37.8152 354.972 36.4852 356.386 36.4852 358.598C36.4852 360.74 37.8292 362.112 39.9152 362.112C41.7352 362.112 42.9532 361.16 43.0232 359.662H41.9872C41.8892 360.572 41.0912 361.16 39.9292 361.16C38.5712 361.16 37.6752 360.236 37.6052 358.766H43.0232V358.248ZM41.9872 357.954H37.6472C37.8572 356.638 38.6832 355.924 39.9152 355.924C41.2312 355.924 41.9872 356.652 41.9872 357.87V357.954ZM44.7785 362H45.8985V352.298H44.7785V362ZM54.1931 358.248C54.1931 356.19 53.0311 354.972 51.0571 354.972C48.9851 354.972 47.6551 356.386 47.6551 358.598C47.6551 360.74 48.9991 362.112 51.0851 362.112C52.9051 362.112 54.1231 361.16 54.1931 359.662H53.1571C53.0591 360.572 52.2611 361.16 51.0991 361.16C49.7411 361.16 48.8451 360.236 48.7751 358.766H54.1931V358.248ZM53.1571 357.954H48.8171C49.0271 356.638 49.8531 355.924 51.0851 355.924C52.4011 355.924 53.1571 356.652 53.1571 357.87V357.954ZM58.9024 362.112C60.8204 362.112 62.0524 360.992 62.0524 359.256H61.0164C61.0024 360.39 60.1904 361.104 58.9304 361.104C57.5864 361.104 56.7184 360.11 56.7184 358.542C56.7184 356.974 57.6144 355.98 59.0004 355.98C60.2044 355.98 60.9744 356.708 60.9884 357.856H62.0244C62.0244 356.092 60.8344 354.972 58.9864 354.972C56.9144 354.972 55.5984 356.358 55.5984 358.542C55.5984 360.726 56.8864 362.112 58.9024 362.112ZM66.3607 362.056C66.9207 362.056 67.3267 361.972 67.5367 361.888V360.936C67.3827 360.992 66.9347 361.076 66.4587 361.076C65.4227 361.076 65.0867 360.446 65.0867 359.396V356.064H67.5927V355.084H65.0867V353.516H64.1347L64.0787 354.608C64.0507 354.972 63.9667 355.084 63.7427 355.084H62.8187V356.064H63.9667V359.466C63.9667 360.992 64.6807 362.056 66.3607 362.056ZM72.7034 362H73.8234V356.064H76.3994V355.084H73.8234V354.398C73.8234 353.516 74.3274 353.026 75.2094 353.026C75.6854 353.026 76.0354 353.11 76.2874 353.194V352.2C76.0354 352.116 75.6014 352.018 75.0694 352.018C73.6274 352.018 72.7034 352.886 72.7034 354.398V355.084H71.5414V356.064H72.7034V362ZM77.8554 354.202H79.0594V352.788H77.8554V354.202ZM77.8974 362H79.0174V355.084H77.8974V362ZM81.1184 362H82.2384V352.298H81.1184V362ZM90.5329 358.248C90.5329 356.19 89.3709 354.972 87.3969 354.972C85.3249 354.972 83.9949 356.386 83.9949 358.598C83.9949 360.74 85.3389 362.112 87.4249 362.112C89.2449 362.112 90.4629 361.16 90.5329 359.662H89.4969C89.3989 360.572 88.6009 361.16 87.4389 361.16C86.0809 361.16 85.1849 360.236 85.1149 358.766H90.5329V358.248ZM89.4969 357.954H85.1569C85.3669 356.638 86.1929 355.924 87.4249 355.924C88.7409 355.924 89.4969 356.652 89.4969 357.87V357.954Z" fill="white"/>
<path d="M117.5 576C117.5 586.832 111.079 596.695 100.584 603.872C90.0905 611.046 75.5668 615.5 59.5 615.5C43.4332 615.5 28.9095 611.046 18.4165 603.872C7.92102 596.695 1.5 586.832 1.5 576C1.5 565.168 7.92102 555.305 18.4165 548.128C28.9095 540.954 43.4332 536.5 59.5 536.5C75.5668 536.5 90.0905 540.954 100.584 548.128C111.079 555.305 117.5 565.168 117.5 576Z" fill="black" stroke="white"/>
<path d="M28.9638 570H30.1398V566.962H32.8558C34.9137 566.962 36.1598 565.856 36.1598 563.896C36.1598 561.978 34.8578 560.788 32.6318 560.788H28.9638V570ZM30.1398 566.066V561.852H32.5898C34.1438 561.852 35.0118 562.594 35.0118 563.966C35.0118 565.366 34.1718 566.066 32.7578 566.066H30.1398ZM40.1018 570.112C41.8238 570.112 42.6918 569.426 42.9298 568.362H42.9438C42.9298 569.034 42.9018 569.678 42.8878 570H44.0078V565.786C44.0078 563.98 42.8318 562.972 40.8018 562.972C38.9258 562.972 37.7498 563.798 37.7498 565.17C37.7498 565.296 37.7638 565.492 37.7778 565.59H38.8138C38.7998 565.478 38.7998 565.38 38.7998 565.338C38.7998 564.4 39.4998 563.924 40.7738 563.924C42.1878 563.924 42.8878 564.498 42.8878 565.688V566.192H40.0738C38.2258 566.192 37.5398 567.032 37.5398 568.012C37.5398 569.314 38.5338 570.112 40.1018 570.112ZM40.3258 569.16C39.2338 569.16 38.5898 568.712 38.5898 568.012C38.5898 567.34 39.0378 567.004 40.1718 567.004H42.8878V567.102C42.8878 568.362 41.8938 569.16 40.3258 569.16ZM50.5479 569.048H48.3079C47.7199 569.048 47.4259 568.754 47.4259 568.292C47.4259 568.026 47.5099 567.816 47.6219 567.704C47.9999 567.83 48.4199 567.9 48.8959 567.9C50.7019 567.9 51.8499 566.934 51.8499 565.436C51.8499 564.876 51.6959 564.4 51.4019 564.008C51.2899 563.728 51.2199 563.462 51.2199 563.252C51.2199 562.846 51.4719 562.636 51.9339 562.636C52.1579 562.636 52.3259 562.678 52.4239 562.72V561.824C52.2979 561.782 52.0879 561.74 51.7939 561.74C51.0099 561.74 50.5199 562.104 50.5199 562.664C50.5199 562.972 50.6319 563.238 50.7859 563.434V563.448C50.2959 563.14 49.6519 562.972 48.8959 562.972C47.1039 562.972 45.9559 563.938 45.9559 565.436C45.9559 566.276 46.3199 566.962 46.9639 567.382V567.41C46.6979 567.564 46.4739 567.97 46.4739 568.488C46.4739 568.964 46.6839 569.37 47.0339 569.636V569.65C46.1659 569.65 45.6199 570.224 45.6199 570.91C45.6199 572.226 46.9779 572.968 49.2599 572.968C51.4439 572.968 52.7459 572.086 52.7459 570.714C52.7459 569.664 51.9479 569.048 50.5479 569.048ZM48.8959 563.924C50.0299 563.924 50.7579 564.512 50.7579 565.436C50.7579 566.36 50.0299 566.948 48.8959 566.948C47.7619 566.948 47.0479 566.36 47.0479 565.436C47.0479 564.512 47.7619 563.924 48.8959 563.924ZM49.2459 572.016C47.7199 572.016 46.7399 571.652 46.7399 570.882C46.7399 570.252 47.3559 570 48.3219 570H50.3799C51.2199 570 51.6259 570.28 51.6259 570.826C51.6259 571.484 51.0239 572.016 49.2459 572.016ZM60.197 566.248C60.197 564.19 59.035 562.972 57.061 562.972C54.989 562.972 53.659 564.386 53.659 566.598C53.659 568.74 55.003 570.112 57.089 570.112C58.909 570.112 60.127 569.16 60.197 567.662H59.161C59.063 568.572 58.265 569.16 57.103 569.16C55.745 569.16 54.849 568.236 54.779 566.766H60.197V566.248ZM59.161 565.954H54.821C55.031 564.638 55.857 563.924 57.089 563.924C58.405 563.924 59.161 564.652 59.161 565.87V565.954ZM67.8529 570.056C68.4129 570.056 68.8189 569.972 69.0289 569.888V568.936C68.8749 568.992 68.4269 569.076 67.9509 569.076C66.9149 569.076 66.5789 568.446 66.5789 567.396V564.064H69.0849V563.084H66.5789V561.516H65.6269L65.5709 562.608C65.5429 562.972 65.4589 563.084 65.2349 563.084H64.3109V564.064H65.4589V567.466C65.4589 568.992 66.1729 570.056 67.8529 570.056ZM70.675 570H71.795V566.738C71.795 564.988 72.817 563.98 74.399 563.98C75.883 563.98 76.555 564.736 76.555 565.912V570H77.675V565.674C77.675 564.022 76.597 562.972 74.777 562.972C73.125 562.972 72.159 563.756 71.781 564.96H71.767C71.767 564.708 71.795 563.882 71.795 563.504V560.298H70.675V570ZM81.8421 570.112C83.5641 570.112 84.4321 569.426 84.6701 568.362H84.6841C84.6701 569.034 84.6421 569.678 84.6281 570H85.7481V565.786C85.7481 563.98 84.5721 562.972 82.5421 562.972C80.6661 562.972 79.4901 563.798 79.4901 565.17C79.4901 565.296 79.5041 565.492 79.5181 565.59H80.5541C80.5401 565.478 80.5401 565.38 80.5401 565.338C80.5401 564.4 81.2401 563.924 82.5141 563.924C83.9281 563.924 84.6281 564.498 84.6281 565.688V566.192H81.8141C79.9661 566.192 79.2801 567.032 79.2801 568.012C79.2801 569.314 80.2741 570.112 81.8421 570.112ZM82.0661 569.16C80.9741 569.16 80.3301 568.712 80.3301 568.012C80.3301 567.34 80.7781 567.004 81.9121 567.004H84.6281V567.102C84.6281 568.362 83.6341 569.16 82.0661 569.16ZM90.3842 570.056C90.9442 570.056 91.3502 569.972 91.5602 569.888V568.936C91.4062 568.992 90.9582 569.076 90.4822 569.076C89.4462 569.076 89.1102 568.446 89.1102 567.396V564.064H91.6162V563.084H89.1102V561.516H88.1582L88.1022 562.608C88.0742 562.972 87.9902 563.084 87.7662 563.084H86.8422V564.064H87.9902V567.466C87.9902 568.992 88.7042 570.056 90.3842 570.056ZM22.5398 591.112C24.2618 591.112 25.2418 590.272 25.5358 588.97H25.5498C25.5498 589.67 25.5218 590.538 25.4938 591H26.6138V584.084H25.4938V587.206C25.4938 589.026 24.4578 590.104 22.8478 590.104C21.5318 590.104 20.7478 589.348 20.7478 588.158V584.084H19.6278V588.354C19.6278 590.034 20.7338 591.112 22.5398 591.112ZM31.3428 591.112C33.4428 591.112 34.5628 590.3 34.5628 588.942C34.5628 588.424 34.3388 587.892 33.8768 587.626C33.4008 587.36 32.8688 587.262 31.7908 587.15C30.8808 587.052 30.1948 586.968 29.8588 586.828C29.4528 586.66 29.4108 586.324 29.4108 586.044C29.4108 585.358 30.1808 584.924 31.3708 584.924C32.6028 584.924 33.2188 585.4 33.2328 586.436H34.2688C34.2688 584.882 33.4008 583.972 31.3288 583.972C29.4808 583.972 28.2908 584.812 28.2908 586.114C28.2908 586.618 28.4868 587.122 28.8648 587.402C29.2848 587.71 29.9708 587.85 31.1048 587.948C31.9588 588.032 32.6868 588.116 33.0088 588.27C33.3588 588.438 33.4428 588.704 33.4428 588.984C33.4428 589.726 32.7568 590.16 31.3288 590.16C29.8868 590.16 29.3268 589.614 29.3268 588.69H28.2908C28.2908 590.02 29.0188 591.112 31.3428 591.112ZM42.4987 587.248C42.4987 585.19 41.3367 583.972 39.3627 583.972C37.2907 583.972 35.9607 585.386 35.9607 587.598C35.9607 589.74 37.3047 591.112 39.3907 591.112C41.2107 591.112 42.4287 590.16 42.4987 588.662H41.4627C41.3647 589.572 40.5667 590.16 39.4047 590.16C38.0467 590.16 37.1507 589.236 37.0807 587.766H42.4987V587.248ZM41.4627 586.954H37.1227C37.3327 585.638 38.1587 584.924 39.3907 584.924C40.7067 584.924 41.4627 585.652 41.4627 586.87V586.954ZM44.1841 591H45.3041V587.934C45.3041 586.212 46.1301 584.98 47.5441 584.98C48.6781 584.98 49.1541 585.638 49.1541 586.912C49.1541 587.346 49.1261 587.696 49.0981 587.906H50.1201C50.1481 587.654 50.1901 587.15 50.1901 586.674C50.1901 585.008 49.3641 583.972 47.8101 583.972C46.3261 583.972 45.6121 584.882 45.2901 586.086H45.2761L45.3041 584.084H44.1841V591ZM56.5083 591H57.8383L59.6863 585.484H59.7283L61.5203 591H62.8923L64.9503 584.084H63.8723L62.2203 589.824H62.1923L60.3303 584.084H59.2243L57.2923 589.824H57.2643L55.6683 584.084H54.4503L56.5083 591ZM68.2864 591.112C70.0084 591.112 70.8764 590.426 71.1144 589.362H71.1284C71.1144 590.034 71.0864 590.678 71.0724 591H72.1924V586.786C72.1924 584.98 71.0164 583.972 68.9864 583.972C67.1104 583.972 65.9344 584.798 65.9344 586.17C65.9344 586.296 65.9484 586.492 65.9624 586.59H66.9984C66.9844 586.478 66.9844 586.38 66.9844 586.338C66.9844 585.4 67.6844 584.924 68.9584 584.924C70.3724 584.924 71.0724 585.498 71.0724 586.688V587.192H68.2584C66.4104 587.192 65.7244 588.032 65.7244 589.012C65.7244 590.314 66.7184 591.112 68.2864 591.112ZM68.5104 590.16C67.4184 590.16 66.7744 589.712 66.7744 589.012C66.7744 588.34 67.2224 588.004 68.3564 588.004H71.0724V588.102C71.0724 589.362 70.0784 590.16 68.5104 590.16ZM76.8565 591.112C78.9565 591.112 80.0765 590.3 80.0765 588.942C80.0765 588.424 79.8525 587.892 79.3905 587.626C78.9145 587.36 78.3825 587.262 77.3045 587.15C76.3945 587.052 75.7085 586.968 75.3725 586.828C74.9665 586.66 74.9245 586.324 74.9245 586.044C74.9245 585.358 75.6945 584.924 76.8845 584.924C78.1165 584.924 78.7325 585.4 78.7465 586.436H79.7825C79.7825 584.882 78.9145 583.972 76.8425 583.972C74.9945 583.972 73.8045 584.812 73.8045 586.114C73.8045 586.618 74.0005 587.122 74.3785 587.402C74.7985 587.71 75.4845 587.85 76.6185 587.948C77.4725 588.032 78.2005 588.116 78.5225 588.27C78.8725 588.438 78.9565 588.704 78.9565 588.984C78.9565 589.726 78.2705 590.16 76.8425 590.16C75.4005 590.16 74.8405 589.614 74.8405 588.69H73.8045C73.8045 590.02 74.5325 591.112 76.8565 591.112ZM88.201 591.112C90.343 591.112 91.701 589.726 91.701 587.556C91.701 585.372 90.343 583.972 88.201 583.972C86.059 583.972 84.701 585.372 84.701 587.556C84.701 589.726 86.059 591.112 88.201 591.112ZM88.201 590.104C86.745 590.104 85.821 589.11 85.821 587.556C85.821 585.988 86.745 584.98 88.201 584.98C89.657 584.98 90.581 585.988 90.581 587.556C90.581 589.11 89.657 590.104 88.201 590.104ZM93.3755 591H94.4955V587.598C94.4955 585.946 95.5175 584.98 97.0995 584.98C98.5835 584.98 99.2555 585.736 99.2555 586.912V591H100.376V586.674C100.376 585.022 99.2975 583.972 97.4775 583.972C95.8255 583.972 94.8595 584.742 94.4815 585.946H94.4675L94.4955 584.084H93.3755V591Z" fill="white"/>
<path d="M116.5 40C116.5 50.8324 110.079 60.6952 99.5835 67.8715C89.0905 75.0462 74.5668 79.5 58.5 79.5C42.4332 79.5 27.9095 75.0462 17.4165 67.8715C6.92102 60.6952 0.5 50.8324 0.5 40C0.5 29.1676 6.92102 19.3048 17.4165 12.1285C27.9095 4.95375 42.4332 0.5 58.5 0.5C74.5668 0.5 89.0905 4.95375 99.5835 12.1285C110.079 19.3048 116.5 29.1676 116.5 40Z" fill="black" stroke="white"/>
<path d="M58.6464 127.354C58.8417 127.549 59.1583 127.549 59.3536 127.354L62.5355 124.172C62.7308 123.976 62.7308 123.66 62.5355 123.464C62.3403 123.269 62.0237 123.269 61.8284 123.464L59 126.293L56.1716 123.464C55.9763 123.269 55.6597 123.269 55.4645 123.464C55.2692 123.66 55.2692 123.976 55.4645 124.172L58.6464 127.354ZM58.5 80L58.5 127L59.5 127L59.5 80L58.5 80Z" fill="white"/>
<rect x="1.5" y="127.5" width="115" height="54" fill="black" stroke="white"/>
<path d="M25.8388 34H27.2108L23.3188 24.788H21.9188L18.0268 34H19.2588L20.1688 31.76H24.9428L25.8388 34ZM20.5188 30.892L22.5628 25.866H22.5908L24.5928 30.892H20.5188ZM28.5415 34H29.6615V30.598C29.6615 28.946 30.6835 27.98 32.2655 27.98C33.7495 27.98 34.4215 28.736 34.4215 29.912V34H35.5415V29.674C35.5415 28.022 34.4635 26.972 32.6435 26.972C30.9915 26.972 30.0255 27.742 29.6475 28.946H29.6335L29.6615 27.084H28.5415V34ZM38.2621 36.912C39.5781 36.912 40.1101 36.268 40.9361 34.126L43.6801 27.084H42.5461L40.3201 32.866H40.2921L37.7721 27.084H36.4561L39.5641 34H39.8581C39.2141 35.568 38.8781 35.932 38.1221 35.932C37.7721 35.932 37.4361 35.848 37.2681 35.792V36.73C37.4641 36.814 37.8701 36.912 38.2621 36.912ZM48.299 36.772H49.419V33.986C49.419 33.664 49.391 32.936 49.377 32.474H49.391C49.685 33.412 50.665 34.112 52.135 34.112C54.165 34.112 55.411 32.67 55.411 30.43C55.411 28.316 54.179 26.972 52.163 26.972C50.665 26.972 49.685 27.714 49.405 28.862H49.391L49.419 27.084H48.299V36.772ZM51.981 33.104C50.413 33.104 49.419 32.264 49.419 30.948V30.528C49.447 28.974 50.441 27.98 51.953 27.98C53.409 27.98 54.291 28.946 54.291 30.444C54.291 32.068 53.395 33.104 51.981 33.104ZM59.0149 34.112C60.7369 34.112 61.6049 33.426 61.8429 32.362H61.8569C61.8429 33.034 61.8149 33.678 61.8009 34H62.9209V29.786C62.9209 27.98 61.7449 26.972 59.7149 26.972C57.8389 26.972 56.6629 27.798 56.6629 29.17C56.6629 29.296 56.6769 29.492 56.6909 29.59H57.7269C57.7129 29.478 57.7129 29.38 57.7129 29.338C57.7129 28.4 58.4129 27.924 59.6869 27.924C61.1009 27.924 61.8009 28.498 61.8009 29.688V30.192H58.9869C57.1389 30.192 56.4529 31.032 56.4529 32.012C56.4529 33.314 57.4469 34.112 59.0149 34.112ZM59.2389 33.16C58.1469 33.16 57.5029 32.712 57.5029 32.012C57.5029 31.34 57.9509 31.004 59.0849 31.004H61.8009V31.102C61.8009 32.362 60.8069 33.16 59.2389 33.16ZM69.461 33.048H67.221C66.633 33.048 66.339 32.754 66.339 32.292C66.339 32.026 66.423 31.816 66.535 31.704C66.913 31.83 67.333 31.9 67.809 31.9C69.615 31.9 70.763 30.934 70.763 29.436C70.763 28.876 70.609 28.4 70.315 28.008C70.203 27.728 70.133 27.462 70.133 27.252C70.133 26.846 70.385 26.636 70.847 26.636C71.071 26.636 71.239 26.678 71.337 26.72V25.824C71.211 25.782 71.001 25.74 70.707 25.74C69.923 25.74 69.433 26.104 69.433 26.664C69.433 26.972 69.545 27.238 69.699 27.434V27.448C69.209 27.14 68.565 26.972 67.809 26.972C66.017 26.972 64.869 27.938 64.869 29.436C64.869 30.276 65.233 30.962 65.877 31.382V31.41C65.611 31.564 65.387 31.97 65.387 32.488C65.387 32.964 65.597 33.37 65.947 33.636V33.65C65.079 33.65 64.533 34.224 64.533 34.91C64.533 36.226 65.891 36.968 68.173 36.968C70.357 36.968 71.659 36.086 71.659 34.714C71.659 33.664 70.861 33.048 69.461 33.048ZM67.809 27.924C68.943 27.924 69.671 28.512 69.671 29.436C69.671 30.36 68.943 30.948 67.809 30.948C66.675 30.948 65.961 30.36 65.961 29.436C65.961 28.512 66.675 27.924 67.809 27.924ZM68.159 36.016C66.633 36.016 65.653 35.652 65.653 34.882C65.653 34.252 66.269 34 67.235 34H69.293C70.133 34 70.539 34.28 70.539 34.826C70.539 35.484 69.937 36.016 68.159 36.016ZM79.1101 30.248C79.1101 28.19 77.9481 26.972 75.9741 26.972C73.9021 26.972 72.5721 28.386 72.5721 30.598C72.5721 32.74 73.9161 34.112 76.0021 34.112C77.8221 34.112 79.0401 33.16 79.1101 31.662H78.0741C77.9761 32.572 77.1781 33.16 76.0161 33.16C74.6581 33.16 73.7621 32.236 73.6921 30.766H79.1101V30.248ZM78.0741 29.954H73.7341C73.9441 28.638 74.7701 27.924 76.0021 27.924C77.3181 27.924 78.0741 28.652 78.0741 29.87V29.954ZM87.242 34.112C89.384 34.112 90.742 32.726 90.742 30.556C90.742 28.372 89.384 26.972 87.242 26.972C85.1 26.972 83.742 28.372 83.742 30.556C83.742 32.726 85.1 34.112 87.242 34.112ZM87.242 33.104C85.786 33.104 84.862 32.11 84.862 30.556C84.862 28.988 85.786 27.98 87.242 27.98C88.698 27.98 89.622 28.988 89.622 30.556C89.622 32.11 88.698 33.104 87.242 33.104ZM92.4165 34H93.5365V30.598C93.5365 28.946 94.5585 27.98 96.1405 27.98C97.6245 27.98 98.2965 28.736 98.2965 29.912V34H99.4165V29.674C99.4165 28.022 98.3385 26.972 96.5185 26.972C94.8665 26.972 93.9005 27.742 93.5225 28.946H93.5085L93.5365 27.084H92.4165V34ZM25.4607 55.112C27.0007 55.112 27.9247 54.342 28.1907 53.152H28.2187C28.2047 53.768 28.1907 54.384 28.1487 55H29.2687V45.298H28.1487V49.47H28.1347C27.8827 48.56 27.0007 47.972 25.5587 47.972C23.4587 47.972 22.1707 49.442 22.1707 51.5C22.1707 53.656 23.4587 55.112 25.4607 55.112ZM25.6427 54.104C24.2147 54.104 23.2907 53.04 23.2907 51.5C23.2907 50.058 24.2147 48.98 25.6567 48.98C27.1827 48.98 28.1487 49.876 28.1487 51.276V51.626C28.1487 53.138 27.1687 54.104 25.6427 54.104ZM33.5784 55.112C35.3004 55.112 36.1684 54.426 36.4064 53.362H36.4204C36.4064 54.034 36.3784 54.678 36.3644 55H37.4844V50.786C37.4844 48.98 36.3084 47.972 34.2784 47.972C32.4024 47.972 31.2264 48.798 31.2264 50.17C31.2264 50.296 31.2404 50.492 31.2544 50.59H32.2904C32.2764 50.478 32.2764 50.38 32.2764 50.338C32.2764 49.4 32.9764 48.924 34.2504 48.924C35.6644 48.924 36.3644 49.498 36.3644 50.688V51.192H33.5504C31.7024 51.192 31.0164 52.032 31.0164 53.012C31.0164 54.314 32.0104 55.112 33.5784 55.112ZM33.8024 54.16C32.7104 54.16 32.0664 53.712 32.0664 53.012C32.0664 52.34 32.5144 52.004 33.6484 52.004H36.3644V52.102C36.3644 53.362 35.3704 54.16 33.8024 54.16ZM42.1485 55.112C44.2485 55.112 45.3685 54.3 45.3685 52.942C45.3685 52.424 45.1445 51.892 44.6825 51.626C44.2065 51.36 43.6745 51.262 42.5965 51.15C41.6865 51.052 41.0005 50.968 40.6645 50.828C40.2585 50.66 40.2165 50.324 40.2165 50.044C40.2165 49.358 40.9865 48.924 42.1765 48.924C43.4085 48.924 44.0245 49.4 44.0385 50.436H45.0745C45.0745 48.882 44.2065 47.972 42.1345 47.972C40.2865 47.972 39.0965 48.812 39.0965 50.114C39.0965 50.618 39.2925 51.122 39.6705 51.402C40.0905 51.71 40.7765 51.85 41.9105 51.948C42.7645 52.032 43.4925 52.116 43.8145 52.27C44.1645 52.438 44.2485 52.704 44.2485 52.984C44.2485 53.726 43.5625 54.16 42.1345 54.16C40.6925 54.16 40.1325 53.614 40.1325 52.69H39.0965C39.0965 54.02 39.8245 55.112 42.1485 55.112ZM47.1164 55H48.2364V51.738C48.2364 49.988 49.2584 48.98 50.8404 48.98C52.3244 48.98 52.9964 49.736 52.9964 50.912V55H54.1164V50.674C54.1164 49.022 53.0384 47.972 51.2184 47.972C49.5664 47.972 48.6004 48.756 48.2224 49.96H48.2084C48.2084 49.708 48.2364 48.882 48.2364 48.504V45.298H47.1164V55ZM60.0055 55.112C61.9375 55.112 63.1835 53.67 63.1835 51.416C63.1835 49.316 61.9655 47.972 59.9775 47.972C58.4935 47.972 57.4855 48.686 57.1775 49.792H57.1635C57.1775 49.456 57.1915 48.896 57.1915 48.616V45.298H56.0715V55H57.1915C57.1635 54.636 57.1355 53.95 57.1355 53.404H57.1495C57.4435 54.44 58.4375 55.112 60.0055 55.112ZM59.7255 54.104C58.1855 54.104 57.1915 53.25 57.1915 51.92V51.556C57.1915 49.988 58.1995 48.98 59.7675 48.98C61.1955 48.98 62.0635 49.946 62.0635 51.444C62.0635 53.068 61.1535 54.104 59.7255 54.104ZM68.0809 55.112C70.2229 55.112 71.5809 53.726 71.5809 51.556C71.5809 49.372 70.2229 47.972 68.0809 47.972C65.9389 47.972 64.5809 49.372 64.5809 51.556C64.5809 53.726 65.9389 55.112 68.0809 55.112ZM68.0809 54.104C66.6249 54.104 65.7009 53.11 65.7009 51.556C65.7009 49.988 66.6249 48.98 68.0809 48.98C69.5369 48.98 70.4609 49.988 70.4609 51.556C70.4609 53.11 69.5369 54.104 68.0809 54.104ZM75.1819 55.112C76.9039 55.112 77.7719 54.426 78.0099 53.362H78.0239C78.0099 54.034 77.9819 54.678 77.9679 55H79.0879V50.786C79.0879 48.98 77.9119 47.972 75.8819 47.972C74.0059 47.972 72.8299 48.798 72.8299 50.17C72.8299 50.296 72.8439 50.492 72.8579 50.59H73.8939C73.8799 50.478 73.8799 50.38 73.8799 50.338C73.8799 49.4 74.5799 48.924 75.8539 48.924C77.2679 48.924 77.9679 49.498 77.9679 50.688V51.192H75.1539C73.3059 51.192 72.6199 52.032 72.6199 53.012C72.6199 54.314 73.6139 55.112 75.1819 55.112ZM75.4059 54.16C74.3139 54.16 73.6699 53.712 73.6699 53.012C73.6699 52.34 74.1179 52.004 75.2519 52.004H77.9679V52.102C77.9679 53.362 76.9739 54.16 75.4059 54.16ZM80.98 55H82.1V51.934C82.1 50.212 82.926 48.98 84.34 48.98C85.474 48.98 85.95 49.638 85.95 50.912C85.95 51.346 85.922 51.696 85.894 51.906H86.916C86.944 51.654 86.986 51.15 86.986 50.674C86.986 49.008 86.16 47.972 84.606 47.972C83.122 47.972 82.408 48.882 82.086 50.086H82.072L82.1 48.084H80.98V55ZM91.6736 55.112C93.2136 55.112 94.1376 54.342 94.4036 53.152H94.4316C94.4176 53.768 94.4036 54.384 94.3616 55H95.4816V45.298H94.3616V49.47H94.3476C94.0956 48.56 93.2136 47.972 91.7716 47.972C89.6716 47.972 88.3836 49.442 88.3836 51.5C88.3836 53.656 89.6716 55.112 91.6736 55.112ZM91.8556 54.104C90.4276 54.104 89.5036 53.04 89.5036 51.5C89.5036 50.058 90.4276 48.98 91.8696 48.98C93.3956 48.98 94.3616 49.876 94.3616 51.276V51.626C94.3616 53.138 93.3816 54.104 91.8556 54.104Z" fill="white"/>
<path d="M17.8086 150.14C20.1606 150.14 21.8966 148.712 21.8966 146.64V146.416H20.8046V146.584C20.8046 148.054 19.5026 149.076 17.8086 149.076C15.8766 149.076 14.3506 147.648 14.3506 145.408C14.3506 143.154 15.8066 141.712 17.8086 141.712C19.4886 141.712 20.7626 142.762 20.7626 144.316V144.568H21.8406C21.8546 144.386 21.8546 144.26 21.8546 144.232C21.8546 142.104 20.1466 140.648 17.8086 140.648C15.0786 140.648 13.1746 142.51 13.1746 145.408C13.1746 148.292 15.1346 150.14 17.8086 150.14ZM23.7102 150H24.8302V140.298H23.7102V150ZM26.8947 142.202H28.0987V140.788H26.8947V142.202ZM26.9367 150H28.0567V143.084H26.9367V150ZM33.1173 150.112C35.0353 150.112 36.2673 148.992 36.2673 147.256H35.2313C35.2173 148.39 34.4053 149.104 33.1453 149.104C31.8013 149.104 30.9333 148.11 30.9333 146.542C30.9333 144.974 31.8293 143.98 33.2153 143.98C34.4193 143.98 35.1893 144.708 35.2033 145.856H36.2393C36.2393 144.092 35.0493 142.972 33.2013 142.972C31.1293 142.972 29.8133 144.358 29.8133 146.542C29.8133 148.726 31.1013 150.112 33.1173 150.112ZM38.093 150H39.213V148.18L40.795 146.808L43.735 150H45.331L41.635 146.094L45.135 143.084H43.567L39.227 146.948H39.213V140.298H38.093V150ZM51.2628 140.704C50.1848 140.844 49.7228 141.516 49.7228 142.944V144.134H50.9268V142.538H50.4228V142.51C50.4368 141.796 50.6608 141.432 51.2628 141.348V140.704ZM53.5448 140.704C52.4668 140.844 52.0048 141.516 52.0048 142.944V144.134H53.2088V142.538H52.7048V142.51C52.7188 141.796 52.9428 141.432 53.5448 141.348V140.704ZM58.2009 150.112C59.9229 150.112 60.9029 149.272 61.1969 147.97H61.2109C61.2109 148.67 61.1829 149.538 61.1549 150H62.2749V143.084H61.1549V146.206C61.1549 148.026 60.1189 149.104 58.5089 149.104C57.1929 149.104 56.4089 148.348 56.4089 147.158V143.084H55.2889V147.354C55.2889 149.034 56.3949 150.112 58.2009 150.112ZM64.302 152.772H65.422V149.986C65.422 149.664 65.394 148.936 65.38 148.474H65.394C65.688 149.412 66.668 150.112 68.138 150.112C70.168 150.112 71.414 148.67 71.414 146.43C71.414 144.316 70.182 142.972 68.166 142.972C66.668 142.972 65.688 143.714 65.408 144.862H65.394L65.422 143.084H64.302V152.772ZM67.984 149.104C66.416 149.104 65.422 148.264 65.422 146.948V146.528C65.45 144.974 66.444 143.98 67.956 143.98C69.412 143.98 70.294 144.946 70.294 146.444C70.294 148.068 69.398 149.104 67.984 149.104ZM73.1613 150H74.2813V140.298H73.1613V150ZM79.5379 150.112C81.6799 150.112 83.0379 148.726 83.0379 146.556C83.0379 144.372 81.6799 142.972 79.5379 142.972C77.3959 142.972 76.0379 144.372 76.0379 146.556C76.0379 148.726 77.3959 150.112 79.5379 150.112ZM79.5379 149.104C78.0819 149.104 77.1579 148.11 77.1579 146.556C77.1579 144.988 78.0819 143.98 79.5379 143.98C80.9939 143.98 81.9179 144.988 81.9179 146.556C81.9179 148.11 80.9939 149.104 79.5379 149.104ZM86.639 150.112C88.361 150.112 89.229 149.426 89.467 148.362H89.481C89.467 149.034 89.439 149.678 89.425 150H90.545V145.786C90.545 143.98 89.369 142.972 87.339 142.972C85.463 142.972 84.287 143.798 84.287 145.17C84.287 145.296 84.301 145.492 84.315 145.59H85.351C85.337 145.478 85.337 145.38 85.337 145.338C85.337 144.4 86.037 143.924 87.311 143.924C88.725 143.924 89.425 144.498 89.425 145.688V146.192H86.611C84.763 146.192 84.077 147.032 84.077 148.012C84.077 149.314 85.071 150.112 86.639 150.112ZM86.863 149.16C85.771 149.16 85.127 148.712 85.127 148.012C85.127 147.34 85.575 147.004 86.709 147.004H89.425V147.102C89.425 148.362 88.431 149.16 86.863 149.16ZM95.447 150.112C96.987 150.112 97.911 149.342 98.177 148.152H98.205C98.191 148.768 98.177 149.384 98.135 150H99.255V140.298H98.135V144.47H98.121C97.869 143.56 96.987 142.972 95.545 142.972C93.445 142.972 92.157 144.442 92.157 146.5C92.157 148.656 93.445 150.112 95.447 150.112ZM95.629 149.104C94.201 149.104 93.277 148.04 93.277 146.5C93.277 145.058 94.201 143.98 95.643 143.98C97.169 143.98 98.135 144.876 98.135 146.276V146.626C98.135 148.138 97.155 149.104 95.629 149.104ZM100.869 144.218C101.947 144.078 102.409 143.406 102.409 141.978V140.788H101.205V142.384H101.709V142.412C101.695 143.126 101.471 143.49 100.869 143.574V144.218ZM103.151 144.218C104.229 144.078 104.691 143.406 104.691 141.978V140.788H103.487V142.384H103.991V142.412C103.977 143.126 103.753 143.49 103.151 143.574V144.218ZM41.111 171.112C43.043 171.112 44.289 169.67 44.289 167.416C44.289 165.316 43.071 163.972 41.083 163.972C39.599 163.972 38.591 164.686 38.283 165.792H38.269C38.283 165.456 38.297 164.896 38.297 164.616V161.298H37.177V171H38.297C38.269 170.636 38.241 169.95 38.241 169.404H38.255C38.549 170.44 39.543 171.112 41.111 171.112ZM40.831 170.104C39.291 170.104 38.297 169.25 38.297 167.92V167.556C38.297 165.988 39.305 164.98 40.873 164.98C42.301 164.98 43.169 165.946 43.169 167.444C43.169 169.068 42.259 170.104 40.831 170.104ZM48.8083 171.112C50.5303 171.112 51.5103 170.272 51.8043 168.97H51.8183C51.8183 169.67 51.7903 170.538 51.7623 171H52.8823V164.084H51.7623V167.206C51.7623 169.026 50.7263 170.104 49.1163 170.104C47.8003 170.104 47.0163 169.348 47.0163 168.158V164.084H45.8963V168.354C45.8963 170.034 47.0023 171.112 48.8083 171.112ZM57.5834 171.056C58.1434 171.056 58.5494 170.972 58.7594 170.888V169.936C58.6054 169.992 58.1574 170.076 57.6814 170.076C56.6454 170.076 56.3094 169.446 56.3094 168.396V165.064H58.8154V164.084H56.3094V162.516H55.3574L55.3014 163.608C55.2734 163.972 55.1894 164.084 54.9654 164.084H54.0414V165.064H55.1894V168.466C55.1894 169.992 55.9034 171.056 57.5834 171.056ZM63.0795 171.056C63.6395 171.056 64.0455 170.972 64.2555 170.888V169.936C64.1015 169.992 63.6535 170.076 63.1775 170.076C62.1415 170.076 61.8055 169.446 61.8055 168.396V165.064H64.3115V164.084H61.8055V162.516H60.8535L60.7975 163.608C60.7695 163.972 60.6855 164.084 60.4615 164.084H59.5375V165.064H60.6855V168.466C60.6855 169.992 61.3995 171.056 63.0795 171.056ZM68.7918 171.112C70.9338 171.112 72.2918 169.726 72.2918 167.556C72.2918 165.372 70.9338 163.972 68.7918 163.972C66.6498 163.972 65.2918 165.372 65.2918 167.556C65.2918 169.726 66.6498 171.112 68.7918 171.112ZM68.7918 170.104C67.3358 170.104 66.4118 169.11 66.4118 167.556C66.4118 165.988 67.3358 164.98 68.7918 164.98C70.2478 164.98 71.1718 165.988 71.1718 167.556C71.1718 169.11 70.2478 170.104 68.7918 170.104ZM73.9663 171H75.0863V167.598C75.0863 165.946 76.1083 164.98 77.6903 164.98C79.1743 164.98 79.8463 165.736 79.8463 166.912V171H80.9663V166.674C80.9663 165.022 79.8883 163.972 78.0683 163.972C76.4163 163.972 75.4503 164.742 75.0723 165.946H75.0583L75.0863 164.084H73.9663V171Z" fill="white"/>
</svg>
